%TF.GenerationSoftware,KiCad,Pcbnew,(6.0.7)*%
%TF.CreationDate,2022-08-25T16:15:28+03:00*%
%TF.ProjectId,guc_devresi_yetenek,6775635f-6465-4767-9265-73695f796574,rev?*%
%TF.SameCoordinates,Original*%
%TF.FileFunction,Soldermask,Bot*%
%TF.FilePolarity,Negative*%
%FSLAX46Y46*%
G04 Gerber Fmt 4.6, Leading zero omitted, Abs format (unit mm)*
G04 Created by KiCad (PCBNEW (6.0.7)) date 2022-08-25 16:15:28*
%MOMM*%
%LPD*%
G01*
G04 APERTURE LIST*
G04 Aperture macros list*
%AMRoundRect*
0 Rectangle with rounded corners*
0 $1 Rounding radius*
0 $2 $3 $4 $5 $6 $7 $8 $9 X,Y pos of 4 corners*
0 Add a 4 corners polygon primitive as box body*
4,1,4,$2,$3,$4,$5,$6,$7,$8,$9,$2,$3,0*
0 Add four circle primitives for the rounded corners*
1,1,$1+$1,$2,$3*
1,1,$1+$1,$4,$5*
1,1,$1+$1,$6,$7*
1,1,$1+$1,$8,$9*
0 Add four rect primitives between the rounded corners*
20,1,$1+$1,$2,$3,$4,$5,0*
20,1,$1+$1,$4,$5,$6,$7,0*
20,1,$1+$1,$6,$7,$8,$9,0*
20,1,$1+$1,$8,$9,$2,$3,0*%
G04 Aperture macros list end*
%ADD10RoundRect,0.625000X-0.625000X1.125000X-0.625000X-1.125000X0.625000X-1.125000X0.625000X1.125000X0*%
%ADD11C,2.000000*%
%ADD12C,1.600000*%
%ADD13R,6.500000X5.516000*%
%ADD14C,6.500000*%
%ADD15O,1.950000X3.900000*%
%ADD16C,2.400000*%
%ADD17C,3.000000*%
%ADD18R,3.000000X3.000000*%
%ADD19C,5.600000*%
%ADD20C,3.600000*%
G04 APERTURE END LIST*
D10*
%TO.C,U2*%
X110308000Y-34150000D03*
X92528000Y-34150000D03*
X110308000Y-73520000D03*
X92528000Y-73520000D03*
%TD*%
%TO.C,U1*%
X55808000Y-47900000D03*
X38028000Y-47900000D03*
X55808000Y-87270000D03*
X38028000Y-87270000D03*
%TD*%
D11*
%TO.C,RV6*%
X50750000Y-35750000D03*
X40750000Y-34250000D03*
%TD*%
%TO.C,RV5*%
X51000000Y-30000000D03*
X41000000Y-28500000D03*
%TD*%
%TO.C,RV4*%
X40750000Y-40250000D03*
X50750000Y-41750000D03*
%TD*%
D12*
%TO.C,RV3*%
X63250000Y-59500000D03*
X60750000Y-64500000D03*
%TD*%
%TO.C,RV2*%
X101250000Y-78000000D03*
X106250000Y-80500000D03*
%TD*%
D11*
%TO.C,RV1*%
X78000000Y-40250000D03*
X68000000Y-38750000D03*
%TD*%
D13*
%TO.C,J3*%
X52000000Y-21600000D03*
D14*
X59200000Y-21600000D03*
%TD*%
D13*
%TO.C,J2*%
X69400000Y-21600000D03*
D14*
X76600000Y-21600000D03*
%TD*%
D13*
%TO.C,J1*%
X86800000Y-21800000D03*
D14*
X94000000Y-21800000D03*
%TD*%
D15*
%TO.C,F2*%
X87635000Y-49155000D03*
X61092000Y-49337000D03*
%TD*%
D16*
%TO.C,F1*%
X77420000Y-32650000D03*
X77420000Y-29250000D03*
X67500000Y-32650000D03*
X67500000Y-29250000D03*
%TD*%
D17*
%TO.C,J5*%
X91540000Y-88000000D03*
D18*
X86460000Y-88000000D03*
%TD*%
D19*
%TO.C,H4*%
X109000000Y-97000000D03*
D20*
X109000000Y-97000000D03*
%TD*%
D18*
%TO.C,J7*%
X98460000Y-88000000D03*
D17*
X103540000Y-88000000D03*
%TD*%
D20*
%TO.C,H2*%
X40285000Y-95127000D03*
D19*
X40285000Y-95127000D03*
%TD*%
D15*
%TO.C,F3*%
X60865000Y-72595000D03*
X87408000Y-72413000D03*
%TD*%
D18*
%TO.C,J6*%
X62460000Y-88000000D03*
D17*
X67540000Y-88000000D03*
%TD*%
D18*
%TO.C,J4*%
X74160000Y-88127000D03*
D17*
X79240000Y-88127000D03*
%TD*%
D19*
%TO.C,H1*%
X108762800Y-21234400D03*
D20*
X108762800Y-21234400D03*
%TD*%
D19*
%TO.C,H3*%
X38023800Y-20345400D03*
D20*
X38023800Y-20345400D03*
%TD*%
M02*
