%TF.GenerationSoftware,KiCad,Pcbnew,(6.0.7)*%
%TF.CreationDate,2022-08-25T14:30:35+03:00*%
%TF.ProjectId,guc_devresi_yetenek,6775635f-6465-4767-9265-73695f796574,rev?*%
%TF.SameCoordinates,Original*%
%TF.FileFunction,Soldermask,Bot*%
%TF.FilePolarity,Negative*%
%FSLAX46Y46*%
G04 Gerber Fmt 4.6, Leading zero omitted, Abs format (unit mm)*
G04 Created by KiCad (PCBNEW (6.0.7)) date 2022-08-25 14:30:35*
%MOMM*%
%LPD*%
G01*
G04 APERTURE LIST*
G04 Aperture macros list*
%AMRoundRect*
0 Rectangle with rounded corners*
0 $1 Rounding radius*
0 $2 $3 $4 $5 $6 $7 $8 $9 X,Y pos of 4 corners*
0 Add a 4 corners polygon primitive as box body*
4,1,4,$2,$3,$4,$5,$6,$7,$8,$9,$2,$3,0*
0 Add four circle primitives for the rounded corners*
1,1,$1+$1,$2,$3*
1,1,$1+$1,$4,$5*
1,1,$1+$1,$6,$7*
1,1,$1+$1,$8,$9*
0 Add four rect primitives between the rounded corners*
20,1,$1+$1,$2,$3,$4,$5,0*
20,1,$1+$1,$4,$5,$6,$7,0*
20,1,$1+$1,$6,$7,$8,$9,0*
20,1,$1+$1,$8,$9,$2,$3,0*%
G04 Aperture macros list end*
%ADD10RoundRect,0.625000X-0.625000X1.125000X-0.625000X-1.125000X0.625000X-1.125000X0.625000X1.125000X0*%
%ADD11C,2.400000*%
%ADD12C,3.000000*%
%ADD13R,3.000000X3.000000*%
%ADD14C,3.600000*%
%ADD15C,5.600000*%
%ADD16C,1.600000*%
%ADD17R,5.516000X5.516000*%
%ADD18C,5.516000*%
%ADD19O,1.950000X3.900000*%
%ADD20C,2.000000*%
%ADD21O,5.516000X8.000000*%
G04 APERTURE END LIST*
D10*
%TO.C,U1*%
X55163000Y-38820000D03*
X37383000Y-38820000D03*
X55163000Y-78190000D03*
X37383000Y-78190000D03*
%TD*%
D11*
%TO.C,F1*%
X68065000Y-40308000D03*
X68065000Y-36908000D03*
X77985000Y-36908000D03*
X77985000Y-40308000D03*
%TD*%
D12*
%TO.C,J5*%
X57023000Y-86487000D03*
D13*
X51943000Y-86487000D03*
%TD*%
D14*
%TO.C,H4*%
X110490000Y-88900000D03*
D15*
X110490000Y-88900000D03*
%TD*%
D13*
%TO.C,J7*%
X63881000Y-86614000D03*
D12*
X68961000Y-86614000D03*
%TD*%
D10*
%TO.C,U2*%
X109773000Y-38058000D03*
X91993000Y-38058000D03*
X109773000Y-77428000D03*
X91993000Y-77428000D03*
%TD*%
D16*
%TO.C,RV2*%
X88250000Y-61500000D03*
X85750000Y-66500000D03*
%TD*%
D17*
%TO.C,J1*%
X87045800Y-21488400D03*
D18*
X94245800Y-21488400D03*
%TD*%
D15*
%TO.C,H2*%
X38735000Y-88646000D03*
D14*
X38735000Y-88646000D03*
%TD*%
D19*
%TO.C,F3*%
X60271000Y-75660000D03*
X86814000Y-75478000D03*
%TD*%
D13*
%TO.C,J6*%
X76073000Y-86741000D03*
D12*
X81153000Y-86741000D03*
%TD*%
D20*
%TO.C,RV6*%
X78152000Y-31839600D03*
X68152000Y-30339600D03*
%TD*%
%TO.C,RV5*%
X101727000Y-31724600D03*
X91727000Y-30224600D03*
%TD*%
%TO.C,RV1*%
X68533000Y-45986000D03*
X78533000Y-47486000D03*
%TD*%
D17*
%TO.C,J3*%
X52120800Y-21488400D03*
D21*
X59320800Y-21488400D03*
%TD*%
D13*
%TO.C,J4*%
X88773000Y-86868000D03*
D12*
X93853000Y-86868000D03*
%TD*%
D20*
%TO.C,RV4*%
X53006000Y-31712600D03*
X43006000Y-30212600D03*
%TD*%
D16*
%TO.C,RV3*%
X63000000Y-62750000D03*
X60500000Y-67750000D03*
%TD*%
D19*
%TO.C,F2*%
X86385000Y-54905000D03*
X59842000Y-55087000D03*
%TD*%
D17*
%TO.C,J2*%
X69900800Y-21488400D03*
D18*
X77100800Y-21488400D03*
%TD*%
D15*
%TO.C,H1*%
X108762800Y-21234400D03*
D14*
X108762800Y-21234400D03*
%TD*%
D15*
%TO.C,H3*%
X38023800Y-20345400D03*
D14*
X38023800Y-20345400D03*
%TD*%
M02*
