%TF.GenerationSoftware,KiCad,Pcbnew,(6.0.7)*%
%TF.CreationDate,2022-08-25T16:15:27+03:00*%
%TF.ProjectId,guc_devresi_yetenek,6775635f-6465-4767-9265-73695f796574,rev?*%
%TF.SameCoordinates,Original*%
%TF.FileFunction,Copper,L2,Bot*%
%TF.FilePolarity,Positive*%
%FSLAX46Y46*%
G04 Gerber Fmt 4.6, Leading zero omitted, Abs format (unit mm)*
G04 Created by KiCad (PCBNEW (6.0.7)) date 2022-08-25 16:15:27*
%MOMM*%
%LPD*%
G01*
G04 APERTURE LIST*
G04 Aperture macros list*
%AMRoundRect*
0 Rectangle with rounded corners*
0 $1 Rounding radius*
0 $2 $3 $4 $5 $6 $7 $8 $9 X,Y pos of 4 corners*
0 Add a 4 corners polygon primitive as box body*
4,1,4,$2,$3,$4,$5,$6,$7,$8,$9,$2,$3,0*
0 Add four circle primitives for the rounded corners*
1,1,$1+$1,$2,$3*
1,1,$1+$1,$4,$5*
1,1,$1+$1,$6,$7*
1,1,$1+$1,$8,$9*
0 Add four rect primitives between the rounded corners*
20,1,$1+$1,$2,$3,$4,$5,0*
20,1,$1+$1,$4,$5,$6,$7,0*
20,1,$1+$1,$6,$7,$8,$9,0*
20,1,$1+$1,$8,$9,$2,$3,0*%
G04 Aperture macros list end*
%TA.AperFunction,ComponentPad*%
%ADD10RoundRect,0.625000X-0.625000X1.125000X-0.625000X-1.125000X0.625000X-1.125000X0.625000X1.125000X0*%
%TD*%
%TA.AperFunction,ComponentPad*%
%ADD11C,2.000000*%
%TD*%
%TA.AperFunction,ComponentPad*%
%ADD12C,1.600000*%
%TD*%
%TA.AperFunction,ComponentPad*%
%ADD13R,6.500000X5.516000*%
%TD*%
%TA.AperFunction,ComponentPad*%
%ADD14C,6.500000*%
%TD*%
%TA.AperFunction,ComponentPad*%
%ADD15O,1.950000X3.900000*%
%TD*%
%TA.AperFunction,ComponentPad*%
%ADD16C,2.400000*%
%TD*%
%TA.AperFunction,ComponentPad*%
%ADD17C,3.000000*%
%TD*%
%TA.AperFunction,ComponentPad*%
%ADD18R,3.000000X3.000000*%
%TD*%
%TA.AperFunction,ConnectorPad*%
%ADD19C,5.600000*%
%TD*%
%TA.AperFunction,ComponentPad*%
%ADD20C,3.600000*%
%TD*%
%TA.AperFunction,ViaPad*%
%ADD21C,1.200000*%
%TD*%
%TA.AperFunction,ViaPad*%
%ADD22C,2.500000*%
%TD*%
G04 APERTURE END LIST*
D10*
%TO.P,U2,1,IN+*%
%TO.N,A*%
X110308000Y-34150000D03*
%TO.P,U2,2,IN-*%
%TO.N,GND*%
X92528000Y-34150000D03*
%TO.P,U2,3,OUT+*%
%TO.N,Net-(F2-Pad1)*%
X110308000Y-73520000D03*
%TO.P,U2,4,OUT-*%
%TO.N,GND*%
X92528000Y-73520000D03*
%TD*%
%TO.P,U1,1,IN+*%
%TO.N,A*%
X55808000Y-47900000D03*
%TO.P,U1,2,IN-*%
%TO.N,GND*%
X38028000Y-47900000D03*
%TO.P,U1,3,OUT+*%
%TO.N,Net-(F3-Pad1)*%
X55808000Y-87270000D03*
%TO.P,U1,4,OUT-*%
%TO.N,GND*%
X38028000Y-87270000D03*
%TD*%
D11*
%TO.P,RV6,1*%
%TO.N,Net-(F1-Pad2)*%
X50750000Y-35750000D03*
%TO.P,RV6,2*%
%TO.N,GND*%
X40750000Y-34250000D03*
%TD*%
%TO.P,RV5,1*%
%TO.N,Net-(F1-Pad2)*%
X51000000Y-30000000D03*
%TO.P,RV5,2*%
%TO.N,GND*%
X41000000Y-28500000D03*
%TD*%
%TO.P,RV4,2*%
%TO.N,GND*%
X40750000Y-40250000D03*
%TO.P,RV4,1*%
%TO.N,Net-(F1-Pad2)*%
X50750000Y-41750000D03*
%TD*%
D12*
%TO.P,RV3,1*%
%TO.N,GND*%
X63250000Y-59500000D03*
%TO.P,RV3,2*%
%TO.N,Net-(F3-Pad1)*%
X60750000Y-64500000D03*
%TD*%
%TO.P,RV2,2*%
%TO.N,GND*%
X101250000Y-78000000D03*
%TO.P,RV2,1*%
%TO.N,Net-(F2-Pad1)*%
X106250000Y-80500000D03*
%TD*%
D11*
%TO.P,RV1,1*%
%TO.N,GND*%
X78000000Y-40250000D03*
%TO.P,RV1,2*%
%TO.N,A*%
X68000000Y-38750000D03*
%TD*%
D13*
%TO.P,J3,1,-*%
%TO.N,GND*%
X52000000Y-21600000D03*
D14*
%TO.P,J3,2,+*%
%TO.N,Net-(F1-Pad2)*%
X59200000Y-21600000D03*
%TD*%
D13*
%TO.P,J2,1,-*%
%TO.N,GND*%
X69400000Y-21600000D03*
D14*
%TO.P,J2,2,+*%
%TO.N,A*%
X76600000Y-21600000D03*
%TD*%
D13*
%TO.P,J1,1,-*%
%TO.N,GND*%
X86800000Y-21800000D03*
D14*
%TO.P,J1,2,+*%
%TO.N,A*%
X94000000Y-21800000D03*
%TD*%
D15*
%TO.P,F2,1*%
%TO.N,Net-(F2-Pad1)*%
X87635000Y-49155000D03*
%TO.P,F2,2*%
%TO.N,Net-(F2-Pad2)*%
X61092000Y-49337000D03*
%TD*%
D16*
%TO.P,F1,1*%
%TO.N,A*%
X77420000Y-32650000D03*
X77420000Y-29250000D03*
%TO.P,F1,2*%
%TO.N,Net-(F1-Pad2)*%
X67500000Y-32650000D03*
X67500000Y-29250000D03*
%TD*%
D17*
%TO.P,J5,2,Pin_2*%
%TO.N,GND*%
X91540000Y-88000000D03*
D18*
%TO.P,J5,1,Pin_1*%
%TO.N,Net-(F3-Pad2)*%
X86460000Y-88000000D03*
%TD*%
D19*
%TO.P,H4,1,1*%
%TO.N,Net-(H4-Pad1)*%
X109000000Y-97000000D03*
D20*
X109000000Y-97000000D03*
%TD*%
D18*
%TO.P,J7,1,Pin_1*%
%TO.N,Net-(F3-Pad2)*%
X98460000Y-88000000D03*
D17*
%TO.P,J7,2,Pin_2*%
%TO.N,GND*%
X103540000Y-88000000D03*
%TD*%
D20*
%TO.P,H2,1,1*%
%TO.N,Net-(H2-Pad1)*%
X40285000Y-95127000D03*
D19*
X40285000Y-95127000D03*
%TD*%
D15*
%TO.P,F3,1*%
%TO.N,Net-(F3-Pad1)*%
X60865000Y-72595000D03*
%TO.P,F3,2*%
%TO.N,Net-(F3-Pad2)*%
X87408000Y-72413000D03*
%TD*%
D18*
%TO.P,J6,1,Pin_1*%
%TO.N,Net-(F2-Pad2)*%
X62460000Y-88000000D03*
D17*
%TO.P,J6,2,Pin_2*%
%TO.N,GND*%
X67540000Y-88000000D03*
%TD*%
D18*
%TO.P,J4,1,Pin_1*%
%TO.N,Net-(F2-Pad2)*%
X74160000Y-88127000D03*
D17*
%TO.P,J4,2,Pin_2*%
%TO.N,GND*%
X79240000Y-88127000D03*
%TD*%
D19*
%TO.P,H1,1,1*%
%TO.N,Net-(H1-Pad1)*%
X108762800Y-21234400D03*
D20*
X108762800Y-21234400D03*
%TD*%
D19*
%TO.P,H3,1,1*%
%TO.N,Net-(H3-Pad1)*%
X38023800Y-20345400D03*
D20*
X38023800Y-20345400D03*
%TD*%
D21*
%TO.N,Net-(F3-Pad2)*%
X85000000Y-69000000D03*
%TO.N,Net-(F2-Pad2)*%
X74000000Y-68000000D03*
D22*
%TO.N,A*%
X86000000Y-35000000D03*
%TD*%
%TA.AperFunction,Conductor*%
%TO.N,Net-(F1-Pad2)*%
G36*
X63442121Y-15520002D02*
G01*
X63488614Y-15573658D01*
X63500000Y-15626000D01*
X63500000Y-26500000D01*
X70374000Y-26500000D01*
X70442121Y-26520002D01*
X70488614Y-26573658D01*
X70500000Y-26626000D01*
X70500000Y-34874000D01*
X70479998Y-34942121D01*
X70426342Y-34988614D01*
X70374000Y-35000000D01*
X55000000Y-35000000D01*
X55000000Y-43874000D01*
X54979998Y-43942121D01*
X54926342Y-43988614D01*
X54874000Y-44000000D01*
X46626710Y-44000000D01*
X46558589Y-43979998D01*
X46512096Y-43926342D01*
X46500712Y-43873292D01*
X46504995Y-43110848D01*
X50101879Y-43110848D01*
X50105068Y-43115108D01*
X50277988Y-43186734D01*
X50287373Y-43189783D01*
X50508554Y-43242885D01*
X50518301Y-43244428D01*
X50745070Y-43262275D01*
X50754930Y-43262275D01*
X50981699Y-43244428D01*
X50991446Y-43242885D01*
X51212627Y-43189783D01*
X51222012Y-43186734D01*
X51387436Y-43118213D01*
X51398417Y-43109364D01*
X51397101Y-43104208D01*
X50762812Y-42469919D01*
X50748868Y-42462305D01*
X50747035Y-42462436D01*
X50740420Y-42466687D01*
X50108639Y-43098468D01*
X50101879Y-43110848D01*
X46504995Y-43110848D01*
X46512613Y-41754930D01*
X49237725Y-41754930D01*
X49255572Y-41981699D01*
X49257115Y-41991446D01*
X49310217Y-42212627D01*
X49313266Y-42222012D01*
X49381787Y-42387436D01*
X49390636Y-42398417D01*
X49395792Y-42397101D01*
X50030081Y-41762812D01*
X50036459Y-41751132D01*
X51462305Y-41751132D01*
X51462436Y-41752965D01*
X51466687Y-41759580D01*
X52098468Y-42391361D01*
X52110848Y-42398121D01*
X52115108Y-42394932D01*
X52186734Y-42222012D01*
X52189783Y-42212627D01*
X52242885Y-41991446D01*
X52244428Y-41981699D01*
X52262275Y-41754930D01*
X52262275Y-41745070D01*
X52244428Y-41518301D01*
X52242885Y-41508554D01*
X52189783Y-41287373D01*
X52186734Y-41277988D01*
X52118213Y-41112564D01*
X52109364Y-41101583D01*
X52104208Y-41102899D01*
X51469919Y-41737188D01*
X51462305Y-41751132D01*
X50036459Y-41751132D01*
X50037695Y-41748868D01*
X50037564Y-41747035D01*
X50033313Y-41740420D01*
X49401532Y-41108639D01*
X49389152Y-41101879D01*
X49384892Y-41105068D01*
X49313266Y-41277988D01*
X49310217Y-41287373D01*
X49257115Y-41508554D01*
X49255572Y-41518301D01*
X49237725Y-41745070D01*
X49237725Y-41754930D01*
X46512613Y-41754930D01*
X46520278Y-40390636D01*
X50101583Y-40390636D01*
X50102899Y-40395792D01*
X50737188Y-41030081D01*
X50751132Y-41037695D01*
X50752965Y-41037564D01*
X50759580Y-41033313D01*
X51391361Y-40401532D01*
X51398121Y-40389152D01*
X51394932Y-40384892D01*
X51222012Y-40313266D01*
X51212627Y-40310217D01*
X50991446Y-40257115D01*
X50981699Y-40255572D01*
X50754930Y-40237725D01*
X50745070Y-40237725D01*
X50518301Y-40255572D01*
X50508554Y-40257115D01*
X50287373Y-40310217D01*
X50277988Y-40313266D01*
X50112564Y-40381787D01*
X50101583Y-40390636D01*
X46520278Y-40390636D01*
X46538704Y-37110848D01*
X50101879Y-37110848D01*
X50105068Y-37115108D01*
X50277988Y-37186734D01*
X50287373Y-37189783D01*
X50508554Y-37242885D01*
X50518301Y-37244428D01*
X50745070Y-37262275D01*
X50754930Y-37262275D01*
X50981699Y-37244428D01*
X50991446Y-37242885D01*
X51212627Y-37189783D01*
X51222012Y-37186734D01*
X51387436Y-37118213D01*
X51398417Y-37109364D01*
X51397101Y-37104208D01*
X50762812Y-36469919D01*
X50748868Y-36462305D01*
X50747035Y-36462436D01*
X50740420Y-36466687D01*
X50108639Y-37098468D01*
X50101879Y-37110848D01*
X46538704Y-37110848D01*
X46546321Y-35754930D01*
X49237725Y-35754930D01*
X49255572Y-35981699D01*
X49257115Y-35991446D01*
X49310217Y-36212627D01*
X49313266Y-36222012D01*
X49381787Y-36387436D01*
X49390636Y-36398417D01*
X49395792Y-36397101D01*
X50030081Y-35762812D01*
X50036459Y-35751132D01*
X51462305Y-35751132D01*
X51462436Y-35752965D01*
X51466687Y-35759580D01*
X52098468Y-36391361D01*
X52110848Y-36398121D01*
X52115108Y-36394932D01*
X52186734Y-36222012D01*
X52189783Y-36212627D01*
X52242885Y-35991446D01*
X52244428Y-35981699D01*
X52262275Y-35754930D01*
X52262275Y-35745070D01*
X52244428Y-35518301D01*
X52242885Y-35508554D01*
X52189783Y-35287373D01*
X52186734Y-35277988D01*
X52118213Y-35112564D01*
X52109364Y-35101583D01*
X52104208Y-35102899D01*
X51469919Y-35737188D01*
X51462305Y-35751132D01*
X50036459Y-35751132D01*
X50037695Y-35748868D01*
X50037564Y-35747035D01*
X50033313Y-35740420D01*
X49401532Y-35108639D01*
X49389152Y-35101879D01*
X49384892Y-35105068D01*
X49313266Y-35277988D01*
X49310217Y-35287373D01*
X49257115Y-35508554D01*
X49255572Y-35518301D01*
X49237725Y-35745070D01*
X49237725Y-35754930D01*
X46546321Y-35754930D01*
X46553986Y-34390636D01*
X50101583Y-34390636D01*
X50102899Y-34395792D01*
X50737188Y-35030081D01*
X50751132Y-35037695D01*
X50752965Y-35037564D01*
X50759580Y-35033313D01*
X51391361Y-34401532D01*
X51398121Y-34389152D01*
X51394932Y-34384892D01*
X51222012Y-34313266D01*
X51212627Y-34310217D01*
X50991446Y-34257115D01*
X50981699Y-34255572D01*
X50754930Y-34237725D01*
X50745070Y-34237725D01*
X50518301Y-34255572D01*
X50508554Y-34257115D01*
X50287373Y-34310217D01*
X50277988Y-34313266D01*
X50112564Y-34381787D01*
X50101583Y-34390636D01*
X46553986Y-34390636D01*
X46555293Y-34158020D01*
X66704707Y-34158020D01*
X66709173Y-34163986D01*
X66812892Y-34218555D01*
X66821441Y-34222272D01*
X67052282Y-34302885D01*
X67061291Y-34305299D01*
X67301518Y-34350908D01*
X67310775Y-34351962D01*
X67555107Y-34361563D01*
X67564420Y-34361237D01*
X67807478Y-34334618D01*
X67816655Y-34332917D01*
X68053107Y-34270665D01*
X68061926Y-34267628D01*
X68286582Y-34171108D01*
X68289648Y-34169512D01*
X68298033Y-34160163D01*
X68294146Y-34151253D01*
X67512812Y-33369919D01*
X67498868Y-33362305D01*
X67497035Y-33362436D01*
X67490420Y-33366687D01*
X66711467Y-34145640D01*
X66704707Y-34158020D01*
X46555293Y-34158020D01*
X46563990Y-32609835D01*
X65788022Y-32609835D01*
X65799754Y-32854064D01*
X65800891Y-32863324D01*
X65848593Y-33103143D01*
X65851082Y-33112118D01*
X65933708Y-33342250D01*
X65937503Y-33350775D01*
X65982969Y-33435391D01*
X65992873Y-33445429D01*
X66000106Y-33442787D01*
X66780081Y-32662812D01*
X66786459Y-32651132D01*
X68212305Y-32651132D01*
X68212436Y-32652965D01*
X68216687Y-32659580D01*
X68998364Y-33441257D01*
X69010744Y-33448017D01*
X69015509Y-33444450D01*
X69107572Y-33240076D01*
X69110766Y-33231301D01*
X69177135Y-32995973D01*
X69178993Y-32986844D01*
X69210044Y-32742770D01*
X69210525Y-32736483D01*
X69212706Y-32653160D01*
X69212555Y-32646851D01*
X69194321Y-32401486D01*
X69192944Y-32392280D01*
X69138979Y-32153786D01*
X69136255Y-32144875D01*
X69047631Y-31916978D01*
X69043620Y-31908569D01*
X69018029Y-31863795D01*
X69007865Y-31854019D01*
X68999966Y-31857141D01*
X68219919Y-32637188D01*
X68212305Y-32651132D01*
X66786459Y-32651132D01*
X66787695Y-32648868D01*
X66787564Y-32647035D01*
X66783313Y-32640420D01*
X66002344Y-31859451D01*
X65989964Y-31852691D01*
X65982443Y-31858321D01*
X65976322Y-31868409D01*
X65972084Y-31876726D01*
X65877529Y-32102214D01*
X65874572Y-32111052D01*
X65814384Y-32348042D01*
X65812763Y-32357232D01*
X65788267Y-32600510D01*
X65788022Y-32609835D01*
X46563990Y-32609835D01*
X46571007Y-31360848D01*
X50351879Y-31360848D01*
X50355068Y-31365108D01*
X50527988Y-31436734D01*
X50537373Y-31439783D01*
X50758554Y-31492885D01*
X50768301Y-31494428D01*
X50995070Y-31512275D01*
X51004930Y-31512275D01*
X51231699Y-31494428D01*
X51241446Y-31492885D01*
X51462627Y-31439783D01*
X51472012Y-31436734D01*
X51637436Y-31368213D01*
X51648417Y-31359364D01*
X51647101Y-31354208D01*
X51434096Y-31141203D01*
X66702449Y-31141203D01*
X66704202Y-31147095D01*
X67487188Y-31930081D01*
X67501132Y-31937695D01*
X67502965Y-31937564D01*
X67509580Y-31933313D01*
X68289103Y-31153790D01*
X68295863Y-31141410D01*
X68291809Y-31135994D01*
X68141622Y-31061930D01*
X68142275Y-31060605D01*
X68091672Y-31020547D01*
X68068666Y-30953381D01*
X68085625Y-30884440D01*
X68137164Y-30835611D01*
X68144804Y-30832021D01*
X68286582Y-30771108D01*
X68289648Y-30769512D01*
X68298033Y-30760163D01*
X68294146Y-30751253D01*
X67512812Y-29969919D01*
X67498868Y-29962305D01*
X67497035Y-29962436D01*
X67490420Y-29966687D01*
X66711467Y-30745640D01*
X66704707Y-30758020D01*
X66709173Y-30763986D01*
X66812892Y-30818555D01*
X66821441Y-30822271D01*
X66847547Y-30831388D01*
X66905264Y-30872730D01*
X66931468Y-30938714D01*
X66917839Y-31008390D01*
X66868703Y-31059637D01*
X66858758Y-31064769D01*
X66713073Y-31131931D01*
X66702449Y-31141203D01*
X51434096Y-31141203D01*
X51012812Y-30719919D01*
X50998868Y-30712305D01*
X50997035Y-30712436D01*
X50990420Y-30716687D01*
X50358639Y-31348468D01*
X50351879Y-31360848D01*
X46571007Y-31360848D01*
X46572270Y-31135994D01*
X46578624Y-30004930D01*
X49487725Y-30004930D01*
X49505572Y-30231699D01*
X49507115Y-30241446D01*
X49560217Y-30462627D01*
X49563266Y-30472012D01*
X49631787Y-30637436D01*
X49640636Y-30648417D01*
X49645792Y-30647101D01*
X50280081Y-30012812D01*
X50286459Y-30001132D01*
X51712305Y-30001132D01*
X51712436Y-30002965D01*
X51716687Y-30009580D01*
X52348468Y-30641361D01*
X52360848Y-30648121D01*
X52365108Y-30644932D01*
X52436734Y-30472012D01*
X52439783Y-30462627D01*
X52492885Y-30241446D01*
X52494428Y-30231699D01*
X52512275Y-30004930D01*
X52512275Y-29995070D01*
X52494428Y-29768301D01*
X52492885Y-29758554D01*
X52439783Y-29537373D01*
X52436734Y-29527988D01*
X52368213Y-29362564D01*
X52359364Y-29351583D01*
X52354208Y-29352899D01*
X51719919Y-29987188D01*
X51712305Y-30001132D01*
X50286459Y-30001132D01*
X50287695Y-29998868D01*
X50287564Y-29997035D01*
X50283313Y-29990420D01*
X49651532Y-29358639D01*
X49639152Y-29351879D01*
X49634892Y-29355068D01*
X49563266Y-29527988D01*
X49560217Y-29537373D01*
X49507115Y-29758554D01*
X49505572Y-29768301D01*
X49487725Y-29995070D01*
X49487725Y-30004930D01*
X46578624Y-30004930D01*
X46586289Y-28640636D01*
X50351583Y-28640636D01*
X50352899Y-28645792D01*
X50987188Y-29280081D01*
X51001132Y-29287695D01*
X51002965Y-29287564D01*
X51009580Y-29283313D01*
X51083058Y-29209835D01*
X65788022Y-29209835D01*
X65799754Y-29454064D01*
X65800891Y-29463324D01*
X65848593Y-29703143D01*
X65851082Y-29712118D01*
X65933708Y-29942250D01*
X65937503Y-29950775D01*
X65982969Y-30035391D01*
X65992873Y-30045429D01*
X66000106Y-30042787D01*
X66780081Y-29262812D01*
X66786459Y-29251132D01*
X68212305Y-29251132D01*
X68212436Y-29252965D01*
X68216687Y-29259580D01*
X68998364Y-30041257D01*
X69010744Y-30048017D01*
X69015509Y-30044450D01*
X69107572Y-29840076D01*
X69110766Y-29831301D01*
X69177135Y-29595973D01*
X69178993Y-29586844D01*
X69210044Y-29342770D01*
X69210525Y-29336483D01*
X69212706Y-29253160D01*
X69212555Y-29246851D01*
X69194321Y-29001486D01*
X69192944Y-28992280D01*
X69138979Y-28753786D01*
X69136255Y-28744875D01*
X69047631Y-28516978D01*
X69043620Y-28508569D01*
X69018029Y-28463795D01*
X69007865Y-28454019D01*
X68999966Y-28457141D01*
X68219919Y-29237188D01*
X68212305Y-29251132D01*
X66786459Y-29251132D01*
X66787695Y-29248868D01*
X66787564Y-29247035D01*
X66783313Y-29240420D01*
X66002344Y-28459451D01*
X65989964Y-28452691D01*
X65982443Y-28458321D01*
X65976322Y-28468409D01*
X65972084Y-28476726D01*
X65877529Y-28702214D01*
X65874572Y-28711052D01*
X65814384Y-28948042D01*
X65812763Y-28957232D01*
X65788267Y-29200510D01*
X65788022Y-29209835D01*
X51083058Y-29209835D01*
X51641361Y-28651532D01*
X51648121Y-28639152D01*
X51644932Y-28634892D01*
X51472012Y-28563266D01*
X51462627Y-28560217D01*
X51241446Y-28507115D01*
X51231699Y-28505572D01*
X51004930Y-28487725D01*
X50995070Y-28487725D01*
X50768301Y-28505572D01*
X50758554Y-28507115D01*
X50537373Y-28560217D01*
X50527988Y-28563266D01*
X50362564Y-28631787D01*
X50351583Y-28640636D01*
X46586289Y-28640636D01*
X46591342Y-27741203D01*
X66702449Y-27741203D01*
X66704202Y-27747095D01*
X67487188Y-28530081D01*
X67501132Y-28537695D01*
X67502965Y-28537564D01*
X67509580Y-28533313D01*
X68289103Y-27753790D01*
X68295863Y-27741410D01*
X68291809Y-27735994D01*
X68145808Y-27663994D01*
X68137176Y-27660507D01*
X67904288Y-27585958D01*
X67895238Y-27583785D01*
X67653891Y-27544480D01*
X67644602Y-27543668D01*
X67400114Y-27540467D01*
X67390803Y-27541037D01*
X67148522Y-27574010D01*
X67139403Y-27575948D01*
X66904668Y-27644367D01*
X66895915Y-27647639D01*
X66713074Y-27731931D01*
X66702449Y-27741203D01*
X46591342Y-27741203D01*
X46599296Y-26325292D01*
X46619680Y-26257285D01*
X46673596Y-26211094D01*
X46725294Y-26200000D01*
X55800000Y-26200000D01*
X55784425Y-25358939D01*
X55782901Y-25276632D01*
X55801638Y-25208152D01*
X55829243Y-25176656D01*
X55956169Y-25073138D01*
X55961109Y-25069109D01*
X56089573Y-24911596D01*
X56183741Y-24731470D01*
X56224786Y-24588328D01*
X56924139Y-24588328D01*
X56933386Y-24600302D01*
X57192275Y-24782252D01*
X57197652Y-24785638D01*
X57524138Y-24968854D01*
X57529831Y-24971680D01*
X57873153Y-25120960D01*
X57879127Y-25123205D01*
X58235757Y-25237021D01*
X58241925Y-25238650D01*
X58608245Y-25315846D01*
X58614529Y-25316841D01*
X58986784Y-25356624D01*
X58993146Y-25356980D01*
X59367509Y-25358939D01*
X59373859Y-25358651D01*
X59746502Y-25322771D01*
X59752827Y-25321836D01*
X60119921Y-25248483D01*
X60126094Y-25246921D01*
X60483922Y-25136840D01*
X60489898Y-25134665D01*
X60834757Y-24988990D01*
X60840499Y-24986214D01*
X61168882Y-24806430D01*
X61174293Y-24803101D01*
X61468558Y-24600858D01*
X61476902Y-24590603D01*
X61469756Y-24576863D01*
X59212812Y-22319919D01*
X59198868Y-22312305D01*
X59197035Y-22312436D01*
X59190420Y-22316687D01*
X56930588Y-24576519D01*
X56924139Y-24588328D01*
X56224786Y-24588328D01*
X56239766Y-24536087D01*
X56250500Y-24415816D01*
X56250500Y-23894583D01*
X56270502Y-23826462D01*
X56287405Y-23805488D01*
X58480081Y-21612812D01*
X58486459Y-21601132D01*
X59912305Y-21601132D01*
X59912436Y-21602965D01*
X59916687Y-21609580D01*
X62174658Y-23867551D01*
X62187451Y-23874537D01*
X62198204Y-23866674D01*
X62272814Y-23771521D01*
X62276481Y-23766322D01*
X62476520Y-23449890D01*
X62479654Y-23444330D01*
X62646697Y-23109293D01*
X62649242Y-23103467D01*
X62781577Y-22753254D01*
X62783520Y-22747202D01*
X62879782Y-22385421D01*
X62881108Y-22379186D01*
X62940316Y-22009534D01*
X62941005Y-22003197D01*
X62962640Y-21627964D01*
X62962744Y-21624568D01*
X62962824Y-21601696D01*
X62962745Y-21598316D01*
X62943728Y-21222915D01*
X62943085Y-21216595D01*
X62886459Y-20846538D01*
X62885176Y-20840289D01*
X62791441Y-20477840D01*
X62789539Y-20471772D01*
X62659659Y-20120661D01*
X62657141Y-20114789D01*
X62492456Y-19778624D01*
X62489351Y-19773022D01*
X62291530Y-19455210D01*
X62287900Y-19449985D01*
X62198371Y-19334147D01*
X62186690Y-19325681D01*
X62174832Y-19332275D01*
X59919919Y-21587188D01*
X59912305Y-21601132D01*
X58486459Y-21601132D01*
X58487695Y-21598868D01*
X58487564Y-21597035D01*
X58483313Y-21590420D01*
X56287405Y-19394512D01*
X56253379Y-19332200D01*
X56250500Y-19305417D01*
X56250500Y-18784184D01*
X56239766Y-18663913D01*
X56224275Y-18609889D01*
X56923504Y-18609889D01*
X56930619Y-18623512D01*
X59187188Y-20880081D01*
X59201132Y-20887695D01*
X59202965Y-20887564D01*
X59209580Y-20883313D01*
X61469800Y-18623093D01*
X61476211Y-18611352D01*
X61466870Y-18599300D01*
X61196610Y-18410762D01*
X61191206Y-18407386D01*
X60864096Y-18225319D01*
X60858386Y-18222509D01*
X60514551Y-18074430D01*
X60508569Y-18072206D01*
X60151545Y-17959637D01*
X60145363Y-17958027D01*
X59778785Y-17882112D01*
X59772491Y-17881138D01*
X59400087Y-17842653D01*
X59393755Y-17842321D01*
X59019364Y-17841668D01*
X59013024Y-17841978D01*
X58640497Y-17879161D01*
X58634204Y-17880113D01*
X58267347Y-17954750D01*
X58261174Y-17956335D01*
X57903750Y-18067661D01*
X57897762Y-18069864D01*
X57553422Y-18216738D01*
X57547691Y-18219533D01*
X57219949Y-18400456D01*
X57214529Y-18403817D01*
X56931862Y-18599545D01*
X56923504Y-18609889D01*
X56224275Y-18609889D01*
X56183741Y-18468530D01*
X56089573Y-18288404D01*
X56033404Y-18219533D01*
X55965138Y-18135831D01*
X55961109Y-18130891D01*
X55803596Y-18002427D01*
X55712892Y-17955008D01*
X55661791Y-17905723D01*
X55645290Y-17845680D01*
X55645222Y-17841978D01*
X55604229Y-15628333D01*
X55622966Y-15559853D01*
X55675752Y-15512375D01*
X55730207Y-15500000D01*
X63374000Y-15500000D01*
X63442121Y-15520002D01*
G37*
%TD.AperFunction*%
%TD*%
%TA.AperFunction,Conductor*%
%TO.N,A*%
G36*
X99942121Y-14528502D02*
G01*
X99988614Y-14582158D01*
X100000000Y-14634500D01*
X100000000Y-26500000D01*
X114874000Y-26500000D01*
X114942121Y-26520002D01*
X114988614Y-26573658D01*
X115000000Y-26626000D01*
X115000000Y-38374000D01*
X114979998Y-38442121D01*
X114926342Y-38488614D01*
X114874000Y-38500000D01*
X105626000Y-38500000D01*
X105557879Y-38479998D01*
X105511386Y-38426342D01*
X105500000Y-38374000D01*
X105500000Y-35359807D01*
X108550001Y-35359807D01*
X108550121Y-35363701D01*
X108552790Y-35406893D01*
X108554126Y-35416472D01*
X108598048Y-35617073D01*
X108601695Y-35628432D01*
X108682306Y-35816059D01*
X108688041Y-35826533D01*
X108802669Y-35995522D01*
X108810282Y-36004724D01*
X108954802Y-36148992D01*
X108964015Y-36156587D01*
X109133206Y-36270922D01*
X109143690Y-36276638D01*
X109331450Y-36356918D01*
X109342821Y-36360547D01*
X109543480Y-36404115D01*
X109553100Y-36405437D01*
X109594387Y-36407890D01*
X109598102Y-36408000D01*
X109789885Y-36408000D01*
X109805124Y-36403525D01*
X109806329Y-36402135D01*
X109808000Y-36394452D01*
X109808000Y-36389884D01*
X110808000Y-36389884D01*
X110812475Y-36405123D01*
X110813865Y-36406328D01*
X110821548Y-36407999D01*
X111017807Y-36407999D01*
X111021701Y-36407879D01*
X111064893Y-36405210D01*
X111074472Y-36403874D01*
X111275073Y-36359952D01*
X111286432Y-36356305D01*
X111474059Y-36275694D01*
X111484533Y-36269959D01*
X111653522Y-36155331D01*
X111662724Y-36147718D01*
X111806992Y-36003198D01*
X111814587Y-35993985D01*
X111928922Y-35824794D01*
X111934638Y-35814310D01*
X112014918Y-35626550D01*
X112018547Y-35615179D01*
X112062115Y-35414520D01*
X112063437Y-35404900D01*
X112065890Y-35363613D01*
X112066000Y-35359898D01*
X112066000Y-34668115D01*
X112061525Y-34652876D01*
X112060135Y-34651671D01*
X112052452Y-34650000D01*
X110826115Y-34650000D01*
X110810876Y-34654475D01*
X110809671Y-34655865D01*
X110808000Y-34663548D01*
X110808000Y-36389884D01*
X109808000Y-36389884D01*
X109808000Y-34668115D01*
X109803525Y-34652876D01*
X109802135Y-34651671D01*
X109794452Y-34650000D01*
X108568116Y-34650000D01*
X108552877Y-34654475D01*
X108551672Y-34655865D01*
X108550001Y-34663548D01*
X108550001Y-35359807D01*
X105500000Y-35359807D01*
X105500000Y-33631885D01*
X108550000Y-33631885D01*
X108554475Y-33647124D01*
X108555865Y-33648329D01*
X108563548Y-33650000D01*
X109789885Y-33650000D01*
X109805124Y-33645525D01*
X109806329Y-33644135D01*
X109808000Y-33636452D01*
X109808000Y-33631885D01*
X110808000Y-33631885D01*
X110812475Y-33647124D01*
X110813865Y-33648329D01*
X110821548Y-33650000D01*
X112047884Y-33650000D01*
X112063123Y-33645525D01*
X112064328Y-33644135D01*
X112065999Y-33636452D01*
X112065999Y-32940194D01*
X112065879Y-32936299D01*
X112063210Y-32893107D01*
X112061874Y-32883528D01*
X112017952Y-32682927D01*
X112014305Y-32671568D01*
X111933694Y-32483941D01*
X111927959Y-32473467D01*
X111813331Y-32304478D01*
X111805718Y-32295276D01*
X111661198Y-32151008D01*
X111651985Y-32143413D01*
X111482794Y-32029078D01*
X111472310Y-32023362D01*
X111284550Y-31943082D01*
X111273179Y-31939453D01*
X111072520Y-31895885D01*
X111062900Y-31894563D01*
X111021613Y-31892110D01*
X111017898Y-31892000D01*
X110826115Y-31892000D01*
X110810876Y-31896475D01*
X110809671Y-31897865D01*
X110808000Y-31905548D01*
X110808000Y-33631885D01*
X109808000Y-33631885D01*
X109808000Y-31910116D01*
X109803525Y-31894877D01*
X109802135Y-31893672D01*
X109794452Y-31892001D01*
X109598194Y-31892001D01*
X109594299Y-31892121D01*
X109551107Y-31894790D01*
X109541528Y-31896126D01*
X109340927Y-31940048D01*
X109329568Y-31943695D01*
X109141941Y-32024306D01*
X109131467Y-32030041D01*
X108962478Y-32144669D01*
X108953276Y-32152282D01*
X108809008Y-32296802D01*
X108801413Y-32306015D01*
X108687078Y-32475206D01*
X108681362Y-32485690D01*
X108601082Y-32673450D01*
X108597453Y-32684821D01*
X108553885Y-32885480D01*
X108552563Y-32895100D01*
X108550110Y-32936387D01*
X108550000Y-32940102D01*
X108550000Y-33631885D01*
X105500000Y-33631885D01*
X105500000Y-31000000D01*
X87500000Y-31000000D01*
X87500000Y-36374000D01*
X87479998Y-36442121D01*
X87426342Y-36488614D01*
X87374000Y-36500000D01*
X75500000Y-36500000D01*
X75500000Y-42874000D01*
X75479998Y-42942121D01*
X75426342Y-42988614D01*
X75374000Y-43000000D01*
X58500000Y-43000000D01*
X58500000Y-52374000D01*
X58479998Y-52442121D01*
X58426342Y-52488614D01*
X58374000Y-52500000D01*
X52126000Y-52500000D01*
X52057879Y-52479998D01*
X52011386Y-52426342D01*
X52000000Y-52374000D01*
X52000000Y-49109807D01*
X54050001Y-49109807D01*
X54050121Y-49113701D01*
X54052790Y-49156893D01*
X54054126Y-49166472D01*
X54098048Y-49367073D01*
X54101695Y-49378432D01*
X54182306Y-49566059D01*
X54188041Y-49576533D01*
X54302669Y-49745522D01*
X54310282Y-49754724D01*
X54454802Y-49898992D01*
X54464015Y-49906587D01*
X54633206Y-50020922D01*
X54643690Y-50026638D01*
X54831450Y-50106918D01*
X54842821Y-50110547D01*
X55043480Y-50154115D01*
X55053100Y-50155437D01*
X55094387Y-50157890D01*
X55098102Y-50158000D01*
X55289885Y-50158000D01*
X55305124Y-50153525D01*
X55306329Y-50152135D01*
X55308000Y-50144452D01*
X55308000Y-50139884D01*
X56308000Y-50139884D01*
X56312475Y-50155123D01*
X56313865Y-50156328D01*
X56321548Y-50157999D01*
X56517807Y-50157999D01*
X56521701Y-50157879D01*
X56564893Y-50155210D01*
X56574472Y-50153874D01*
X56775073Y-50109952D01*
X56786432Y-50106305D01*
X56974059Y-50025694D01*
X56984533Y-50019959D01*
X57153522Y-49905331D01*
X57162724Y-49897718D01*
X57306992Y-49753198D01*
X57314587Y-49743985D01*
X57428922Y-49574794D01*
X57434638Y-49564310D01*
X57514918Y-49376550D01*
X57518547Y-49365179D01*
X57562115Y-49164520D01*
X57563437Y-49154900D01*
X57565890Y-49113613D01*
X57566000Y-49109898D01*
X57566000Y-48418115D01*
X57561525Y-48402876D01*
X57560135Y-48401671D01*
X57552452Y-48400000D01*
X56326115Y-48400000D01*
X56310876Y-48404475D01*
X56309671Y-48405865D01*
X56308000Y-48413548D01*
X56308000Y-50139884D01*
X55308000Y-50139884D01*
X55308000Y-48418115D01*
X55303525Y-48402876D01*
X55302135Y-48401671D01*
X55294452Y-48400000D01*
X54068116Y-48400000D01*
X54052877Y-48404475D01*
X54051672Y-48405865D01*
X54050001Y-48413548D01*
X54050001Y-49109807D01*
X52000000Y-49109807D01*
X52000000Y-47381885D01*
X54050000Y-47381885D01*
X54054475Y-47397124D01*
X54055865Y-47398329D01*
X54063548Y-47400000D01*
X55289885Y-47400000D01*
X55305124Y-47395525D01*
X55306329Y-47394135D01*
X55308000Y-47386452D01*
X55308000Y-47381885D01*
X56308000Y-47381885D01*
X56312475Y-47397124D01*
X56313865Y-47398329D01*
X56321548Y-47400000D01*
X57547884Y-47400000D01*
X57563123Y-47395525D01*
X57564328Y-47394135D01*
X57565999Y-47386452D01*
X57565999Y-46690194D01*
X57565879Y-46686299D01*
X57563210Y-46643107D01*
X57561874Y-46633528D01*
X57517952Y-46432927D01*
X57514305Y-46421568D01*
X57433694Y-46233941D01*
X57427959Y-46223467D01*
X57313331Y-46054478D01*
X57305718Y-46045276D01*
X57161198Y-45901008D01*
X57151985Y-45893413D01*
X56982794Y-45779078D01*
X56972310Y-45773362D01*
X56784550Y-45693082D01*
X56773179Y-45689453D01*
X56572520Y-45645885D01*
X56562900Y-45644563D01*
X56521613Y-45642110D01*
X56517898Y-45642000D01*
X56326115Y-45642000D01*
X56310876Y-45646475D01*
X56309671Y-45647865D01*
X56308000Y-45655548D01*
X56308000Y-47381885D01*
X55308000Y-47381885D01*
X55308000Y-45660116D01*
X55303525Y-45644877D01*
X55302135Y-45643672D01*
X55294452Y-45642001D01*
X55098194Y-45642001D01*
X55094299Y-45642121D01*
X55051107Y-45644790D01*
X55041528Y-45646126D01*
X54840927Y-45690048D01*
X54829568Y-45693695D01*
X54641941Y-45774306D01*
X54631467Y-45780041D01*
X54462478Y-45894669D01*
X54453276Y-45902282D01*
X54309008Y-46046802D01*
X54301413Y-46056015D01*
X54187078Y-46225206D01*
X54181362Y-46235690D01*
X54101082Y-46423450D01*
X54097453Y-46434821D01*
X54053885Y-46635480D01*
X54052563Y-46645100D01*
X54050110Y-46686387D01*
X54050000Y-46690102D01*
X54050000Y-47381885D01*
X52000000Y-47381885D01*
X52000000Y-45124240D01*
X52020002Y-45056119D01*
X52073658Y-45009626D01*
X52124227Y-44998252D01*
X53090750Y-44984653D01*
X55503223Y-44950708D01*
X55503224Y-44950708D01*
X55521335Y-44950453D01*
X55506479Y-40110848D01*
X67351879Y-40110848D01*
X67355068Y-40115108D01*
X67527988Y-40186734D01*
X67537373Y-40189783D01*
X67758554Y-40242885D01*
X67768301Y-40244428D01*
X67995070Y-40262275D01*
X68004930Y-40262275D01*
X68231699Y-40244428D01*
X68241446Y-40242885D01*
X68462627Y-40189783D01*
X68472012Y-40186734D01*
X68637436Y-40118213D01*
X68648417Y-40109364D01*
X68647101Y-40104208D01*
X68012812Y-39469919D01*
X67998868Y-39462305D01*
X67997035Y-39462436D01*
X67990420Y-39466687D01*
X67358639Y-40098468D01*
X67351879Y-40110848D01*
X55506479Y-40110848D01*
X55502317Y-38754930D01*
X66487725Y-38754930D01*
X66505572Y-38981699D01*
X66507115Y-38991446D01*
X66560217Y-39212627D01*
X66563266Y-39222012D01*
X66631787Y-39387436D01*
X66640636Y-39398417D01*
X66645792Y-39397101D01*
X67280081Y-38762812D01*
X67286459Y-38751132D01*
X68712305Y-38751132D01*
X68712436Y-38752965D01*
X68716687Y-38759580D01*
X69348468Y-39391361D01*
X69360848Y-39398121D01*
X69365108Y-39394932D01*
X69436734Y-39222012D01*
X69439783Y-39212627D01*
X69492885Y-38991446D01*
X69494428Y-38981699D01*
X69512275Y-38754930D01*
X69512275Y-38745070D01*
X69494428Y-38518301D01*
X69492885Y-38508554D01*
X69439783Y-38287373D01*
X69436734Y-38277988D01*
X69368213Y-38112564D01*
X69359364Y-38101583D01*
X69354208Y-38102899D01*
X68719919Y-38737188D01*
X68712305Y-38751132D01*
X67286459Y-38751132D01*
X67287695Y-38748868D01*
X67287564Y-38747035D01*
X67283313Y-38740420D01*
X66651532Y-38108639D01*
X66639152Y-38101879D01*
X66634892Y-38105068D01*
X66563266Y-38277988D01*
X66560217Y-38287373D01*
X66507115Y-38508554D01*
X66505572Y-38518301D01*
X66487725Y-38745070D01*
X66487725Y-38754930D01*
X55502317Y-38754930D01*
X55498129Y-37390636D01*
X67351583Y-37390636D01*
X67352899Y-37395792D01*
X67987188Y-38030081D01*
X68001132Y-38037695D01*
X68002965Y-38037564D01*
X68009580Y-38033313D01*
X68641361Y-37401532D01*
X68648121Y-37389152D01*
X68644932Y-37384892D01*
X68472012Y-37313266D01*
X68462627Y-37310217D01*
X68241446Y-37257115D01*
X68231699Y-37255572D01*
X68004930Y-37237725D01*
X67995070Y-37237725D01*
X67768301Y-37255572D01*
X67758554Y-37257115D01*
X67537373Y-37310217D01*
X67527988Y-37313266D01*
X67362564Y-37381787D01*
X67351583Y-37390636D01*
X55498129Y-37390636D01*
X55495217Y-36442121D01*
X55492718Y-35627932D01*
X55512510Y-35559750D01*
X55566023Y-35513093D01*
X55618703Y-35501545D01*
X65263242Y-35500576D01*
X70981885Y-35500002D01*
X70981886Y-35500002D01*
X71000000Y-35500000D01*
X71000000Y-34158020D01*
X76624707Y-34158020D01*
X76629173Y-34163986D01*
X76732892Y-34218555D01*
X76741441Y-34222272D01*
X76972282Y-34302885D01*
X76981291Y-34305299D01*
X77221518Y-34350908D01*
X77230775Y-34351962D01*
X77475107Y-34361563D01*
X77484420Y-34361237D01*
X77727478Y-34334618D01*
X77736655Y-34332917D01*
X77973107Y-34270665D01*
X77981926Y-34267628D01*
X78206582Y-34171108D01*
X78209648Y-34169512D01*
X78218033Y-34160163D01*
X78214146Y-34151253D01*
X77432812Y-33369919D01*
X77418868Y-33362305D01*
X77417035Y-33362436D01*
X77410420Y-33366687D01*
X76631467Y-34145640D01*
X76624707Y-34158020D01*
X71000000Y-34158020D01*
X71000000Y-32609835D01*
X75708022Y-32609835D01*
X75719754Y-32854064D01*
X75720891Y-32863324D01*
X75768593Y-33103143D01*
X75771082Y-33112118D01*
X75853708Y-33342250D01*
X75857503Y-33350775D01*
X75902969Y-33435391D01*
X75912873Y-33445429D01*
X75920106Y-33442787D01*
X76700081Y-32662812D01*
X76706459Y-32651132D01*
X78132305Y-32651132D01*
X78132436Y-32652965D01*
X78136687Y-32659580D01*
X78918364Y-33441257D01*
X78930744Y-33448017D01*
X78935509Y-33444450D01*
X79027572Y-33240076D01*
X79030766Y-33231301D01*
X79097135Y-32995973D01*
X79098993Y-32986844D01*
X79130044Y-32742770D01*
X79130525Y-32736483D01*
X79132706Y-32653160D01*
X79132555Y-32646851D01*
X79114321Y-32401486D01*
X79112944Y-32392280D01*
X79058979Y-32153786D01*
X79056255Y-32144875D01*
X78967631Y-31916978D01*
X78963620Y-31908569D01*
X78938029Y-31863795D01*
X78927865Y-31854019D01*
X78919966Y-31857141D01*
X78139919Y-32637188D01*
X78132305Y-32651132D01*
X76706459Y-32651132D01*
X76707695Y-32648868D01*
X76707564Y-32647035D01*
X76703313Y-32640420D01*
X75922344Y-31859451D01*
X75909964Y-31852691D01*
X75902443Y-31858321D01*
X75896322Y-31868409D01*
X75892084Y-31876726D01*
X75797529Y-32102214D01*
X75794572Y-32111052D01*
X75734384Y-32348042D01*
X75732763Y-32357232D01*
X75708267Y-32600510D01*
X75708022Y-32609835D01*
X71000000Y-32609835D01*
X71000000Y-31141203D01*
X76622449Y-31141203D01*
X76624202Y-31147095D01*
X77407188Y-31930081D01*
X77421132Y-31937695D01*
X77422965Y-31937564D01*
X77429580Y-31933313D01*
X78209103Y-31153790D01*
X78215863Y-31141410D01*
X78211809Y-31135994D01*
X78061622Y-31061930D01*
X78062275Y-31060605D01*
X78011672Y-31020547D01*
X77988666Y-30953381D01*
X78005625Y-30884440D01*
X78057164Y-30835611D01*
X78064804Y-30832021D01*
X78206582Y-30771108D01*
X78209648Y-30769512D01*
X78218033Y-30760163D01*
X78214146Y-30751253D01*
X77432812Y-29969919D01*
X77418868Y-29962305D01*
X77417035Y-29962436D01*
X77410420Y-29966687D01*
X76631467Y-30745640D01*
X76624707Y-30758020D01*
X76629173Y-30763986D01*
X76732892Y-30818555D01*
X76741441Y-30822271D01*
X76767547Y-30831388D01*
X76825264Y-30872730D01*
X76851468Y-30938714D01*
X76837839Y-31008390D01*
X76788703Y-31059637D01*
X76778758Y-31064769D01*
X76633073Y-31131931D01*
X76622449Y-31141203D01*
X71000000Y-31141203D01*
X71000000Y-29209835D01*
X75708022Y-29209835D01*
X75719754Y-29454064D01*
X75720891Y-29463324D01*
X75768593Y-29703143D01*
X75771082Y-29712118D01*
X75853708Y-29942250D01*
X75857503Y-29950775D01*
X75902969Y-30035391D01*
X75912873Y-30045429D01*
X75920106Y-30042787D01*
X76700081Y-29262812D01*
X76706459Y-29251132D01*
X78132305Y-29251132D01*
X78132436Y-29252965D01*
X78136687Y-29259580D01*
X78918364Y-30041257D01*
X78930744Y-30048017D01*
X78935509Y-30044450D01*
X79027572Y-29840076D01*
X79030766Y-29831301D01*
X79097135Y-29595973D01*
X79098993Y-29586844D01*
X79130044Y-29342770D01*
X79130525Y-29336483D01*
X79132706Y-29253160D01*
X79132555Y-29246851D01*
X79114321Y-29001486D01*
X79112944Y-28992280D01*
X79058979Y-28753786D01*
X79056255Y-28744875D01*
X78967631Y-28516978D01*
X78963620Y-28508569D01*
X78938029Y-28463795D01*
X78927865Y-28454019D01*
X78919966Y-28457141D01*
X78139919Y-29237188D01*
X78132305Y-29251132D01*
X76706459Y-29251132D01*
X76707695Y-29248868D01*
X76707564Y-29247035D01*
X76703313Y-29240420D01*
X75922344Y-28459451D01*
X75909964Y-28452691D01*
X75902443Y-28458321D01*
X75896322Y-28468409D01*
X75892084Y-28476726D01*
X75797529Y-28702214D01*
X75794572Y-28711052D01*
X75734384Y-28948042D01*
X75732763Y-28957232D01*
X75708267Y-29200510D01*
X75708022Y-29209835D01*
X71000000Y-29209835D01*
X71000000Y-27741203D01*
X76622449Y-27741203D01*
X76624202Y-27747095D01*
X77407188Y-28530081D01*
X77421132Y-28537695D01*
X77422965Y-28537564D01*
X77429580Y-28533313D01*
X78209103Y-27753790D01*
X78215863Y-27741410D01*
X78211809Y-27735994D01*
X78065808Y-27663994D01*
X78057176Y-27660507D01*
X77824288Y-27585958D01*
X77815238Y-27583785D01*
X77573891Y-27544480D01*
X77564602Y-27543668D01*
X77320114Y-27540467D01*
X77310803Y-27541037D01*
X77068522Y-27574010D01*
X77059403Y-27575948D01*
X76824668Y-27644367D01*
X76815915Y-27647639D01*
X76633074Y-27731931D01*
X76622449Y-27741203D01*
X71000000Y-27741203D01*
X71000000Y-27376000D01*
X71020002Y-27307879D01*
X71073658Y-27261386D01*
X71126000Y-27250000D01*
X73500000Y-27250000D01*
X73450169Y-25007613D01*
X73468653Y-24939066D01*
X73478495Y-24925179D01*
X73485541Y-24916540D01*
X73485542Y-24916539D01*
X73489573Y-24911596D01*
X73583741Y-24731470D01*
X73624786Y-24588328D01*
X74324139Y-24588328D01*
X74333386Y-24600302D01*
X74592275Y-24782252D01*
X74597652Y-24785638D01*
X74924138Y-24968854D01*
X74929831Y-24971680D01*
X75273153Y-25120960D01*
X75279127Y-25123205D01*
X75635757Y-25237021D01*
X75641925Y-25238650D01*
X76008245Y-25315846D01*
X76014529Y-25316841D01*
X76386784Y-25356624D01*
X76393146Y-25356980D01*
X76767509Y-25358939D01*
X76773859Y-25358651D01*
X77146502Y-25322771D01*
X77152827Y-25321836D01*
X77519921Y-25248483D01*
X77526094Y-25246921D01*
X77883922Y-25136840D01*
X77889898Y-25134665D01*
X78234757Y-24988990D01*
X78240499Y-24986214D01*
X78568882Y-24806430D01*
X78574293Y-24803101D01*
X78868558Y-24600858D01*
X78876902Y-24590603D01*
X78869756Y-24576863D01*
X76612812Y-22319919D01*
X76598868Y-22312305D01*
X76597035Y-22312436D01*
X76590420Y-22316687D01*
X74330588Y-24576519D01*
X74324139Y-24588328D01*
X73624786Y-24588328D01*
X73639766Y-24536087D01*
X73645169Y-24475548D01*
X73650251Y-24418609D01*
X73650251Y-24418603D01*
X73650500Y-24415816D01*
X73650500Y-23894583D01*
X73670502Y-23826462D01*
X73687405Y-23805488D01*
X75880081Y-21612812D01*
X75886459Y-21601132D01*
X77312305Y-21601132D01*
X77312436Y-21602965D01*
X77316687Y-21609580D01*
X79574658Y-23867551D01*
X79587451Y-23874537D01*
X79598204Y-23866674D01*
X79672814Y-23771521D01*
X79676481Y-23766322D01*
X79876520Y-23449890D01*
X79879654Y-23444330D01*
X80046697Y-23109293D01*
X80049242Y-23103467D01*
X80181577Y-22753254D01*
X80183520Y-22747202D01*
X80279782Y-22385421D01*
X80281108Y-22379186D01*
X80340316Y-22009534D01*
X80341005Y-22003197D01*
X80362640Y-21627964D01*
X80362744Y-21624568D01*
X80362824Y-21601696D01*
X80362745Y-21598316D01*
X80343728Y-21222915D01*
X80343085Y-21216595D01*
X80286459Y-20846538D01*
X80285176Y-20840289D01*
X80191441Y-20477840D01*
X80189539Y-20471772D01*
X80059659Y-20120661D01*
X80057141Y-20114789D01*
X79892456Y-19778624D01*
X79889351Y-19773022D01*
X79691530Y-19455210D01*
X79687900Y-19449985D01*
X79598371Y-19334147D01*
X79586690Y-19325681D01*
X79574832Y-19332275D01*
X77319919Y-21587188D01*
X77312305Y-21601132D01*
X75886459Y-21601132D01*
X75887695Y-21598868D01*
X75887564Y-21597035D01*
X75883313Y-21590420D01*
X73687405Y-19394512D01*
X73653379Y-19332200D01*
X73650500Y-19305417D01*
X73650500Y-18784184D01*
X73639766Y-18663913D01*
X73624275Y-18609889D01*
X74323504Y-18609889D01*
X74330619Y-18623512D01*
X76587188Y-20880081D01*
X76601132Y-20887695D01*
X76602965Y-20887564D01*
X76609580Y-20883313D01*
X78869800Y-18623093D01*
X78876211Y-18611352D01*
X78866870Y-18599300D01*
X78596610Y-18410762D01*
X78591206Y-18407386D01*
X78264096Y-18225319D01*
X78258386Y-18222509D01*
X77914551Y-18074430D01*
X77908569Y-18072206D01*
X77551545Y-17959637D01*
X77545363Y-17958027D01*
X77178785Y-17882112D01*
X77172491Y-17881138D01*
X76800087Y-17842653D01*
X76793755Y-17842321D01*
X76419364Y-17841668D01*
X76413024Y-17841978D01*
X76040497Y-17879161D01*
X76034204Y-17880113D01*
X75667347Y-17954750D01*
X75661174Y-17956335D01*
X75303750Y-18067661D01*
X75297762Y-18069864D01*
X74953422Y-18216738D01*
X74947691Y-18219533D01*
X74619949Y-18400456D01*
X74614529Y-18403817D01*
X74331862Y-18599545D01*
X74323504Y-18609889D01*
X73624275Y-18609889D01*
X73583741Y-18468530D01*
X73489573Y-18288404D01*
X73472656Y-18267661D01*
X73365138Y-18135831D01*
X73361109Y-18130891D01*
X73356168Y-18126861D01*
X73341217Y-18114667D01*
X73301070Y-18056112D01*
X73294885Y-18019824D01*
X73252862Y-16128799D01*
X73271346Y-16060251D01*
X73323955Y-16012578D01*
X73378831Y-16000000D01*
X81124000Y-16000000D01*
X81192121Y-16020002D01*
X81238614Y-16073658D01*
X81250000Y-16126000D01*
X81250000Y-26250000D01*
X81262656Y-26250352D01*
X81262658Y-26250352D01*
X90231889Y-26499497D01*
X90250000Y-26500000D01*
X90250378Y-26481885D01*
X90268154Y-25628609D01*
X90289571Y-25560919D01*
X90344183Y-25515554D01*
X90359396Y-25510114D01*
X90372307Y-25506412D01*
X90423470Y-25491741D01*
X90603596Y-25397573D01*
X90651505Y-25358500D01*
X90756169Y-25273138D01*
X90761109Y-25269109D01*
X90868985Y-25136840D01*
X90885541Y-25116540D01*
X90885542Y-25116539D01*
X90889573Y-25111596D01*
X90983741Y-24931470D01*
X91024786Y-24788328D01*
X91724139Y-24788328D01*
X91733386Y-24800302D01*
X91992275Y-24982252D01*
X91997652Y-24985638D01*
X92324138Y-25168854D01*
X92329831Y-25171680D01*
X92673153Y-25320960D01*
X92679127Y-25323205D01*
X93035757Y-25437021D01*
X93041925Y-25438650D01*
X93408245Y-25515846D01*
X93414529Y-25516841D01*
X93786784Y-25556624D01*
X93793146Y-25556980D01*
X94167509Y-25558939D01*
X94173859Y-25558651D01*
X94546502Y-25522771D01*
X94552827Y-25521836D01*
X94919921Y-25448483D01*
X94926094Y-25446921D01*
X95283922Y-25336840D01*
X95289898Y-25334665D01*
X95634757Y-25188990D01*
X95640499Y-25186214D01*
X95968882Y-25006430D01*
X95974293Y-25003101D01*
X96268558Y-24800858D01*
X96276902Y-24790603D01*
X96269756Y-24776863D01*
X94012812Y-22519919D01*
X93998868Y-22512305D01*
X93997035Y-22512436D01*
X93990420Y-22516687D01*
X91730588Y-24776519D01*
X91724139Y-24788328D01*
X91024786Y-24788328D01*
X91039766Y-24736087D01*
X91046516Y-24660459D01*
X91050251Y-24618609D01*
X91050251Y-24618603D01*
X91050500Y-24615816D01*
X91050500Y-24094583D01*
X91070502Y-24026462D01*
X91087405Y-24005488D01*
X93280081Y-21812812D01*
X93286459Y-21801132D01*
X94712305Y-21801132D01*
X94712436Y-21802965D01*
X94716687Y-21809580D01*
X96974658Y-24067551D01*
X96987451Y-24074537D01*
X96998204Y-24066674D01*
X97072814Y-23971521D01*
X97076481Y-23966322D01*
X97276520Y-23649890D01*
X97279654Y-23644330D01*
X97446697Y-23309293D01*
X97449242Y-23303467D01*
X97581577Y-22953254D01*
X97583520Y-22947202D01*
X97679782Y-22585421D01*
X97681108Y-22579186D01*
X97740316Y-22209534D01*
X97741005Y-22203197D01*
X97762640Y-21827964D01*
X97762744Y-21824568D01*
X97762824Y-21801696D01*
X97762745Y-21798316D01*
X97743728Y-21422915D01*
X97743085Y-21416595D01*
X97686459Y-21046538D01*
X97685176Y-21040289D01*
X97591441Y-20677840D01*
X97589539Y-20671772D01*
X97459659Y-20320661D01*
X97457141Y-20314789D01*
X97292456Y-19978624D01*
X97289351Y-19973022D01*
X97091530Y-19655210D01*
X97087900Y-19649985D01*
X96998371Y-19534147D01*
X96986690Y-19525681D01*
X96974832Y-19532275D01*
X94719919Y-21787188D01*
X94712305Y-21801132D01*
X93286459Y-21801132D01*
X93287695Y-21798868D01*
X93287564Y-21797035D01*
X93283313Y-21790420D01*
X91087405Y-19594512D01*
X91053379Y-19532200D01*
X91050500Y-19505417D01*
X91050500Y-18984184D01*
X91039766Y-18863913D01*
X91024275Y-18809889D01*
X91723504Y-18809889D01*
X91730619Y-18823512D01*
X93987188Y-21080081D01*
X94001132Y-21087695D01*
X94002965Y-21087564D01*
X94009580Y-21083313D01*
X96269800Y-18823093D01*
X96276211Y-18811352D01*
X96266870Y-18799300D01*
X95996610Y-18610762D01*
X95991206Y-18607386D01*
X95664096Y-18425319D01*
X95658386Y-18422509D01*
X95314551Y-18274430D01*
X95308569Y-18272206D01*
X94951545Y-18159637D01*
X94945363Y-18158027D01*
X94578785Y-18082112D01*
X94572491Y-18081138D01*
X94200087Y-18042653D01*
X94193755Y-18042321D01*
X93819364Y-18041668D01*
X93813024Y-18041978D01*
X93440497Y-18079161D01*
X93434204Y-18080113D01*
X93067347Y-18154750D01*
X93061174Y-18156335D01*
X92703750Y-18267661D01*
X92697762Y-18269864D01*
X92353422Y-18416738D01*
X92347691Y-18419533D01*
X92019949Y-18600456D01*
X92014529Y-18603817D01*
X91731862Y-18799545D01*
X91723504Y-18809889D01*
X91024275Y-18809889D01*
X90983741Y-18668530D01*
X90889573Y-18488404D01*
X90833404Y-18419533D01*
X90765138Y-18335831D01*
X90761109Y-18330891D01*
X90634409Y-18227557D01*
X90608539Y-18206458D01*
X90608536Y-18206456D01*
X90603596Y-18202427D01*
X90494038Y-18145151D01*
X90442936Y-18095865D01*
X90426440Y-18030865D01*
X90427958Y-17958027D01*
X90466125Y-16126000D01*
X90497253Y-14631876D01*
X90518670Y-14564186D01*
X90573282Y-14518821D01*
X90623226Y-14508500D01*
X99874000Y-14508500D01*
X99942121Y-14528502D01*
G37*
%TD.AperFunction*%
%TD*%
%TA.AperFunction,Conductor*%
%TO.N,Net-(F2-Pad1)*%
G36*
X113376100Y-44497935D02*
G01*
X113443878Y-44519070D01*
X113489470Y-44573493D01*
X113500000Y-44623918D01*
X113500000Y-82874000D01*
X113479998Y-82942121D01*
X113426342Y-82988614D01*
X113374000Y-83000000D01*
X103126000Y-83000000D01*
X103057879Y-82979998D01*
X103011386Y-82926342D01*
X103000000Y-82874000D01*
X103000000Y-81708692D01*
X105754034Y-81708692D01*
X105757776Y-81713691D01*
X105795940Y-81731487D01*
X105806244Y-81735237D01*
X106016688Y-81791625D01*
X106027481Y-81793528D01*
X106244525Y-81812517D01*
X106255475Y-81812517D01*
X106472519Y-81793528D01*
X106483312Y-81791625D01*
X106693756Y-81735237D01*
X106704060Y-81731487D01*
X106735599Y-81716780D01*
X106746184Y-81707461D01*
X106744377Y-81701483D01*
X106262808Y-81219915D01*
X106248870Y-81212304D01*
X106247034Y-81212436D01*
X106240422Y-81216685D01*
X105760793Y-81696313D01*
X105754034Y-81708692D01*
X103000000Y-81708692D01*
X103000000Y-80505475D01*
X104937483Y-80505475D01*
X104956472Y-80722519D01*
X104958375Y-80733312D01*
X105014763Y-80943756D01*
X105018513Y-80954060D01*
X105033220Y-80985599D01*
X105042539Y-80996184D01*
X105048517Y-80994377D01*
X105530085Y-80512808D01*
X105536462Y-80501130D01*
X106962304Y-80501130D01*
X106962436Y-80502966D01*
X106966685Y-80509578D01*
X107446313Y-80989207D01*
X107458692Y-80995966D01*
X107463691Y-80992224D01*
X107481487Y-80954060D01*
X107485237Y-80943756D01*
X107541625Y-80733312D01*
X107543528Y-80722519D01*
X107562517Y-80505475D01*
X107562517Y-80494525D01*
X107543528Y-80277481D01*
X107541625Y-80266688D01*
X107485237Y-80056244D01*
X107481487Y-80045940D01*
X107466780Y-80014401D01*
X107457461Y-80003816D01*
X107451483Y-80005623D01*
X106969915Y-80487192D01*
X106962304Y-80501130D01*
X105536462Y-80501130D01*
X105537696Y-80498870D01*
X105537564Y-80497034D01*
X105533315Y-80490422D01*
X105053687Y-80010793D01*
X105041308Y-80004034D01*
X105036309Y-80007776D01*
X105018513Y-80045940D01*
X105014763Y-80056244D01*
X104958375Y-80266688D01*
X104956472Y-80277481D01*
X104937483Y-80494525D01*
X104937483Y-80505475D01*
X103000000Y-80505475D01*
X103000000Y-79292539D01*
X105753816Y-79292539D01*
X105755623Y-79298517D01*
X106237192Y-79780085D01*
X106251130Y-79787696D01*
X106252966Y-79787564D01*
X106259578Y-79783315D01*
X106739207Y-79303687D01*
X106745966Y-79291308D01*
X106742224Y-79286309D01*
X106704060Y-79268513D01*
X106693756Y-79264763D01*
X106483312Y-79208375D01*
X106472519Y-79206472D01*
X106255475Y-79187483D01*
X106244525Y-79187483D01*
X106027481Y-79206472D01*
X106016688Y-79208375D01*
X105806244Y-79264763D01*
X105795940Y-79268513D01*
X105764401Y-79283220D01*
X105753816Y-79292539D01*
X103000000Y-79292539D01*
X103000000Y-78445835D01*
X103004731Y-78411634D01*
X103018033Y-78364467D01*
X103019302Y-78359969D01*
X103053075Y-78094495D01*
X103055549Y-78000000D01*
X103035717Y-77733123D01*
X103025161Y-77686470D01*
X103003107Y-77589009D01*
X103000000Y-77561201D01*
X103000000Y-74729807D01*
X108550001Y-74729807D01*
X108550121Y-74733701D01*
X108552790Y-74776893D01*
X108554126Y-74786472D01*
X108598048Y-74987073D01*
X108601695Y-74998432D01*
X108682306Y-75186059D01*
X108688041Y-75196533D01*
X108802669Y-75365522D01*
X108810282Y-75374724D01*
X108954802Y-75518992D01*
X108964015Y-75526587D01*
X109133206Y-75640922D01*
X109143690Y-75646638D01*
X109331450Y-75726918D01*
X109342821Y-75730547D01*
X109543480Y-75774115D01*
X109553100Y-75775437D01*
X109594387Y-75777890D01*
X109598102Y-75778000D01*
X109789885Y-75778000D01*
X109805124Y-75773525D01*
X109806329Y-75772135D01*
X109808000Y-75764452D01*
X109808000Y-75759884D01*
X110808000Y-75759884D01*
X110812475Y-75775123D01*
X110813865Y-75776328D01*
X110821548Y-75777999D01*
X111017807Y-75777999D01*
X111021701Y-75777879D01*
X111064893Y-75775210D01*
X111074472Y-75773874D01*
X111275073Y-75729952D01*
X111286432Y-75726305D01*
X111474059Y-75645694D01*
X111484533Y-75639959D01*
X111653522Y-75525331D01*
X111662724Y-75517718D01*
X111806992Y-75373198D01*
X111814587Y-75363985D01*
X111928922Y-75194794D01*
X111934638Y-75184310D01*
X112014918Y-74996550D01*
X112018547Y-74985179D01*
X112062115Y-74784520D01*
X112063437Y-74774900D01*
X112065890Y-74733613D01*
X112066000Y-74729898D01*
X112066000Y-74038115D01*
X112061525Y-74022876D01*
X112060135Y-74021671D01*
X112052452Y-74020000D01*
X110826115Y-74020000D01*
X110810876Y-74024475D01*
X110809671Y-74025865D01*
X110808000Y-74033548D01*
X110808000Y-75759884D01*
X109808000Y-75759884D01*
X109808000Y-74038115D01*
X109803525Y-74022876D01*
X109802135Y-74021671D01*
X109794452Y-74020000D01*
X108568116Y-74020000D01*
X108552877Y-74024475D01*
X108551672Y-74025865D01*
X108550001Y-74033548D01*
X108550001Y-74729807D01*
X103000000Y-74729807D01*
X103000000Y-73001885D01*
X108550000Y-73001885D01*
X108554475Y-73017124D01*
X108555865Y-73018329D01*
X108563548Y-73020000D01*
X109789885Y-73020000D01*
X109805124Y-73015525D01*
X109806329Y-73014135D01*
X109808000Y-73006452D01*
X109808000Y-73001885D01*
X110808000Y-73001885D01*
X110812475Y-73017124D01*
X110813865Y-73018329D01*
X110821548Y-73020000D01*
X112047884Y-73020000D01*
X112063123Y-73015525D01*
X112064328Y-73014135D01*
X112065999Y-73006452D01*
X112065999Y-72310194D01*
X112065879Y-72306299D01*
X112063210Y-72263107D01*
X112061874Y-72253528D01*
X112017952Y-72052927D01*
X112014305Y-72041568D01*
X111933694Y-71853941D01*
X111927959Y-71843467D01*
X111813331Y-71674478D01*
X111805718Y-71665276D01*
X111661198Y-71521008D01*
X111651985Y-71513413D01*
X111482794Y-71399078D01*
X111472310Y-71393362D01*
X111284550Y-71313082D01*
X111273179Y-71309453D01*
X111072520Y-71265885D01*
X111062900Y-71264563D01*
X111021613Y-71262110D01*
X111017898Y-71262000D01*
X110826115Y-71262000D01*
X110810876Y-71266475D01*
X110809671Y-71267865D01*
X110808000Y-71275548D01*
X110808000Y-73001885D01*
X109808000Y-73001885D01*
X109808000Y-71280116D01*
X109803525Y-71264877D01*
X109802135Y-71263672D01*
X109794452Y-71262001D01*
X109598194Y-71262001D01*
X109594299Y-71262121D01*
X109551107Y-71264790D01*
X109541528Y-71266126D01*
X109340927Y-71310048D01*
X109329568Y-71313695D01*
X109141941Y-71394306D01*
X109131467Y-71400041D01*
X108962478Y-71514669D01*
X108953276Y-71522282D01*
X108809008Y-71666802D01*
X108801413Y-71676015D01*
X108687078Y-71845206D01*
X108681362Y-71855690D01*
X108601082Y-72043450D01*
X108597453Y-72054821D01*
X108553885Y-72255480D01*
X108552563Y-72265100D01*
X108550110Y-72306387D01*
X108550000Y-72310102D01*
X108550000Y-73001885D01*
X103000000Y-73001885D01*
X103000000Y-54500000D01*
X83622770Y-54003148D01*
X83555185Y-53981406D01*
X83510082Y-53926576D01*
X83500000Y-53877189D01*
X83500000Y-50189236D01*
X86152000Y-50189236D01*
X86152212Y-50194409D01*
X86166475Y-50367892D01*
X86168158Y-50378054D01*
X86225048Y-50604547D01*
X86228366Y-50614294D01*
X86321487Y-50828458D01*
X86326354Y-50837533D01*
X86453197Y-51033604D01*
X86459488Y-51041773D01*
X86616652Y-51214493D01*
X86624185Y-51221518D01*
X86807452Y-51366254D01*
X86816030Y-51371953D01*
X87020474Y-51484811D01*
X87029874Y-51489036D01*
X87117925Y-51520216D01*
X87132005Y-51520988D01*
X87135000Y-51515278D01*
X87135000Y-51508749D01*
X88135000Y-51508749D01*
X88138973Y-51522280D01*
X88145954Y-51523284D01*
X88206742Y-51503415D01*
X88216244Y-51499420D01*
X88423375Y-51391595D01*
X88432100Y-51386101D01*
X88618842Y-51245891D01*
X88626549Y-51239048D01*
X88787887Y-51070218D01*
X88794373Y-51062208D01*
X88925964Y-50869302D01*
X88931057Y-50860338D01*
X89029381Y-50648517D01*
X89032938Y-50638849D01*
X89095343Y-50413822D01*
X89097274Y-50403702D01*
X89117644Y-50213100D01*
X89118000Y-50206408D01*
X89118000Y-49673115D01*
X89113525Y-49657876D01*
X89112135Y-49656671D01*
X89104452Y-49655000D01*
X88153115Y-49655000D01*
X88137876Y-49659475D01*
X88136671Y-49660865D01*
X88135000Y-49668548D01*
X88135000Y-51508749D01*
X87135000Y-51508749D01*
X87135000Y-49673115D01*
X87130525Y-49657876D01*
X87129135Y-49656671D01*
X87121452Y-49655000D01*
X86170115Y-49655000D01*
X86154876Y-49659475D01*
X86153671Y-49660865D01*
X86152000Y-49668548D01*
X86152000Y-50189236D01*
X83500000Y-50189236D01*
X83500000Y-48636885D01*
X86152000Y-48636885D01*
X86156475Y-48652124D01*
X86157865Y-48653329D01*
X86165548Y-48655000D01*
X87116885Y-48655000D01*
X87132124Y-48650525D01*
X87133329Y-48649135D01*
X87135000Y-48641452D01*
X87135000Y-48636885D01*
X88135000Y-48636885D01*
X88139475Y-48652124D01*
X88140865Y-48653329D01*
X88148548Y-48655000D01*
X89099885Y-48655000D01*
X89115124Y-48650525D01*
X89116329Y-48649135D01*
X89118000Y-48641452D01*
X89118000Y-48120764D01*
X89117788Y-48115591D01*
X89103525Y-47942108D01*
X89101842Y-47931946D01*
X89044952Y-47705453D01*
X89041634Y-47695706D01*
X88948513Y-47481542D01*
X88943646Y-47472467D01*
X88816803Y-47276396D01*
X88810512Y-47268227D01*
X88653348Y-47095507D01*
X88645815Y-47088482D01*
X88462548Y-46943746D01*
X88453970Y-46938047D01*
X88249526Y-46825189D01*
X88240126Y-46820964D01*
X88152075Y-46789784D01*
X88137995Y-46789012D01*
X88135000Y-46794722D01*
X88135000Y-48636885D01*
X87135000Y-48636885D01*
X87135000Y-46801251D01*
X87131027Y-46787720D01*
X87124046Y-46786716D01*
X87063258Y-46806585D01*
X87053756Y-46810580D01*
X86846625Y-46918405D01*
X86837900Y-46923899D01*
X86651158Y-47064109D01*
X86643451Y-47070952D01*
X86482113Y-47239782D01*
X86475627Y-47247792D01*
X86344036Y-47440698D01*
X86338943Y-47449662D01*
X86240619Y-47661483D01*
X86237062Y-47671151D01*
X86174657Y-47896178D01*
X86172726Y-47906298D01*
X86152356Y-48096900D01*
X86152000Y-48103592D01*
X86152000Y-48636885D01*
X83500000Y-48636885D01*
X83500000Y-44128118D01*
X83520002Y-44059997D01*
X83573658Y-44013504D01*
X83628100Y-44002135D01*
X113376100Y-44497935D01*
G37*
%TD.AperFunction*%
%TD*%
%TA.AperFunction,Conductor*%
%TO.N,Net-(F3-Pad1)*%
G36*
X63942121Y-62020002D02*
G01*
X63988614Y-62073658D01*
X64000000Y-62126000D01*
X64000000Y-79874000D01*
X63979998Y-79942121D01*
X63926342Y-79988614D01*
X63874000Y-80000000D01*
X58000000Y-80000000D01*
X58000000Y-90874000D01*
X57979998Y-90942121D01*
X57926342Y-90988614D01*
X57874000Y-91000000D01*
X53126000Y-91000000D01*
X53057879Y-90979998D01*
X53011386Y-90926342D01*
X53000000Y-90874000D01*
X53000000Y-88479807D01*
X54050001Y-88479807D01*
X54050121Y-88483701D01*
X54052790Y-88526893D01*
X54054126Y-88536472D01*
X54098048Y-88737073D01*
X54101695Y-88748432D01*
X54182306Y-88936059D01*
X54188041Y-88946533D01*
X54302669Y-89115522D01*
X54310282Y-89124724D01*
X54454802Y-89268992D01*
X54464015Y-89276587D01*
X54633206Y-89390922D01*
X54643690Y-89396638D01*
X54831450Y-89476918D01*
X54842821Y-89480547D01*
X55043480Y-89524115D01*
X55053100Y-89525437D01*
X55094387Y-89527890D01*
X55098102Y-89528000D01*
X55289885Y-89528000D01*
X55305124Y-89523525D01*
X55306329Y-89522135D01*
X55308000Y-89514452D01*
X55308000Y-89509884D01*
X56308000Y-89509884D01*
X56312475Y-89525123D01*
X56313865Y-89526328D01*
X56321548Y-89527999D01*
X56517807Y-89527999D01*
X56521701Y-89527879D01*
X56564893Y-89525210D01*
X56574472Y-89523874D01*
X56775073Y-89479952D01*
X56786432Y-89476305D01*
X56974059Y-89395694D01*
X56984533Y-89389959D01*
X57153522Y-89275331D01*
X57162724Y-89267718D01*
X57306992Y-89123198D01*
X57314587Y-89113985D01*
X57428922Y-88944794D01*
X57434638Y-88934310D01*
X57514918Y-88746550D01*
X57518547Y-88735179D01*
X57562115Y-88534520D01*
X57563437Y-88524900D01*
X57565890Y-88483613D01*
X57566000Y-88479898D01*
X57566000Y-87788115D01*
X57561525Y-87772876D01*
X57560135Y-87771671D01*
X57552452Y-87770000D01*
X56326115Y-87770000D01*
X56310876Y-87774475D01*
X56309671Y-87775865D01*
X56308000Y-87783548D01*
X56308000Y-89509884D01*
X55308000Y-89509884D01*
X55308000Y-87788115D01*
X55303525Y-87772876D01*
X55302135Y-87771671D01*
X55294452Y-87770000D01*
X54068116Y-87770000D01*
X54052877Y-87774475D01*
X54051672Y-87775865D01*
X54050001Y-87783548D01*
X54050001Y-88479807D01*
X53000000Y-88479807D01*
X53000000Y-86751885D01*
X54050000Y-86751885D01*
X54054475Y-86767124D01*
X54055865Y-86768329D01*
X54063548Y-86770000D01*
X55289885Y-86770000D01*
X55305124Y-86765525D01*
X55306329Y-86764135D01*
X55308000Y-86756452D01*
X55308000Y-86751885D01*
X56308000Y-86751885D01*
X56312475Y-86767124D01*
X56313865Y-86768329D01*
X56321548Y-86770000D01*
X57547884Y-86770000D01*
X57563123Y-86765525D01*
X57564328Y-86764135D01*
X57565999Y-86756452D01*
X57565999Y-86060194D01*
X57565879Y-86056299D01*
X57563210Y-86013107D01*
X57561874Y-86003528D01*
X57517952Y-85802927D01*
X57514305Y-85791568D01*
X57433694Y-85603941D01*
X57427959Y-85593467D01*
X57313331Y-85424478D01*
X57305718Y-85415276D01*
X57161198Y-85271008D01*
X57151985Y-85263413D01*
X56982794Y-85149078D01*
X56972310Y-85143362D01*
X56784550Y-85063082D01*
X56773179Y-85059453D01*
X56572520Y-85015885D01*
X56562900Y-85014563D01*
X56521613Y-85012110D01*
X56517898Y-85012000D01*
X56326115Y-85012000D01*
X56310876Y-85016475D01*
X56309671Y-85017865D01*
X56308000Y-85025548D01*
X56308000Y-86751885D01*
X55308000Y-86751885D01*
X55308000Y-85030116D01*
X55303525Y-85014877D01*
X55302135Y-85013672D01*
X55294452Y-85012001D01*
X55098194Y-85012001D01*
X55094299Y-85012121D01*
X55051107Y-85014790D01*
X55041528Y-85016126D01*
X54840927Y-85060048D01*
X54829568Y-85063695D01*
X54641941Y-85144306D01*
X54631467Y-85150041D01*
X54462478Y-85264669D01*
X54453276Y-85272282D01*
X54309008Y-85416802D01*
X54301413Y-85426015D01*
X54187078Y-85595206D01*
X54181362Y-85605690D01*
X54101082Y-85793450D01*
X54097453Y-85804821D01*
X54053885Y-86005480D01*
X54052563Y-86015100D01*
X54050110Y-86056387D01*
X54050000Y-86060102D01*
X54050000Y-86751885D01*
X53000000Y-86751885D01*
X53000000Y-73629236D01*
X59382000Y-73629236D01*
X59382212Y-73634409D01*
X59396475Y-73807892D01*
X59398158Y-73818054D01*
X59455048Y-74044547D01*
X59458366Y-74054294D01*
X59551487Y-74268458D01*
X59556354Y-74277533D01*
X59683197Y-74473604D01*
X59689488Y-74481773D01*
X59846652Y-74654493D01*
X59854185Y-74661518D01*
X60037452Y-74806254D01*
X60046030Y-74811953D01*
X60250474Y-74924811D01*
X60259874Y-74929036D01*
X60347925Y-74960216D01*
X60362005Y-74960988D01*
X60365000Y-74955278D01*
X60365000Y-74948749D01*
X61365000Y-74948749D01*
X61368973Y-74962280D01*
X61375954Y-74963284D01*
X61436742Y-74943415D01*
X61446244Y-74939420D01*
X61653375Y-74831595D01*
X61662100Y-74826101D01*
X61848842Y-74685891D01*
X61856549Y-74679048D01*
X62017887Y-74510218D01*
X62024373Y-74502208D01*
X62155964Y-74309302D01*
X62161057Y-74300338D01*
X62259381Y-74088517D01*
X62262938Y-74078849D01*
X62325343Y-73853822D01*
X62327274Y-73843702D01*
X62347644Y-73653100D01*
X62348000Y-73646408D01*
X62348000Y-73113115D01*
X62343525Y-73097876D01*
X62342135Y-73096671D01*
X62334452Y-73095000D01*
X61383115Y-73095000D01*
X61367876Y-73099475D01*
X61366671Y-73100865D01*
X61365000Y-73108548D01*
X61365000Y-74948749D01*
X60365000Y-74948749D01*
X60365000Y-73113115D01*
X60360525Y-73097876D01*
X60359135Y-73096671D01*
X60351452Y-73095000D01*
X59400115Y-73095000D01*
X59384876Y-73099475D01*
X59383671Y-73100865D01*
X59382000Y-73108548D01*
X59382000Y-73629236D01*
X53000000Y-73629236D01*
X53000000Y-72076885D01*
X59382000Y-72076885D01*
X59386475Y-72092124D01*
X59387865Y-72093329D01*
X59395548Y-72095000D01*
X60346885Y-72095000D01*
X60362124Y-72090525D01*
X60363329Y-72089135D01*
X60365000Y-72081452D01*
X60365000Y-72076885D01*
X61365000Y-72076885D01*
X61369475Y-72092124D01*
X61370865Y-72093329D01*
X61378548Y-72095000D01*
X62329885Y-72095000D01*
X62345124Y-72090525D01*
X62346329Y-72089135D01*
X62348000Y-72081452D01*
X62348000Y-71560764D01*
X62347788Y-71555591D01*
X62333525Y-71382108D01*
X62331842Y-71371946D01*
X62274952Y-71145453D01*
X62271634Y-71135706D01*
X62178513Y-70921542D01*
X62173646Y-70912467D01*
X62046803Y-70716396D01*
X62040512Y-70708227D01*
X61883348Y-70535507D01*
X61875815Y-70528482D01*
X61692548Y-70383746D01*
X61683970Y-70378047D01*
X61479526Y-70265189D01*
X61470126Y-70260964D01*
X61382075Y-70229784D01*
X61367995Y-70229012D01*
X61365000Y-70234722D01*
X61365000Y-72076885D01*
X60365000Y-72076885D01*
X60365000Y-70241251D01*
X60361027Y-70227720D01*
X60354046Y-70226716D01*
X60293258Y-70246585D01*
X60283756Y-70250580D01*
X60076625Y-70358405D01*
X60067900Y-70363899D01*
X59881158Y-70504109D01*
X59873451Y-70510952D01*
X59712113Y-70679782D01*
X59705627Y-70687792D01*
X59574036Y-70880698D01*
X59568943Y-70889662D01*
X59470619Y-71101483D01*
X59467062Y-71111151D01*
X59404657Y-71336178D01*
X59402726Y-71346298D01*
X59382356Y-71536900D01*
X59382000Y-71543592D01*
X59382000Y-72076885D01*
X53000000Y-72076885D01*
X53000000Y-65708692D01*
X60254034Y-65708692D01*
X60257776Y-65713691D01*
X60295940Y-65731487D01*
X60306244Y-65735237D01*
X60516688Y-65791625D01*
X60527481Y-65793528D01*
X60744525Y-65812517D01*
X60755475Y-65812517D01*
X60972519Y-65793528D01*
X60983312Y-65791625D01*
X61193756Y-65735237D01*
X61204060Y-65731487D01*
X61235599Y-65716780D01*
X61246184Y-65707461D01*
X61244377Y-65701483D01*
X60762808Y-65219915D01*
X60748870Y-65212304D01*
X60747034Y-65212436D01*
X60740422Y-65216685D01*
X60260793Y-65696313D01*
X60254034Y-65708692D01*
X53000000Y-65708692D01*
X53000000Y-64505475D01*
X59437483Y-64505475D01*
X59456472Y-64722519D01*
X59458375Y-64733312D01*
X59514763Y-64943756D01*
X59518513Y-64954060D01*
X59533220Y-64985599D01*
X59542539Y-64996184D01*
X59548517Y-64994377D01*
X60030085Y-64512808D01*
X60036462Y-64501130D01*
X61462304Y-64501130D01*
X61462436Y-64502966D01*
X61466685Y-64509578D01*
X61946313Y-64989207D01*
X61958692Y-64995966D01*
X61963691Y-64992224D01*
X61981487Y-64954060D01*
X61985237Y-64943756D01*
X62041625Y-64733312D01*
X62043528Y-64722519D01*
X62062517Y-64505475D01*
X62062517Y-64494525D01*
X62043528Y-64277481D01*
X62041625Y-64266688D01*
X61985237Y-64056244D01*
X61981487Y-64045940D01*
X61966780Y-64014401D01*
X61957461Y-64003816D01*
X61951483Y-64005623D01*
X61469915Y-64487192D01*
X61462304Y-64501130D01*
X60036462Y-64501130D01*
X60037696Y-64498870D01*
X60037564Y-64497034D01*
X60033315Y-64490422D01*
X59553687Y-64010793D01*
X59541308Y-64004034D01*
X59536309Y-64007776D01*
X59518513Y-64045940D01*
X59514763Y-64056244D01*
X59458375Y-64266688D01*
X59456472Y-64277481D01*
X59437483Y-64494525D01*
X59437483Y-64505475D01*
X53000000Y-64505475D01*
X53000000Y-63292539D01*
X60253816Y-63292539D01*
X60255623Y-63298517D01*
X60737192Y-63780085D01*
X60751130Y-63787696D01*
X60752966Y-63787564D01*
X60759578Y-63783315D01*
X61239207Y-63303687D01*
X61245966Y-63291308D01*
X61242224Y-63286309D01*
X61204060Y-63268513D01*
X61193756Y-63264763D01*
X60983312Y-63208375D01*
X60972519Y-63206472D01*
X60755475Y-63187483D01*
X60744525Y-63187483D01*
X60527481Y-63206472D01*
X60516688Y-63208375D01*
X60306244Y-63264763D01*
X60295940Y-63268513D01*
X60264401Y-63283220D01*
X60253816Y-63292539D01*
X53000000Y-63292539D01*
X53000000Y-62126000D01*
X53020002Y-62057879D01*
X53073658Y-62011386D01*
X53126000Y-62000000D01*
X63874000Y-62000000D01*
X63942121Y-62020002D01*
G37*
%TD.AperFunction*%
%TD*%
%TA.AperFunction,Conductor*%
%TO.N,Net-(F3-Pad2)*%
G36*
X89942121Y-68020002D02*
G01*
X89988614Y-68073658D01*
X90000000Y-68126000D01*
X90000000Y-77000000D01*
X98874000Y-77000000D01*
X98942121Y-77020002D01*
X98988614Y-77073658D01*
X99000000Y-77126000D01*
X99000000Y-83000000D01*
X100874000Y-83000000D01*
X100942121Y-83020002D01*
X100988614Y-83073658D01*
X101000000Y-83126000D01*
X101000000Y-92874000D01*
X100979998Y-92942121D01*
X100926342Y-92988614D01*
X100874000Y-93000000D01*
X95126000Y-93000000D01*
X95057879Y-92979998D01*
X95011386Y-92926342D01*
X95000000Y-92874000D01*
X95000000Y-89544669D01*
X96452001Y-89544669D01*
X96452371Y-89551490D01*
X96457895Y-89602352D01*
X96461521Y-89617604D01*
X96506676Y-89738054D01*
X96515214Y-89753649D01*
X96591715Y-89855724D01*
X96604276Y-89868285D01*
X96706351Y-89944786D01*
X96721946Y-89953324D01*
X96842394Y-89998478D01*
X96857649Y-90002105D01*
X96908514Y-90007631D01*
X96915328Y-90008000D01*
X97941885Y-90008000D01*
X97957124Y-90003525D01*
X97958329Y-90002135D01*
X97960000Y-89994452D01*
X97960000Y-89989884D01*
X98960000Y-89989884D01*
X98964475Y-90005123D01*
X98965865Y-90006328D01*
X98973548Y-90007999D01*
X100004669Y-90007999D01*
X100011490Y-90007629D01*
X100062352Y-90002105D01*
X100077604Y-89998479D01*
X100198054Y-89953324D01*
X100213649Y-89944786D01*
X100315724Y-89868285D01*
X100328285Y-89855724D01*
X100404786Y-89753649D01*
X100413324Y-89738054D01*
X100458478Y-89617606D01*
X100462105Y-89602351D01*
X100467631Y-89551486D01*
X100468000Y-89544672D01*
X100468000Y-88518115D01*
X100463525Y-88502876D01*
X100462135Y-88501671D01*
X100454452Y-88500000D01*
X98978115Y-88500000D01*
X98962876Y-88504475D01*
X98961671Y-88505865D01*
X98960000Y-88513548D01*
X98960000Y-89989884D01*
X97960000Y-89989884D01*
X97960000Y-88518115D01*
X97955525Y-88502876D01*
X97954135Y-88501671D01*
X97946452Y-88500000D01*
X96470116Y-88500000D01*
X96454877Y-88504475D01*
X96453672Y-88505865D01*
X96452001Y-88513548D01*
X96452001Y-89544669D01*
X95000000Y-89544669D01*
X95000000Y-87481885D01*
X96452000Y-87481885D01*
X96456475Y-87497124D01*
X96457865Y-87498329D01*
X96465548Y-87500000D01*
X97941885Y-87500000D01*
X97957124Y-87495525D01*
X97958329Y-87494135D01*
X97960000Y-87486452D01*
X97960000Y-87481885D01*
X98960000Y-87481885D01*
X98964475Y-87497124D01*
X98965865Y-87498329D01*
X98973548Y-87500000D01*
X100449884Y-87500000D01*
X100465123Y-87495525D01*
X100466328Y-87494135D01*
X100467999Y-87486452D01*
X100467999Y-86455331D01*
X100467629Y-86448510D01*
X100462105Y-86397648D01*
X100458479Y-86382396D01*
X100413324Y-86261946D01*
X100404786Y-86246351D01*
X100328285Y-86144276D01*
X100315724Y-86131715D01*
X100213649Y-86055214D01*
X100198054Y-86046676D01*
X100077606Y-86001522D01*
X100062351Y-85997895D01*
X100011486Y-85992369D01*
X100004672Y-85992000D01*
X98978115Y-85992000D01*
X98962876Y-85996475D01*
X98961671Y-85997865D01*
X98960000Y-86005548D01*
X98960000Y-87481885D01*
X97960000Y-87481885D01*
X97960000Y-86010116D01*
X97955525Y-85994877D01*
X97954135Y-85993672D01*
X97946452Y-85992001D01*
X96915331Y-85992001D01*
X96908510Y-85992371D01*
X96857648Y-85997895D01*
X96842396Y-86001521D01*
X96721946Y-86046676D01*
X96706351Y-86055214D01*
X96604276Y-86131715D01*
X96591715Y-86144276D01*
X96515214Y-86246351D01*
X96506676Y-86261946D01*
X96461522Y-86382394D01*
X96457895Y-86397649D01*
X96452369Y-86448514D01*
X96452000Y-86455328D01*
X96452000Y-87481885D01*
X95000000Y-87481885D01*
X95000000Y-83000000D01*
X89000000Y-83000000D01*
X89000000Y-92874000D01*
X88979998Y-92942121D01*
X88926342Y-92988614D01*
X88874000Y-93000000D01*
X83126000Y-93000000D01*
X83057879Y-92979998D01*
X83011386Y-92926342D01*
X83000000Y-92874000D01*
X83000000Y-89544669D01*
X84452001Y-89544669D01*
X84452371Y-89551490D01*
X84457895Y-89602352D01*
X84461521Y-89617604D01*
X84506676Y-89738054D01*
X84515214Y-89753649D01*
X84591715Y-89855724D01*
X84604276Y-89868285D01*
X84706351Y-89944786D01*
X84721946Y-89953324D01*
X84842394Y-89998478D01*
X84857649Y-90002105D01*
X84908514Y-90007631D01*
X84915328Y-90008000D01*
X85941885Y-90008000D01*
X85957124Y-90003525D01*
X85958329Y-90002135D01*
X85960000Y-89994452D01*
X85960000Y-89989884D01*
X86960000Y-89989884D01*
X86964475Y-90005123D01*
X86965865Y-90006328D01*
X86973548Y-90007999D01*
X88004669Y-90007999D01*
X88011490Y-90007629D01*
X88062352Y-90002105D01*
X88077604Y-89998479D01*
X88198054Y-89953324D01*
X88213649Y-89944786D01*
X88315724Y-89868285D01*
X88328285Y-89855724D01*
X88404786Y-89753649D01*
X88413324Y-89738054D01*
X88458478Y-89617606D01*
X88462105Y-89602351D01*
X88467631Y-89551486D01*
X88468000Y-89544672D01*
X88468000Y-88518115D01*
X88463525Y-88502876D01*
X88462135Y-88501671D01*
X88454452Y-88500000D01*
X86978115Y-88500000D01*
X86962876Y-88504475D01*
X86961671Y-88505865D01*
X86960000Y-88513548D01*
X86960000Y-89989884D01*
X85960000Y-89989884D01*
X85960000Y-88518115D01*
X85955525Y-88502876D01*
X85954135Y-88501671D01*
X85946452Y-88500000D01*
X84470116Y-88500000D01*
X84454877Y-88504475D01*
X84453672Y-88505865D01*
X84452001Y-88513548D01*
X84452001Y-89544669D01*
X83000000Y-89544669D01*
X83000000Y-87481885D01*
X84452000Y-87481885D01*
X84456475Y-87497124D01*
X84457865Y-87498329D01*
X84465548Y-87500000D01*
X85941885Y-87500000D01*
X85957124Y-87495525D01*
X85958329Y-87494135D01*
X85960000Y-87486452D01*
X85960000Y-87481885D01*
X86960000Y-87481885D01*
X86964475Y-87497124D01*
X86965865Y-87498329D01*
X86973548Y-87500000D01*
X88449884Y-87500000D01*
X88465123Y-87495525D01*
X88466328Y-87494135D01*
X88467999Y-87486452D01*
X88467999Y-86455331D01*
X88467629Y-86448510D01*
X88462105Y-86397648D01*
X88458479Y-86382396D01*
X88413324Y-86261946D01*
X88404786Y-86246351D01*
X88328285Y-86144276D01*
X88315724Y-86131715D01*
X88213649Y-86055214D01*
X88198054Y-86046676D01*
X88077606Y-86001522D01*
X88062351Y-85997895D01*
X88011486Y-85992369D01*
X88004672Y-85992000D01*
X86978115Y-85992000D01*
X86962876Y-85996475D01*
X86961671Y-85997865D01*
X86960000Y-86005548D01*
X86960000Y-87481885D01*
X85960000Y-87481885D01*
X85960000Y-86010116D01*
X85955525Y-85994877D01*
X85954135Y-85993672D01*
X85946452Y-85992001D01*
X84915331Y-85992001D01*
X84908510Y-85992371D01*
X84857648Y-85997895D01*
X84842396Y-86001521D01*
X84721946Y-86046676D01*
X84706351Y-86055214D01*
X84604276Y-86131715D01*
X84591715Y-86144276D01*
X84515214Y-86246351D01*
X84506676Y-86261946D01*
X84461522Y-86382394D01*
X84457895Y-86397649D01*
X84452369Y-86448514D01*
X84452000Y-86455328D01*
X84452000Y-87481885D01*
X83000000Y-87481885D01*
X83000000Y-73447236D01*
X85925000Y-73447236D01*
X85925212Y-73452409D01*
X85939475Y-73625892D01*
X85941158Y-73636054D01*
X85998048Y-73862547D01*
X86001366Y-73872294D01*
X86094487Y-74086458D01*
X86099354Y-74095533D01*
X86226197Y-74291604D01*
X86232488Y-74299773D01*
X86389652Y-74472493D01*
X86397185Y-74479518D01*
X86580452Y-74624254D01*
X86589030Y-74629953D01*
X86793474Y-74742811D01*
X86802874Y-74747036D01*
X86890925Y-74778216D01*
X86905005Y-74778988D01*
X86908000Y-74773278D01*
X86908000Y-74766749D01*
X87908000Y-74766749D01*
X87911973Y-74780280D01*
X87918954Y-74781284D01*
X87979742Y-74761415D01*
X87989244Y-74757420D01*
X88196375Y-74649595D01*
X88205100Y-74644101D01*
X88391842Y-74503891D01*
X88399549Y-74497048D01*
X88560887Y-74328218D01*
X88567373Y-74320208D01*
X88698964Y-74127302D01*
X88704057Y-74118338D01*
X88802381Y-73906517D01*
X88805938Y-73896849D01*
X88868343Y-73671822D01*
X88870274Y-73661702D01*
X88890644Y-73471100D01*
X88891000Y-73464408D01*
X88891000Y-72931115D01*
X88886525Y-72915876D01*
X88885135Y-72914671D01*
X88877452Y-72913000D01*
X87926115Y-72913000D01*
X87910876Y-72917475D01*
X87909671Y-72918865D01*
X87908000Y-72926548D01*
X87908000Y-74766749D01*
X86908000Y-74766749D01*
X86908000Y-72931115D01*
X86903525Y-72915876D01*
X86902135Y-72914671D01*
X86894452Y-72913000D01*
X85943115Y-72913000D01*
X85927876Y-72917475D01*
X85926671Y-72918865D01*
X85925000Y-72926548D01*
X85925000Y-73447236D01*
X83000000Y-73447236D01*
X83000000Y-71894885D01*
X85925000Y-71894885D01*
X85929475Y-71910124D01*
X85930865Y-71911329D01*
X85938548Y-71913000D01*
X86889885Y-71913000D01*
X86905124Y-71908525D01*
X86906329Y-71907135D01*
X86908000Y-71899452D01*
X86908000Y-71894885D01*
X87908000Y-71894885D01*
X87912475Y-71910124D01*
X87913865Y-71911329D01*
X87921548Y-71913000D01*
X88872885Y-71913000D01*
X88888124Y-71908525D01*
X88889329Y-71907135D01*
X88891000Y-71899452D01*
X88891000Y-71378764D01*
X88890788Y-71373591D01*
X88876525Y-71200108D01*
X88874842Y-71189946D01*
X88817952Y-70963453D01*
X88814634Y-70953706D01*
X88721513Y-70739542D01*
X88716646Y-70730467D01*
X88589803Y-70534396D01*
X88583512Y-70526227D01*
X88426348Y-70353507D01*
X88418815Y-70346482D01*
X88235548Y-70201746D01*
X88226970Y-70196047D01*
X88022526Y-70083189D01*
X88013126Y-70078964D01*
X87925075Y-70047784D01*
X87910995Y-70047012D01*
X87908000Y-70052722D01*
X87908000Y-71894885D01*
X86908000Y-71894885D01*
X86908000Y-70059251D01*
X86904027Y-70045720D01*
X86897046Y-70044716D01*
X86836258Y-70064585D01*
X86826756Y-70068580D01*
X86619625Y-70176405D01*
X86610900Y-70181899D01*
X86424158Y-70322109D01*
X86416451Y-70328952D01*
X86255113Y-70497782D01*
X86248627Y-70505792D01*
X86117036Y-70698698D01*
X86111943Y-70707662D01*
X86013619Y-70919483D01*
X86010062Y-70929151D01*
X85947657Y-71154178D01*
X85945726Y-71164298D01*
X85925356Y-71354900D01*
X85925000Y-71361592D01*
X85925000Y-71894885D01*
X83000000Y-71894885D01*
X83000000Y-68126000D01*
X83020002Y-68057879D01*
X83073658Y-68011386D01*
X83126000Y-68000000D01*
X89874000Y-68000000D01*
X89942121Y-68020002D01*
G37*
%TD.AperFunction*%
%TD*%
%TA.AperFunction,Conductor*%
%TO.N,Net-(F2-Pad2)*%
G36*
X69942121Y-44020002D02*
G01*
X69988614Y-44073658D01*
X70000000Y-44126000D01*
X70000000Y-67000000D01*
X76874000Y-67000000D01*
X76942121Y-67020002D01*
X76988614Y-67073658D01*
X77000000Y-67126000D01*
X77000000Y-86986318D01*
X76988008Y-87039966D01*
X76910497Y-87204685D01*
X76813269Y-87503921D01*
X76754312Y-87812985D01*
X76734556Y-88127000D01*
X76754312Y-88441015D01*
X76813269Y-88750079D01*
X76910497Y-89049315D01*
X76912184Y-89052901D01*
X76912186Y-89052905D01*
X76988008Y-89214034D01*
X77000000Y-89267682D01*
X77000000Y-92874000D01*
X76979998Y-92942121D01*
X76926342Y-92988614D01*
X76874000Y-93000000D01*
X71126000Y-93000000D01*
X71057879Y-92979998D01*
X71011386Y-92926342D01*
X71000000Y-92874000D01*
X71000000Y-89671669D01*
X72152001Y-89671669D01*
X72152371Y-89678490D01*
X72157895Y-89729352D01*
X72161521Y-89744604D01*
X72206676Y-89865054D01*
X72215214Y-89880649D01*
X72291715Y-89982724D01*
X72304276Y-89995285D01*
X72406351Y-90071786D01*
X72421946Y-90080324D01*
X72542394Y-90125478D01*
X72557649Y-90129105D01*
X72608514Y-90134631D01*
X72615328Y-90135000D01*
X73641885Y-90135000D01*
X73657124Y-90130525D01*
X73658329Y-90129135D01*
X73660000Y-90121452D01*
X73660000Y-90116884D01*
X74660000Y-90116884D01*
X74664475Y-90132123D01*
X74665865Y-90133328D01*
X74673548Y-90134999D01*
X75704669Y-90134999D01*
X75711490Y-90134629D01*
X75762352Y-90129105D01*
X75777604Y-90125479D01*
X75898054Y-90080324D01*
X75913649Y-90071786D01*
X76015724Y-89995285D01*
X76028285Y-89982724D01*
X76104786Y-89880649D01*
X76113324Y-89865054D01*
X76158478Y-89744606D01*
X76162105Y-89729351D01*
X76167631Y-89678486D01*
X76168000Y-89671672D01*
X76168000Y-88645115D01*
X76163525Y-88629876D01*
X76162135Y-88628671D01*
X76154452Y-88627000D01*
X74678115Y-88627000D01*
X74662876Y-88631475D01*
X74661671Y-88632865D01*
X74660000Y-88640548D01*
X74660000Y-90116884D01*
X73660000Y-90116884D01*
X73660000Y-88645115D01*
X73655525Y-88629876D01*
X73654135Y-88628671D01*
X73646452Y-88627000D01*
X72170116Y-88627000D01*
X72154877Y-88631475D01*
X72153672Y-88632865D01*
X72152001Y-88640548D01*
X72152001Y-89671669D01*
X71000000Y-89671669D01*
X71000000Y-87608885D01*
X72152000Y-87608885D01*
X72156475Y-87624124D01*
X72157865Y-87625329D01*
X72165548Y-87627000D01*
X73641885Y-87627000D01*
X73657124Y-87622525D01*
X73658329Y-87621135D01*
X73660000Y-87613452D01*
X73660000Y-87608885D01*
X74660000Y-87608885D01*
X74664475Y-87624124D01*
X74665865Y-87625329D01*
X74673548Y-87627000D01*
X76149884Y-87627000D01*
X76165123Y-87622525D01*
X76166328Y-87621135D01*
X76167999Y-87613452D01*
X76167999Y-86582331D01*
X76167629Y-86575510D01*
X76162105Y-86524648D01*
X76158479Y-86509396D01*
X76113324Y-86388946D01*
X76104786Y-86373351D01*
X76028285Y-86271276D01*
X76015724Y-86258715D01*
X75913649Y-86182214D01*
X75898054Y-86173676D01*
X75777606Y-86128522D01*
X75762351Y-86124895D01*
X75711486Y-86119369D01*
X75704672Y-86119000D01*
X74678115Y-86119000D01*
X74662876Y-86123475D01*
X74661671Y-86124865D01*
X74660000Y-86132548D01*
X74660000Y-87608885D01*
X73660000Y-87608885D01*
X73660000Y-86137116D01*
X73655525Y-86121877D01*
X73654135Y-86120672D01*
X73646452Y-86119001D01*
X72615331Y-86119001D01*
X72608510Y-86119371D01*
X72557648Y-86124895D01*
X72542396Y-86128521D01*
X72421946Y-86173676D01*
X72406351Y-86182214D01*
X72304276Y-86258715D01*
X72291715Y-86271276D01*
X72215214Y-86373351D01*
X72206676Y-86388946D01*
X72161522Y-86509394D01*
X72157895Y-86524649D01*
X72152369Y-86575514D01*
X72152000Y-86582328D01*
X72152000Y-87608885D01*
X71000000Y-87608885D01*
X71000000Y-85000000D01*
X65000000Y-85000000D01*
X65000000Y-92874000D01*
X64979998Y-92942121D01*
X64926342Y-92988614D01*
X64874000Y-93000000D01*
X59126000Y-93000000D01*
X59057879Y-92979998D01*
X59011386Y-92926342D01*
X59000000Y-92874000D01*
X59000000Y-89544669D01*
X60452001Y-89544669D01*
X60452371Y-89551490D01*
X60457895Y-89602352D01*
X60461521Y-89617604D01*
X60506676Y-89738054D01*
X60515214Y-89753649D01*
X60591715Y-89855724D01*
X60604276Y-89868285D01*
X60706351Y-89944786D01*
X60721946Y-89953324D01*
X60842394Y-89998478D01*
X60857649Y-90002105D01*
X60908514Y-90007631D01*
X60915328Y-90008000D01*
X61941885Y-90008000D01*
X61957124Y-90003525D01*
X61958329Y-90002135D01*
X61960000Y-89994452D01*
X61960000Y-89989884D01*
X62960000Y-89989884D01*
X62964475Y-90005123D01*
X62965865Y-90006328D01*
X62973548Y-90007999D01*
X64004669Y-90007999D01*
X64011490Y-90007629D01*
X64062352Y-90002105D01*
X64077604Y-89998479D01*
X64198054Y-89953324D01*
X64213649Y-89944786D01*
X64315724Y-89868285D01*
X64328285Y-89855724D01*
X64404786Y-89753649D01*
X64413324Y-89738054D01*
X64458478Y-89617606D01*
X64462105Y-89602351D01*
X64467631Y-89551486D01*
X64468000Y-89544672D01*
X64468000Y-88518115D01*
X64463525Y-88502876D01*
X64462135Y-88501671D01*
X64454452Y-88500000D01*
X62978115Y-88500000D01*
X62962876Y-88504475D01*
X62961671Y-88505865D01*
X62960000Y-88513548D01*
X62960000Y-89989884D01*
X61960000Y-89989884D01*
X61960000Y-88518115D01*
X61955525Y-88502876D01*
X61954135Y-88501671D01*
X61946452Y-88500000D01*
X60470116Y-88500000D01*
X60454877Y-88504475D01*
X60453672Y-88505865D01*
X60452001Y-88513548D01*
X60452001Y-89544669D01*
X59000000Y-89544669D01*
X59000000Y-87481885D01*
X60452000Y-87481885D01*
X60456475Y-87497124D01*
X60457865Y-87498329D01*
X60465548Y-87500000D01*
X61941885Y-87500000D01*
X61957124Y-87495525D01*
X61958329Y-87494135D01*
X61960000Y-87486452D01*
X61960000Y-87481885D01*
X62960000Y-87481885D01*
X62964475Y-87497124D01*
X62965865Y-87498329D01*
X62973548Y-87500000D01*
X64449884Y-87500000D01*
X64465123Y-87495525D01*
X64466328Y-87494135D01*
X64467999Y-87486452D01*
X64467999Y-86455331D01*
X64467629Y-86448510D01*
X64462105Y-86397648D01*
X64458479Y-86382396D01*
X64413324Y-86261946D01*
X64404786Y-86246351D01*
X64328285Y-86144276D01*
X64315724Y-86131715D01*
X64213649Y-86055214D01*
X64198054Y-86046676D01*
X64077606Y-86001522D01*
X64062351Y-85997895D01*
X64011486Y-85992369D01*
X64004672Y-85992000D01*
X62978115Y-85992000D01*
X62962876Y-85996475D01*
X62961671Y-85997865D01*
X62960000Y-86005548D01*
X62960000Y-87481885D01*
X61960000Y-87481885D01*
X61960000Y-86010116D01*
X61955525Y-85994877D01*
X61954135Y-85993672D01*
X61946452Y-85992001D01*
X60915331Y-85992001D01*
X60908510Y-85992371D01*
X60857648Y-85997895D01*
X60842396Y-86001521D01*
X60721946Y-86046676D01*
X60706351Y-86055214D01*
X60604276Y-86131715D01*
X60591715Y-86144276D01*
X60515214Y-86246351D01*
X60506676Y-86261946D01*
X60461522Y-86382394D01*
X60457895Y-86397649D01*
X60452369Y-86448514D01*
X60452000Y-86455328D01*
X60452000Y-87481885D01*
X59000000Y-87481885D01*
X59000000Y-81126000D01*
X59020002Y-81057879D01*
X59073658Y-81011386D01*
X59126000Y-81000000D01*
X66000000Y-81000000D01*
X66000000Y-57000000D01*
X59126000Y-57000000D01*
X59057879Y-56979998D01*
X59011386Y-56926342D01*
X59000000Y-56874000D01*
X59000000Y-50371236D01*
X59609000Y-50371236D01*
X59609212Y-50376409D01*
X59623475Y-50549892D01*
X59625158Y-50560054D01*
X59682048Y-50786547D01*
X59685366Y-50796294D01*
X59778487Y-51010458D01*
X59783354Y-51019533D01*
X59910197Y-51215604D01*
X59916488Y-51223773D01*
X60073652Y-51396493D01*
X60081185Y-51403518D01*
X60264452Y-51548254D01*
X60273030Y-51553953D01*
X60477474Y-51666811D01*
X60486874Y-51671036D01*
X60574925Y-51702216D01*
X60589005Y-51702988D01*
X60592000Y-51697278D01*
X60592000Y-51690749D01*
X61592000Y-51690749D01*
X61595973Y-51704280D01*
X61602954Y-51705284D01*
X61663742Y-51685415D01*
X61673244Y-51681420D01*
X61880375Y-51573595D01*
X61889100Y-51568101D01*
X62075842Y-51427891D01*
X62083549Y-51421048D01*
X62244887Y-51252218D01*
X62251373Y-51244208D01*
X62382964Y-51051302D01*
X62388057Y-51042338D01*
X62486381Y-50830517D01*
X62489938Y-50820849D01*
X62552343Y-50595822D01*
X62554274Y-50585702D01*
X62574644Y-50395100D01*
X62575000Y-50388408D01*
X62575000Y-49855115D01*
X62570525Y-49839876D01*
X62569135Y-49838671D01*
X62561452Y-49837000D01*
X61610115Y-49837000D01*
X61594876Y-49841475D01*
X61593671Y-49842865D01*
X61592000Y-49850548D01*
X61592000Y-51690749D01*
X60592000Y-51690749D01*
X60592000Y-49855115D01*
X60587525Y-49839876D01*
X60586135Y-49838671D01*
X60578452Y-49837000D01*
X59627115Y-49837000D01*
X59611876Y-49841475D01*
X59610671Y-49842865D01*
X59609000Y-49850548D01*
X59609000Y-50371236D01*
X59000000Y-50371236D01*
X59000000Y-48818885D01*
X59609000Y-48818885D01*
X59613475Y-48834124D01*
X59614865Y-48835329D01*
X59622548Y-48837000D01*
X60573885Y-48837000D01*
X60589124Y-48832525D01*
X60590329Y-48831135D01*
X60592000Y-48823452D01*
X60592000Y-48818885D01*
X61592000Y-48818885D01*
X61596475Y-48834124D01*
X61597865Y-48835329D01*
X61605548Y-48837000D01*
X62556885Y-48837000D01*
X62572124Y-48832525D01*
X62573329Y-48831135D01*
X62575000Y-48823452D01*
X62575000Y-48302764D01*
X62574788Y-48297591D01*
X62560525Y-48124108D01*
X62558842Y-48113946D01*
X62501952Y-47887453D01*
X62498634Y-47877706D01*
X62405513Y-47663542D01*
X62400646Y-47654467D01*
X62273803Y-47458396D01*
X62267512Y-47450227D01*
X62110348Y-47277507D01*
X62102815Y-47270482D01*
X61919548Y-47125746D01*
X61910970Y-47120047D01*
X61706526Y-47007189D01*
X61697126Y-47002964D01*
X61609075Y-46971784D01*
X61594995Y-46971012D01*
X61592000Y-46976722D01*
X61592000Y-48818885D01*
X60592000Y-48818885D01*
X60592000Y-46983251D01*
X60588027Y-46969720D01*
X60581046Y-46968716D01*
X60520258Y-46988585D01*
X60510756Y-46992580D01*
X60303625Y-47100405D01*
X60294900Y-47105899D01*
X60108158Y-47246109D01*
X60100451Y-47252952D01*
X59939113Y-47421782D01*
X59932627Y-47429792D01*
X59801036Y-47622698D01*
X59795943Y-47631662D01*
X59697619Y-47843483D01*
X59694062Y-47853151D01*
X59631657Y-48078178D01*
X59629726Y-48088298D01*
X59609356Y-48278900D01*
X59609000Y-48285592D01*
X59609000Y-48818885D01*
X59000000Y-48818885D01*
X59000000Y-44126000D01*
X59020002Y-44057879D01*
X59073658Y-44011386D01*
X59126000Y-44000000D01*
X69874000Y-44000000D01*
X69942121Y-44020002D01*
G37*
%TD.AperFunction*%
%TD*%
%TA.AperFunction,Conductor*%
%TO.N,GND*%
G36*
X55036184Y-14528502D02*
G01*
X55082677Y-14582158D01*
X55092781Y-14652432D01*
X55063287Y-14717012D01*
X55042414Y-14736225D01*
X55034650Y-14741900D01*
X55003338Y-14764786D01*
X54950552Y-14812264D01*
X54836361Y-14933528D01*
X54833224Y-14938411D01*
X54833222Y-14938413D01*
X54737432Y-15087499D01*
X54726385Y-15104692D01*
X54690395Y-15197918D01*
X54661505Y-15272754D01*
X54653114Y-15294489D01*
X54652274Y-15297558D01*
X54652271Y-15297568D01*
X54634768Y-15361541D01*
X54634377Y-15362969D01*
X54615733Y-15444198D01*
X54615361Y-15448682D01*
X54600361Y-15629367D01*
X54598901Y-15646950D01*
X54598960Y-15650144D01*
X54598960Y-15650149D01*
X54634115Y-17548569D01*
X54639962Y-17864297D01*
X54641947Y-17911508D01*
X54642598Y-17915375D01*
X54642599Y-17915382D01*
X54664338Y-18044454D01*
X54675737Y-18112132D01*
X54676581Y-18115202D01*
X54676582Y-18115208D01*
X54689640Y-18162721D01*
X54691851Y-18170767D01*
X54692238Y-18172175D01*
X54691874Y-18172275D01*
X54692911Y-18241687D01*
X54655424Y-18301981D01*
X54591292Y-18332436D01*
X54571498Y-18334000D01*
X52518115Y-18334000D01*
X52502876Y-18338475D01*
X52501671Y-18339865D01*
X52500000Y-18347548D01*
X52500000Y-24847884D01*
X52504475Y-24863123D01*
X52505865Y-24864328D01*
X52513548Y-24865999D01*
X54688195Y-24865999D01*
X54756316Y-24886001D01*
X54802809Y-24939657D01*
X54812913Y-25009931D01*
X54811002Y-25020186D01*
X54801833Y-25060135D01*
X54794405Y-25092497D01*
X54793376Y-25092261D01*
X54765230Y-25152087D01*
X54705072Y-25189791D01*
X54670947Y-25194500D01*
X46725294Y-25194500D01*
X46619809Y-25205691D01*
X46517632Y-25216530D01*
X46517631Y-25216530D01*
X46514324Y-25216881D01*
X46462626Y-25227975D01*
X46373554Y-25251404D01*
X46369291Y-25253228D01*
X46369292Y-25253228D01*
X46192386Y-25328933D01*
X46192384Y-25328934D01*
X46186512Y-25331447D01*
X46019411Y-25447503D01*
X45965495Y-25493694D01*
X45848420Y-25612159D01*
X45845168Y-25616961D01*
X45845165Y-25616965D01*
X45832576Y-25635556D01*
X45734345Y-25780618D01*
X45731903Y-25786516D01*
X45677542Y-25917809D01*
X45656515Y-25968592D01*
X45636131Y-26036599D01*
X45615531Y-26117357D01*
X45615051Y-26121827D01*
X45615050Y-26121833D01*
X45603230Y-26231922D01*
X45593812Y-26319644D01*
X45593794Y-26322825D01*
X45593794Y-26322827D01*
X45585858Y-27735555D01*
X45580805Y-28634988D01*
X45573140Y-29999282D01*
X45565523Y-31355200D01*
X45558506Y-32604187D01*
X45549809Y-34152370D01*
X45548502Y-34384986D01*
X45548502Y-34384988D01*
X45540837Y-35749282D01*
X45533220Y-37105200D01*
X45514794Y-40384988D01*
X45507129Y-41749282D01*
X45499511Y-43105200D01*
X45495261Y-43861841D01*
X45495228Y-43867644D01*
X45517593Y-44084260D01*
X45528977Y-44137310D01*
X45554105Y-44231766D01*
X45635197Y-44418356D01*
X45752188Y-44584803D01*
X45754279Y-44587216D01*
X45788890Y-44627159D01*
X45798681Y-44638459D01*
X45800542Y-44640277D01*
X45800548Y-44640284D01*
X45913647Y-44750807D01*
X45917803Y-44754868D01*
X45922630Y-44758097D01*
X45922632Y-44758099D01*
X46081590Y-44864444D01*
X46081593Y-44864446D01*
X46086900Y-44867996D01*
X46275309Y-44944769D01*
X46343430Y-44964771D01*
X46344711Y-44965090D01*
X46344718Y-44965092D01*
X46381128Y-44974162D01*
X46424304Y-44984917D01*
X46503212Y-44992941D01*
X46623531Y-45005177D01*
X46623536Y-45005177D01*
X46626710Y-45005500D01*
X50868500Y-45005500D01*
X50936621Y-45025502D01*
X50983114Y-45079158D01*
X50994500Y-45131500D01*
X50994500Y-52374000D01*
X51017478Y-52587729D01*
X51028864Y-52640071D01*
X51053395Y-52731766D01*
X51134487Y-52918356D01*
X51251478Y-53084803D01*
X51297971Y-53138459D01*
X51299832Y-53140277D01*
X51299838Y-53140284D01*
X51412937Y-53250807D01*
X51417093Y-53254868D01*
X51421920Y-53258097D01*
X51421922Y-53258099D01*
X51580880Y-53364444D01*
X51580883Y-53364446D01*
X51586190Y-53367996D01*
X51774599Y-53444769D01*
X51842720Y-53464771D01*
X51844001Y-53465090D01*
X51844008Y-53465092D01*
X51880418Y-53474162D01*
X51923594Y-53484917D01*
X52002502Y-53492941D01*
X52122821Y-53505177D01*
X52122826Y-53505177D01*
X52126000Y-53505500D01*
X57868500Y-53505500D01*
X57936621Y-53525502D01*
X57983114Y-53579158D01*
X57994500Y-53631500D01*
X57994500Y-56874000D01*
X58017478Y-57087729D01*
X58028864Y-57140071D01*
X58053395Y-57231766D01*
X58134487Y-57418356D01*
X58251478Y-57584803D01*
X58297971Y-57638459D01*
X58299832Y-57640277D01*
X58299838Y-57640284D01*
X58412937Y-57750807D01*
X58417093Y-57754868D01*
X58421920Y-57758097D01*
X58421922Y-57758099D01*
X58580880Y-57864444D01*
X58580883Y-57864446D01*
X58586190Y-57867996D01*
X58774599Y-57944769D01*
X58842720Y-57964771D01*
X58844001Y-57965090D01*
X58844008Y-57965092D01*
X58880418Y-57974162D01*
X58923594Y-57984917D01*
X59002502Y-57992941D01*
X59122821Y-58005177D01*
X59122826Y-58005177D01*
X59126000Y-58005500D01*
X62816760Y-58005500D01*
X62884881Y-58025502D01*
X62931374Y-58079158D01*
X62941478Y-58149432D01*
X62911984Y-58214012D01*
X62849371Y-58253207D01*
X62806244Y-58264763D01*
X62795940Y-58268513D01*
X62764401Y-58283220D01*
X62753816Y-58292539D01*
X62755623Y-58298517D01*
X63237192Y-58780085D01*
X63251130Y-58787696D01*
X63252966Y-58787564D01*
X63259578Y-58783315D01*
X63739207Y-58303687D01*
X63745966Y-58291308D01*
X63742224Y-58286309D01*
X63704060Y-58268513D01*
X63693756Y-58264763D01*
X63650629Y-58253207D01*
X63590006Y-58216255D01*
X63558985Y-58152395D01*
X63567413Y-58081900D01*
X63612616Y-58027153D01*
X63683240Y-58005500D01*
X64868500Y-58005500D01*
X64936621Y-58025502D01*
X64983114Y-58079158D01*
X64994500Y-58131500D01*
X64994500Y-61366778D01*
X64974498Y-61434899D01*
X64920842Y-61481392D01*
X64850568Y-61491496D01*
X64785988Y-61462002D01*
X64765416Y-61439232D01*
X64750365Y-61417818D01*
X64750357Y-61417808D01*
X64748522Y-61415197D01*
X64702029Y-61361541D01*
X64700168Y-61359723D01*
X64700162Y-61359716D01*
X64587063Y-61249193D01*
X64587061Y-61249191D01*
X64582907Y-61245132D01*
X64578080Y-61241903D01*
X64578078Y-61241901D01*
X64419120Y-61135556D01*
X64419117Y-61135554D01*
X64413810Y-61132004D01*
X64225401Y-61055231D01*
X64157280Y-61035229D01*
X64155999Y-61034910D01*
X64155992Y-61034908D01*
X64119582Y-61025838D01*
X64076406Y-61015083D01*
X63997498Y-61007059D01*
X63877179Y-60994823D01*
X63877174Y-60994823D01*
X63874000Y-60994500D01*
X63683240Y-60994500D01*
X63615119Y-60974498D01*
X63568626Y-60920842D01*
X63558522Y-60850568D01*
X63588016Y-60785988D01*
X63650629Y-60746793D01*
X63693756Y-60735237D01*
X63704060Y-60731487D01*
X63735599Y-60716780D01*
X63746184Y-60707461D01*
X63744377Y-60701483D01*
X63262808Y-60219915D01*
X63248870Y-60212304D01*
X63247034Y-60212436D01*
X63240422Y-60216685D01*
X62760793Y-60696313D01*
X62754034Y-60708692D01*
X62757776Y-60713691D01*
X62795940Y-60731487D01*
X62806244Y-60735237D01*
X62849371Y-60746793D01*
X62909994Y-60783745D01*
X62941015Y-60847605D01*
X62932587Y-60918100D01*
X62887384Y-60972847D01*
X62816760Y-60994500D01*
X53126000Y-60994500D01*
X52912271Y-61017478D01*
X52908987Y-61018192D01*
X52908983Y-61018193D01*
X52871958Y-61026247D01*
X52859929Y-61028864D01*
X52768234Y-61053395D01*
X52763952Y-61055256D01*
X52763949Y-61055257D01*
X52709401Y-61078964D01*
X52581644Y-61134487D01*
X52576420Y-61138159D01*
X52428823Y-61241901D01*
X52415197Y-61251478D01*
X52361541Y-61297971D01*
X52359723Y-61299832D01*
X52359716Y-61299838D01*
X52294301Y-61366778D01*
X52245132Y-61417093D01*
X52241903Y-61421920D01*
X52241901Y-61421922D01*
X52230321Y-61439232D01*
X52132004Y-61586190D01*
X52055231Y-61774599D01*
X52035229Y-61842720D01*
X52015083Y-61923594D01*
X51994500Y-62126000D01*
X51994500Y-90874000D01*
X52017478Y-91087729D01*
X52028864Y-91140071D01*
X52053395Y-91231766D01*
X52134487Y-91418356D01*
X52251478Y-91584803D01*
X52297971Y-91638459D01*
X52299832Y-91640277D01*
X52299838Y-91640284D01*
X52412937Y-91750807D01*
X52417093Y-91754868D01*
X52421920Y-91758097D01*
X52421922Y-91758099D01*
X52580880Y-91864444D01*
X52580883Y-91864446D01*
X52586190Y-91867996D01*
X52774599Y-91944769D01*
X52842720Y-91964771D01*
X52844001Y-91965090D01*
X52844008Y-91965092D01*
X52880418Y-91974162D01*
X52923594Y-91984917D01*
X52998605Y-91992545D01*
X53122821Y-92005177D01*
X53122826Y-92005177D01*
X53126000Y-92005500D01*
X57868500Y-92005500D01*
X57936621Y-92025502D01*
X57983114Y-92079158D01*
X57994500Y-92131500D01*
X57994500Y-92874000D01*
X58017478Y-93087729D01*
X58028864Y-93140071D01*
X58053395Y-93231766D01*
X58055256Y-93236048D01*
X58055257Y-93236051D01*
X58055844Y-93237402D01*
X58134487Y-93418356D01*
X58138159Y-93423580D01*
X58247044Y-93578494D01*
X58251478Y-93584803D01*
X58297971Y-93638459D01*
X58299832Y-93640277D01*
X58299838Y-93640284D01*
X58364770Y-93703737D01*
X58417093Y-93754868D01*
X58421920Y-93758097D01*
X58421922Y-93758099D01*
X58580880Y-93864444D01*
X58580883Y-93864446D01*
X58586190Y-93867996D01*
X58774599Y-93944769D01*
X58842720Y-93964771D01*
X58844001Y-93965090D01*
X58844008Y-93965092D01*
X58869520Y-93971447D01*
X58923594Y-93984917D01*
X58986697Y-93991334D01*
X59122821Y-94005177D01*
X59122826Y-94005177D01*
X59126000Y-94005500D01*
X64874000Y-94005500D01*
X65087729Y-93982522D01*
X65091013Y-93981808D01*
X65091017Y-93981807D01*
X65138641Y-93971447D01*
X65140071Y-93971136D01*
X65231766Y-93946605D01*
X65236048Y-93944744D01*
X65236051Y-93944743D01*
X65290599Y-93921036D01*
X65418356Y-93865513D01*
X65557589Y-93767650D01*
X65582191Y-93750358D01*
X65582192Y-93750357D01*
X65584803Y-93748522D01*
X65638459Y-93702029D01*
X65640277Y-93700168D01*
X65640284Y-93700162D01*
X65750807Y-93587063D01*
X65750809Y-93587061D01*
X65754868Y-93582907D01*
X65855612Y-93432321D01*
X65864444Y-93419120D01*
X65864446Y-93419117D01*
X65867996Y-93413810D01*
X65944769Y-93225401D01*
X65964771Y-93157280D01*
X65984917Y-93076406D01*
X65998605Y-92941804D01*
X66005177Y-92877179D01*
X66005177Y-92877174D01*
X66005500Y-92874000D01*
X66005500Y-89604022D01*
X66025502Y-89535901D01*
X66079158Y-89489408D01*
X66149432Y-89479304D01*
X66212323Y-89507359D01*
X66353683Y-89625554D01*
X66360597Y-89630578D01*
X66585272Y-89771515D01*
X66592807Y-89775556D01*
X66834520Y-89884694D01*
X66842551Y-89887680D01*
X67096832Y-89963002D01*
X67105184Y-89964869D01*
X67367340Y-90004984D01*
X67375874Y-90005700D01*
X67641045Y-90009867D01*
X67649596Y-90009418D01*
X67912883Y-89977557D01*
X67921284Y-89975955D01*
X68177824Y-89908653D01*
X68185926Y-89905926D01*
X68430949Y-89804434D01*
X68438617Y-89800628D01*
X68545996Y-89737881D01*
X68555672Y-89727626D01*
X68552354Y-89719461D01*
X66921988Y-88089095D01*
X66887962Y-88026783D01*
X66889797Y-88001132D01*
X68252305Y-88001132D01*
X68252436Y-88002965D01*
X68256687Y-88009580D01*
X69256889Y-89009782D01*
X69269269Y-89016542D01*
X69275533Y-89011853D01*
X69367962Y-88841620D01*
X69371530Y-88833827D01*
X69465271Y-88585750D01*
X69467748Y-88577544D01*
X69526954Y-88319038D01*
X69528294Y-88310577D01*
X69552031Y-88044616D01*
X69552277Y-88039677D01*
X69552666Y-88002485D01*
X69552523Y-87997519D01*
X69534362Y-87731123D01*
X69533201Y-87722649D01*
X69479419Y-87462944D01*
X69477120Y-87454709D01*
X69388588Y-87204705D01*
X69385191Y-87196855D01*
X69279477Y-86992038D01*
X69269740Y-86981836D01*
X69262900Y-86984207D01*
X68259919Y-87987188D01*
X68252305Y-88001132D01*
X66889797Y-88001132D01*
X66893027Y-87955968D01*
X66921988Y-87910905D01*
X68548993Y-86283900D01*
X68555753Y-86271520D01*
X68550025Y-86263869D01*
X68509333Y-86238933D01*
X68461701Y-86186286D01*
X68450094Y-86116245D01*
X68478197Y-86051047D01*
X68537087Y-86011392D01*
X68575167Y-86005500D01*
X69868500Y-86005500D01*
X69936621Y-86025502D01*
X69983114Y-86079158D01*
X69994500Y-86131500D01*
X69994500Y-92874000D01*
X70017478Y-93087729D01*
X70028864Y-93140071D01*
X70053395Y-93231766D01*
X70055256Y-93236048D01*
X70055257Y-93236051D01*
X70055844Y-93237402D01*
X70134487Y-93418356D01*
X70138159Y-93423580D01*
X70247044Y-93578494D01*
X70251478Y-93584803D01*
X70297971Y-93638459D01*
X70299832Y-93640277D01*
X70299838Y-93640284D01*
X70364770Y-93703737D01*
X70417093Y-93754868D01*
X70421920Y-93758097D01*
X70421922Y-93758099D01*
X70580880Y-93864444D01*
X70580883Y-93864446D01*
X70586190Y-93867996D01*
X70774599Y-93944769D01*
X70842720Y-93964771D01*
X70844001Y-93965090D01*
X70844008Y-93965092D01*
X70869520Y-93971447D01*
X70923594Y-93984917D01*
X70986697Y-93991334D01*
X71122821Y-94005177D01*
X71122826Y-94005177D01*
X71126000Y-94005500D01*
X76874000Y-94005500D01*
X77087729Y-93982522D01*
X77091013Y-93981808D01*
X77091017Y-93981807D01*
X77138641Y-93971447D01*
X77140071Y-93971136D01*
X77231766Y-93946605D01*
X77236048Y-93944744D01*
X77236051Y-93944743D01*
X77290599Y-93921036D01*
X77418356Y-93865513D01*
X77557589Y-93767650D01*
X77582191Y-93750358D01*
X77582192Y-93750357D01*
X77584803Y-93748522D01*
X77638459Y-93702029D01*
X77640277Y-93700168D01*
X77640284Y-93700162D01*
X77750807Y-93587063D01*
X77750809Y-93587061D01*
X77754868Y-93582907D01*
X77855612Y-93432321D01*
X77864444Y-93419120D01*
X77864446Y-93419117D01*
X77867996Y-93413810D01*
X77944769Y-93225401D01*
X77964771Y-93157280D01*
X77984917Y-93076406D01*
X77998605Y-92941804D01*
X78005177Y-92877179D01*
X78005177Y-92877174D01*
X78005500Y-92874000D01*
X81994500Y-92874000D01*
X82017478Y-93087729D01*
X82028864Y-93140071D01*
X82053395Y-93231766D01*
X82055256Y-93236048D01*
X82055257Y-93236051D01*
X82055844Y-93237402D01*
X82134487Y-93418356D01*
X82138159Y-93423580D01*
X82247044Y-93578494D01*
X82251478Y-93584803D01*
X82297971Y-93638459D01*
X82299832Y-93640277D01*
X82299838Y-93640284D01*
X82364770Y-93703737D01*
X82417093Y-93754868D01*
X82421920Y-93758097D01*
X82421922Y-93758099D01*
X82580880Y-93864444D01*
X82580883Y-93864446D01*
X82586190Y-93867996D01*
X82774599Y-93944769D01*
X82842720Y-93964771D01*
X82844001Y-93965090D01*
X82844008Y-93965092D01*
X82869520Y-93971447D01*
X82923594Y-93984917D01*
X82986697Y-93991334D01*
X83122821Y-94005177D01*
X83122826Y-94005177D01*
X83126000Y-94005500D01*
X88874000Y-94005500D01*
X89087729Y-93982522D01*
X89091013Y-93981808D01*
X89091017Y-93981807D01*
X89138641Y-93971447D01*
X89140071Y-93971136D01*
X89231766Y-93946605D01*
X89236048Y-93944744D01*
X89236051Y-93944743D01*
X89290599Y-93921036D01*
X89418356Y-93865513D01*
X89557589Y-93767650D01*
X89582191Y-93750358D01*
X89582192Y-93750357D01*
X89584803Y-93748522D01*
X89638459Y-93702029D01*
X89640277Y-93700168D01*
X89640284Y-93700162D01*
X89750807Y-93587063D01*
X89750809Y-93587061D01*
X89754868Y-93582907D01*
X89855612Y-93432321D01*
X89864444Y-93419120D01*
X89864446Y-93419117D01*
X89867996Y-93413810D01*
X89944769Y-93225401D01*
X89964771Y-93157280D01*
X89984917Y-93076406D01*
X89998605Y-92941804D01*
X90005177Y-92877179D01*
X90005177Y-92877174D01*
X90005500Y-92874000D01*
X90005500Y-89604022D01*
X90025502Y-89535901D01*
X90079158Y-89489408D01*
X90149432Y-89479304D01*
X90212323Y-89507359D01*
X90353683Y-89625554D01*
X90360597Y-89630578D01*
X90585272Y-89771515D01*
X90592807Y-89775556D01*
X90834520Y-89884694D01*
X90842551Y-89887680D01*
X91096832Y-89963002D01*
X91105184Y-89964869D01*
X91367340Y-90004984D01*
X91375874Y-90005700D01*
X91641045Y-90009867D01*
X91649596Y-90009418D01*
X91912883Y-89977557D01*
X91921284Y-89975955D01*
X92177824Y-89908653D01*
X92185926Y-89905926D01*
X92430949Y-89804434D01*
X92438617Y-89800628D01*
X92545996Y-89737881D01*
X92555672Y-89727626D01*
X92552354Y-89719461D01*
X90921988Y-88089095D01*
X90887962Y-88026783D01*
X90889797Y-88001132D01*
X92252305Y-88001132D01*
X92252436Y-88002965D01*
X92256687Y-88009580D01*
X93256889Y-89009782D01*
X93269269Y-89016542D01*
X93275533Y-89011853D01*
X93367962Y-88841620D01*
X93371530Y-88833827D01*
X93465271Y-88585750D01*
X93467748Y-88577544D01*
X93526954Y-88319038D01*
X93528294Y-88310577D01*
X93552031Y-88044616D01*
X93552277Y-88039677D01*
X93552666Y-88002485D01*
X93552523Y-87997519D01*
X93534362Y-87731123D01*
X93533201Y-87722649D01*
X93479419Y-87462944D01*
X93477120Y-87454709D01*
X93388588Y-87204705D01*
X93385191Y-87196855D01*
X93279477Y-86992038D01*
X93269740Y-86981836D01*
X93262900Y-86984207D01*
X92259919Y-87987188D01*
X92252305Y-88001132D01*
X90889797Y-88001132D01*
X90893027Y-87955968D01*
X90921988Y-87910905D01*
X92548993Y-86283900D01*
X92555753Y-86271520D01*
X92550026Y-86263870D01*
X92476122Y-86218582D01*
X92468552Y-86214624D01*
X92225704Y-86108022D01*
X92217644Y-86105120D01*
X91962592Y-86032467D01*
X91954214Y-86030685D01*
X91691656Y-85993318D01*
X91683111Y-85992691D01*
X91417908Y-85991302D01*
X91409374Y-85991839D01*
X91146433Y-86026456D01*
X91138035Y-86028149D01*
X90882238Y-86098127D01*
X90874143Y-86100946D01*
X90630199Y-86204997D01*
X90622577Y-86208881D01*
X90395014Y-86345075D01*
X90387976Y-86349966D01*
X90210280Y-86492327D01*
X90144611Y-86519309D01*
X90074778Y-86506504D01*
X90022955Y-86457977D01*
X90005500Y-86393993D01*
X90005500Y-84131500D01*
X90025502Y-84063379D01*
X90079158Y-84016886D01*
X90131500Y-84005500D01*
X93868500Y-84005500D01*
X93936621Y-84025502D01*
X93983114Y-84079158D01*
X93994500Y-84131500D01*
X93994500Y-92874000D01*
X94017478Y-93087729D01*
X94028864Y-93140071D01*
X94053395Y-93231766D01*
X94055256Y-93236048D01*
X94055257Y-93236051D01*
X94055844Y-93237402D01*
X94134487Y-93418356D01*
X94138159Y-93423580D01*
X94247044Y-93578494D01*
X94251478Y-93584803D01*
X94297971Y-93638459D01*
X94299832Y-93640277D01*
X94299838Y-93640284D01*
X94364770Y-93703737D01*
X94417093Y-93754868D01*
X94421920Y-93758097D01*
X94421922Y-93758099D01*
X94580880Y-93864444D01*
X94580883Y-93864446D01*
X94586190Y-93867996D01*
X94774599Y-93944769D01*
X94842720Y-93964771D01*
X94844001Y-93965090D01*
X94844008Y-93965092D01*
X94869520Y-93971447D01*
X94923594Y-93984917D01*
X94986697Y-93991334D01*
X95122821Y-94005177D01*
X95122826Y-94005177D01*
X95126000Y-94005500D01*
X100874000Y-94005500D01*
X101087729Y-93982522D01*
X101091013Y-93981808D01*
X101091017Y-93981807D01*
X101138641Y-93971447D01*
X101140071Y-93971136D01*
X101231766Y-93946605D01*
X101236048Y-93944744D01*
X101236051Y-93944743D01*
X101290599Y-93921036D01*
X101418356Y-93865513D01*
X101557589Y-93767650D01*
X101582191Y-93750358D01*
X101582192Y-93750357D01*
X101584803Y-93748522D01*
X101638459Y-93702029D01*
X101640277Y-93700168D01*
X101640284Y-93700162D01*
X101750807Y-93587063D01*
X101750809Y-93587061D01*
X101754868Y-93582907D01*
X101855612Y-93432321D01*
X101864444Y-93419120D01*
X101864446Y-93419117D01*
X101867996Y-93413810D01*
X101944769Y-93225401D01*
X101964771Y-93157280D01*
X101984917Y-93076406D01*
X101998605Y-92941804D01*
X102005177Y-92877179D01*
X102005177Y-92877174D01*
X102005500Y-92874000D01*
X102005500Y-89604022D01*
X102025502Y-89535901D01*
X102079158Y-89489408D01*
X102149432Y-89479304D01*
X102212323Y-89507359D01*
X102353683Y-89625554D01*
X102360597Y-89630578D01*
X102585272Y-89771515D01*
X102592807Y-89775556D01*
X102834520Y-89884694D01*
X102842551Y-89887680D01*
X103096832Y-89963002D01*
X103105184Y-89964869D01*
X103367340Y-90004984D01*
X103375874Y-90005700D01*
X103641045Y-90009867D01*
X103649596Y-90009418D01*
X103912883Y-89977557D01*
X103921284Y-89975955D01*
X104177824Y-89908653D01*
X104185926Y-89905926D01*
X104430949Y-89804434D01*
X104438617Y-89800628D01*
X104545996Y-89737881D01*
X104555672Y-89727626D01*
X104552354Y-89719461D01*
X102921988Y-88089095D01*
X102887962Y-88026783D01*
X102889797Y-88001132D01*
X104252305Y-88001132D01*
X104252436Y-88002965D01*
X104256687Y-88009580D01*
X105256889Y-89009782D01*
X105269269Y-89016542D01*
X105275533Y-89011853D01*
X105367962Y-88841620D01*
X105371530Y-88833827D01*
X105465271Y-88585750D01*
X105467748Y-88577544D01*
X105526954Y-88319038D01*
X105528294Y-88310577D01*
X105552031Y-88044616D01*
X105552277Y-88039677D01*
X105552666Y-88002485D01*
X105552523Y-87997519D01*
X105534362Y-87731123D01*
X105533201Y-87722649D01*
X105479419Y-87462944D01*
X105477120Y-87454709D01*
X105388588Y-87204705D01*
X105385191Y-87196855D01*
X105279477Y-86992038D01*
X105269740Y-86981836D01*
X105262900Y-86984207D01*
X104259919Y-87987188D01*
X104252305Y-88001132D01*
X102889797Y-88001132D01*
X102893027Y-87955968D01*
X102921988Y-87910905D01*
X104548993Y-86283900D01*
X104555753Y-86271520D01*
X104550026Y-86263870D01*
X104476122Y-86218582D01*
X104468552Y-86214624D01*
X104225704Y-86108022D01*
X104217644Y-86105120D01*
X103962592Y-86032467D01*
X103954214Y-86030685D01*
X103691656Y-85993318D01*
X103683111Y-85992691D01*
X103417908Y-85991302D01*
X103409374Y-85991839D01*
X103146433Y-86026456D01*
X103138035Y-86028149D01*
X102882238Y-86098127D01*
X102874143Y-86100946D01*
X102630199Y-86204997D01*
X102622577Y-86208881D01*
X102395014Y-86345075D01*
X102387976Y-86349966D01*
X102210280Y-86492327D01*
X102144611Y-86519309D01*
X102074778Y-86506504D01*
X102022955Y-86457977D01*
X102005500Y-86393993D01*
X102005500Y-83633222D01*
X102025502Y-83565101D01*
X102079158Y-83518608D01*
X102149432Y-83508504D01*
X102214012Y-83537998D01*
X102234584Y-83560768D01*
X102249635Y-83582182D01*
X102249643Y-83582192D01*
X102251478Y-83584803D01*
X102297971Y-83638459D01*
X102299832Y-83640277D01*
X102299838Y-83640284D01*
X102364770Y-83703737D01*
X102417093Y-83754868D01*
X102421920Y-83758097D01*
X102421922Y-83758099D01*
X102580880Y-83864444D01*
X102580883Y-83864446D01*
X102586190Y-83867996D01*
X102774599Y-83944769D01*
X102842720Y-83964771D01*
X102844001Y-83965090D01*
X102844008Y-83965092D01*
X102869520Y-83971447D01*
X102923594Y-83984917D01*
X103002502Y-83992941D01*
X103122821Y-84005177D01*
X103122826Y-84005177D01*
X103126000Y-84005500D01*
X113374000Y-84005500D01*
X113587729Y-83982522D01*
X113591013Y-83981808D01*
X113591017Y-83981807D01*
X113638641Y-83971447D01*
X113640071Y-83971136D01*
X113731766Y-83946605D01*
X113736048Y-83944744D01*
X113736051Y-83944743D01*
X113790599Y-83921036D01*
X113918356Y-83865513D01*
X114029321Y-83787519D01*
X114082191Y-83750358D01*
X114082192Y-83750357D01*
X114084803Y-83748522D01*
X114138459Y-83702029D01*
X114140277Y-83700168D01*
X114140284Y-83700162D01*
X114250807Y-83587063D01*
X114250809Y-83587061D01*
X114254868Y-83582907D01*
X114258099Y-83578078D01*
X114364444Y-83419120D01*
X114364446Y-83419117D01*
X114367996Y-83413810D01*
X114444769Y-83225401D01*
X114464771Y-83157280D01*
X114484917Y-83076406D01*
X114505500Y-82874000D01*
X114505500Y-44623918D01*
X114501709Y-44587216D01*
X114484601Y-44421597D01*
X114484600Y-44421588D01*
X114484268Y-44418378D01*
X114473738Y-44367953D01*
X114452418Y-44284077D01*
X114374447Y-44096162D01*
X114370863Y-44090879D01*
X114370861Y-44090874D01*
X114262039Y-43930432D01*
X114260246Y-43927788D01*
X114254849Y-43921345D01*
X114216327Y-43875362D01*
X114216326Y-43875361D01*
X114214654Y-43873365D01*
X114118997Y-43776717D01*
X114101581Y-43759120D01*
X114101579Y-43759118D01*
X114097494Y-43754991D01*
X114092724Y-43751683D01*
X114092720Y-43751680D01*
X114003179Y-43689591D01*
X113930307Y-43639060D01*
X113811466Y-43588308D01*
X113746139Y-43560410D01*
X113743205Y-43559157D01*
X113740170Y-43558211D01*
X113740163Y-43558208D01*
X113706613Y-43547747D01*
X113675427Y-43538022D01*
X113594891Y-43516527D01*
X113590427Y-43515998D01*
X113590423Y-43515997D01*
X113396014Y-43492949D01*
X113396006Y-43492948D01*
X113392856Y-43492575D01*
X113389680Y-43492522D01*
X113389679Y-43492522D01*
X83648348Y-42996833D01*
X83648344Y-42996833D01*
X83644856Y-42996775D01*
X83422558Y-43017867D01*
X83419119Y-43018585D01*
X83419120Y-43018585D01*
X83369705Y-43028904D01*
X83369699Y-43028906D01*
X83368116Y-43029236D01*
X83366554Y-43029647D01*
X83272889Y-43054288D01*
X83272885Y-43054289D01*
X83268234Y-43055513D01*
X83081644Y-43136605D01*
X82915197Y-43253596D01*
X82861541Y-43300089D01*
X82859723Y-43301950D01*
X82859716Y-43301956D01*
X82756190Y-43407895D01*
X82745132Y-43419211D01*
X82741903Y-43424038D01*
X82741901Y-43424040D01*
X82665865Y-43537695D01*
X82632004Y-43588308D01*
X82555231Y-43776717D01*
X82535229Y-43844838D01*
X82515083Y-43925712D01*
X82510503Y-43970752D01*
X82497750Y-44096162D01*
X82494500Y-44128118D01*
X82494500Y-53877189D01*
X82514819Y-54078307D01*
X82524901Y-54127694D01*
X82544579Y-54207351D01*
X82620863Y-54395958D01*
X82624397Y-54401270D01*
X82624399Y-54401274D01*
X82731790Y-54562701D01*
X82733551Y-54565348D01*
X82778654Y-54620178D01*
X82894740Y-54739590D01*
X83060881Y-54857017D01*
X83066733Y-54859578D01*
X83066734Y-54859579D01*
X83244334Y-54937315D01*
X83244339Y-54937317D01*
X83247259Y-54938595D01*
X83250296Y-54939572D01*
X83313578Y-54959930D01*
X83313590Y-54959934D01*
X83314844Y-54960337D01*
X83316128Y-54960692D01*
X83390848Y-54981355D01*
X83390852Y-54981356D01*
X83395185Y-54982554D01*
X83596996Y-55008318D01*
X101871730Y-55476901D01*
X101939315Y-55498643D01*
X101984418Y-55553473D01*
X101994500Y-55602860D01*
X101994500Y-76706167D01*
X101974498Y-76774288D01*
X101920842Y-76820781D01*
X101850568Y-76830885D01*
X101815250Y-76820362D01*
X101704053Y-76768510D01*
X101693761Y-76764764D01*
X101483312Y-76708375D01*
X101472519Y-76706472D01*
X101255475Y-76687483D01*
X101244525Y-76687483D01*
X101027481Y-76706472D01*
X101016688Y-76708375D01*
X100806244Y-76764763D01*
X100795940Y-76768513D01*
X100764401Y-76783220D01*
X100753816Y-76792539D01*
X100755623Y-76798517D01*
X101250000Y-77292893D01*
X101868012Y-77910905D01*
X101902037Y-77973218D01*
X101896973Y-78044033D01*
X101868012Y-78089097D01*
X101250000Y-78707108D01*
X100760792Y-79196315D01*
X100754034Y-79208692D01*
X100757776Y-79213691D01*
X100795940Y-79231487D01*
X100806244Y-79235237D01*
X101016688Y-79291625D01*
X101027481Y-79293528D01*
X101244525Y-79312517D01*
X101255475Y-79312517D01*
X101472519Y-79293528D01*
X101483312Y-79291625D01*
X101693761Y-79235236D01*
X101704053Y-79231490D01*
X101815250Y-79179638D01*
X101885442Y-79168977D01*
X101950255Y-79197957D01*
X101989111Y-79257377D01*
X101994500Y-79293833D01*
X101994500Y-82366778D01*
X101974498Y-82434899D01*
X101920842Y-82481392D01*
X101850568Y-82491496D01*
X101785988Y-82462002D01*
X101765416Y-82439232D01*
X101750365Y-82417818D01*
X101750357Y-82417808D01*
X101748522Y-82415197D01*
X101702029Y-82361541D01*
X101700168Y-82359723D01*
X101700162Y-82359716D01*
X101587063Y-82249193D01*
X101587061Y-82249191D01*
X101582907Y-82245132D01*
X101578080Y-82241903D01*
X101578078Y-82241901D01*
X101419120Y-82135556D01*
X101419117Y-82135554D01*
X101413810Y-82132004D01*
X101225401Y-82055231D01*
X101157280Y-82035229D01*
X101155999Y-82034910D01*
X101155992Y-82034908D01*
X101119582Y-82025838D01*
X101076406Y-82015083D01*
X100997498Y-82007059D01*
X100877179Y-81994823D01*
X100877174Y-81994823D01*
X100874000Y-81994500D01*
X100131500Y-81994500D01*
X100063379Y-81974498D01*
X100016886Y-81920842D01*
X100005500Y-81868500D01*
X100005500Y-78589584D01*
X100025502Y-78521463D01*
X100042405Y-78500489D01*
X100530082Y-78012812D01*
X100537696Y-77998868D01*
X100537565Y-77997035D01*
X100533314Y-77990420D01*
X100042405Y-77499511D01*
X100008379Y-77437199D01*
X100005500Y-77410416D01*
X100005500Y-77126000D01*
X99982522Y-76912271D01*
X99971136Y-76859929D01*
X99946605Y-76768234D01*
X99865513Y-76581644D01*
X99748522Y-76415197D01*
X99702029Y-76361541D01*
X99700168Y-76359723D01*
X99700162Y-76359716D01*
X99587063Y-76249193D01*
X99587061Y-76249191D01*
X99582907Y-76245132D01*
X99578080Y-76241903D01*
X99578078Y-76241901D01*
X99419120Y-76135556D01*
X99419117Y-76135554D01*
X99413810Y-76132004D01*
X99225401Y-76055231D01*
X99157280Y-76035229D01*
X99155999Y-76034910D01*
X99155992Y-76034908D01*
X99119582Y-76025838D01*
X99076406Y-76015083D01*
X98997498Y-76007059D01*
X98877179Y-75994823D01*
X98877174Y-75994823D01*
X98874000Y-75994500D01*
X93451394Y-75994500D01*
X93383273Y-75974498D01*
X93336780Y-75920842D01*
X93326676Y-75850568D01*
X93356170Y-75785988D01*
X93415896Y-75747604D01*
X93424445Y-75745416D01*
X93495073Y-75729952D01*
X93506432Y-75726305D01*
X93694059Y-75645694D01*
X93704533Y-75639959D01*
X93873522Y-75525331D01*
X93882724Y-75517718D01*
X94026992Y-75373198D01*
X94034587Y-75363985D01*
X94148922Y-75194794D01*
X94154638Y-75184310D01*
X94234918Y-74996550D01*
X94238547Y-74985179D01*
X94282115Y-74784520D01*
X94283437Y-74774900D01*
X94285890Y-74733613D01*
X94286000Y-74729898D01*
X94286000Y-74038115D01*
X94281525Y-74022876D01*
X94280135Y-74021671D01*
X94272452Y-74020000D01*
X92154000Y-74020000D01*
X92085879Y-73999998D01*
X92039386Y-73946342D01*
X92028000Y-73894000D01*
X92028000Y-73001885D01*
X93028000Y-73001885D01*
X93032475Y-73017124D01*
X93033865Y-73018329D01*
X93041548Y-73020000D01*
X94267884Y-73020000D01*
X94283123Y-73015525D01*
X94284328Y-73014135D01*
X94285999Y-73006452D01*
X94285999Y-72310194D01*
X94285879Y-72306299D01*
X94283210Y-72263107D01*
X94281874Y-72253528D01*
X94237952Y-72052927D01*
X94234305Y-72041568D01*
X94153694Y-71853941D01*
X94147959Y-71843467D01*
X94033331Y-71674478D01*
X94025718Y-71665276D01*
X93881198Y-71521008D01*
X93871985Y-71513413D01*
X93702794Y-71399078D01*
X93692310Y-71393362D01*
X93504550Y-71313082D01*
X93493179Y-71309453D01*
X93292520Y-71265885D01*
X93282900Y-71264563D01*
X93241613Y-71262110D01*
X93237898Y-71262000D01*
X93046115Y-71262000D01*
X93030876Y-71266475D01*
X93029671Y-71267865D01*
X93028000Y-71275548D01*
X93028000Y-73001885D01*
X92028000Y-73001885D01*
X92028000Y-71280116D01*
X92023525Y-71264877D01*
X92022135Y-71263672D01*
X92014452Y-71262001D01*
X91818194Y-71262001D01*
X91814299Y-71262121D01*
X91771107Y-71264790D01*
X91761528Y-71266126D01*
X91560927Y-71310048D01*
X91549568Y-71313695D01*
X91361941Y-71394306D01*
X91351467Y-71400041D01*
X91202231Y-71501270D01*
X91134628Y-71522957D01*
X91066031Y-71504652D01*
X91018221Y-71452167D01*
X91005500Y-71396996D01*
X91005500Y-68126000D01*
X90982522Y-67912271D01*
X90971136Y-67859929D01*
X90946605Y-67768234D01*
X90865513Y-67581644D01*
X90748522Y-67415197D01*
X90702029Y-67361541D01*
X90700168Y-67359723D01*
X90700162Y-67359716D01*
X90587063Y-67249193D01*
X90587061Y-67249191D01*
X90582907Y-67245132D01*
X90578080Y-67241903D01*
X90578078Y-67241901D01*
X90419120Y-67135556D01*
X90419117Y-67135554D01*
X90413810Y-67132004D01*
X90225401Y-67055231D01*
X90157280Y-67035229D01*
X90155999Y-67034910D01*
X90155992Y-67034908D01*
X90119582Y-67025838D01*
X90076406Y-67015083D01*
X89997498Y-67007059D01*
X89877179Y-66994823D01*
X89877174Y-66994823D01*
X89874000Y-66994500D01*
X83126000Y-66994500D01*
X82912271Y-67017478D01*
X82908987Y-67018192D01*
X82908983Y-67018193D01*
X82871958Y-67026247D01*
X82859929Y-67028864D01*
X82768234Y-67053395D01*
X82763952Y-67055256D01*
X82763949Y-67055257D01*
X82709401Y-67078964D01*
X82581644Y-67134487D01*
X82576420Y-67138159D01*
X82428823Y-67241901D01*
X82415197Y-67251478D01*
X82361541Y-67297971D01*
X82359723Y-67299832D01*
X82359716Y-67299838D01*
X82249343Y-67412784D01*
X82245132Y-67417093D01*
X82132004Y-67586190D01*
X82055231Y-67774599D01*
X82035229Y-67842720D01*
X82015083Y-67923594D01*
X82014628Y-67928070D01*
X81994841Y-68122651D01*
X81994500Y-68126000D01*
X81994500Y-92874000D01*
X78005500Y-92874000D01*
X78005500Y-89950794D01*
X78025502Y-89882673D01*
X78079158Y-89836180D01*
X78149432Y-89826076D01*
X78198456Y-89844057D01*
X78285261Y-89898510D01*
X78292807Y-89902556D01*
X78534520Y-90011694D01*
X78542551Y-90014680D01*
X78796832Y-90090002D01*
X78805184Y-90091869D01*
X79067340Y-90131984D01*
X79075874Y-90132700D01*
X79341045Y-90136867D01*
X79349596Y-90136418D01*
X79612883Y-90104557D01*
X79621284Y-90102955D01*
X79877824Y-90035653D01*
X79885926Y-90032926D01*
X80130949Y-89931434D01*
X80138617Y-89927628D01*
X80245996Y-89864881D01*
X80255672Y-89854626D01*
X80252354Y-89846461D01*
X78621988Y-88216095D01*
X78587962Y-88153783D01*
X78589797Y-88128132D01*
X79952305Y-88128132D01*
X79952436Y-88129965D01*
X79956687Y-88136580D01*
X80956889Y-89136782D01*
X80969269Y-89143542D01*
X80975533Y-89138853D01*
X81067962Y-88968620D01*
X81071530Y-88960827D01*
X81165271Y-88712750D01*
X81167748Y-88704544D01*
X81226954Y-88446038D01*
X81228294Y-88437577D01*
X81252031Y-88171616D01*
X81252277Y-88166677D01*
X81252666Y-88129485D01*
X81252523Y-88124519D01*
X81234362Y-87858123D01*
X81233201Y-87849649D01*
X81179419Y-87589944D01*
X81177120Y-87581709D01*
X81088588Y-87331705D01*
X81085191Y-87323855D01*
X80979477Y-87119038D01*
X80969740Y-87108836D01*
X80962900Y-87111207D01*
X79959919Y-88114188D01*
X79952305Y-88128132D01*
X78589797Y-88128132D01*
X78593027Y-88082968D01*
X78621988Y-88037905D01*
X80248993Y-86410900D01*
X80255753Y-86398520D01*
X80250026Y-86390870D01*
X80176122Y-86345582D01*
X80168552Y-86341624D01*
X79925704Y-86235022D01*
X79917644Y-86232120D01*
X79662592Y-86159467D01*
X79654214Y-86157685D01*
X79391656Y-86120318D01*
X79383111Y-86119691D01*
X79117908Y-86118302D01*
X79109374Y-86118839D01*
X78846433Y-86153456D01*
X78838035Y-86155149D01*
X78582238Y-86225127D01*
X78574143Y-86227946D01*
X78330199Y-86331997D01*
X78322577Y-86335881D01*
X78196206Y-86411512D01*
X78127482Y-86429332D01*
X78060034Y-86407168D01*
X78015276Y-86352057D01*
X78005500Y-86303396D01*
X78005500Y-67126000D01*
X77982522Y-66912271D01*
X77971136Y-66859929D01*
X77946605Y-66768234D01*
X77865513Y-66581644D01*
X77748522Y-66415197D01*
X77702029Y-66361541D01*
X77700168Y-66359723D01*
X77700162Y-66359716D01*
X77587063Y-66249193D01*
X77587061Y-66249191D01*
X77582907Y-66245132D01*
X77578080Y-66241903D01*
X77578078Y-66241901D01*
X77419120Y-66135556D01*
X77419117Y-66135554D01*
X77413810Y-66132004D01*
X77225401Y-66055231D01*
X77157280Y-66035229D01*
X77155999Y-66034910D01*
X77155992Y-66034908D01*
X77119582Y-66025838D01*
X77076406Y-66015083D01*
X76997498Y-66007059D01*
X76877179Y-65994823D01*
X76877174Y-65994823D01*
X76874000Y-65994500D01*
X71131500Y-65994500D01*
X71063379Y-65974498D01*
X71016886Y-65920842D01*
X71005500Y-65868500D01*
X71005500Y-44131500D01*
X71025502Y-44063379D01*
X71079158Y-44016886D01*
X71131500Y-44005500D01*
X75374000Y-44005500D01*
X75587729Y-43982522D01*
X75591013Y-43981808D01*
X75591017Y-43981807D01*
X75638641Y-43971447D01*
X75640071Y-43971136D01*
X75731766Y-43946605D01*
X75736048Y-43944744D01*
X75736051Y-43944743D01*
X75790599Y-43921036D01*
X75918356Y-43865513D01*
X76084803Y-43748522D01*
X76138459Y-43702029D01*
X76140277Y-43700168D01*
X76140284Y-43700162D01*
X76250807Y-43587063D01*
X76250809Y-43587061D01*
X76254868Y-43582907D01*
X76284897Y-43538022D01*
X76364444Y-43419120D01*
X76364446Y-43419117D01*
X76367996Y-43413810D01*
X76444769Y-43225401D01*
X76464771Y-43157280D01*
X76484917Y-43076406D01*
X76505500Y-42874000D01*
X76505500Y-41610848D01*
X77351879Y-41610848D01*
X77355068Y-41615108D01*
X77527988Y-41686734D01*
X77537373Y-41689783D01*
X77758554Y-41742885D01*
X77768301Y-41744428D01*
X77995070Y-41762275D01*
X78004930Y-41762275D01*
X78231699Y-41744428D01*
X78241446Y-41742885D01*
X78462627Y-41689783D01*
X78472012Y-41686734D01*
X78637436Y-41618213D01*
X78648417Y-41609364D01*
X78647101Y-41604208D01*
X78012812Y-40969919D01*
X77998868Y-40962305D01*
X77997035Y-40962436D01*
X77990420Y-40966687D01*
X77358639Y-41598468D01*
X77351879Y-41610848D01*
X76505500Y-41610848D01*
X76505500Y-41029187D01*
X76525502Y-40961066D01*
X76579158Y-40914573D01*
X76603832Y-40911025D01*
X76603062Y-40908007D01*
X76645792Y-40897101D01*
X77280081Y-40262812D01*
X77286459Y-40251132D01*
X78712305Y-40251132D01*
X78712436Y-40252965D01*
X78716687Y-40259580D01*
X79348468Y-40891361D01*
X79360848Y-40898121D01*
X79365108Y-40894932D01*
X79436734Y-40722012D01*
X79439783Y-40712627D01*
X79492885Y-40491446D01*
X79494428Y-40481699D01*
X79512275Y-40254930D01*
X79512275Y-40245070D01*
X79494428Y-40018301D01*
X79492885Y-40008554D01*
X79439783Y-39787373D01*
X79436734Y-39777988D01*
X79368213Y-39612564D01*
X79359364Y-39601583D01*
X79354208Y-39602899D01*
X78719919Y-40237188D01*
X78712305Y-40251132D01*
X77286459Y-40251132D01*
X77287695Y-40248868D01*
X77287564Y-40247035D01*
X77283313Y-40240420D01*
X76651532Y-39608639D01*
X76635035Y-39599631D01*
X76571115Y-39585726D01*
X76520913Y-39535524D01*
X76505500Y-39475138D01*
X76505500Y-38890636D01*
X77351583Y-38890636D01*
X77352899Y-38895792D01*
X77987188Y-39530081D01*
X78001132Y-39537695D01*
X78002965Y-39537564D01*
X78009580Y-39533313D01*
X78641361Y-38901532D01*
X78648121Y-38889152D01*
X78644932Y-38884892D01*
X78472012Y-38813266D01*
X78462627Y-38810217D01*
X78241446Y-38757115D01*
X78231699Y-38755572D01*
X78004930Y-38737725D01*
X77995070Y-38737725D01*
X77768301Y-38755572D01*
X77758554Y-38757115D01*
X77537373Y-38810217D01*
X77527988Y-38813266D01*
X77362564Y-38881787D01*
X77351583Y-38890636D01*
X76505500Y-38890636D01*
X76505500Y-37631500D01*
X76525502Y-37563379D01*
X76579158Y-37516886D01*
X76631500Y-37505500D01*
X87374000Y-37505500D01*
X87587729Y-37482522D01*
X87591013Y-37481808D01*
X87591017Y-37481807D01*
X87638641Y-37471447D01*
X87640071Y-37471136D01*
X87731766Y-37446605D01*
X87736048Y-37444744D01*
X87736051Y-37444743D01*
X87790599Y-37421036D01*
X87918356Y-37365513D01*
X88084803Y-37248522D01*
X88138459Y-37202029D01*
X88140277Y-37200168D01*
X88140284Y-37200162D01*
X88250807Y-37087063D01*
X88250809Y-37087061D01*
X88254868Y-37082907D01*
X88367996Y-36913810D01*
X88444769Y-36725401D01*
X88464771Y-36657280D01*
X88484917Y-36576406D01*
X88492941Y-36497498D01*
X88505177Y-36377179D01*
X88505177Y-36377174D01*
X88505500Y-36374000D01*
X88505500Y-35359807D01*
X90770001Y-35359807D01*
X90770121Y-35363701D01*
X90772790Y-35406893D01*
X90774126Y-35416472D01*
X90818048Y-35617073D01*
X90821695Y-35628432D01*
X90902306Y-35816059D01*
X90908041Y-35826533D01*
X91022669Y-35995522D01*
X91030282Y-36004724D01*
X91174802Y-36148992D01*
X91184015Y-36156587D01*
X91353206Y-36270922D01*
X91363690Y-36276638D01*
X91551450Y-36356918D01*
X91562821Y-36360547D01*
X91763480Y-36404115D01*
X91773100Y-36405437D01*
X91814387Y-36407890D01*
X91818102Y-36408000D01*
X92009885Y-36408000D01*
X92025124Y-36403525D01*
X92026329Y-36402135D01*
X92028000Y-36394452D01*
X92028000Y-36389884D01*
X93028000Y-36389884D01*
X93032475Y-36405123D01*
X93033865Y-36406328D01*
X93041548Y-36407999D01*
X93237807Y-36407999D01*
X93241701Y-36407879D01*
X93284893Y-36405210D01*
X93294472Y-36403874D01*
X93495073Y-36359952D01*
X93506432Y-36356305D01*
X93694059Y-36275694D01*
X93704533Y-36269959D01*
X93873522Y-36155331D01*
X93882724Y-36147718D01*
X94026992Y-36003198D01*
X94034587Y-35993985D01*
X94148922Y-35824794D01*
X94154638Y-35814310D01*
X94234918Y-35626550D01*
X94238547Y-35615179D01*
X94282115Y-35414520D01*
X94283437Y-35404900D01*
X94285890Y-35363613D01*
X94286000Y-35359898D01*
X94286000Y-34668115D01*
X94281525Y-34652876D01*
X94280135Y-34651671D01*
X94272452Y-34650000D01*
X93046115Y-34650000D01*
X93030876Y-34654475D01*
X93029671Y-34655865D01*
X93028000Y-34663548D01*
X93028000Y-36389884D01*
X92028000Y-36389884D01*
X92028000Y-34668115D01*
X92023525Y-34652876D01*
X92022135Y-34651671D01*
X92014452Y-34650000D01*
X90788116Y-34650000D01*
X90772877Y-34654475D01*
X90771672Y-34655865D01*
X90770001Y-34663548D01*
X90770001Y-35359807D01*
X88505500Y-35359807D01*
X88505500Y-32131500D01*
X88525502Y-32063379D01*
X88579158Y-32016886D01*
X88631500Y-32005500D01*
X91015985Y-32005500D01*
X91084106Y-32025502D01*
X91130599Y-32079158D01*
X91140703Y-32149432D01*
X91111209Y-32214012D01*
X91105158Y-32220517D01*
X91029013Y-32296796D01*
X91021413Y-32306015D01*
X90907078Y-32475206D01*
X90901362Y-32485690D01*
X90821082Y-32673450D01*
X90817453Y-32684821D01*
X90773885Y-32885480D01*
X90772563Y-32895100D01*
X90770110Y-32936387D01*
X90770000Y-32940102D01*
X90770000Y-33631885D01*
X90774475Y-33647124D01*
X90775865Y-33648329D01*
X90783548Y-33650000D01*
X94267884Y-33650000D01*
X94283123Y-33645525D01*
X94284328Y-33644135D01*
X94285999Y-33636452D01*
X94285999Y-32940194D01*
X94285879Y-32936299D01*
X94283210Y-32893107D01*
X94281874Y-32883528D01*
X94237952Y-32682927D01*
X94234305Y-32671568D01*
X94153694Y-32483941D01*
X94147959Y-32473467D01*
X94033331Y-32304478D01*
X94025718Y-32295276D01*
X93950985Y-32220673D01*
X93916906Y-32158391D01*
X93921909Y-32087571D01*
X93964406Y-32030698D01*
X94030904Y-32005829D01*
X94040003Y-32005500D01*
X104368500Y-32005500D01*
X104436621Y-32025502D01*
X104483114Y-32079158D01*
X104494500Y-32131500D01*
X104494500Y-38374000D01*
X104517478Y-38587729D01*
X104528864Y-38640071D01*
X104553395Y-38731766D01*
X104634487Y-38918356D01*
X104751478Y-39084803D01*
X104797971Y-39138459D01*
X104799832Y-39140277D01*
X104799838Y-39140284D01*
X104864770Y-39203737D01*
X104917093Y-39254868D01*
X104921920Y-39258097D01*
X104921922Y-39258099D01*
X105080880Y-39364444D01*
X105080883Y-39364446D01*
X105086190Y-39367996D01*
X105274599Y-39444769D01*
X105342720Y-39464771D01*
X105344001Y-39465090D01*
X105344008Y-39465092D01*
X105369520Y-39471447D01*
X105423594Y-39484917D01*
X105502502Y-39492941D01*
X105622821Y-39505177D01*
X105622826Y-39505177D01*
X105626000Y-39505500D01*
X114874000Y-39505500D01*
X115087729Y-39482522D01*
X115091013Y-39481808D01*
X115091017Y-39481807D01*
X115138641Y-39471447D01*
X115140071Y-39471136D01*
X115231766Y-39446605D01*
X115236048Y-39444744D01*
X115236051Y-39444743D01*
X115290599Y-39421036D01*
X115418356Y-39365513D01*
X115529321Y-39287519D01*
X115582191Y-39250358D01*
X115582192Y-39250357D01*
X115584803Y-39248522D01*
X115638459Y-39202029D01*
X115640277Y-39200168D01*
X115640284Y-39200162D01*
X115750807Y-39087063D01*
X115750809Y-39087061D01*
X115754868Y-39082907D01*
X115867996Y-38913810D01*
X115944769Y-38725401D01*
X115964771Y-38657280D01*
X115984917Y-38576406D01*
X115992941Y-38497498D01*
X116005177Y-38377179D01*
X116005177Y-38377174D01*
X116005500Y-38374000D01*
X116005500Y-26626000D01*
X115982522Y-26412271D01*
X115971136Y-26359929D01*
X115946605Y-26268234D01*
X115865513Y-26081644D01*
X115748522Y-25915197D01*
X115702029Y-25861541D01*
X115700168Y-25859723D01*
X115700162Y-25859716D01*
X115587063Y-25749193D01*
X115587061Y-25749191D01*
X115582907Y-25745132D01*
X115578080Y-25741903D01*
X115578078Y-25741901D01*
X115419120Y-25635556D01*
X115419117Y-25635554D01*
X115413810Y-25632004D01*
X115225401Y-25555231D01*
X115157280Y-25535229D01*
X115155999Y-25534910D01*
X115155992Y-25534908D01*
X115119582Y-25525838D01*
X115076406Y-25515083D01*
X114997498Y-25507059D01*
X114877179Y-25494823D01*
X114877174Y-25494823D01*
X114874000Y-25494500D01*
X101131500Y-25494500D01*
X101063379Y-25474498D01*
X101016886Y-25420842D01*
X101005500Y-25368500D01*
X101005500Y-21221117D01*
X104957439Y-21221117D01*
X104957589Y-21224298D01*
X104969350Y-21473674D01*
X104975578Y-21605740D01*
X105032492Y-21986562D01*
X105033278Y-21989644D01*
X105033278Y-21989646D01*
X105062548Y-22104475D01*
X105127599Y-22359683D01*
X105259926Y-22721282D01*
X105428117Y-23067658D01*
X105630450Y-23395264D01*
X105632391Y-23397794D01*
X105632392Y-23397795D01*
X105858280Y-23692177D01*
X105864854Y-23700745D01*
X106128929Y-23980975D01*
X106131334Y-23983059D01*
X106131340Y-23983064D01*
X106320440Y-24146867D01*
X106419972Y-24233084D01*
X106735001Y-24454490D01*
X106737776Y-24456047D01*
X106938639Y-24568766D01*
X107070792Y-24642927D01*
X107073706Y-24644194D01*
X107073710Y-24644196D01*
X107145944Y-24675604D01*
X107423907Y-24796466D01*
X107790731Y-24913534D01*
X107934153Y-24943758D01*
X108164382Y-24992275D01*
X108164392Y-24992277D01*
X108167507Y-24992933D01*
X108170670Y-24993271D01*
X108170676Y-24993272D01*
X108547211Y-25033513D01*
X108547220Y-25033514D01*
X108550378Y-25033851D01*
X108553564Y-25033868D01*
X108553570Y-25033868D01*
X108730050Y-25034792D01*
X108935424Y-25035867D01*
X109098275Y-25020186D01*
X109315537Y-24999266D01*
X109315542Y-24999265D01*
X109318702Y-24998961D01*
X109321822Y-24998338D01*
X109321826Y-24998337D01*
X109693161Y-24924137D01*
X109693160Y-24924137D01*
X109696289Y-24923512D01*
X109699325Y-24922578D01*
X109699333Y-24922576D01*
X110061276Y-24811227D01*
X110061279Y-24811226D01*
X110064318Y-24810291D01*
X110067246Y-24809054D01*
X110067252Y-24809052D01*
X110226669Y-24741712D01*
X110419021Y-24660459D01*
X110421824Y-24658925D01*
X110421829Y-24658922D01*
X110611673Y-24554985D01*
X110756768Y-24475548D01*
X111074098Y-24257453D01*
X111076537Y-24255385D01*
X111076543Y-24255380D01*
X111365325Y-24010476D01*
X111365333Y-24010468D01*
X111367765Y-24008406D01*
X111369973Y-24006111D01*
X111369981Y-24006104D01*
X111632545Y-23733259D01*
X111632547Y-23733256D01*
X111634760Y-23730957D01*
X111720148Y-23622057D01*
X111870376Y-23430464D01*
X111870379Y-23430459D01*
X111872350Y-23427946D01*
X112078103Y-23102477D01*
X112079523Y-23099628D01*
X112079528Y-23099620D01*
X112248492Y-22760730D01*
X112249912Y-22757882D01*
X112386018Y-22397688D01*
X112395335Y-22362674D01*
X112484206Y-22028669D01*
X112485027Y-22025584D01*
X112490784Y-21989646D01*
X112545421Y-21648530D01*
X112545926Y-21645379D01*
X112548030Y-21608901D01*
X112565840Y-21300000D01*
X112568091Y-21260966D01*
X112568184Y-21234400D01*
X112567673Y-21224298D01*
X112548864Y-20853015D01*
X112548863Y-20853010D01*
X112548703Y-20849842D01*
X112490460Y-20469221D01*
X112442826Y-20285034D01*
X112394848Y-20099515D01*
X112394845Y-20099507D01*
X112394051Y-20096435D01*
X112390502Y-20086839D01*
X112325090Y-19910009D01*
X112260463Y-19735300D01*
X112253086Y-19720242D01*
X112092465Y-19392372D01*
X112092462Y-19392366D01*
X112091064Y-19389513D01*
X111971757Y-19197839D01*
X111889275Y-19065325D01*
X111889267Y-19065314D01*
X111887588Y-19062616D01*
X111780758Y-18924394D01*
X111654071Y-18760479D01*
X111654066Y-18760474D01*
X111652119Y-18757954D01*
X111563225Y-18664279D01*
X111389266Y-18480965D01*
X111389263Y-18480963D01*
X111387067Y-18478648D01*
X111384643Y-18476563D01*
X111097562Y-18229634D01*
X111097559Y-18229632D01*
X111095147Y-18227557D01*
X110779346Y-18007251D01*
X110530875Y-17868954D01*
X110445684Y-17821537D01*
X110445682Y-17821536D01*
X110442899Y-17819987D01*
X110439979Y-17818729D01*
X110439974Y-17818727D01*
X110092184Y-17668945D01*
X110092174Y-17668941D01*
X110089250Y-17667682D01*
X109722021Y-17551895D01*
X109451272Y-17495826D01*
X109348095Y-17474459D01*
X109348092Y-17474459D01*
X109344970Y-17473812D01*
X109051499Y-17443484D01*
X108965114Y-17434557D01*
X108965111Y-17434557D01*
X108961958Y-17434231D01*
X108958792Y-17434225D01*
X108958783Y-17434225D01*
X108768711Y-17433894D01*
X108576908Y-17433559D01*
X108424769Y-17448744D01*
X108196934Y-17471485D01*
X108196928Y-17471486D01*
X108193761Y-17471802D01*
X107997838Y-17511663D01*
X107819564Y-17547933D01*
X107819560Y-17547934D01*
X107816439Y-17548569D01*
X107813397Y-17549516D01*
X107813391Y-17549518D01*
X107691244Y-17587563D01*
X107448808Y-17663074D01*
X107445880Y-17664323D01*
X107097559Y-17812894D01*
X107097555Y-17812896D01*
X107094629Y-17814144D01*
X107091850Y-17815678D01*
X107091844Y-17815681D01*
X106802081Y-17975639D01*
X106757531Y-18000232D01*
X106754910Y-18002047D01*
X106754905Y-18002050D01*
X106526502Y-18160204D01*
X106440963Y-18219434D01*
X106148168Y-18469504D01*
X106145968Y-18471806D01*
X106145965Y-18471809D01*
X106086534Y-18534000D01*
X105882143Y-18747884D01*
X105880186Y-18750398D01*
X105880185Y-18750399D01*
X105657674Y-19036227D01*
X105645612Y-19051721D01*
X105643916Y-19054425D01*
X105643913Y-19054429D01*
X105637078Y-19065325D01*
X105440996Y-19377907D01*
X105270391Y-19723100D01*
X105135543Y-20083766D01*
X105037834Y-20456214D01*
X105033321Y-20485034D01*
X104990336Y-20759530D01*
X104978262Y-20836629D01*
X104978091Y-20839791D01*
X104978090Y-20839798D01*
X104976361Y-20871731D01*
X104957439Y-21221117D01*
X101005500Y-21221117D01*
X101005500Y-14634500D01*
X101025502Y-14566379D01*
X101079158Y-14519886D01*
X101131500Y-14508500D01*
X117365500Y-14508500D01*
X117433621Y-14528502D01*
X117480114Y-14582158D01*
X117491500Y-14634500D01*
X117491500Y-101365500D01*
X117471498Y-101433621D01*
X117417842Y-101480114D01*
X117365500Y-101491500D01*
X33634500Y-101491500D01*
X33566379Y-101471498D01*
X33519886Y-101417842D01*
X33508500Y-101365500D01*
X33508500Y-95113717D01*
X36479639Y-95113717D01*
X36479789Y-95116898D01*
X36497189Y-95485842D01*
X36497778Y-95498340D01*
X36498249Y-95501493D01*
X36498250Y-95501501D01*
X36503226Y-95534793D01*
X36554692Y-95879162D01*
X36555478Y-95882244D01*
X36555478Y-95882246D01*
X36642033Y-96221814D01*
X36649799Y-96252283D01*
X36650894Y-96255274D01*
X36777862Y-96602229D01*
X36782126Y-96613882D01*
X36950317Y-96960258D01*
X37152650Y-97287864D01*
X37154591Y-97290394D01*
X37154592Y-97290395D01*
X37247120Y-97410979D01*
X37387054Y-97593345D01*
X37651129Y-97873575D01*
X37653534Y-97875659D01*
X37653540Y-97875664D01*
X37938145Y-98122196D01*
X37942172Y-98125684D01*
X38257201Y-98347090D01*
X38259976Y-98348647D01*
X38511415Y-98489748D01*
X38592992Y-98535527D01*
X38595906Y-98536794D01*
X38595910Y-98536796D01*
X38740483Y-98599658D01*
X38946107Y-98689066D01*
X39312931Y-98806134D01*
X39441644Y-98833258D01*
X39686582Y-98884875D01*
X39686592Y-98884877D01*
X39689707Y-98885533D01*
X39692870Y-98885871D01*
X39692876Y-98885872D01*
X40069411Y-98926113D01*
X40069420Y-98926114D01*
X40072578Y-98926451D01*
X40075764Y-98926468D01*
X40075770Y-98926468D01*
X40252250Y-98927392D01*
X40457624Y-98928467D01*
X40602167Y-98914549D01*
X40837737Y-98891866D01*
X40837742Y-98891865D01*
X40840902Y-98891561D01*
X40844022Y-98890938D01*
X40844026Y-98890937D01*
X41215361Y-98816737D01*
X41215360Y-98816737D01*
X41218489Y-98816112D01*
X41221525Y-98815178D01*
X41221533Y-98815176D01*
X41583476Y-98703827D01*
X41583479Y-98703826D01*
X41586518Y-98702891D01*
X41589446Y-98701654D01*
X41589452Y-98701652D01*
X41748869Y-98634312D01*
X41941221Y-98553059D01*
X41944024Y-98551525D01*
X41944029Y-98551522D01*
X42089446Y-98471908D01*
X42278968Y-98368148D01*
X42596298Y-98150053D01*
X42598737Y-98147985D01*
X42598743Y-98147980D01*
X42887525Y-97903076D01*
X42887533Y-97903068D01*
X42889965Y-97901006D01*
X42892173Y-97898711D01*
X42892181Y-97898704D01*
X43154745Y-97625859D01*
X43154747Y-97625856D01*
X43156960Y-97623557D01*
X43354723Y-97371340D01*
X43392576Y-97323064D01*
X43392579Y-97323059D01*
X43394550Y-97320546D01*
X43600303Y-96995077D01*
X43601723Y-96992228D01*
X43601728Y-96992220D01*
X43604472Y-96986717D01*
X105194639Y-96986717D01*
X105194789Y-96989898D01*
X105210383Y-97320546D01*
X105212778Y-97371340D01*
X105269692Y-97752162D01*
X105270478Y-97755244D01*
X105270478Y-97755246D01*
X105279639Y-97791184D01*
X105364799Y-98125283D01*
X105497126Y-98486882D01*
X105665317Y-98833258D01*
X105867650Y-99160864D01*
X106102054Y-99466345D01*
X106366129Y-99746575D01*
X106368534Y-99748659D01*
X106368540Y-99748664D01*
X106654765Y-99996599D01*
X106657172Y-99998684D01*
X106972201Y-100220090D01*
X107307992Y-100408527D01*
X107310906Y-100409794D01*
X107310910Y-100409796D01*
X107455483Y-100472658D01*
X107661107Y-100562066D01*
X108027931Y-100679134D01*
X108171353Y-100709358D01*
X108401582Y-100757875D01*
X108401592Y-100757877D01*
X108404707Y-100758533D01*
X108407870Y-100758871D01*
X108407876Y-100758872D01*
X108784411Y-100799113D01*
X108784420Y-100799114D01*
X108787578Y-100799451D01*
X108790764Y-100799468D01*
X108790770Y-100799468D01*
X108967250Y-100800392D01*
X109172624Y-100801467D01*
X109317167Y-100787549D01*
X109552737Y-100764866D01*
X109552742Y-100764865D01*
X109555902Y-100764561D01*
X109559022Y-100763938D01*
X109559026Y-100763937D01*
X109930361Y-100689737D01*
X109930360Y-100689737D01*
X109933489Y-100689112D01*
X109936525Y-100688178D01*
X109936533Y-100688176D01*
X110298476Y-100576827D01*
X110298479Y-100576826D01*
X110301518Y-100575891D01*
X110304446Y-100574654D01*
X110304452Y-100574652D01*
X110463869Y-100507312D01*
X110656221Y-100426059D01*
X110659024Y-100424525D01*
X110659029Y-100424522D01*
X110804446Y-100344908D01*
X110993968Y-100241148D01*
X111311298Y-100023053D01*
X111313737Y-100020985D01*
X111313743Y-100020980D01*
X111602525Y-99776076D01*
X111602533Y-99776068D01*
X111604965Y-99774006D01*
X111607173Y-99771711D01*
X111607181Y-99771704D01*
X111869745Y-99498859D01*
X111869747Y-99498856D01*
X111871960Y-99496557D01*
X112109550Y-99193546D01*
X112315303Y-98868077D01*
X112316723Y-98865228D01*
X112316728Y-98865220D01*
X112485692Y-98526330D01*
X112487112Y-98523482D01*
X112623218Y-98163288D01*
X112632535Y-98128274D01*
X112721406Y-97794269D01*
X112722227Y-97791184D01*
X112727984Y-97755246D01*
X112782621Y-97414130D01*
X112783126Y-97410979D01*
X112785230Y-97374501D01*
X112805193Y-97028261D01*
X112805291Y-97026566D01*
X112805384Y-97000000D01*
X112804873Y-96989898D01*
X112786064Y-96618615D01*
X112786063Y-96618610D01*
X112785903Y-96615442D01*
X112727660Y-96234821D01*
X112645772Y-95918184D01*
X112632048Y-95865115D01*
X112632045Y-95865107D01*
X112631251Y-95862035D01*
X112627702Y-95852439D01*
X112584529Y-95735728D01*
X112497663Y-95500900D01*
X112328264Y-95155113D01*
X112226526Y-94991664D01*
X112126475Y-94830925D01*
X112126467Y-94830914D01*
X112124788Y-94828216D01*
X111889319Y-94523554D01*
X111735840Y-94361821D01*
X111626466Y-94246565D01*
X111626463Y-94246563D01*
X111624267Y-94244248D01*
X111332347Y-93993157D01*
X111016546Y-93772851D01*
X110761485Y-93630886D01*
X110682884Y-93587137D01*
X110682882Y-93587136D01*
X110680099Y-93585587D01*
X110677179Y-93584329D01*
X110677174Y-93584327D01*
X110329384Y-93434545D01*
X110329374Y-93434541D01*
X110326450Y-93433282D01*
X109959221Y-93317495D01*
X109688472Y-93261426D01*
X109585295Y-93240059D01*
X109585292Y-93240059D01*
X109582170Y-93239412D01*
X109288699Y-93209084D01*
X109202314Y-93200157D01*
X109202311Y-93200157D01*
X109199158Y-93199831D01*
X109195992Y-93199825D01*
X109195983Y-93199825D01*
X109005911Y-93199494D01*
X108814108Y-93199159D01*
X108661969Y-93214344D01*
X108434134Y-93237085D01*
X108434128Y-93237086D01*
X108430961Y-93237402D01*
X108235038Y-93277263D01*
X108056764Y-93313533D01*
X108056760Y-93313534D01*
X108053639Y-93314169D01*
X108050597Y-93315116D01*
X108050591Y-93315118D01*
X107898214Y-93362579D01*
X107686008Y-93428674D01*
X107683080Y-93429923D01*
X107334759Y-93578494D01*
X107334755Y-93578496D01*
X107331829Y-93579744D01*
X107329050Y-93581278D01*
X107329044Y-93581281D01*
X107113692Y-93700162D01*
X106994731Y-93765832D01*
X106992110Y-93767647D01*
X106992105Y-93767650D01*
X106707971Y-93964394D01*
X106678163Y-93985034D01*
X106385368Y-94235104D01*
X106383168Y-94237406D01*
X106383165Y-94237409D01*
X106279647Y-94345735D01*
X106119343Y-94513484D01*
X106117386Y-94515998D01*
X106117385Y-94515999D01*
X105938634Y-94745615D01*
X105882812Y-94817321D01*
X105881116Y-94820025D01*
X105881113Y-94820029D01*
X105874278Y-94830925D01*
X105678196Y-95143507D01*
X105507591Y-95488700D01*
X105506477Y-95491681D01*
X105506476Y-95491682D01*
X105504097Y-95498044D01*
X105372743Y-95849366D01*
X105275034Y-96221814D01*
X105215462Y-96602229D01*
X105215291Y-96605391D01*
X105215290Y-96605398D01*
X105212694Y-96653330D01*
X105194639Y-96986717D01*
X43604472Y-96986717D01*
X43770692Y-96653330D01*
X43772112Y-96650482D01*
X43908218Y-96290288D01*
X43917535Y-96255274D01*
X44006406Y-95921269D01*
X44007227Y-95918184D01*
X44012984Y-95882246D01*
X44067621Y-95541130D01*
X44068126Y-95537979D01*
X44070230Y-95501501D01*
X44090193Y-95155261D01*
X44090291Y-95153566D01*
X44090384Y-95127000D01*
X44089873Y-95116898D01*
X44071064Y-94745615D01*
X44071063Y-94745610D01*
X44070903Y-94742442D01*
X44037055Y-94521242D01*
X44013144Y-94364981D01*
X44013142Y-94364972D01*
X44012660Y-94361821D01*
X43979353Y-94233031D01*
X43917048Y-93992115D01*
X43917045Y-93992107D01*
X43916251Y-93989035D01*
X43914326Y-93983829D01*
X43836282Y-93772851D01*
X43782663Y-93627900D01*
X43762732Y-93587216D01*
X43614665Y-93284972D01*
X43614662Y-93284966D01*
X43613264Y-93282113D01*
X43487941Y-93080773D01*
X43411475Y-92957925D01*
X43411467Y-92957914D01*
X43409788Y-92955216D01*
X43174319Y-92650554D01*
X42909267Y-92371248D01*
X42896226Y-92360031D01*
X42619762Y-92122234D01*
X42619759Y-92122232D01*
X42617347Y-92120157D01*
X42301546Y-91899851D01*
X41965099Y-91712587D01*
X41962179Y-91711329D01*
X41962174Y-91711327D01*
X41614384Y-91561545D01*
X41614374Y-91561541D01*
X41611450Y-91560282D01*
X41244221Y-91444495D01*
X40973472Y-91388426D01*
X40870295Y-91367059D01*
X40870292Y-91367059D01*
X40867170Y-91366412D01*
X40573699Y-91336084D01*
X40487314Y-91327157D01*
X40487311Y-91327157D01*
X40484158Y-91326831D01*
X40480992Y-91326825D01*
X40480983Y-91326825D01*
X40290911Y-91326494D01*
X40099108Y-91326159D01*
X39946969Y-91341344D01*
X39719134Y-91364085D01*
X39719128Y-91364086D01*
X39715961Y-91364402D01*
X39520038Y-91404263D01*
X39341764Y-91440533D01*
X39341760Y-91440534D01*
X39338639Y-91441169D01*
X39335597Y-91442116D01*
X39335591Y-91442118D01*
X39183214Y-91489579D01*
X38971008Y-91555674D01*
X38968080Y-91556923D01*
X38619759Y-91705494D01*
X38619755Y-91705496D01*
X38616829Y-91706744D01*
X38614050Y-91708278D01*
X38614044Y-91708281D01*
X38331156Y-91864444D01*
X38279731Y-91892832D01*
X38277110Y-91894647D01*
X38277105Y-91894650D01*
X38088131Y-92025502D01*
X37963163Y-92112034D01*
X37670368Y-92362104D01*
X37668168Y-92364406D01*
X37668165Y-92364409D01*
X37554214Y-92483652D01*
X37404343Y-92640484D01*
X37402386Y-92642998D01*
X37402385Y-92642999D01*
X37220081Y-92877179D01*
X37167812Y-92944321D01*
X37166116Y-92947025D01*
X37166113Y-92947029D01*
X37159278Y-92957925D01*
X36963196Y-93270507D01*
X36792591Y-93615700D01*
X36657743Y-93976366D01*
X36560034Y-94348814D01*
X36500462Y-94729229D01*
X36500291Y-94732391D01*
X36500290Y-94732398D01*
X36495827Y-94814804D01*
X36479639Y-95113717D01*
X33508500Y-95113717D01*
X33508500Y-88479807D01*
X36270001Y-88479807D01*
X36270121Y-88483701D01*
X36272790Y-88526893D01*
X36274126Y-88536472D01*
X36318048Y-88737073D01*
X36321695Y-88748432D01*
X36402306Y-88936059D01*
X36408041Y-88946533D01*
X36522669Y-89115522D01*
X36530282Y-89124724D01*
X36674802Y-89268992D01*
X36684015Y-89276587D01*
X36853206Y-89390922D01*
X36863690Y-89396638D01*
X37051450Y-89476918D01*
X37062821Y-89480547D01*
X37263480Y-89524115D01*
X37273100Y-89525437D01*
X37314387Y-89527890D01*
X37318102Y-89528000D01*
X37509885Y-89528000D01*
X37525124Y-89523525D01*
X37526329Y-89522135D01*
X37528000Y-89514452D01*
X37528000Y-89509884D01*
X38528000Y-89509884D01*
X38532475Y-89525123D01*
X38533865Y-89526328D01*
X38541548Y-89527999D01*
X38737807Y-89527999D01*
X38741701Y-89527879D01*
X38784893Y-89525210D01*
X38794472Y-89523874D01*
X38995073Y-89479952D01*
X39006432Y-89476305D01*
X39194059Y-89395694D01*
X39204533Y-89389959D01*
X39373522Y-89275331D01*
X39382724Y-89267718D01*
X39526992Y-89123198D01*
X39534587Y-89113985D01*
X39648922Y-88944794D01*
X39654638Y-88934310D01*
X39734918Y-88746550D01*
X39738547Y-88735179D01*
X39782115Y-88534520D01*
X39783437Y-88524900D01*
X39785890Y-88483613D01*
X39786000Y-88479898D01*
X39786000Y-87788115D01*
X39781525Y-87772876D01*
X39780135Y-87771671D01*
X39772452Y-87770000D01*
X38546115Y-87770000D01*
X38530876Y-87774475D01*
X38529671Y-87775865D01*
X38528000Y-87783548D01*
X38528000Y-89509884D01*
X37528000Y-89509884D01*
X37528000Y-87788115D01*
X37523525Y-87772876D01*
X37522135Y-87771671D01*
X37514452Y-87770000D01*
X36288116Y-87770000D01*
X36272877Y-87774475D01*
X36271672Y-87775865D01*
X36270001Y-87783548D01*
X36270001Y-88479807D01*
X33508500Y-88479807D01*
X33508500Y-86751885D01*
X36270000Y-86751885D01*
X36274475Y-86767124D01*
X36275865Y-86768329D01*
X36283548Y-86770000D01*
X37509885Y-86770000D01*
X37525124Y-86765525D01*
X37526329Y-86764135D01*
X37528000Y-86756452D01*
X37528000Y-86751885D01*
X38528000Y-86751885D01*
X38532475Y-86767124D01*
X38533865Y-86768329D01*
X38541548Y-86770000D01*
X39767884Y-86770000D01*
X39783123Y-86765525D01*
X39784328Y-86764135D01*
X39785999Y-86756452D01*
X39785999Y-86060194D01*
X39785879Y-86056299D01*
X39783210Y-86013107D01*
X39781874Y-86003528D01*
X39737952Y-85802927D01*
X39734305Y-85791568D01*
X39653694Y-85603941D01*
X39647959Y-85593467D01*
X39533331Y-85424478D01*
X39525718Y-85415276D01*
X39381198Y-85271008D01*
X39371985Y-85263413D01*
X39202794Y-85149078D01*
X39192310Y-85143362D01*
X39004550Y-85063082D01*
X38993179Y-85059453D01*
X38792520Y-85015885D01*
X38782900Y-85014563D01*
X38741613Y-85012110D01*
X38737898Y-85012000D01*
X38546115Y-85012000D01*
X38530876Y-85016475D01*
X38529671Y-85017865D01*
X38528000Y-85025548D01*
X38528000Y-86751885D01*
X37528000Y-86751885D01*
X37528000Y-85030116D01*
X37523525Y-85014877D01*
X37522135Y-85013672D01*
X37514452Y-85012001D01*
X37318194Y-85012001D01*
X37314299Y-85012121D01*
X37271107Y-85014790D01*
X37261528Y-85016126D01*
X37060927Y-85060048D01*
X37049568Y-85063695D01*
X36861941Y-85144306D01*
X36851467Y-85150041D01*
X36682478Y-85264669D01*
X36673276Y-85272282D01*
X36529008Y-85416802D01*
X36521413Y-85426015D01*
X36407078Y-85595206D01*
X36401362Y-85605690D01*
X36321082Y-85793450D01*
X36317453Y-85804821D01*
X36273885Y-86005480D01*
X36272563Y-86015100D01*
X36270110Y-86056387D01*
X36270000Y-86060102D01*
X36270000Y-86751885D01*
X33508500Y-86751885D01*
X33508500Y-59505475D01*
X61937483Y-59505475D01*
X61956472Y-59722519D01*
X61958375Y-59733312D01*
X62014763Y-59943756D01*
X62018513Y-59954060D01*
X62033220Y-59985599D01*
X62042539Y-59996184D01*
X62048517Y-59994377D01*
X62530085Y-59512808D01*
X62536462Y-59501130D01*
X63962304Y-59501130D01*
X63962436Y-59502966D01*
X63966685Y-59509578D01*
X64446313Y-59989207D01*
X64458692Y-59995966D01*
X64463691Y-59992224D01*
X64481487Y-59954060D01*
X64485237Y-59943756D01*
X64541625Y-59733312D01*
X64543528Y-59722519D01*
X64562517Y-59505475D01*
X64562517Y-59494525D01*
X64543528Y-59277481D01*
X64541625Y-59266688D01*
X64485237Y-59056244D01*
X64481487Y-59045940D01*
X64466780Y-59014401D01*
X64457461Y-59003816D01*
X64451483Y-59005623D01*
X63969915Y-59487192D01*
X63962304Y-59501130D01*
X62536462Y-59501130D01*
X62537696Y-59498870D01*
X62537564Y-59497034D01*
X62533315Y-59490422D01*
X62053687Y-59010793D01*
X62041308Y-59004034D01*
X62036309Y-59007776D01*
X62018513Y-59045940D01*
X62014763Y-59056244D01*
X61958375Y-59266688D01*
X61956472Y-59277481D01*
X61937483Y-59494525D01*
X61937483Y-59505475D01*
X33508500Y-59505475D01*
X33508500Y-49109807D01*
X36270001Y-49109807D01*
X36270121Y-49113701D01*
X36272790Y-49156893D01*
X36274126Y-49166472D01*
X36318048Y-49367073D01*
X36321695Y-49378432D01*
X36402306Y-49566059D01*
X36408041Y-49576533D01*
X36522669Y-49745522D01*
X36530282Y-49754724D01*
X36674802Y-49898992D01*
X36684015Y-49906587D01*
X36853206Y-50020922D01*
X36863690Y-50026638D01*
X37051450Y-50106918D01*
X37062821Y-50110547D01*
X37263480Y-50154115D01*
X37273100Y-50155437D01*
X37314387Y-50157890D01*
X37318102Y-50158000D01*
X37509885Y-50158000D01*
X37525124Y-50153525D01*
X37526329Y-50152135D01*
X37528000Y-50144452D01*
X37528000Y-50139884D01*
X38528000Y-50139884D01*
X38532475Y-50155123D01*
X38533865Y-50156328D01*
X38541548Y-50157999D01*
X38737807Y-50157999D01*
X38741701Y-50157879D01*
X38784893Y-50155210D01*
X38794472Y-50153874D01*
X38995073Y-50109952D01*
X39006432Y-50106305D01*
X39194059Y-50025694D01*
X39204533Y-50019959D01*
X39373522Y-49905331D01*
X39382724Y-49897718D01*
X39526992Y-49753198D01*
X39534587Y-49743985D01*
X39648922Y-49574794D01*
X39654638Y-49564310D01*
X39734918Y-49376550D01*
X39738547Y-49365179D01*
X39782115Y-49164520D01*
X39783437Y-49154900D01*
X39785890Y-49113613D01*
X39786000Y-49109898D01*
X39786000Y-48418115D01*
X39781525Y-48402876D01*
X39780135Y-48401671D01*
X39772452Y-48400000D01*
X38546115Y-48400000D01*
X38530876Y-48404475D01*
X38529671Y-48405865D01*
X38528000Y-48413548D01*
X38528000Y-50139884D01*
X37528000Y-50139884D01*
X37528000Y-48418115D01*
X37523525Y-48402876D01*
X37522135Y-48401671D01*
X37514452Y-48400000D01*
X36288116Y-48400000D01*
X36272877Y-48404475D01*
X36271672Y-48405865D01*
X36270001Y-48413548D01*
X36270001Y-49109807D01*
X33508500Y-49109807D01*
X33508500Y-47381885D01*
X36270000Y-47381885D01*
X36274475Y-47397124D01*
X36275865Y-47398329D01*
X36283548Y-47400000D01*
X37509885Y-47400000D01*
X37525124Y-47395525D01*
X37526329Y-47394135D01*
X37528000Y-47386452D01*
X37528000Y-47381885D01*
X38528000Y-47381885D01*
X38532475Y-47397124D01*
X38533865Y-47398329D01*
X38541548Y-47400000D01*
X39767884Y-47400000D01*
X39783123Y-47395525D01*
X39784328Y-47394135D01*
X39785999Y-47386452D01*
X39785999Y-46690194D01*
X39785879Y-46686299D01*
X39783210Y-46643107D01*
X39781874Y-46633528D01*
X39737952Y-46432927D01*
X39734305Y-46421568D01*
X39653694Y-46233941D01*
X39647959Y-46223467D01*
X39533331Y-46054478D01*
X39525718Y-46045276D01*
X39381198Y-45901008D01*
X39371985Y-45893413D01*
X39202794Y-45779078D01*
X39192310Y-45773362D01*
X39004550Y-45693082D01*
X38993179Y-45689453D01*
X38792520Y-45645885D01*
X38782900Y-45644563D01*
X38741613Y-45642110D01*
X38737898Y-45642000D01*
X38546115Y-45642000D01*
X38530876Y-45646475D01*
X38529671Y-45647865D01*
X38528000Y-45655548D01*
X38528000Y-47381885D01*
X37528000Y-47381885D01*
X37528000Y-45660116D01*
X37523525Y-45644877D01*
X37522135Y-45643672D01*
X37514452Y-45642001D01*
X37318194Y-45642001D01*
X37314299Y-45642121D01*
X37271107Y-45644790D01*
X37261528Y-45646126D01*
X37060927Y-45690048D01*
X37049568Y-45693695D01*
X36861941Y-45774306D01*
X36851467Y-45780041D01*
X36682478Y-45894669D01*
X36673276Y-45902282D01*
X36529008Y-46046802D01*
X36521413Y-46056015D01*
X36407078Y-46225206D01*
X36401362Y-46235690D01*
X36321082Y-46423450D01*
X36317453Y-46434821D01*
X36273885Y-46635480D01*
X36272563Y-46645100D01*
X36270110Y-46686387D01*
X36270000Y-46690102D01*
X36270000Y-47381885D01*
X33508500Y-47381885D01*
X33508500Y-41610848D01*
X40101879Y-41610848D01*
X40105068Y-41615108D01*
X40277988Y-41686734D01*
X40287373Y-41689783D01*
X40508554Y-41742885D01*
X40518301Y-41744428D01*
X40745070Y-41762275D01*
X40754930Y-41762275D01*
X40981699Y-41744428D01*
X40991446Y-41742885D01*
X41212627Y-41689783D01*
X41222012Y-41686734D01*
X41387436Y-41618213D01*
X41398417Y-41609364D01*
X41397101Y-41604208D01*
X40762812Y-40969919D01*
X40748868Y-40962305D01*
X40747035Y-40962436D01*
X40740420Y-40966687D01*
X40108639Y-41598468D01*
X40101879Y-41610848D01*
X33508500Y-41610848D01*
X33508500Y-40254930D01*
X39237725Y-40254930D01*
X39255572Y-40481699D01*
X39257115Y-40491446D01*
X39310217Y-40712627D01*
X39313266Y-40722012D01*
X39381787Y-40887436D01*
X39390636Y-40898417D01*
X39395792Y-40897101D01*
X40030081Y-40262812D01*
X40036459Y-40251132D01*
X41462305Y-40251132D01*
X41462436Y-40252965D01*
X41466687Y-40259580D01*
X42098468Y-40891361D01*
X42110848Y-40898121D01*
X42115108Y-40894932D01*
X42186734Y-40722012D01*
X42189783Y-40712627D01*
X42242885Y-40491446D01*
X42244428Y-40481699D01*
X42262275Y-40254930D01*
X42262275Y-40245070D01*
X42244428Y-40018301D01*
X42242885Y-40008554D01*
X42189783Y-39787373D01*
X42186734Y-39777988D01*
X42118213Y-39612564D01*
X42109364Y-39601583D01*
X42104208Y-39602899D01*
X41469919Y-40237188D01*
X41462305Y-40251132D01*
X40036459Y-40251132D01*
X40037695Y-40248868D01*
X40037564Y-40247035D01*
X40033313Y-40240420D01*
X39401532Y-39608639D01*
X39389152Y-39601879D01*
X39384892Y-39605068D01*
X39313266Y-39777988D01*
X39310217Y-39787373D01*
X39257115Y-40008554D01*
X39255572Y-40018301D01*
X39237725Y-40245070D01*
X39237725Y-40254930D01*
X33508500Y-40254930D01*
X33508500Y-38890636D01*
X40101583Y-38890636D01*
X40102899Y-38895792D01*
X40737188Y-39530081D01*
X40751132Y-39537695D01*
X40752965Y-39537564D01*
X40759580Y-39533313D01*
X41391361Y-38901532D01*
X41398121Y-38889152D01*
X41394932Y-38884892D01*
X41222012Y-38813266D01*
X41212627Y-38810217D01*
X40991446Y-38757115D01*
X40981699Y-38755572D01*
X40754930Y-38737725D01*
X40745070Y-38737725D01*
X40518301Y-38755572D01*
X40508554Y-38757115D01*
X40287373Y-38810217D01*
X40277988Y-38813266D01*
X40112564Y-38881787D01*
X40101583Y-38890636D01*
X33508500Y-38890636D01*
X33508500Y-35610848D01*
X40101879Y-35610848D01*
X40105068Y-35615108D01*
X40277988Y-35686734D01*
X40287373Y-35689783D01*
X40508554Y-35742885D01*
X40518301Y-35744428D01*
X40745070Y-35762275D01*
X40754930Y-35762275D01*
X40981699Y-35744428D01*
X40991446Y-35742885D01*
X41212627Y-35689783D01*
X41222012Y-35686734D01*
X41387436Y-35618213D01*
X41398417Y-35609364D01*
X41397101Y-35604208D01*
X40762812Y-34969919D01*
X40748868Y-34962305D01*
X40747035Y-34962436D01*
X40740420Y-34966687D01*
X40108639Y-35598468D01*
X40101879Y-35610848D01*
X33508500Y-35610848D01*
X33508500Y-34254930D01*
X39237725Y-34254930D01*
X39255572Y-34481699D01*
X39257115Y-34491446D01*
X39310217Y-34712627D01*
X39313266Y-34722012D01*
X39381787Y-34887436D01*
X39390636Y-34898417D01*
X39395792Y-34897101D01*
X40030081Y-34262812D01*
X40036459Y-34251132D01*
X41462305Y-34251132D01*
X41462436Y-34252965D01*
X41466687Y-34259580D01*
X42098468Y-34891361D01*
X42110848Y-34898121D01*
X42115108Y-34894932D01*
X42186734Y-34722012D01*
X42189783Y-34712627D01*
X42242885Y-34491446D01*
X42244428Y-34481699D01*
X42262275Y-34254930D01*
X42262275Y-34245070D01*
X42244428Y-34018301D01*
X42242885Y-34008554D01*
X42189783Y-33787373D01*
X42186734Y-33777988D01*
X42118213Y-33612564D01*
X42109364Y-33601583D01*
X42104208Y-33602899D01*
X41469919Y-34237188D01*
X41462305Y-34251132D01*
X40036459Y-34251132D01*
X40037695Y-34248868D01*
X40037564Y-34247035D01*
X40033313Y-34240420D01*
X39401532Y-33608639D01*
X39389152Y-33601879D01*
X39384892Y-33605068D01*
X39313266Y-33777988D01*
X39310217Y-33787373D01*
X39257115Y-34008554D01*
X39255572Y-34018301D01*
X39237725Y-34245070D01*
X39237725Y-34254930D01*
X33508500Y-34254930D01*
X33508500Y-32890636D01*
X40101583Y-32890636D01*
X40102899Y-32895792D01*
X40737188Y-33530081D01*
X40751132Y-33537695D01*
X40752965Y-33537564D01*
X40759580Y-33533313D01*
X41391361Y-32901532D01*
X41398121Y-32889152D01*
X41394932Y-32884892D01*
X41222012Y-32813266D01*
X41212627Y-32810217D01*
X40991446Y-32757115D01*
X40981699Y-32755572D01*
X40754930Y-32737725D01*
X40745070Y-32737725D01*
X40518301Y-32755572D01*
X40508554Y-32757115D01*
X40287373Y-32810217D01*
X40277988Y-32813266D01*
X40112564Y-32881787D01*
X40101583Y-32890636D01*
X33508500Y-32890636D01*
X33508500Y-29860848D01*
X40351879Y-29860848D01*
X40355068Y-29865108D01*
X40527988Y-29936734D01*
X40537373Y-29939783D01*
X40758554Y-29992885D01*
X40768301Y-29994428D01*
X40995070Y-30012275D01*
X41004930Y-30012275D01*
X41231699Y-29994428D01*
X41241446Y-29992885D01*
X41462627Y-29939783D01*
X41472012Y-29936734D01*
X41637436Y-29868213D01*
X41648417Y-29859364D01*
X41647101Y-29854208D01*
X41012812Y-29219919D01*
X40998868Y-29212305D01*
X40997035Y-29212436D01*
X40990420Y-29216687D01*
X40358639Y-29848468D01*
X40351879Y-29860848D01*
X33508500Y-29860848D01*
X33508500Y-28504930D01*
X39487725Y-28504930D01*
X39505572Y-28731699D01*
X39507115Y-28741446D01*
X39560217Y-28962627D01*
X39563266Y-28972012D01*
X39631787Y-29137436D01*
X39640636Y-29148417D01*
X39645792Y-29147101D01*
X40280081Y-28512812D01*
X40286459Y-28501132D01*
X41712305Y-28501132D01*
X41712436Y-28502965D01*
X41716687Y-28509580D01*
X42348468Y-29141361D01*
X42360848Y-29148121D01*
X42365108Y-29144932D01*
X42436734Y-28972012D01*
X42439783Y-28962627D01*
X42492885Y-28741446D01*
X42494428Y-28731699D01*
X42512275Y-28504930D01*
X42512275Y-28495070D01*
X42494428Y-28268301D01*
X42492885Y-28258554D01*
X42439783Y-28037373D01*
X42436734Y-28027988D01*
X42368213Y-27862564D01*
X42359364Y-27851583D01*
X42354208Y-27852899D01*
X41719919Y-28487188D01*
X41712305Y-28501132D01*
X40286459Y-28501132D01*
X40287695Y-28498868D01*
X40287564Y-28497035D01*
X40283313Y-28490420D01*
X39651532Y-27858639D01*
X39639152Y-27851879D01*
X39634892Y-27855068D01*
X39563266Y-28027988D01*
X39560217Y-28037373D01*
X39507115Y-28258554D01*
X39505572Y-28268301D01*
X39487725Y-28495070D01*
X39487725Y-28504930D01*
X33508500Y-28504930D01*
X33508500Y-27140636D01*
X40351583Y-27140636D01*
X40352899Y-27145792D01*
X40987188Y-27780081D01*
X41001132Y-27787695D01*
X41002965Y-27787564D01*
X41009580Y-27783313D01*
X41641361Y-27151532D01*
X41648121Y-27139152D01*
X41644932Y-27134892D01*
X41472012Y-27063266D01*
X41462627Y-27060217D01*
X41241446Y-27007115D01*
X41231699Y-27005572D01*
X41004930Y-26987725D01*
X40995070Y-26987725D01*
X40768301Y-27005572D01*
X40758554Y-27007115D01*
X40537373Y-27060217D01*
X40527988Y-27063266D01*
X40362564Y-27131787D01*
X40351583Y-27140636D01*
X33508500Y-27140636D01*
X33508500Y-24402669D01*
X48242001Y-24402669D01*
X48242371Y-24409490D01*
X48247895Y-24460352D01*
X48251521Y-24475604D01*
X48296676Y-24596054D01*
X48305214Y-24611649D01*
X48381715Y-24713724D01*
X48394276Y-24726285D01*
X48496351Y-24802786D01*
X48511946Y-24811324D01*
X48632394Y-24856478D01*
X48647649Y-24860105D01*
X48698514Y-24865631D01*
X48705328Y-24866000D01*
X51481885Y-24866000D01*
X51497124Y-24861525D01*
X51498329Y-24860135D01*
X51500000Y-24852452D01*
X51500000Y-22118115D01*
X51495525Y-22102876D01*
X51494135Y-22101671D01*
X51486452Y-22100000D01*
X48260116Y-22100000D01*
X48244877Y-22104475D01*
X48243672Y-22105865D01*
X48242001Y-22113548D01*
X48242001Y-24402669D01*
X33508500Y-24402669D01*
X33508500Y-20332117D01*
X34218439Y-20332117D01*
X34218589Y-20335298D01*
X34225651Y-20485034D01*
X34236578Y-20716740D01*
X34293492Y-21097562D01*
X34294278Y-21100644D01*
X34294278Y-21100646D01*
X34345093Y-21300000D01*
X34388599Y-21470683D01*
X34520926Y-21832282D01*
X34689117Y-22178658D01*
X34891450Y-22506264D01*
X34893391Y-22508794D01*
X34893392Y-22508795D01*
X35054146Y-22718293D01*
X35125854Y-22811745D01*
X35389929Y-23091975D01*
X35392334Y-23094059D01*
X35392340Y-23094064D01*
X35562474Y-23241438D01*
X35680972Y-23344084D01*
X35996001Y-23565490D01*
X35998776Y-23567047D01*
X36312645Y-23743182D01*
X36331792Y-23753927D01*
X36334706Y-23755194D01*
X36334710Y-23755196D01*
X36463748Y-23811303D01*
X36684907Y-23907466D01*
X37051731Y-24024534D01*
X37195153Y-24054758D01*
X37425382Y-24103275D01*
X37425392Y-24103277D01*
X37428507Y-24103933D01*
X37431670Y-24104271D01*
X37431676Y-24104272D01*
X37808211Y-24144513D01*
X37808220Y-24144514D01*
X37811378Y-24144851D01*
X37814564Y-24144868D01*
X37814570Y-24144868D01*
X37991050Y-24145792D01*
X38196424Y-24146867D01*
X38340967Y-24132949D01*
X38576537Y-24110266D01*
X38576542Y-24110265D01*
X38579702Y-24109961D01*
X38582822Y-24109338D01*
X38582826Y-24109337D01*
X38954161Y-24035137D01*
X38954160Y-24035137D01*
X38957289Y-24034512D01*
X38960325Y-24033578D01*
X38960333Y-24033576D01*
X39322276Y-23922227D01*
X39322279Y-23922226D01*
X39325318Y-23921291D01*
X39328246Y-23920054D01*
X39328252Y-23920052D01*
X39487669Y-23852712D01*
X39680021Y-23771459D01*
X39682824Y-23769925D01*
X39682829Y-23769922D01*
X39952909Y-23622057D01*
X40017768Y-23586548D01*
X40335098Y-23368453D01*
X40337537Y-23366385D01*
X40337543Y-23366380D01*
X40626325Y-23121476D01*
X40626333Y-23121468D01*
X40628765Y-23119406D01*
X40630973Y-23117111D01*
X40630981Y-23117104D01*
X40893545Y-22844259D01*
X40893547Y-22844256D01*
X40895760Y-22841957D01*
X41133350Y-22538946D01*
X41339103Y-22213477D01*
X41340523Y-22210628D01*
X41340528Y-22210620D01*
X41509492Y-21871730D01*
X41510912Y-21868882D01*
X41647018Y-21508688D01*
X41656335Y-21473674D01*
X41745206Y-21139669D01*
X41746027Y-21136584D01*
X41751784Y-21100646D01*
X41754789Y-21081885D01*
X48242000Y-21081885D01*
X48246475Y-21097124D01*
X48247865Y-21098329D01*
X48255548Y-21100000D01*
X51481885Y-21100000D01*
X51497124Y-21095525D01*
X51498329Y-21094135D01*
X51500000Y-21086452D01*
X51500000Y-18352116D01*
X51495525Y-18336877D01*
X51494135Y-18335672D01*
X51486452Y-18334001D01*
X48705331Y-18334001D01*
X48698510Y-18334371D01*
X48647648Y-18339895D01*
X48632396Y-18343521D01*
X48511946Y-18388676D01*
X48496351Y-18397214D01*
X48394276Y-18473715D01*
X48381715Y-18486276D01*
X48305214Y-18588351D01*
X48296676Y-18603946D01*
X48251522Y-18724394D01*
X48247895Y-18739649D01*
X48242369Y-18790514D01*
X48242000Y-18797328D01*
X48242000Y-21081885D01*
X41754789Y-21081885D01*
X41806421Y-20759530D01*
X41806926Y-20756379D01*
X41809030Y-20719901D01*
X41818631Y-20553372D01*
X41829091Y-20371966D01*
X41829184Y-20345400D01*
X41828673Y-20335298D01*
X41809864Y-19964015D01*
X41809863Y-19964010D01*
X41809703Y-19960842D01*
X41773780Y-19726082D01*
X41751944Y-19583381D01*
X41751942Y-19583372D01*
X41751460Y-19580221D01*
X41715110Y-19439666D01*
X41655848Y-19210515D01*
X41655845Y-19210507D01*
X41655051Y-19207435D01*
X41651502Y-19197839D01*
X41597451Y-19051721D01*
X41521463Y-18846300D01*
X41493074Y-18788351D01*
X41353465Y-18503372D01*
X41353462Y-18503366D01*
X41352064Y-18500513D01*
X41236417Y-18314719D01*
X41150275Y-18176325D01*
X41150267Y-18176314D01*
X41148588Y-18173616D01*
X41068501Y-18069995D01*
X40915071Y-17871479D01*
X40915066Y-17871474D01*
X40913119Y-17868954D01*
X40648067Y-17589648D01*
X40511797Y-17472437D01*
X40358562Y-17340634D01*
X40358559Y-17340632D01*
X40356147Y-17338557D01*
X40040346Y-17118251D01*
X39703899Y-16930987D01*
X39700979Y-16929729D01*
X39700974Y-16929727D01*
X39353184Y-16779945D01*
X39353174Y-16779941D01*
X39350250Y-16778682D01*
X38983021Y-16662895D01*
X38712272Y-16606826D01*
X38609095Y-16585459D01*
X38609092Y-16585459D01*
X38605970Y-16584812D01*
X38312499Y-16554484D01*
X38226114Y-16545557D01*
X38226111Y-16545557D01*
X38222958Y-16545231D01*
X38219792Y-16545225D01*
X38219783Y-16545225D01*
X38029711Y-16544894D01*
X37837908Y-16544559D01*
X37685769Y-16559744D01*
X37457934Y-16582485D01*
X37457928Y-16582486D01*
X37454761Y-16582802D01*
X37258838Y-16622663D01*
X37080564Y-16658933D01*
X37080560Y-16658934D01*
X37077439Y-16659569D01*
X37074397Y-16660516D01*
X37074391Y-16660518D01*
X36922014Y-16707979D01*
X36709808Y-16774074D01*
X36706880Y-16775323D01*
X36358559Y-16923894D01*
X36358555Y-16923896D01*
X36355629Y-16925144D01*
X36352850Y-16926678D01*
X36352844Y-16926681D01*
X36063081Y-17086639D01*
X36018531Y-17111232D01*
X36015910Y-17113047D01*
X36015905Y-17113050D01*
X35722830Y-17315985D01*
X35701963Y-17330434D01*
X35534089Y-17473812D01*
X35441539Y-17552857D01*
X35409168Y-17580504D01*
X35406968Y-17582806D01*
X35406965Y-17582809D01*
X35330263Y-17663074D01*
X35143143Y-17858884D01*
X35141186Y-17861398D01*
X35141185Y-17861399D01*
X34945995Y-18112132D01*
X34906612Y-18162721D01*
X34904916Y-18165425D01*
X34904913Y-18165429D01*
X34823294Y-18295541D01*
X34701996Y-18488907D01*
X34531391Y-18834100D01*
X34530277Y-18837081D01*
X34530276Y-18837082D01*
X34497699Y-18924212D01*
X34396543Y-19194766D01*
X34298834Y-19567214D01*
X34239262Y-19947629D01*
X34239091Y-19950791D01*
X34239090Y-19950798D01*
X34231365Y-20093447D01*
X34218439Y-20332117D01*
X33508500Y-20332117D01*
X33508500Y-14634500D01*
X33528502Y-14566379D01*
X33582158Y-14519886D01*
X33634500Y-14508500D01*
X54968063Y-14508500D01*
X55036184Y-14528502D01*
G37*
%TD.AperFunction*%
%TA.AperFunction,Conductor*%
G36*
X89433573Y-14528502D02*
G01*
X89480066Y-14582158D01*
X89491425Y-14637124D01*
X89467860Y-15768234D01*
X89421158Y-18009921D01*
X89421997Y-18076955D01*
X89451836Y-18278205D01*
X89452619Y-18281291D01*
X89452621Y-18281300D01*
X89467484Y-18339865D01*
X89468332Y-18343205D01*
X89471318Y-18352116D01*
X89476630Y-18367969D01*
X89479307Y-18438915D01*
X89443202Y-18500046D01*
X89379779Y-18531953D01*
X89357158Y-18534000D01*
X87318115Y-18534000D01*
X87302876Y-18538475D01*
X87301671Y-18539865D01*
X87300000Y-18547548D01*
X87300000Y-25047884D01*
X87304475Y-25063123D01*
X87305865Y-25064328D01*
X87313548Y-25065999D01*
X89221996Y-25065999D01*
X89290117Y-25086001D01*
X89336610Y-25139657D01*
X89346714Y-25209931D01*
X89337664Y-25241968D01*
X89334098Y-25250224D01*
X89330911Y-25257601D01*
X89309494Y-25325291D01*
X89309161Y-25326518D01*
X89309149Y-25326559D01*
X89297032Y-25371213D01*
X89259889Y-25431718D01*
X89195930Y-25462536D01*
X89171934Y-25464166D01*
X83908191Y-25317951D01*
X83840652Y-25296066D01*
X83795667Y-25241140D01*
X83787518Y-25170612D01*
X83818793Y-25106875D01*
X83879562Y-25070165D01*
X83911690Y-25066000D01*
X86281885Y-25066000D01*
X86297124Y-25061525D01*
X86298329Y-25060135D01*
X86300000Y-25052452D01*
X86300000Y-22318115D01*
X86295525Y-22302876D01*
X86294135Y-22301671D01*
X86286452Y-22300000D01*
X83060116Y-22300000D01*
X83044877Y-22304475D01*
X83043672Y-22305865D01*
X83042001Y-22313548D01*
X83042001Y-24602669D01*
X83042371Y-24609490D01*
X83047895Y-24660352D01*
X83051521Y-24675604D01*
X83096676Y-24796054D01*
X83105214Y-24811649D01*
X83181715Y-24913724D01*
X83194276Y-24926285D01*
X83296351Y-25002786D01*
X83311946Y-25011324D01*
X83439793Y-25059252D01*
X83438763Y-25061998D01*
X83488400Y-25090355D01*
X83521220Y-25153310D01*
X83514794Y-25224015D01*
X83471162Y-25280022D01*
X83404177Y-25303549D01*
X83394110Y-25303671D01*
X82378000Y-25275446D01*
X82310462Y-25253561D01*
X82265477Y-25198635D01*
X82255500Y-25149495D01*
X82255500Y-21281885D01*
X83042000Y-21281885D01*
X83046475Y-21297124D01*
X83047865Y-21298329D01*
X83055548Y-21300000D01*
X86281885Y-21300000D01*
X86297124Y-21295525D01*
X86298329Y-21294135D01*
X86300000Y-21286452D01*
X86300000Y-18552116D01*
X86295525Y-18536877D01*
X86294135Y-18535672D01*
X86286452Y-18534001D01*
X83505331Y-18534001D01*
X83498510Y-18534371D01*
X83447648Y-18539895D01*
X83432396Y-18543521D01*
X83311946Y-18588676D01*
X83296351Y-18597214D01*
X83194276Y-18673715D01*
X83181715Y-18686276D01*
X83105214Y-18788351D01*
X83096676Y-18803946D01*
X83051522Y-18924394D01*
X83047895Y-18939649D01*
X83042369Y-18990514D01*
X83042000Y-18997328D01*
X83042000Y-21281885D01*
X82255500Y-21281885D01*
X82255500Y-16126000D01*
X82232522Y-15912271D01*
X82221136Y-15859929D01*
X82196605Y-15768234D01*
X82115513Y-15581644D01*
X81998522Y-15415197D01*
X81952029Y-15361541D01*
X81950168Y-15359723D01*
X81950162Y-15359716D01*
X81837063Y-15249193D01*
X81837061Y-15249191D01*
X81832907Y-15245132D01*
X81828080Y-15241903D01*
X81828078Y-15241901D01*
X81669120Y-15135556D01*
X81669117Y-15135554D01*
X81663810Y-15132004D01*
X81475401Y-15055231D01*
X81407280Y-15035229D01*
X81405999Y-15034910D01*
X81405992Y-15034908D01*
X81369582Y-15025838D01*
X81326406Y-15015083D01*
X81247498Y-15007059D01*
X81127179Y-14994823D01*
X81127174Y-14994823D01*
X81124000Y-14994500D01*
X73378831Y-14994500D01*
X73356076Y-14994758D01*
X73196617Y-15014628D01*
X73157357Y-15019520D01*
X73157355Y-15019520D01*
X73154188Y-15019915D01*
X73125916Y-15026395D01*
X73100947Y-15032118D01*
X73100938Y-15032120D01*
X73099312Y-15032493D01*
X73097708Y-15032951D01*
X73097696Y-15032954D01*
X73050936Y-15046304D01*
X72997321Y-15061610D01*
X72812579Y-15146827D01*
X72648773Y-15267488D01*
X72596164Y-15315161D01*
X72482435Y-15436833D01*
X72373091Y-15608401D01*
X72300522Y-15798468D01*
X72299690Y-15801554D01*
X72284336Y-15858495D01*
X72282038Y-15867016D01*
X72281747Y-15868306D01*
X72271071Y-15915621D01*
X72263691Y-15948325D01*
X72247610Y-16151138D01*
X72289633Y-18042163D01*
X72303679Y-18188767D01*
X72304065Y-18191030D01*
X72304114Y-18191401D01*
X72293260Y-18261563D01*
X72246197Y-18314719D01*
X72179212Y-18334000D01*
X69918115Y-18334000D01*
X69902876Y-18338475D01*
X69901671Y-18339865D01*
X69900000Y-18347548D01*
X69900000Y-24847884D01*
X69904475Y-24863123D01*
X69905865Y-24864328D01*
X69913548Y-24865999D01*
X72321531Y-24865999D01*
X72389652Y-24886001D01*
X72436145Y-24939657D01*
X72447137Y-25001958D01*
X72444917Y-25029952D01*
X72467260Y-26035354D01*
X72469045Y-26115701D01*
X72450561Y-26184249D01*
X72397952Y-26231922D01*
X72343076Y-26244500D01*
X71518916Y-26244500D01*
X71450795Y-26224498D01*
X71403357Y-26168722D01*
X71382979Y-26121833D01*
X71365513Y-26081644D01*
X71248522Y-25915197D01*
X71202029Y-25861541D01*
X71200168Y-25859723D01*
X71200162Y-25859716D01*
X71087063Y-25749193D01*
X71087061Y-25749191D01*
X71082907Y-25745132D01*
X71078080Y-25741903D01*
X71078078Y-25741901D01*
X70919120Y-25635556D01*
X70919117Y-25635554D01*
X70913810Y-25632004D01*
X70725401Y-25555231D01*
X70657280Y-25535229D01*
X70655999Y-25534910D01*
X70655992Y-25534908D01*
X70619582Y-25525838D01*
X70576406Y-25515083D01*
X70497498Y-25507059D01*
X70377179Y-25494823D01*
X70377174Y-25494823D01*
X70374000Y-25494500D01*
X64631500Y-25494500D01*
X64563379Y-25474498D01*
X64516886Y-25420842D01*
X64505500Y-25368500D01*
X64505500Y-24402669D01*
X65642001Y-24402669D01*
X65642371Y-24409490D01*
X65647895Y-24460352D01*
X65651521Y-24475604D01*
X65696676Y-24596054D01*
X65705214Y-24611649D01*
X65781715Y-24713724D01*
X65794276Y-24726285D01*
X65896351Y-24802786D01*
X65911946Y-24811324D01*
X66032394Y-24856478D01*
X66047649Y-24860105D01*
X66098514Y-24865631D01*
X66105328Y-24866000D01*
X68881885Y-24866000D01*
X68897124Y-24861525D01*
X68898329Y-24860135D01*
X68900000Y-24852452D01*
X68900000Y-22118115D01*
X68895525Y-22102876D01*
X68894135Y-22101671D01*
X68886452Y-22100000D01*
X65660116Y-22100000D01*
X65644877Y-22104475D01*
X65643672Y-22105865D01*
X65642001Y-22113548D01*
X65642001Y-24402669D01*
X64505500Y-24402669D01*
X64505500Y-21081885D01*
X65642000Y-21081885D01*
X65646475Y-21097124D01*
X65647865Y-21098329D01*
X65655548Y-21100000D01*
X68881885Y-21100000D01*
X68897124Y-21095525D01*
X68898329Y-21094135D01*
X68900000Y-21086452D01*
X68900000Y-18352116D01*
X68895525Y-18336877D01*
X68894135Y-18335672D01*
X68886452Y-18334001D01*
X66105331Y-18334001D01*
X66098510Y-18334371D01*
X66047648Y-18339895D01*
X66032396Y-18343521D01*
X65911946Y-18388676D01*
X65896351Y-18397214D01*
X65794276Y-18473715D01*
X65781715Y-18486276D01*
X65705214Y-18588351D01*
X65696676Y-18603946D01*
X65651522Y-18724394D01*
X65647895Y-18739649D01*
X65642369Y-18790514D01*
X65642000Y-18797328D01*
X65642000Y-21081885D01*
X64505500Y-21081885D01*
X64505500Y-15626000D01*
X64482522Y-15412271D01*
X64471136Y-15359929D01*
X64446605Y-15268234D01*
X64365513Y-15081644D01*
X64248522Y-14915197D01*
X64202029Y-14861541D01*
X64200168Y-14859723D01*
X64200162Y-14859716D01*
X64087063Y-14749193D01*
X64087061Y-14749191D01*
X64082907Y-14745132D01*
X64078082Y-14741904D01*
X64078077Y-14741900D01*
X64074075Y-14739223D01*
X64028580Y-14684719D01*
X64019775Y-14614271D01*
X64050454Y-14550245D01*
X64110878Y-14512970D01*
X64144140Y-14508500D01*
X89365452Y-14508500D01*
X89433573Y-14528502D01*
G37*
%TD.AperFunction*%
%TD*%
M02*
