M48
; DRILL file {KiCad (6.0.7)} date Thu Aug 25 14:30:53 2022
; FORMAT={-:-/ absolute / metric / decimal}
; #@! TF.CreationDate,2022-08-25T14:30:53+03:00
; #@! TF.GenerationSoftware,Kicad,Pcbnew,(6.0.7)
; #@! TF.FileFunction,Plated,1,2,PTH
FMAT,2
METRIC
; #@! TA.AperFunction,Plated,PTH,ViaDrill
T1C0.600
; #@! TA.AperFunction,Plated,PTH,ComponentDrill
T2C0.600
; #@! TA.AperFunction,Plated,PTH,ComponentDrill
T3C1.000
; #@! TA.AperFunction,Plated,PTH,ComponentDrill
T4C1.250
; #@! TA.AperFunction,Plated,PTH,ComponentDrill
T5C1.400
; #@! TA.AperFunction,Plated,PTH,ComponentDrill
T6C1.520
; #@! TA.AperFunction,Plated,PTH,ComponentDrill
T7C1.600
; #@! TA.AperFunction,Plated,PTH,ComponentDrill
T8C3.200
; #@! TA.AperFunction,Plated,PTH,ComponentDrill
T9C4.500
%
G90
G05
T1
X34.036Y-66.04
X34.544Y-49.911
X51.8Y-81.6
X54.864Y-93.726
X64.0Y-81.6
X73.5Y-70.5
X77.5Y-58.0
X87.6Y-42.2
X97.4Y-80.6
X113.03Y-70.866
X113.081Y-47.498
T2
X60.5Y-67.75
X63.0Y-62.75
X85.75Y-66.5
X88.25Y-61.5
T3
X43.006Y-30.213
X53.006Y-31.713
X68.152Y-30.34
X68.533Y-45.986
X78.152Y-31.84
X78.533Y-47.486
X91.727Y-30.225
X101.727Y-31.725
T4
X37.383Y-38.82
X37.383Y-78.19
X55.163Y-38.82
X55.163Y-78.19
X91.993Y-38.058
X91.993Y-77.428
X109.773Y-38.058
X109.773Y-77.428
T5
X59.842Y-55.087
X60.271Y-75.66
X86.385Y-54.905
X86.814Y-75.478
T6
X51.943Y-86.487
X57.023Y-86.487
X63.881Y-86.614
X68.961Y-86.614
X76.073Y-86.741
X81.153Y-86.741
X88.773Y-86.868
X93.853Y-86.868
T7
X68.065Y-36.908
X68.065Y-40.308
X77.985Y-36.908
X77.985Y-40.308
T8
X38.024Y-20.345
X38.735Y-88.646
X108.763Y-21.234
X110.49Y-88.9
T9
X52.121Y-21.488
X59.321Y-21.488
X69.901Y-21.488
X77.101Y-21.488
X87.046Y-21.488
X94.246Y-21.488
T0
M30
