M48
; DRILL file {KiCad (6.0.7)} date Thu Aug 25 16:15:38 2022
; FORMAT={-:-/ absolute / metric / decimal}
; #@! TF.CreationDate,2022-08-25T16:15:38+03:00
; #@! TF.GenerationSoftware,Kicad,Pcbnew,(6.0.7)
; #@! TF.FileFunction,Plated,1,2,PTH
FMAT,2
METRIC
; #@! TA.AperFunction,Plated,PTH,ViaDrill
T1C0.600
; #@! TA.AperFunction,Plated,PTH,ComponentDrill
T2C0.600
; #@! TA.AperFunction,Plated,PTH,ComponentDrill
T3C1.000
; #@! TA.AperFunction,Plated,PTH,ComponentDrill
T4C1.250
; #@! TA.AperFunction,Plated,PTH,ComponentDrill
T5C1.400
; #@! TA.AperFunction,Plated,PTH,ViaDrill
T6C1.500
; #@! TA.AperFunction,Plated,PTH,ComponentDrill
T7C1.520
; #@! TA.AperFunction,Plated,PTH,ComponentDrill
T8C1.600
; #@! TA.AperFunction,Plated,PTH,ComponentDrill
T9C3.200
; #@! TA.AperFunction,Plated,PTH,ComponentDrill
T10C5.200
%
G90
G05
T1
X74.0Y-68.0
X85.0Y-69.0
T2
X60.75Y-64.5
X63.25Y-59.5
X101.25Y-78.0
X106.25Y-80.5
T3
X40.75Y-34.25
X40.75Y-40.25
X41.0Y-28.5
X50.75Y-35.75
X50.75Y-41.75
X51.0Y-30.0
X68.0Y-38.75
X78.0Y-40.25
T4
X38.028Y-47.9
X38.028Y-87.27
X55.808Y-47.9
X55.808Y-87.27
X92.528Y-34.15
X92.528Y-73.52
X110.308Y-34.15
X110.308Y-73.52
T5
X60.865Y-72.595
X61.092Y-49.337
X87.408Y-72.413
X87.635Y-49.155
T6
X86.0Y-35.0
T7
X62.46Y-88.0
X67.54Y-88.0
X74.16Y-88.127
X79.24Y-88.127
X86.46Y-88.0
X91.54Y-88.0
X98.46Y-88.0
X103.54Y-88.0
T8
X67.5Y-29.25
X67.5Y-32.65
X77.42Y-29.25
X77.42Y-32.65
T9
X38.024Y-20.345
X40.285Y-95.127
X108.763Y-21.234
X109.0Y-97.0
T10
X52.0Y-21.6
X59.2Y-21.6
X69.4Y-21.6
X76.6Y-21.6
X86.8Y-21.8
X94.0Y-21.8
T0
M30
