%TF.GenerationSoftware,KiCad,Pcbnew,(6.0.7)*%
%TF.CreationDate,2022-08-25T14:30:35+03:00*%
%TF.ProjectId,guc_devresi_yetenek,6775635f-6465-4767-9265-73695f796574,rev?*%
%TF.SameCoordinates,Original*%
%TF.FileFunction,Copper,L2,Bot*%
%TF.FilePolarity,Positive*%
%FSLAX46Y46*%
G04 Gerber Fmt 4.6, Leading zero omitted, Abs format (unit mm)*
G04 Created by KiCad (PCBNEW (6.0.7)) date 2022-08-25 14:30:35*
%MOMM*%
%LPD*%
G01*
G04 APERTURE LIST*
G04 Aperture macros list*
%AMRoundRect*
0 Rectangle with rounded corners*
0 $1 Rounding radius*
0 $2 $3 $4 $5 $6 $7 $8 $9 X,Y pos of 4 corners*
0 Add a 4 corners polygon primitive as box body*
4,1,4,$2,$3,$4,$5,$6,$7,$8,$9,$2,$3,0*
0 Add four circle primitives for the rounded corners*
1,1,$1+$1,$2,$3*
1,1,$1+$1,$4,$5*
1,1,$1+$1,$6,$7*
1,1,$1+$1,$8,$9*
0 Add four rect primitives between the rounded corners*
20,1,$1+$1,$2,$3,$4,$5,0*
20,1,$1+$1,$4,$5,$6,$7,0*
20,1,$1+$1,$6,$7,$8,$9,0*
20,1,$1+$1,$8,$9,$2,$3,0*%
G04 Aperture macros list end*
%TA.AperFunction,ComponentPad*%
%ADD10RoundRect,0.625000X-0.625000X1.125000X-0.625000X-1.125000X0.625000X-1.125000X0.625000X1.125000X0*%
%TD*%
%TA.AperFunction,ComponentPad*%
%ADD11C,2.400000*%
%TD*%
%TA.AperFunction,ComponentPad*%
%ADD12C,3.000000*%
%TD*%
%TA.AperFunction,ComponentPad*%
%ADD13R,3.000000X3.000000*%
%TD*%
%TA.AperFunction,ComponentPad*%
%ADD14C,3.600000*%
%TD*%
%TA.AperFunction,ConnectorPad*%
%ADD15C,5.600000*%
%TD*%
%TA.AperFunction,ComponentPad*%
%ADD16C,1.600000*%
%TD*%
%TA.AperFunction,ComponentPad*%
%ADD17R,5.516000X5.516000*%
%TD*%
%TA.AperFunction,ComponentPad*%
%ADD18C,5.516000*%
%TD*%
%TA.AperFunction,ComponentPad*%
%ADD19O,1.950000X3.900000*%
%TD*%
%TA.AperFunction,ComponentPad*%
%ADD20C,2.000000*%
%TD*%
%TA.AperFunction,ComponentPad*%
%ADD21O,5.516000X8.000000*%
%TD*%
%TA.AperFunction,ViaPad*%
%ADD22C,1.200000*%
%TD*%
%TA.AperFunction,ViaPad*%
%ADD23C,1.500000*%
%TD*%
%TA.AperFunction,Conductor*%
%ADD24C,3.000000*%
%TD*%
G04 APERTURE END LIST*
D10*
%TO.P,U1,1,IN+*%
%TO.N,A*%
X55163000Y-38820000D03*
%TO.P,U1,2,IN-*%
%TO.N,GND*%
X37383000Y-38820000D03*
%TO.P,U1,3,OUT+*%
%TO.N,Net-(F3-Pad1)*%
X55163000Y-78190000D03*
%TO.P,U1,4,OUT-*%
%TO.N,GND*%
X37383000Y-78190000D03*
%TD*%
D11*
%TO.P,F1,1*%
%TO.N,GND*%
X68065000Y-40308000D03*
X68065000Y-36908000D03*
%TO.P,F1,2*%
%TO.N,A*%
X77985000Y-36908000D03*
X77985000Y-40308000D03*
%TD*%
D12*
%TO.P,J5,2,Pin_2*%
%TO.N,GND*%
X57023000Y-86487000D03*
D13*
%TO.P,J5,1,Pin_1*%
%TO.N,Net-(F3-Pad2)*%
X51943000Y-86487000D03*
%TD*%
D14*
%TO.P,H4,1,1*%
%TO.N,Net-(H4-Pad1)*%
X110490000Y-88900000D03*
D15*
X110490000Y-88900000D03*
%TD*%
D13*
%TO.P,J7,1,Pin_1*%
%TO.N,Net-(F3-Pad2)*%
X63881000Y-86614000D03*
D12*
%TO.P,J7,2,Pin_2*%
%TO.N,GND*%
X68961000Y-86614000D03*
%TD*%
D10*
%TO.P,U2,1,IN+*%
%TO.N,A*%
X109773000Y-38058000D03*
%TO.P,U2,2,IN-*%
%TO.N,GND*%
X91993000Y-38058000D03*
%TO.P,U2,3,OUT+*%
%TO.N,Net-(F2-Pad1)*%
X109773000Y-77428000D03*
%TO.P,U2,4,OUT-*%
%TO.N,GND*%
X91993000Y-77428000D03*
%TD*%
D16*
%TO.P,RV2,1*%
%TO.N,Net-(F2-Pad1)*%
X88250000Y-61500000D03*
%TO.P,RV2,2*%
%TO.N,GND*%
X85750000Y-66500000D03*
%TD*%
D17*
%TO.P,J1,1,-*%
%TO.N,GND*%
X87045800Y-21488400D03*
D18*
%TO.P,J1,2,+*%
%TO.N,A*%
X94245800Y-21488400D03*
%TD*%
D15*
%TO.P,H2,1,1*%
%TO.N,Net-(H2-Pad1)*%
X38735000Y-88646000D03*
D14*
X38735000Y-88646000D03*
%TD*%
D19*
%TO.P,F3,1*%
%TO.N,Net-(F3-Pad1)*%
X60271000Y-75660000D03*
%TO.P,F3,2*%
%TO.N,Net-(F3-Pad2)*%
X86814000Y-75478000D03*
%TD*%
D13*
%TO.P,J6,1,Pin_1*%
%TO.N,Net-(F2-Pad2)*%
X76073000Y-86741000D03*
D12*
%TO.P,J6,2,Pin_2*%
%TO.N,GND*%
X81153000Y-86741000D03*
%TD*%
D20*
%TO.P,RV6,1*%
%TO.N,A*%
X78152000Y-31839600D03*
%TO.P,RV6,2*%
%TO.N,GND*%
X68152000Y-30339600D03*
%TD*%
%TO.P,RV5,1*%
%TO.N,A*%
X101727000Y-31724600D03*
%TO.P,RV5,2*%
%TO.N,GND*%
X91727000Y-30224600D03*
%TD*%
%TO.P,RV1,1*%
%TO.N,GND*%
X68533000Y-45986000D03*
%TO.P,RV1,2*%
%TO.N,A*%
X78533000Y-47486000D03*
%TD*%
D17*
%TO.P,J3,1,-*%
%TO.N,GND*%
X52120800Y-21488400D03*
D21*
%TO.P,J3,2,+*%
%TO.N,A*%
X59320800Y-21488400D03*
%TD*%
D13*
%TO.P,J4,1,Pin_1*%
%TO.N,Net-(F2-Pad2)*%
X88773000Y-86868000D03*
D12*
%TO.P,J4,2,Pin_2*%
%TO.N,GND*%
X93853000Y-86868000D03*
%TD*%
D20*
%TO.P,RV4,1*%
%TO.N,A*%
X53006000Y-31712600D03*
%TO.P,RV4,2*%
%TO.N,GND*%
X43006000Y-30212600D03*
%TD*%
D16*
%TO.P,RV3,1*%
%TO.N,GND*%
X63000000Y-62750000D03*
%TO.P,RV3,2*%
%TO.N,Net-(F3-Pad1)*%
X60500000Y-67750000D03*
%TD*%
D19*
%TO.P,F2,1*%
%TO.N,Net-(F2-Pad1)*%
X86385000Y-54905000D03*
%TO.P,F2,2*%
%TO.N,Net-(F2-Pad2)*%
X59842000Y-55087000D03*
%TD*%
D17*
%TO.P,J2,1,-*%
%TO.N,GND*%
X69900800Y-21488400D03*
D18*
%TO.P,J2,2,+*%
%TO.N,A*%
X77100800Y-21488400D03*
%TD*%
D15*
%TO.P,H1,1,1*%
%TO.N,Net-(H1-Pad1)*%
X108762800Y-21234400D03*
D14*
X108762800Y-21234400D03*
%TD*%
D15*
%TO.P,H3,1,1*%
%TO.N,Net-(H3-Pad1)*%
X38023800Y-20345400D03*
D14*
X38023800Y-20345400D03*
%TD*%
D22*
%TO.N,Net-(F3-Pad2)*%
X64000000Y-81600000D03*
X51800000Y-81600000D03*
%TO.N,GND*%
X97400000Y-80600000D03*
D23*
%TO.N,A*%
X87600000Y-42200000D03*
D22*
%TO.N,Net-(F2-Pad2)*%
X77500000Y-58000000D03*
%TO.N,Net-(F3-Pad2)*%
X73500000Y-70500000D03*
%TO.N,GND*%
X113080800Y-47498000D03*
X113030000Y-70866000D03*
X34544000Y-49911000D03*
X54864000Y-93726000D03*
X34036000Y-66040000D03*
%TD*%
D24*
%TO.N,Net-(F3-Pad2)*%
X64000000Y-81600000D02*
X63881000Y-81719000D01*
X63881000Y-81719000D02*
X63881000Y-86614000D01*
X51943000Y-83743000D02*
X51943000Y-86487000D01*
X51800000Y-83600000D02*
X51943000Y-83743000D01*
X51800000Y-81600000D02*
X51800000Y-83600000D01*
%TD*%
%TA.AperFunction,Conductor*%
%TO.N,Net-(F3-Pad1)*%
G36*
X61942121Y-66020002D02*
G01*
X61988614Y-66073658D01*
X62000000Y-66126000D01*
X62000000Y-67337286D01*
X61979998Y-67405407D01*
X61926342Y-67451900D01*
X61856068Y-67462004D01*
X61791488Y-67432510D01*
X61752293Y-67369897D01*
X61735236Y-67306239D01*
X61731490Y-67295947D01*
X61639414Y-67098489D01*
X61633931Y-67088994D01*
X61597491Y-67036952D01*
X61587012Y-67028576D01*
X61573566Y-67035644D01*
X60872022Y-67737188D01*
X60864408Y-67751132D01*
X60864539Y-67752965D01*
X60868790Y-67759580D01*
X61574287Y-68465077D01*
X61586062Y-68471507D01*
X61598077Y-68462211D01*
X61633931Y-68411006D01*
X61639414Y-68401511D01*
X61731490Y-68204053D01*
X61735236Y-68193761D01*
X61752293Y-68130103D01*
X61789245Y-68069480D01*
X61853106Y-68038459D01*
X61923600Y-68046887D01*
X61978347Y-68092090D01*
X62000000Y-68162714D01*
X62000000Y-69856136D01*
X61979998Y-69924257D01*
X61946455Y-69959220D01*
X61817809Y-70049642D01*
X61815197Y-70051478D01*
X61761541Y-70097971D01*
X61759723Y-70099832D01*
X61759716Y-70099838D01*
X61649193Y-70212937D01*
X61645132Y-70217093D01*
X61532004Y-70386190D01*
X61455231Y-70574599D01*
X61435229Y-70642720D01*
X61415083Y-70723594D01*
X61414628Y-70728070D01*
X61401697Y-70855231D01*
X61394500Y-70926000D01*
X61394500Y-73422411D01*
X61374498Y-73490532D01*
X61320842Y-73537025D01*
X61250568Y-73547129D01*
X61190408Y-73521293D01*
X61098548Y-73448746D01*
X61089970Y-73443047D01*
X60885526Y-73330189D01*
X60876126Y-73325964D01*
X60655999Y-73248013D01*
X60646028Y-73245379D01*
X60542837Y-73226998D01*
X60529541Y-73228458D01*
X60525000Y-73243016D01*
X60525000Y-78078360D01*
X60528918Y-78091704D01*
X60543194Y-78093691D01*
X60610747Y-78083353D01*
X60620775Y-78080964D01*
X60842737Y-78008416D01*
X60852247Y-78004419D01*
X61059375Y-77896595D01*
X61068100Y-77891101D01*
X61192847Y-77797438D01*
X61259332Y-77772532D01*
X61328727Y-77787524D01*
X61379001Y-77837655D01*
X61394500Y-77898198D01*
X61394500Y-80874000D01*
X61374498Y-80942121D01*
X61320842Y-80988614D01*
X61268500Y-81000000D01*
X54325774Y-81000000D01*
X54257653Y-80979998D01*
X54211160Y-80926342D01*
X54205941Y-80912936D01*
X54130729Y-80681458D01*
X54130729Y-80681457D01*
X54129503Y-80677685D01*
X54085145Y-80583419D01*
X54074239Y-80513267D01*
X54102992Y-80448353D01*
X54162276Y-80409289D01*
X54225888Y-80406641D01*
X54398480Y-80444115D01*
X54408100Y-80445437D01*
X54449387Y-80447890D01*
X54453102Y-80448000D01*
X54890885Y-80448000D01*
X54906124Y-80443525D01*
X54907329Y-80442135D01*
X54909000Y-80434452D01*
X54909000Y-80429884D01*
X55417000Y-80429884D01*
X55421475Y-80445123D01*
X55422865Y-80446328D01*
X55430548Y-80447999D01*
X55872807Y-80447999D01*
X55876701Y-80447879D01*
X55919893Y-80445210D01*
X55929472Y-80443874D01*
X56130073Y-80399952D01*
X56141432Y-80396305D01*
X56329059Y-80315694D01*
X56339533Y-80309959D01*
X56508522Y-80195331D01*
X56517724Y-80187718D01*
X56661992Y-80043198D01*
X56669587Y-80033985D01*
X56783922Y-79864794D01*
X56789638Y-79854310D01*
X56869918Y-79666550D01*
X56873547Y-79655179D01*
X56917115Y-79454520D01*
X56918437Y-79444900D01*
X56920890Y-79403613D01*
X56921000Y-79399898D01*
X56921000Y-78462115D01*
X56916525Y-78446876D01*
X56915135Y-78445671D01*
X56907452Y-78444000D01*
X55435115Y-78444000D01*
X55419876Y-78448475D01*
X55418671Y-78449865D01*
X55417000Y-78457548D01*
X55417000Y-80429884D01*
X54909000Y-80429884D01*
X54909000Y-78462115D01*
X54904525Y-78446876D01*
X54903135Y-78445671D01*
X54895452Y-78444000D01*
X53423116Y-78444000D01*
X53407877Y-78448475D01*
X53406672Y-78449865D01*
X53405001Y-78457548D01*
X53405001Y-79399807D01*
X53405121Y-79403701D01*
X53406209Y-79421307D01*
X53390446Y-79490532D01*
X53339759Y-79540245D01*
X53270242Y-79554663D01*
X53206388Y-79531013D01*
X53166495Y-79502029D01*
X53142484Y-79484584D01*
X52993407Y-79402628D01*
X52870228Y-79334909D01*
X52870225Y-79334907D01*
X52866766Y-79333006D01*
X52707363Y-79269894D01*
X52577908Y-79218639D01*
X52577905Y-79218638D01*
X52574225Y-79217181D01*
X52570391Y-79216197D01*
X52570383Y-79216194D01*
X52381926Y-79167807D01*
X52269473Y-79138934D01*
X52265545Y-79138438D01*
X52265541Y-79138437D01*
X52110208Y-79118814D01*
X52045131Y-79090432D01*
X52005730Y-79031373D01*
X52000000Y-78993808D01*
X52000000Y-77917885D01*
X53405000Y-77917885D01*
X53409475Y-77933124D01*
X53410865Y-77934329D01*
X53418548Y-77936000D01*
X54890885Y-77936000D01*
X54906124Y-77931525D01*
X54907329Y-77930135D01*
X54909000Y-77922452D01*
X54909000Y-77917885D01*
X55417000Y-77917885D01*
X55421475Y-77933124D01*
X55422865Y-77934329D01*
X55430548Y-77936000D01*
X56902884Y-77936000D01*
X56918123Y-77931525D01*
X56919328Y-77930135D01*
X56920999Y-77922452D01*
X56920999Y-76980194D01*
X56920879Y-76976299D01*
X56918210Y-76933107D01*
X56916874Y-76923528D01*
X56872952Y-76722927D01*
X56869305Y-76711568D01*
X56861859Y-76694236D01*
X58788000Y-76694236D01*
X58788212Y-76699409D01*
X58802475Y-76872892D01*
X58804158Y-76883054D01*
X58861048Y-77109547D01*
X58864366Y-77119294D01*
X58957487Y-77333458D01*
X58962354Y-77342533D01*
X59089197Y-77538604D01*
X59095488Y-77546773D01*
X59252652Y-77719493D01*
X59260185Y-77726518D01*
X59443452Y-77871254D01*
X59452030Y-77876953D01*
X59656474Y-77989811D01*
X59665874Y-77994036D01*
X59886001Y-78071987D01*
X59895972Y-78074621D01*
X59999163Y-78093002D01*
X60012459Y-78091542D01*
X60017000Y-78076984D01*
X60017000Y-75932115D01*
X60012525Y-75916876D01*
X60011135Y-75915671D01*
X60003452Y-75914000D01*
X58806115Y-75914000D01*
X58790876Y-75918475D01*
X58789671Y-75919865D01*
X58788000Y-75927548D01*
X58788000Y-76694236D01*
X56861859Y-76694236D01*
X56788694Y-76523941D01*
X56782959Y-76513467D01*
X56668331Y-76344478D01*
X56660718Y-76335276D01*
X56516198Y-76191008D01*
X56506985Y-76183413D01*
X56337794Y-76069078D01*
X56327310Y-76063362D01*
X56139550Y-75983082D01*
X56128179Y-75979453D01*
X55927520Y-75935885D01*
X55917900Y-75934563D01*
X55876613Y-75932110D01*
X55872898Y-75932000D01*
X55435115Y-75932000D01*
X55419876Y-75936475D01*
X55418671Y-75937865D01*
X55417000Y-75945548D01*
X55417000Y-77917885D01*
X54909000Y-77917885D01*
X54909000Y-75950116D01*
X54904525Y-75934877D01*
X54903135Y-75933672D01*
X54895452Y-75932001D01*
X54453194Y-75932001D01*
X54449299Y-75932121D01*
X54406107Y-75934790D01*
X54396528Y-75936126D01*
X54195927Y-75980048D01*
X54184568Y-75983695D01*
X53996941Y-76064306D01*
X53986467Y-76070041D01*
X53817478Y-76184669D01*
X53808276Y-76192282D01*
X53664008Y-76336802D01*
X53656413Y-76346015D01*
X53542078Y-76515206D01*
X53536362Y-76525690D01*
X53456082Y-76713450D01*
X53452453Y-76724821D01*
X53408885Y-76925480D01*
X53407563Y-76935100D01*
X53405110Y-76976387D01*
X53405000Y-76980102D01*
X53405000Y-77917885D01*
X52000000Y-77917885D01*
X52000000Y-75387885D01*
X58788000Y-75387885D01*
X58792475Y-75403124D01*
X58793865Y-75404329D01*
X58801548Y-75406000D01*
X59998885Y-75406000D01*
X60014124Y-75401525D01*
X60015329Y-75400135D01*
X60017000Y-75392452D01*
X60017000Y-73241640D01*
X60013082Y-73228296D01*
X59998806Y-73226309D01*
X59931253Y-73236647D01*
X59921225Y-73239036D01*
X59699263Y-73311584D01*
X59689753Y-73315581D01*
X59482625Y-73423405D01*
X59473900Y-73428899D01*
X59287158Y-73569109D01*
X59279451Y-73575952D01*
X59118113Y-73744782D01*
X59111627Y-73752792D01*
X58980036Y-73945698D01*
X58974943Y-73954662D01*
X58876619Y-74166483D01*
X58873062Y-74176151D01*
X58810657Y-74401178D01*
X58808726Y-74411298D01*
X58788356Y-74601900D01*
X58788000Y-74608592D01*
X58788000Y-75387885D01*
X52000000Y-75387885D01*
X52000000Y-68836062D01*
X59778493Y-68836062D01*
X59787789Y-68848077D01*
X59838994Y-68883931D01*
X59848489Y-68889414D01*
X60045947Y-68981490D01*
X60056239Y-68985236D01*
X60266688Y-69041625D01*
X60277481Y-69043528D01*
X60494525Y-69062517D01*
X60505475Y-69062517D01*
X60722519Y-69043528D01*
X60733312Y-69041625D01*
X60943761Y-68985236D01*
X60954053Y-68981490D01*
X61151511Y-68889414D01*
X61161006Y-68883931D01*
X61213048Y-68847491D01*
X61221424Y-68837012D01*
X61214356Y-68823566D01*
X60512812Y-68122022D01*
X60498868Y-68114408D01*
X60497035Y-68114539D01*
X60490420Y-68118790D01*
X59784923Y-68824287D01*
X59778493Y-68836062D01*
X52000000Y-68836062D01*
X52000000Y-67755475D01*
X59187483Y-67755475D01*
X59206472Y-67972519D01*
X59208375Y-67983312D01*
X59264764Y-68193761D01*
X59268510Y-68204053D01*
X59360586Y-68401511D01*
X59366069Y-68411006D01*
X59402509Y-68463048D01*
X59412988Y-68471424D01*
X59426434Y-68464356D01*
X60127978Y-67762812D01*
X60135592Y-67748868D01*
X60135461Y-67747035D01*
X60131210Y-67740420D01*
X59425713Y-67034923D01*
X59413938Y-67028493D01*
X59401923Y-67037789D01*
X59366069Y-67088994D01*
X59360586Y-67098489D01*
X59268510Y-67295947D01*
X59264764Y-67306239D01*
X59208375Y-67516688D01*
X59206472Y-67527481D01*
X59187483Y-67744525D01*
X59187483Y-67755475D01*
X52000000Y-67755475D01*
X52000000Y-66662988D01*
X59778576Y-66662988D01*
X59785644Y-66676434D01*
X60487188Y-67377978D01*
X60501132Y-67385592D01*
X60502965Y-67385461D01*
X60509580Y-67381210D01*
X61215077Y-66675713D01*
X61221507Y-66663938D01*
X61212211Y-66651923D01*
X61161006Y-66616069D01*
X61151511Y-66610586D01*
X60954053Y-66518510D01*
X60943761Y-66514764D01*
X60733312Y-66458375D01*
X60722519Y-66456472D01*
X60505475Y-66437483D01*
X60494525Y-66437483D01*
X60277481Y-66456472D01*
X60266688Y-66458375D01*
X60056239Y-66514764D01*
X60045947Y-66518510D01*
X59848489Y-66610586D01*
X59838994Y-66616069D01*
X59786952Y-66652509D01*
X59778576Y-66662988D01*
X52000000Y-66662988D01*
X52000000Y-66126000D01*
X52020002Y-66057879D01*
X52073658Y-66011386D01*
X52126000Y-66000000D01*
X61874000Y-66000000D01*
X61942121Y-66020002D01*
G37*
%TD.AperFunction*%
%TD*%
%TA.AperFunction,Conductor*%
%TO.N,Net-(F2-Pad1)*%
G36*
X111942121Y-52020002D02*
G01*
X111988614Y-52073658D01*
X112000000Y-52126000D01*
X112000000Y-69582819D01*
X111979998Y-69650940D01*
X111955831Y-69678630D01*
X111916443Y-69712271D01*
X111894776Y-69730776D01*
X111891563Y-69734538D01*
X111891558Y-69734543D01*
X111734379Y-69918576D01*
X111734376Y-69918581D01*
X111731164Y-69922341D01*
X111599534Y-70137141D01*
X111503127Y-70369889D01*
X111501972Y-70374701D01*
X111453981Y-70574599D01*
X111444317Y-70614852D01*
X111424551Y-70866000D01*
X111444317Y-71117148D01*
X111445471Y-71121955D01*
X111445472Y-71121961D01*
X111467856Y-71215197D01*
X111503127Y-71362111D01*
X111505020Y-71366682D01*
X111505021Y-71366684D01*
X111588506Y-71568234D01*
X111599534Y-71594859D01*
X111731164Y-71809659D01*
X111734376Y-71813419D01*
X111734379Y-71813424D01*
X111891558Y-71997457D01*
X111891563Y-71997462D01*
X111894776Y-72001224D01*
X111898538Y-72004437D01*
X111898540Y-72004439D01*
X111955831Y-72053370D01*
X111994640Y-72112821D01*
X112000000Y-72149181D01*
X112000000Y-79874000D01*
X111979998Y-79942121D01*
X111926342Y-79988614D01*
X111874000Y-80000000D01*
X104626000Y-80000000D01*
X104557879Y-79979998D01*
X104511386Y-79926342D01*
X104500000Y-79874000D01*
X104500000Y-78637807D01*
X108015001Y-78637807D01*
X108015121Y-78641701D01*
X108017790Y-78684893D01*
X108019126Y-78694472D01*
X108063048Y-78895073D01*
X108066695Y-78906432D01*
X108147306Y-79094059D01*
X108153041Y-79104533D01*
X108267669Y-79273522D01*
X108275282Y-79282724D01*
X108419802Y-79426992D01*
X108429015Y-79434587D01*
X108598206Y-79548922D01*
X108608690Y-79554638D01*
X108796450Y-79634918D01*
X108807821Y-79638547D01*
X109008480Y-79682115D01*
X109018100Y-79683437D01*
X109059387Y-79685890D01*
X109063102Y-79686000D01*
X109500885Y-79686000D01*
X109516124Y-79681525D01*
X109517329Y-79680135D01*
X109519000Y-79672452D01*
X109519000Y-79667884D01*
X110027000Y-79667884D01*
X110031475Y-79683123D01*
X110032865Y-79684328D01*
X110040548Y-79685999D01*
X110482807Y-79685999D01*
X110486701Y-79685879D01*
X110529893Y-79683210D01*
X110539472Y-79681874D01*
X110740073Y-79637952D01*
X110751432Y-79634305D01*
X110939059Y-79553694D01*
X110949533Y-79547959D01*
X111118522Y-79433331D01*
X111127724Y-79425718D01*
X111271992Y-79281198D01*
X111279587Y-79271985D01*
X111393922Y-79102794D01*
X111399638Y-79092310D01*
X111479918Y-78904550D01*
X111483547Y-78893179D01*
X111527115Y-78692520D01*
X111528437Y-78682900D01*
X111530890Y-78641613D01*
X111531000Y-78637898D01*
X111531000Y-77700115D01*
X111526525Y-77684876D01*
X111525135Y-77683671D01*
X111517452Y-77682000D01*
X110045115Y-77682000D01*
X110029876Y-77686475D01*
X110028671Y-77687865D01*
X110027000Y-77695548D01*
X110027000Y-79667884D01*
X109519000Y-79667884D01*
X109519000Y-77700115D01*
X109514525Y-77684876D01*
X109513135Y-77683671D01*
X109505452Y-77682000D01*
X108033116Y-77682000D01*
X108017877Y-77686475D01*
X108016672Y-77687865D01*
X108015001Y-77695548D01*
X108015001Y-78637807D01*
X104500000Y-78637807D01*
X104500000Y-77155885D01*
X108015000Y-77155885D01*
X108019475Y-77171124D01*
X108020865Y-77172329D01*
X108028548Y-77174000D01*
X109500885Y-77174000D01*
X109516124Y-77169525D01*
X109517329Y-77168135D01*
X109519000Y-77160452D01*
X109519000Y-77155885D01*
X110027000Y-77155885D01*
X110031475Y-77171124D01*
X110032865Y-77172329D01*
X110040548Y-77174000D01*
X111512884Y-77174000D01*
X111528123Y-77169525D01*
X111529328Y-77168135D01*
X111530999Y-77160452D01*
X111530999Y-76218194D01*
X111530879Y-76214299D01*
X111528210Y-76171107D01*
X111526874Y-76161528D01*
X111482952Y-75960927D01*
X111479305Y-75949568D01*
X111398694Y-75761941D01*
X111392959Y-75751467D01*
X111278331Y-75582478D01*
X111270718Y-75573276D01*
X111126198Y-75429008D01*
X111116985Y-75421413D01*
X110947794Y-75307078D01*
X110937310Y-75301362D01*
X110749550Y-75221082D01*
X110738179Y-75217453D01*
X110537520Y-75173885D01*
X110527900Y-75172563D01*
X110486613Y-75170110D01*
X110482898Y-75170000D01*
X110045115Y-75170000D01*
X110029876Y-75174475D01*
X110028671Y-75175865D01*
X110027000Y-75183548D01*
X110027000Y-77155885D01*
X109519000Y-77155885D01*
X109519000Y-75188116D01*
X109514525Y-75172877D01*
X109513135Y-75171672D01*
X109505452Y-75170001D01*
X109063194Y-75170001D01*
X109059299Y-75170121D01*
X109016107Y-75172790D01*
X109006528Y-75174126D01*
X108805927Y-75218048D01*
X108794568Y-75221695D01*
X108606941Y-75302306D01*
X108596467Y-75308041D01*
X108427478Y-75422669D01*
X108418276Y-75430282D01*
X108274008Y-75574802D01*
X108266413Y-75584015D01*
X108152078Y-75753206D01*
X108146362Y-75763690D01*
X108066082Y-75951450D01*
X108062453Y-75962821D01*
X108018885Y-76163480D01*
X108017563Y-76173100D01*
X108015110Y-76214387D01*
X108015000Y-76218102D01*
X108015000Y-77155885D01*
X104500000Y-77155885D01*
X104500000Y-63000000D01*
X88662714Y-63000000D01*
X88594593Y-62979998D01*
X88548100Y-62926342D01*
X88537996Y-62856068D01*
X88567490Y-62791488D01*
X88630103Y-62752293D01*
X88693761Y-62735236D01*
X88704053Y-62731490D01*
X88901511Y-62639414D01*
X88911006Y-62633931D01*
X88963048Y-62597491D01*
X88971424Y-62587012D01*
X88964356Y-62573566D01*
X88262812Y-61872022D01*
X88248868Y-61864408D01*
X88247035Y-61864539D01*
X88240420Y-61868790D01*
X87534923Y-62574287D01*
X87528493Y-62586062D01*
X87537789Y-62598077D01*
X87588994Y-62633931D01*
X87598489Y-62639414D01*
X87795947Y-62731490D01*
X87806239Y-62735236D01*
X87869897Y-62752293D01*
X87930520Y-62789245D01*
X87961541Y-62853106D01*
X87953113Y-62923600D01*
X87907910Y-62978347D01*
X87837286Y-63000000D01*
X84626000Y-63000000D01*
X84557879Y-62979998D01*
X84511386Y-62926342D01*
X84500000Y-62874000D01*
X84500000Y-61505475D01*
X86937483Y-61505475D01*
X86956472Y-61722519D01*
X86958375Y-61733312D01*
X87014764Y-61943761D01*
X87018510Y-61954053D01*
X87110586Y-62151511D01*
X87116069Y-62161006D01*
X87152509Y-62213048D01*
X87162988Y-62221424D01*
X87176434Y-62214356D01*
X87877978Y-61512812D01*
X87884356Y-61501132D01*
X88614408Y-61501132D01*
X88614539Y-61502965D01*
X88618790Y-61509580D01*
X89324287Y-62215077D01*
X89336062Y-62221507D01*
X89348077Y-62212211D01*
X89383931Y-62161006D01*
X89389414Y-62151511D01*
X89481490Y-61954053D01*
X89485236Y-61943761D01*
X89541625Y-61733312D01*
X89543528Y-61722519D01*
X89562517Y-61505475D01*
X89562517Y-61494525D01*
X89543528Y-61277481D01*
X89541625Y-61266688D01*
X89485236Y-61056239D01*
X89481490Y-61045947D01*
X89389414Y-60848489D01*
X89383931Y-60838994D01*
X89347491Y-60786952D01*
X89337012Y-60778576D01*
X89323566Y-60785644D01*
X88622022Y-61487188D01*
X88614408Y-61501132D01*
X87884356Y-61501132D01*
X87885592Y-61498868D01*
X87885461Y-61497035D01*
X87881210Y-61490420D01*
X87175713Y-60784923D01*
X87163938Y-60778493D01*
X87151923Y-60787789D01*
X87116069Y-60838994D01*
X87110586Y-60848489D01*
X87018510Y-61045947D01*
X87014764Y-61056239D01*
X86958375Y-61266688D01*
X86956472Y-61277481D01*
X86937483Y-61494525D01*
X86937483Y-61505475D01*
X84500000Y-61505475D01*
X84500000Y-60412988D01*
X87528576Y-60412988D01*
X87535644Y-60426434D01*
X88237188Y-61127978D01*
X88251132Y-61135592D01*
X88252965Y-61135461D01*
X88259580Y-61131210D01*
X88965077Y-60425713D01*
X88971507Y-60413938D01*
X88962211Y-60401923D01*
X88911006Y-60366069D01*
X88901511Y-60360586D01*
X88704053Y-60268510D01*
X88693761Y-60264764D01*
X88483312Y-60208375D01*
X88472519Y-60206472D01*
X88255475Y-60187483D01*
X88244525Y-60187483D01*
X88027481Y-60206472D01*
X88016688Y-60208375D01*
X87806239Y-60264764D01*
X87795947Y-60268510D01*
X87598489Y-60360586D01*
X87588994Y-60366069D01*
X87536952Y-60402509D01*
X87528576Y-60412988D01*
X84500000Y-60412988D01*
X84500000Y-55939236D01*
X84902000Y-55939236D01*
X84902212Y-55944409D01*
X84916475Y-56117892D01*
X84918158Y-56128054D01*
X84975048Y-56354547D01*
X84978366Y-56364294D01*
X85071487Y-56578458D01*
X85076354Y-56587533D01*
X85203197Y-56783604D01*
X85209488Y-56791773D01*
X85366652Y-56964493D01*
X85374185Y-56971518D01*
X85557452Y-57116254D01*
X85566030Y-57121953D01*
X85770474Y-57234811D01*
X85779874Y-57239036D01*
X86000001Y-57316987D01*
X86009972Y-57319621D01*
X86113163Y-57338002D01*
X86126459Y-57336542D01*
X86130571Y-57323360D01*
X86639000Y-57323360D01*
X86642918Y-57336704D01*
X86657194Y-57338691D01*
X86724747Y-57328353D01*
X86734775Y-57325964D01*
X86956737Y-57253416D01*
X86966247Y-57249419D01*
X87173375Y-57141595D01*
X87182100Y-57136101D01*
X87368842Y-56995891D01*
X87376549Y-56989048D01*
X87537887Y-56820218D01*
X87544373Y-56812208D01*
X87675964Y-56619302D01*
X87681057Y-56610338D01*
X87779381Y-56398517D01*
X87782938Y-56388849D01*
X87845343Y-56163822D01*
X87847274Y-56153702D01*
X87867644Y-55963100D01*
X87868000Y-55956408D01*
X87868000Y-55177115D01*
X87863525Y-55161876D01*
X87862135Y-55160671D01*
X87854452Y-55159000D01*
X86657115Y-55159000D01*
X86641876Y-55163475D01*
X86640671Y-55164865D01*
X86639000Y-55172548D01*
X86639000Y-57323360D01*
X86130571Y-57323360D01*
X86131000Y-57321984D01*
X86131000Y-55177115D01*
X86126525Y-55161876D01*
X86125135Y-55160671D01*
X86117452Y-55159000D01*
X84920115Y-55159000D01*
X84904876Y-55163475D01*
X84903671Y-55164865D01*
X84902000Y-55172548D01*
X84902000Y-55939236D01*
X84500000Y-55939236D01*
X84500000Y-54632885D01*
X84902000Y-54632885D01*
X84906475Y-54648124D01*
X84907865Y-54649329D01*
X84915548Y-54651000D01*
X86112885Y-54651000D01*
X86128124Y-54646525D01*
X86129329Y-54645135D01*
X86131000Y-54637452D01*
X86131000Y-54632885D01*
X86639000Y-54632885D01*
X86643475Y-54648124D01*
X86644865Y-54649329D01*
X86652548Y-54651000D01*
X87849885Y-54651000D01*
X87865124Y-54646525D01*
X87866329Y-54645135D01*
X87868000Y-54637452D01*
X87868000Y-53870764D01*
X87867788Y-53865591D01*
X87853525Y-53692108D01*
X87851842Y-53681946D01*
X87794952Y-53455453D01*
X87791634Y-53445706D01*
X87698513Y-53231542D01*
X87693646Y-53222467D01*
X87566803Y-53026396D01*
X87560512Y-53018227D01*
X87403348Y-52845507D01*
X87395815Y-52838482D01*
X87212548Y-52693746D01*
X87203970Y-52688047D01*
X86999526Y-52575189D01*
X86990126Y-52570964D01*
X86769999Y-52493013D01*
X86760028Y-52490379D01*
X86656837Y-52471998D01*
X86643541Y-52473458D01*
X86639000Y-52488016D01*
X86639000Y-54632885D01*
X86131000Y-54632885D01*
X86131000Y-52486640D01*
X86127082Y-52473296D01*
X86112806Y-52471309D01*
X86045253Y-52481647D01*
X86035225Y-52484036D01*
X85813263Y-52556584D01*
X85803753Y-52560581D01*
X85596625Y-52668405D01*
X85587900Y-52673899D01*
X85401158Y-52814109D01*
X85393451Y-52820952D01*
X85232113Y-52989782D01*
X85225627Y-52997792D01*
X85094036Y-53190698D01*
X85088943Y-53199662D01*
X84990619Y-53411483D01*
X84987062Y-53421151D01*
X84924657Y-53646178D01*
X84922726Y-53656298D01*
X84902356Y-53846900D01*
X84902000Y-53853592D01*
X84902000Y-54632885D01*
X84500000Y-54632885D01*
X84500000Y-52126000D01*
X84520002Y-52057879D01*
X84573658Y-52011386D01*
X84626000Y-52000000D01*
X111874000Y-52000000D01*
X111942121Y-52020002D01*
G37*
%TD.AperFunction*%
%TD*%
%TA.AperFunction,Conductor*%
%TO.N,A*%
G36*
X64942121Y-16020002D02*
G01*
X64988614Y-16073658D01*
X65000000Y-16126000D01*
X65000000Y-27000000D01*
X73500000Y-27000000D01*
X73500000Y-24827833D01*
X73514338Y-24769458D01*
X73571321Y-24660459D01*
X73592541Y-24619870D01*
X73648566Y-24424487D01*
X73653501Y-24369197D01*
X73659051Y-24307009D01*
X73659051Y-24307003D01*
X73659300Y-24304216D01*
X73659300Y-24124541D01*
X75177484Y-24124541D01*
X75185622Y-24135548D01*
X75250193Y-24185096D01*
X75255825Y-24188953D01*
X75552275Y-24369197D01*
X75558265Y-24372409D01*
X75872454Y-24519585D01*
X75878759Y-24522133D01*
X76207004Y-24634517D01*
X76213555Y-24636370D01*
X76552003Y-24712642D01*
X76558722Y-24713779D01*
X76903438Y-24753055D01*
X76910228Y-24753458D01*
X77257165Y-24755274D01*
X77263966Y-24754942D01*
X77609073Y-24719279D01*
X77615801Y-24718213D01*
X77955046Y-24645485D01*
X77961594Y-24643706D01*
X78291013Y-24534761D01*
X78297331Y-24532286D01*
X78613040Y-24388408D01*
X78619089Y-24385245D01*
X78917385Y-24208131D01*
X78923066Y-24204328D01*
X79015132Y-24135202D01*
X79023585Y-24123877D01*
X79016840Y-24111546D01*
X77113612Y-22208319D01*
X77099668Y-22200705D01*
X77097834Y-22200836D01*
X77091222Y-22205085D01*
X75184363Y-24111943D01*
X75177484Y-24124541D01*
X73659300Y-24124541D01*
X73659300Y-22223680D01*
X73679302Y-22155559D01*
X73732958Y-22109066D01*
X73803232Y-22098962D01*
X73867812Y-22128456D01*
X73906834Y-22190432D01*
X73996319Y-22517533D01*
X73998468Y-22523994D01*
X74125626Y-22846803D01*
X74128459Y-22852991D01*
X74289729Y-23160163D01*
X74293217Y-23166016D01*
X74453063Y-23403894D01*
X74463046Y-23412192D01*
X74477137Y-23404957D01*
X76380881Y-21501212D01*
X76387259Y-21489532D01*
X77813105Y-21489532D01*
X77813236Y-21491366D01*
X77817485Y-21497978D01*
X79724764Y-23405258D01*
X79736366Y-23411593D01*
X79748573Y-23402064D01*
X79890661Y-23195326D01*
X79894208Y-23189515D01*
X80058684Y-22884050D01*
X80061591Y-22877873D01*
X80192119Y-22556420D01*
X80194333Y-22549989D01*
X80289382Y-22216317D01*
X80290889Y-22209688D01*
X80349349Y-21867683D01*
X80350129Y-21860943D01*
X80371407Y-21513031D01*
X80371523Y-21509429D01*
X80371591Y-21490219D01*
X80371499Y-21486594D01*
X80352650Y-21138558D01*
X80351915Y-21131792D01*
X80295849Y-20789417D01*
X80294382Y-20782745D01*
X80201671Y-20448443D01*
X80199497Y-20441979D01*
X80071215Y-20119621D01*
X80068359Y-20113441D01*
X79906015Y-19806827D01*
X79902515Y-19801001D01*
X79748273Y-19573187D01*
X79738201Y-19564873D01*
X79724227Y-19572079D01*
X77820719Y-21475588D01*
X77813105Y-21489532D01*
X76387259Y-21489532D01*
X76388495Y-21487268D01*
X76388364Y-21485434D01*
X76384115Y-21478822D01*
X74476578Y-19571284D01*
X74465044Y-19564986D01*
X74452761Y-19574610D01*
X74304997Y-19791225D01*
X74301476Y-19797038D01*
X74138055Y-20103098D01*
X74135180Y-20109263D01*
X74005773Y-20431173D01*
X74003580Y-20437613D01*
X73909695Y-20771620D01*
X73908265Y-20778019D01*
X73873884Y-20840136D01*
X73811378Y-20873804D01*
X73740593Y-20868334D01*
X73684002Y-20825463D01*
X73659572Y-20758802D01*
X73659300Y-20750532D01*
X73659300Y-18852848D01*
X75177858Y-18852848D01*
X75184566Y-18865060D01*
X77087988Y-20768481D01*
X77101932Y-20776095D01*
X77103766Y-20775964D01*
X77110378Y-20771715D01*
X79017066Y-18865028D01*
X79023910Y-18852494D01*
X79015680Y-18841403D01*
X78941978Y-18785257D01*
X78936340Y-18781425D01*
X78639261Y-18602216D01*
X78633254Y-18599023D01*
X78318565Y-18452948D01*
X78312242Y-18450419D01*
X77983618Y-18339186D01*
X77977040Y-18337350D01*
X77638346Y-18262264D01*
X77631608Y-18261148D01*
X77286762Y-18223076D01*
X77279981Y-18222697D01*
X76933017Y-18222092D01*
X76926244Y-18222447D01*
X76581245Y-18259316D01*
X76574536Y-18260403D01*
X76235556Y-18334313D01*
X76228981Y-18336124D01*
X75899967Y-18446210D01*
X75893645Y-18448713D01*
X75578451Y-18593686D01*
X75572408Y-18596872D01*
X75274728Y-18775030D01*
X75269069Y-18778847D01*
X75186316Y-18841434D01*
X75177858Y-18852848D01*
X73659300Y-18852848D01*
X73659300Y-18672584D01*
X73658860Y-18667647D01*
X73649099Y-18558286D01*
X73648566Y-18552313D01*
X73592541Y-18356930D01*
X73514338Y-18207342D01*
X73500000Y-18148967D01*
X73500000Y-16126000D01*
X73520002Y-16057879D01*
X73573658Y-16011386D01*
X73626000Y-16000000D01*
X81874000Y-16000000D01*
X81942121Y-16020002D01*
X81988614Y-16073658D01*
X82000000Y-16126000D01*
X82000000Y-27000000D01*
X90500000Y-27000000D01*
X90500000Y-25020656D01*
X90520002Y-24952535D01*
X90528357Y-24941020D01*
X90639341Y-24804940D01*
X90639342Y-24804939D01*
X90643373Y-24799996D01*
X90737541Y-24619870D01*
X90793566Y-24424487D01*
X90798501Y-24369197D01*
X90804051Y-24307009D01*
X90804051Y-24307003D01*
X90804300Y-24304216D01*
X90804300Y-24124541D01*
X92322484Y-24124541D01*
X92330622Y-24135548D01*
X92395193Y-24185096D01*
X92400825Y-24188953D01*
X92697275Y-24369197D01*
X92703265Y-24372409D01*
X93017454Y-24519585D01*
X93023759Y-24522133D01*
X93352004Y-24634517D01*
X93358555Y-24636370D01*
X93697003Y-24712642D01*
X93703722Y-24713779D01*
X94048438Y-24753055D01*
X94055228Y-24753458D01*
X94402165Y-24755274D01*
X94408966Y-24754942D01*
X94754073Y-24719279D01*
X94760801Y-24718213D01*
X95100046Y-24645485D01*
X95106594Y-24643706D01*
X95436013Y-24534761D01*
X95442331Y-24532286D01*
X95758040Y-24388408D01*
X95764089Y-24385245D01*
X96062385Y-24208131D01*
X96068066Y-24204328D01*
X96160132Y-24135202D01*
X96168585Y-24123877D01*
X96161840Y-24111546D01*
X94258612Y-22208319D01*
X94244668Y-22200705D01*
X94242834Y-22200836D01*
X94236222Y-22205085D01*
X92329363Y-24111943D01*
X92322484Y-24124541D01*
X90804300Y-24124541D01*
X90804300Y-22223680D01*
X90824302Y-22155559D01*
X90877958Y-22109066D01*
X90948232Y-22098962D01*
X91012812Y-22128456D01*
X91051834Y-22190432D01*
X91141319Y-22517533D01*
X91143468Y-22523994D01*
X91270626Y-22846803D01*
X91273459Y-22852991D01*
X91434729Y-23160163D01*
X91438217Y-23166016D01*
X91598063Y-23403894D01*
X91608046Y-23412192D01*
X91622137Y-23404957D01*
X93525881Y-21501212D01*
X93532259Y-21489532D01*
X94958105Y-21489532D01*
X94958236Y-21491366D01*
X94962485Y-21497978D01*
X96869764Y-23405258D01*
X96881366Y-23411593D01*
X96893573Y-23402064D01*
X97035661Y-23195326D01*
X97039208Y-23189515D01*
X97203684Y-22884050D01*
X97206591Y-22877873D01*
X97337119Y-22556420D01*
X97339333Y-22549989D01*
X97434382Y-22216317D01*
X97435889Y-22209688D01*
X97494349Y-21867683D01*
X97495129Y-21860943D01*
X97516407Y-21513031D01*
X97516523Y-21509429D01*
X97516591Y-21490219D01*
X97516499Y-21486594D01*
X97497650Y-21138558D01*
X97496915Y-21131792D01*
X97440849Y-20789417D01*
X97439382Y-20782745D01*
X97346671Y-20448443D01*
X97344497Y-20441979D01*
X97216215Y-20119621D01*
X97213359Y-20113441D01*
X97051015Y-19806827D01*
X97047515Y-19801001D01*
X96893273Y-19573187D01*
X96883201Y-19564873D01*
X96869227Y-19572079D01*
X94965719Y-21475588D01*
X94958105Y-21489532D01*
X93532259Y-21489532D01*
X93533495Y-21487268D01*
X93533364Y-21485434D01*
X93529115Y-21478822D01*
X91621578Y-19571284D01*
X91610044Y-19564986D01*
X91597761Y-19574610D01*
X91449997Y-19791225D01*
X91446476Y-19797038D01*
X91283055Y-20103098D01*
X91280180Y-20109263D01*
X91150773Y-20431173D01*
X91148580Y-20437613D01*
X91054695Y-20771620D01*
X91053265Y-20778019D01*
X91018884Y-20840136D01*
X90956378Y-20873804D01*
X90885593Y-20868334D01*
X90829002Y-20825463D01*
X90804572Y-20758802D01*
X90804300Y-20750532D01*
X90804300Y-18852848D01*
X92322858Y-18852848D01*
X92329566Y-18865060D01*
X94232988Y-20768481D01*
X94246932Y-20776095D01*
X94248766Y-20775964D01*
X94255378Y-20771715D01*
X96162066Y-18865028D01*
X96168910Y-18852494D01*
X96160680Y-18841403D01*
X96086978Y-18785257D01*
X96081340Y-18781425D01*
X95784261Y-18602216D01*
X95778254Y-18599023D01*
X95463565Y-18452948D01*
X95457242Y-18450419D01*
X95128618Y-18339186D01*
X95122040Y-18337350D01*
X94783346Y-18262264D01*
X94776608Y-18261148D01*
X94431762Y-18223076D01*
X94424981Y-18222697D01*
X94078017Y-18222092D01*
X94071244Y-18222447D01*
X93726245Y-18259316D01*
X93719536Y-18260403D01*
X93380556Y-18334313D01*
X93373981Y-18336124D01*
X93044967Y-18446210D01*
X93038645Y-18448713D01*
X92723451Y-18593686D01*
X92717408Y-18596872D01*
X92419728Y-18775030D01*
X92414069Y-18778847D01*
X92331316Y-18841434D01*
X92322858Y-18852848D01*
X90804300Y-18852848D01*
X90804300Y-18672584D01*
X90803860Y-18667647D01*
X90794099Y-18558286D01*
X90793566Y-18552313D01*
X90737541Y-18356930D01*
X90643373Y-18176804D01*
X90528357Y-18035780D01*
X90500803Y-17970348D01*
X90500000Y-17956144D01*
X90500000Y-16126000D01*
X90520002Y-16057879D01*
X90573658Y-16011386D01*
X90626000Y-16000000D01*
X99874000Y-16000000D01*
X99942121Y-16020002D01*
X99988614Y-16073658D01*
X100000000Y-16126000D01*
X100000000Y-27000000D01*
X112874000Y-27000000D01*
X112942121Y-27020002D01*
X112988614Y-27073658D01*
X113000000Y-27126000D01*
X113000000Y-40874000D01*
X112979998Y-40942121D01*
X112926342Y-40988614D01*
X112874000Y-41000000D01*
X104126000Y-41000000D01*
X104057879Y-40979998D01*
X104011386Y-40926342D01*
X104000000Y-40874000D01*
X104000000Y-39267807D01*
X108015001Y-39267807D01*
X108015121Y-39271701D01*
X108017790Y-39314893D01*
X108019126Y-39324472D01*
X108063048Y-39525073D01*
X108066695Y-39536432D01*
X108147306Y-39724059D01*
X108153041Y-39734533D01*
X108267669Y-39903522D01*
X108275282Y-39912724D01*
X108419802Y-40056992D01*
X108429015Y-40064587D01*
X108598206Y-40178922D01*
X108608690Y-40184638D01*
X108796450Y-40264918D01*
X108807821Y-40268547D01*
X109008480Y-40312115D01*
X109018100Y-40313437D01*
X109059387Y-40315890D01*
X109063102Y-40316000D01*
X109254885Y-40316000D01*
X109270124Y-40311525D01*
X109271329Y-40310135D01*
X109273000Y-40302452D01*
X109273000Y-40297884D01*
X110273000Y-40297884D01*
X110277475Y-40313123D01*
X110278865Y-40314328D01*
X110286548Y-40315999D01*
X110482807Y-40315999D01*
X110486701Y-40315879D01*
X110529893Y-40313210D01*
X110539472Y-40311874D01*
X110740073Y-40267952D01*
X110751432Y-40264305D01*
X110939059Y-40183694D01*
X110949533Y-40177959D01*
X111118522Y-40063331D01*
X111127724Y-40055718D01*
X111271992Y-39911198D01*
X111279587Y-39901985D01*
X111393922Y-39732794D01*
X111399638Y-39722310D01*
X111479918Y-39534550D01*
X111483547Y-39523179D01*
X111527115Y-39322520D01*
X111528437Y-39312900D01*
X111530890Y-39271613D01*
X111531000Y-39267898D01*
X111531000Y-38576115D01*
X111526525Y-38560876D01*
X111525135Y-38559671D01*
X111517452Y-38558000D01*
X110291115Y-38558000D01*
X110275876Y-38562475D01*
X110274671Y-38563865D01*
X110273000Y-38571548D01*
X110273000Y-40297884D01*
X109273000Y-40297884D01*
X109273000Y-38576115D01*
X109268525Y-38560876D01*
X109267135Y-38559671D01*
X109259452Y-38558000D01*
X108033116Y-38558000D01*
X108017877Y-38562475D01*
X108016672Y-38563865D01*
X108015001Y-38571548D01*
X108015001Y-39267807D01*
X104000000Y-39267807D01*
X104000000Y-37539885D01*
X108015000Y-37539885D01*
X108019475Y-37555124D01*
X108020865Y-37556329D01*
X108028548Y-37558000D01*
X109254885Y-37558000D01*
X109270124Y-37553525D01*
X109271329Y-37552135D01*
X109273000Y-37544452D01*
X109273000Y-37539885D01*
X110273000Y-37539885D01*
X110277475Y-37555124D01*
X110278865Y-37556329D01*
X110286548Y-37558000D01*
X111512884Y-37558000D01*
X111528123Y-37553525D01*
X111529328Y-37552135D01*
X111530999Y-37544452D01*
X111530999Y-36848194D01*
X111530879Y-36844299D01*
X111528210Y-36801107D01*
X111526874Y-36791528D01*
X111482952Y-36590927D01*
X111479305Y-36579568D01*
X111398694Y-36391941D01*
X111392959Y-36381467D01*
X111278331Y-36212478D01*
X111270718Y-36203276D01*
X111126198Y-36059008D01*
X111116985Y-36051413D01*
X110947794Y-35937078D01*
X110937310Y-35931362D01*
X110749550Y-35851082D01*
X110738179Y-35847453D01*
X110537520Y-35803885D01*
X110527900Y-35802563D01*
X110486613Y-35800110D01*
X110482898Y-35800000D01*
X110291115Y-35800000D01*
X110275876Y-35804475D01*
X110274671Y-35805865D01*
X110273000Y-35813548D01*
X110273000Y-37539885D01*
X109273000Y-37539885D01*
X109273000Y-35818116D01*
X109268525Y-35802877D01*
X109267135Y-35801672D01*
X109259452Y-35800001D01*
X109063194Y-35800001D01*
X109059299Y-35800121D01*
X109016107Y-35802790D01*
X109006528Y-35804126D01*
X108805927Y-35848048D01*
X108794568Y-35851695D01*
X108606941Y-35932306D01*
X108596467Y-35938041D01*
X108427478Y-36052669D01*
X108418276Y-36060282D01*
X108274008Y-36204802D01*
X108266413Y-36214015D01*
X108152078Y-36383206D01*
X108146362Y-36393690D01*
X108066082Y-36581450D01*
X108062453Y-36592821D01*
X108018885Y-36793480D01*
X108017563Y-36803100D01*
X108015110Y-36844387D01*
X108015000Y-36848102D01*
X108015000Y-37539885D01*
X104000000Y-37539885D01*
X104000000Y-35000000D01*
X89500000Y-35000000D01*
X89500000Y-42636537D01*
X89479998Y-42704658D01*
X89426342Y-42751151D01*
X89370641Y-42762492D01*
X85113130Y-42648942D01*
X85015417Y-48998275D01*
X85001894Y-49876960D01*
X84980846Y-49944765D01*
X84926481Y-49990426D01*
X84876950Y-50001017D01*
X73027831Y-50098944D01*
X72959550Y-50079505D01*
X72912615Y-50026236D01*
X72900794Y-49972165D01*
X72907783Y-48846848D01*
X77884879Y-48846848D01*
X77888068Y-48851108D01*
X78060988Y-48922734D01*
X78070373Y-48925783D01*
X78291554Y-48978885D01*
X78301301Y-48980428D01*
X78528070Y-48998275D01*
X78537930Y-48998275D01*
X78764699Y-48980428D01*
X78774446Y-48978885D01*
X78995627Y-48925783D01*
X79005012Y-48922734D01*
X79170436Y-48854213D01*
X79181417Y-48845364D01*
X79180101Y-48840208D01*
X78545812Y-48205919D01*
X78531868Y-48198305D01*
X78530035Y-48198436D01*
X78523420Y-48202687D01*
X77891639Y-48834468D01*
X77884879Y-48846848D01*
X72907783Y-48846848D01*
X72911764Y-48205919D01*
X72916205Y-47490930D01*
X77020725Y-47490930D01*
X77038572Y-47717699D01*
X77040115Y-47727446D01*
X77093217Y-47948627D01*
X77096266Y-47958012D01*
X77164787Y-48123436D01*
X77173636Y-48134417D01*
X77178792Y-48133101D01*
X77813081Y-47498812D01*
X77819459Y-47487132D01*
X79245305Y-47487132D01*
X79245436Y-47488965D01*
X79249687Y-47495580D01*
X79881468Y-48127361D01*
X79893848Y-48134121D01*
X79898108Y-48130932D01*
X79969734Y-47958012D01*
X79972783Y-47948627D01*
X80025885Y-47727446D01*
X80027428Y-47717699D01*
X80045275Y-47490930D01*
X80045275Y-47481070D01*
X80027428Y-47254301D01*
X80025885Y-47244554D01*
X79972783Y-47023373D01*
X79969734Y-47013988D01*
X79901213Y-46848564D01*
X79892364Y-46837583D01*
X79887208Y-46838899D01*
X79252919Y-47473188D01*
X79245305Y-47487132D01*
X77819459Y-47487132D01*
X77820695Y-47484868D01*
X77820564Y-47483035D01*
X77816313Y-47476420D01*
X77184532Y-46844639D01*
X77172152Y-46837879D01*
X77167892Y-46841068D01*
X77096266Y-47013988D01*
X77093217Y-47023373D01*
X77040115Y-47244554D01*
X77038572Y-47254301D01*
X77020725Y-47481070D01*
X77020725Y-47490930D01*
X72916205Y-47490930D01*
X72924679Y-46126636D01*
X77884583Y-46126636D01*
X77885899Y-46131792D01*
X78520188Y-46766081D01*
X78534132Y-46773695D01*
X78535965Y-46773564D01*
X78542580Y-46769313D01*
X79174361Y-46137532D01*
X79181121Y-46125152D01*
X79177932Y-46120892D01*
X79005012Y-46049266D01*
X78995627Y-46046217D01*
X78774446Y-45993115D01*
X78764699Y-45991572D01*
X78537930Y-45973725D01*
X78528070Y-45973725D01*
X78301301Y-45991572D01*
X78291554Y-45993115D01*
X78070373Y-46046217D01*
X78060988Y-46049266D01*
X77895564Y-46117787D01*
X77884583Y-46126636D01*
X72924679Y-46126636D01*
X72951453Y-41816020D01*
X77189707Y-41816020D01*
X77194173Y-41821986D01*
X77297892Y-41876555D01*
X77306441Y-41880272D01*
X77537282Y-41960885D01*
X77546291Y-41963299D01*
X77786518Y-42008908D01*
X77795775Y-42009962D01*
X78040107Y-42019563D01*
X78049420Y-42019237D01*
X78292478Y-41992618D01*
X78301655Y-41990917D01*
X78538107Y-41928665D01*
X78546926Y-41925628D01*
X78771582Y-41829108D01*
X78774648Y-41827512D01*
X78783033Y-41818163D01*
X78779146Y-41809253D01*
X77997812Y-41027919D01*
X77983868Y-41020305D01*
X77982035Y-41020436D01*
X77975420Y-41024687D01*
X77196467Y-41803640D01*
X77189707Y-41816020D01*
X72951453Y-41816020D01*
X72961069Y-40267835D01*
X76273022Y-40267835D01*
X76284754Y-40512064D01*
X76285891Y-40521324D01*
X76333593Y-40761143D01*
X76336082Y-40770118D01*
X76418708Y-41000250D01*
X76422503Y-41008775D01*
X76467969Y-41093391D01*
X76477873Y-41103429D01*
X76485106Y-41100787D01*
X77265081Y-40320812D01*
X77271459Y-40309132D01*
X78697305Y-40309132D01*
X78697436Y-40310965D01*
X78701687Y-40317580D01*
X79483364Y-41099257D01*
X79495744Y-41106017D01*
X79500509Y-41102450D01*
X79592572Y-40898076D01*
X79595766Y-40889301D01*
X79662135Y-40653973D01*
X79663993Y-40644844D01*
X79695044Y-40400770D01*
X79695525Y-40394483D01*
X79697706Y-40311160D01*
X79697555Y-40304851D01*
X79679321Y-40059486D01*
X79677944Y-40050280D01*
X79623979Y-39811786D01*
X79621255Y-39802875D01*
X79532631Y-39574978D01*
X79528620Y-39566569D01*
X79503029Y-39521795D01*
X79492865Y-39512019D01*
X79484966Y-39515141D01*
X78704919Y-40295188D01*
X78697305Y-40309132D01*
X77271459Y-40309132D01*
X77272695Y-40306868D01*
X77272564Y-40305035D01*
X77268313Y-40298420D01*
X76487344Y-39517451D01*
X76474964Y-39510691D01*
X76467443Y-39516321D01*
X76461322Y-39526409D01*
X76457084Y-39534726D01*
X76362529Y-39760214D01*
X76359572Y-39769052D01*
X76299384Y-40006042D01*
X76297763Y-40015232D01*
X76273267Y-40258510D01*
X76273022Y-40267835D01*
X72961069Y-40267835D01*
X72970191Y-38799203D01*
X77187449Y-38799203D01*
X77189202Y-38805095D01*
X77972188Y-39588081D01*
X77986132Y-39595695D01*
X77987965Y-39595564D01*
X77994580Y-39591313D01*
X78774103Y-38811790D01*
X78780863Y-38799410D01*
X78776809Y-38793994D01*
X78626622Y-38719930D01*
X78627275Y-38718605D01*
X78576672Y-38678547D01*
X78553666Y-38611381D01*
X78570625Y-38542440D01*
X78622164Y-38493611D01*
X78629804Y-38490021D01*
X78771582Y-38429108D01*
X78774648Y-38427512D01*
X78783033Y-38418163D01*
X78779146Y-38409253D01*
X77997812Y-37627919D01*
X77983868Y-37620305D01*
X77982035Y-37620436D01*
X77975420Y-37624687D01*
X77196467Y-38403640D01*
X77189707Y-38416020D01*
X77194173Y-38421986D01*
X77297892Y-38476555D01*
X77306441Y-38480271D01*
X77332547Y-38489388D01*
X77390264Y-38530730D01*
X77416468Y-38596714D01*
X77402839Y-38666390D01*
X77353703Y-38717637D01*
X77343758Y-38722769D01*
X77198073Y-38789931D01*
X77187449Y-38799203D01*
X72970191Y-38799203D01*
X72982187Y-36867835D01*
X76273022Y-36867835D01*
X76284754Y-37112064D01*
X76285891Y-37121324D01*
X76333593Y-37361143D01*
X76336082Y-37370118D01*
X76418708Y-37600250D01*
X76422503Y-37608775D01*
X76467969Y-37693391D01*
X76477873Y-37703429D01*
X76485106Y-37700787D01*
X77265081Y-36920812D01*
X77271459Y-36909132D01*
X78697305Y-36909132D01*
X78697436Y-36910965D01*
X78701687Y-36917580D01*
X79483364Y-37699257D01*
X79495744Y-37706017D01*
X79500509Y-37702450D01*
X79592572Y-37498076D01*
X79595766Y-37489301D01*
X79662135Y-37253973D01*
X79663993Y-37244844D01*
X79695044Y-37000770D01*
X79695525Y-36994483D01*
X79697706Y-36911160D01*
X79697555Y-36904851D01*
X79679321Y-36659486D01*
X79677944Y-36650280D01*
X79623979Y-36411786D01*
X79621255Y-36402875D01*
X79532631Y-36174978D01*
X79528620Y-36166569D01*
X79503029Y-36121795D01*
X79492865Y-36112019D01*
X79484966Y-36115141D01*
X78704919Y-36895188D01*
X78697305Y-36909132D01*
X77271459Y-36909132D01*
X77272695Y-36906868D01*
X77272564Y-36905035D01*
X77268313Y-36898420D01*
X76487344Y-36117451D01*
X76474964Y-36110691D01*
X76467443Y-36116321D01*
X76461322Y-36126409D01*
X76457084Y-36134726D01*
X76362529Y-36360214D01*
X76359572Y-36369052D01*
X76299384Y-36606042D01*
X76297763Y-36615232D01*
X76273267Y-36858510D01*
X76273022Y-36867835D01*
X72982187Y-36867835D01*
X72991309Y-35399203D01*
X77187449Y-35399203D01*
X77189202Y-35405095D01*
X77972188Y-36188081D01*
X77986132Y-36195695D01*
X77987965Y-36195564D01*
X77994580Y-36191313D01*
X78774103Y-35411790D01*
X78780863Y-35399410D01*
X78776809Y-35393994D01*
X78630808Y-35321994D01*
X78622176Y-35318507D01*
X78389288Y-35243958D01*
X78380238Y-35241785D01*
X78138891Y-35202480D01*
X78129602Y-35201668D01*
X77885114Y-35198467D01*
X77875803Y-35199037D01*
X77633522Y-35232010D01*
X77624403Y-35233948D01*
X77389668Y-35302367D01*
X77380915Y-35305639D01*
X77198074Y-35389931D01*
X77187449Y-35399203D01*
X72991309Y-35399203D01*
X73000000Y-34000000D01*
X64000000Y-34000000D01*
X64000000Y-42874000D01*
X63979998Y-42942121D01*
X63926342Y-42988614D01*
X63874000Y-43000000D01*
X50126000Y-43000000D01*
X50057879Y-42979998D01*
X50011386Y-42926342D01*
X50000000Y-42874000D01*
X50000000Y-40029807D01*
X53405001Y-40029807D01*
X53405121Y-40033701D01*
X53407790Y-40076893D01*
X53409126Y-40086472D01*
X53453048Y-40287073D01*
X53456695Y-40298432D01*
X53537306Y-40486059D01*
X53543041Y-40496533D01*
X53657669Y-40665522D01*
X53665282Y-40674724D01*
X53809802Y-40818992D01*
X53819015Y-40826587D01*
X53988206Y-40940922D01*
X53998690Y-40946638D01*
X54186450Y-41026918D01*
X54197821Y-41030547D01*
X54398480Y-41074115D01*
X54408100Y-41075437D01*
X54449387Y-41077890D01*
X54453102Y-41078000D01*
X54644885Y-41078000D01*
X54660124Y-41073525D01*
X54661329Y-41072135D01*
X54663000Y-41064452D01*
X54663000Y-41059884D01*
X55663000Y-41059884D01*
X55667475Y-41075123D01*
X55668865Y-41076328D01*
X55676548Y-41077999D01*
X55872807Y-41077999D01*
X55876701Y-41077879D01*
X55919893Y-41075210D01*
X55929472Y-41073874D01*
X56130073Y-41029952D01*
X56141432Y-41026305D01*
X56329059Y-40945694D01*
X56339533Y-40939959D01*
X56508522Y-40825331D01*
X56517724Y-40817718D01*
X56661992Y-40673198D01*
X56669587Y-40663985D01*
X56783922Y-40494794D01*
X56789638Y-40484310D01*
X56869918Y-40296550D01*
X56873547Y-40285179D01*
X56917115Y-40084520D01*
X56918437Y-40074900D01*
X56920890Y-40033613D01*
X56921000Y-40029898D01*
X56921000Y-39338115D01*
X56916525Y-39322876D01*
X56915135Y-39321671D01*
X56907452Y-39320000D01*
X55681115Y-39320000D01*
X55665876Y-39324475D01*
X55664671Y-39325865D01*
X55663000Y-39333548D01*
X55663000Y-41059884D01*
X54663000Y-41059884D01*
X54663000Y-39338115D01*
X54658525Y-39322876D01*
X54657135Y-39321671D01*
X54649452Y-39320000D01*
X53423116Y-39320000D01*
X53407877Y-39324475D01*
X53406672Y-39325865D01*
X53405001Y-39333548D01*
X53405001Y-40029807D01*
X50000000Y-40029807D01*
X50000000Y-38301885D01*
X53405000Y-38301885D01*
X53409475Y-38317124D01*
X53410865Y-38318329D01*
X53418548Y-38320000D01*
X54644885Y-38320000D01*
X54660124Y-38315525D01*
X54661329Y-38314135D01*
X54663000Y-38306452D01*
X54663000Y-38301885D01*
X55663000Y-38301885D01*
X55667475Y-38317124D01*
X55668865Y-38318329D01*
X55676548Y-38320000D01*
X56902884Y-38320000D01*
X56918123Y-38315525D01*
X56919328Y-38314135D01*
X56920999Y-38306452D01*
X56920999Y-37610194D01*
X56920879Y-37606299D01*
X56918210Y-37563104D01*
X56916874Y-37553528D01*
X56872952Y-37352927D01*
X56869305Y-37341568D01*
X56788694Y-37153941D01*
X56782959Y-37143467D01*
X56668331Y-36974478D01*
X56660718Y-36965276D01*
X56516198Y-36821008D01*
X56506985Y-36813413D01*
X56337794Y-36699078D01*
X56327310Y-36693362D01*
X56139550Y-36613082D01*
X56128179Y-36609453D01*
X55927520Y-36565885D01*
X55917900Y-36564563D01*
X55876613Y-36562110D01*
X55872898Y-36562000D01*
X55681115Y-36562000D01*
X55665876Y-36566475D01*
X55664671Y-36567865D01*
X55663000Y-36575548D01*
X55663000Y-38301885D01*
X54663000Y-38301885D01*
X54663000Y-36580116D01*
X54658525Y-36564877D01*
X54657135Y-36563672D01*
X54649452Y-36562001D01*
X54453194Y-36562001D01*
X54449299Y-36562121D01*
X54406107Y-36564790D01*
X54396528Y-36566126D01*
X54195927Y-36610048D01*
X54184568Y-36613695D01*
X53996941Y-36694306D01*
X53986467Y-36700041D01*
X53817478Y-36814669D01*
X53808276Y-36822282D01*
X53664008Y-36966802D01*
X53656413Y-36976015D01*
X53542078Y-37145206D01*
X53536362Y-37155690D01*
X53456082Y-37343450D01*
X53452453Y-37354821D01*
X53408885Y-37555480D01*
X53407563Y-37565100D01*
X53405110Y-37606387D01*
X53405000Y-37610102D01*
X53405000Y-38301885D01*
X50000000Y-38301885D01*
X50000000Y-33073448D01*
X52357879Y-33073448D01*
X52361068Y-33077708D01*
X52533988Y-33149334D01*
X52543373Y-33152383D01*
X52764554Y-33205485D01*
X52774301Y-33207028D01*
X53001070Y-33224875D01*
X53010930Y-33224875D01*
X53237699Y-33207028D01*
X53247446Y-33205485D01*
X53268426Y-33200448D01*
X77503879Y-33200448D01*
X77507068Y-33204708D01*
X77679988Y-33276334D01*
X77689373Y-33279383D01*
X77910554Y-33332485D01*
X77920301Y-33334028D01*
X78147070Y-33351875D01*
X78156930Y-33351875D01*
X78383699Y-33334028D01*
X78393446Y-33332485D01*
X78614627Y-33279383D01*
X78624012Y-33276334D01*
X78789436Y-33207813D01*
X78800417Y-33198964D01*
X78799101Y-33193808D01*
X78690741Y-33085448D01*
X101078879Y-33085448D01*
X101082068Y-33089708D01*
X101254988Y-33161334D01*
X101264373Y-33164383D01*
X101485554Y-33217485D01*
X101495301Y-33219028D01*
X101722070Y-33236875D01*
X101731930Y-33236875D01*
X101958699Y-33219028D01*
X101968446Y-33217485D01*
X102189627Y-33164383D01*
X102199012Y-33161334D01*
X102364436Y-33092813D01*
X102375417Y-33083964D01*
X102374101Y-33078808D01*
X101739812Y-32444519D01*
X101725868Y-32436905D01*
X101724035Y-32437036D01*
X101717420Y-32441287D01*
X101085639Y-33073068D01*
X101078879Y-33085448D01*
X78690741Y-33085448D01*
X78164812Y-32559519D01*
X78150868Y-32551905D01*
X78149035Y-32552036D01*
X78142420Y-32556287D01*
X77510639Y-33188068D01*
X77503879Y-33200448D01*
X53268426Y-33200448D01*
X53468627Y-33152383D01*
X53478012Y-33149334D01*
X53643436Y-33080813D01*
X53654417Y-33071964D01*
X53653101Y-33066808D01*
X53018812Y-32432519D01*
X53004868Y-32424905D01*
X53003035Y-32425036D01*
X52996420Y-32429287D01*
X52364639Y-33061068D01*
X52357879Y-33073448D01*
X50000000Y-33073448D01*
X50000000Y-31717530D01*
X51493725Y-31717530D01*
X51511572Y-31944299D01*
X51513115Y-31954046D01*
X51566217Y-32175227D01*
X51569266Y-32184612D01*
X51637787Y-32350036D01*
X51646636Y-32361017D01*
X51651792Y-32359701D01*
X52286081Y-31725412D01*
X52292459Y-31713732D01*
X53718305Y-31713732D01*
X53718436Y-31715565D01*
X53722687Y-31722180D01*
X54354468Y-32353961D01*
X54366848Y-32360721D01*
X54371108Y-32357532D01*
X54442734Y-32184612D01*
X54445783Y-32175227D01*
X54498885Y-31954046D01*
X54500428Y-31944299D01*
X54518275Y-31717530D01*
X54518275Y-31707670D01*
X54500428Y-31480901D01*
X54498885Y-31471154D01*
X54445783Y-31249973D01*
X54442734Y-31240588D01*
X54374213Y-31075164D01*
X54365364Y-31064183D01*
X54360208Y-31065499D01*
X53725919Y-31699788D01*
X53718305Y-31713732D01*
X52292459Y-31713732D01*
X52293695Y-31711468D01*
X52293564Y-31709635D01*
X52289313Y-31703020D01*
X51657532Y-31071239D01*
X51645152Y-31064479D01*
X51640892Y-31067668D01*
X51569266Y-31240588D01*
X51566217Y-31249973D01*
X51513115Y-31471154D01*
X51511572Y-31480901D01*
X51493725Y-31707670D01*
X51493725Y-31717530D01*
X50000000Y-31717530D01*
X50000000Y-30353236D01*
X52357583Y-30353236D01*
X52358899Y-30358392D01*
X52993188Y-30992681D01*
X53007132Y-31000295D01*
X53008965Y-31000164D01*
X53015580Y-30995913D01*
X53647361Y-30364132D01*
X53654121Y-30351752D01*
X53650932Y-30347492D01*
X53479789Y-30276602D01*
X66147380Y-30276602D01*
X66147555Y-30281054D01*
X66155381Y-30480236D01*
X66158502Y-30559684D01*
X66209400Y-30838375D01*
X66299058Y-31107114D01*
X66301050Y-31111101D01*
X66301051Y-31111103D01*
X66346552Y-31202164D01*
X66425687Y-31360539D01*
X66586761Y-31593593D01*
X66779065Y-31801627D01*
X66782519Y-31804439D01*
X66995307Y-31977675D01*
X66995311Y-31977678D01*
X66998764Y-31980489D01*
X67241472Y-32126612D01*
X67245567Y-32128346D01*
X67245569Y-32128347D01*
X67498247Y-32235342D01*
X67498254Y-32235344D01*
X67502348Y-32237078D01*
X67602492Y-32263631D01*
X67771889Y-32308546D01*
X67771893Y-32308547D01*
X67776186Y-32309685D01*
X67780595Y-32310207D01*
X67780601Y-32310208D01*
X67937954Y-32328832D01*
X68057523Y-32342984D01*
X68340745Y-32336309D01*
X68345143Y-32335577D01*
X68615810Y-32290526D01*
X68615814Y-32290525D01*
X68620200Y-32289795D01*
X68624441Y-32288454D01*
X68624444Y-32288453D01*
X68886068Y-32205712D01*
X68886070Y-32205711D01*
X68890314Y-32204369D01*
X68894325Y-32202443D01*
X68894330Y-32202441D01*
X69141678Y-32083666D01*
X69141679Y-32083665D01*
X69145697Y-32081736D01*
X69149403Y-32079260D01*
X69377545Y-31926821D01*
X69377549Y-31926818D01*
X69381253Y-31924343D01*
X69470362Y-31844530D01*
X76639725Y-31844530D01*
X76657572Y-32071299D01*
X76659115Y-32081046D01*
X76712217Y-32302227D01*
X76715266Y-32311612D01*
X76783787Y-32477036D01*
X76792636Y-32488017D01*
X76797792Y-32486701D01*
X77432081Y-31852412D01*
X77438459Y-31840732D01*
X78864305Y-31840732D01*
X78864436Y-31842565D01*
X78868687Y-31849180D01*
X79500468Y-32480961D01*
X79512848Y-32487721D01*
X79517108Y-32484532D01*
X79588734Y-32311612D01*
X79591783Y-32302227D01*
X79644885Y-32081046D01*
X79646428Y-32071299D01*
X79664275Y-31844530D01*
X79664275Y-31834670D01*
X79646428Y-31607901D01*
X79644885Y-31598154D01*
X79591783Y-31376973D01*
X79588734Y-31367588D01*
X79520213Y-31202164D01*
X79511364Y-31191183D01*
X79506208Y-31192499D01*
X78871919Y-31826788D01*
X78864305Y-31840732D01*
X77438459Y-31840732D01*
X77439695Y-31838468D01*
X77439564Y-31836635D01*
X77435313Y-31830020D01*
X76803532Y-31198239D01*
X76791152Y-31191479D01*
X76786892Y-31194668D01*
X76715266Y-31367588D01*
X76712217Y-31376973D01*
X76659115Y-31598154D01*
X76657572Y-31607901D01*
X76639725Y-31834670D01*
X76639725Y-31844530D01*
X69470362Y-31844530D01*
X69592281Y-31735330D01*
X69774573Y-31518468D01*
X69924489Y-31278085D01*
X69938878Y-31245539D01*
X69977137Y-31158998D01*
X70039040Y-31018976D01*
X70115939Y-30746312D01*
X70150985Y-30485392D01*
X70151678Y-30480236D01*
X77503583Y-30480236D01*
X77504899Y-30485392D01*
X78139188Y-31119681D01*
X78153132Y-31127295D01*
X78154965Y-31127164D01*
X78161580Y-31122913D01*
X78793361Y-30491132D01*
X78800121Y-30478752D01*
X78796932Y-30474492D01*
X78624012Y-30402866D01*
X78614627Y-30399817D01*
X78393446Y-30346715D01*
X78383699Y-30345172D01*
X78156930Y-30327325D01*
X78147070Y-30327325D01*
X77920301Y-30345172D01*
X77910554Y-30346715D01*
X77689373Y-30399817D01*
X77679988Y-30402866D01*
X77514564Y-30471387D01*
X77503583Y-30480236D01*
X70151678Y-30480236D01*
X70153225Y-30468715D01*
X70153226Y-30468707D01*
X70153652Y-30465533D01*
X70155622Y-30402866D01*
X70157509Y-30342822D01*
X70157509Y-30342817D01*
X70157610Y-30339600D01*
X70145007Y-30161602D01*
X89722380Y-30161602D01*
X89722555Y-30166054D01*
X89730381Y-30365236D01*
X89733502Y-30444684D01*
X89784400Y-30723375D01*
X89874058Y-30992114D01*
X89876050Y-30996101D01*
X89876051Y-30996103D01*
X89977053Y-31198239D01*
X90000687Y-31245539D01*
X90161761Y-31478593D01*
X90354065Y-31686627D01*
X90357519Y-31689439D01*
X90570307Y-31862675D01*
X90570311Y-31862678D01*
X90573764Y-31865489D01*
X90816472Y-32011612D01*
X90820567Y-32013346D01*
X90820569Y-32013347D01*
X91073247Y-32120342D01*
X91073254Y-32120344D01*
X91077348Y-32122078D01*
X91100992Y-32128347D01*
X91346889Y-32193546D01*
X91346893Y-32193547D01*
X91351186Y-32194685D01*
X91355595Y-32195207D01*
X91355601Y-32195208D01*
X91512954Y-32213832D01*
X91632523Y-32227984D01*
X91915745Y-32221309D01*
X91920143Y-32220577D01*
X92190810Y-32175526D01*
X92190814Y-32175525D01*
X92195200Y-32174795D01*
X92199441Y-32173454D01*
X92199444Y-32173453D01*
X92461068Y-32090712D01*
X92461070Y-32090711D01*
X92465314Y-32089369D01*
X92469325Y-32087443D01*
X92469330Y-32087441D01*
X92716678Y-31968666D01*
X92716679Y-31968665D01*
X92720697Y-31966736D01*
X92724403Y-31964260D01*
X92952545Y-31811821D01*
X92952549Y-31811818D01*
X92956253Y-31809343D01*
X93045362Y-31729530D01*
X100214725Y-31729530D01*
X100232572Y-31956299D01*
X100234115Y-31966046D01*
X100287217Y-32187227D01*
X100290266Y-32196612D01*
X100358787Y-32362036D01*
X100367636Y-32373017D01*
X100372792Y-32371701D01*
X101007081Y-31737412D01*
X101013459Y-31725732D01*
X102439305Y-31725732D01*
X102439436Y-31727565D01*
X102443687Y-31734180D01*
X103075468Y-32365961D01*
X103087848Y-32372721D01*
X103092108Y-32369532D01*
X103163734Y-32196612D01*
X103166783Y-32187227D01*
X103219885Y-31966046D01*
X103221428Y-31956299D01*
X103239275Y-31729530D01*
X103239275Y-31719670D01*
X103221428Y-31492901D01*
X103219885Y-31483154D01*
X103166783Y-31261973D01*
X103163734Y-31252588D01*
X103095213Y-31087164D01*
X103086364Y-31076183D01*
X103081208Y-31077499D01*
X102446919Y-31711788D01*
X102439305Y-31725732D01*
X101013459Y-31725732D01*
X101014695Y-31723468D01*
X101014564Y-31721635D01*
X101010313Y-31715020D01*
X100378532Y-31083239D01*
X100366152Y-31076479D01*
X100361892Y-31079668D01*
X100290266Y-31252588D01*
X100287217Y-31261973D01*
X100234115Y-31483154D01*
X100232572Y-31492901D01*
X100214725Y-31719670D01*
X100214725Y-31729530D01*
X93045362Y-31729530D01*
X93167281Y-31620330D01*
X93349573Y-31403468D01*
X93499489Y-31163085D01*
X93614040Y-30903976D01*
X93690939Y-30631312D01*
X93691845Y-30624566D01*
X93726678Y-30365236D01*
X101078583Y-30365236D01*
X101079899Y-30370392D01*
X101714188Y-31004681D01*
X101728132Y-31012295D01*
X101729965Y-31012164D01*
X101736580Y-31007913D01*
X102368361Y-30376132D01*
X102375121Y-30363752D01*
X102371932Y-30359492D01*
X102199012Y-30287866D01*
X102189627Y-30284817D01*
X101968446Y-30231715D01*
X101958699Y-30230172D01*
X101731930Y-30212325D01*
X101722070Y-30212325D01*
X101495301Y-30230172D01*
X101485554Y-30231715D01*
X101264373Y-30284817D01*
X101254988Y-30287866D01*
X101089564Y-30356387D01*
X101078583Y-30365236D01*
X93726678Y-30365236D01*
X93728225Y-30353715D01*
X93728226Y-30353707D01*
X93728652Y-30350533D01*
X93728772Y-30346715D01*
X93732509Y-30227822D01*
X93732509Y-30227817D01*
X93732610Y-30224600D01*
X93712601Y-29942007D01*
X93699204Y-29879777D01*
X93653911Y-29669400D01*
X93653911Y-29669398D01*
X93652975Y-29665053D01*
X93554920Y-29399263D01*
X93420393Y-29149940D01*
X93252078Y-28922060D01*
X93205554Y-28874799D01*
X93129293Y-28797331D01*
X93053334Y-28720170D01*
X93049794Y-28717469D01*
X93049788Y-28717463D01*
X92831667Y-28550998D01*
X92831663Y-28550995D01*
X92828126Y-28548296D01*
X92739998Y-28498942D01*
X92584837Y-28412048D01*
X92584832Y-28412045D01*
X92580947Y-28409870D01*
X92576789Y-28408262D01*
X92576784Y-28408259D01*
X92320885Y-28309259D01*
X92320879Y-28309257D01*
X92316730Y-28307652D01*
X92312398Y-28306648D01*
X92312395Y-28306647D01*
X92237141Y-28289204D01*
X92040747Y-28243682D01*
X91758503Y-28219237D01*
X91754068Y-28219481D01*
X91754064Y-28219481D01*
X91480073Y-28234560D01*
X91480066Y-28234561D01*
X91475630Y-28234805D01*
X91337743Y-28262232D01*
X91202146Y-28289204D01*
X91202141Y-28289205D01*
X91197774Y-28290074D01*
X91193571Y-28291550D01*
X90934684Y-28382464D01*
X90934681Y-28382465D01*
X90930476Y-28383942D01*
X90926523Y-28385995D01*
X90926517Y-28385998D01*
X90784135Y-28459960D01*
X90679072Y-28514536D01*
X90675457Y-28517119D01*
X90675451Y-28517123D01*
X90628048Y-28550998D01*
X90448576Y-28679251D01*
X90445349Y-28682329D01*
X90445347Y-28682331D01*
X90281796Y-28838351D01*
X90243588Y-28874799D01*
X90068199Y-29097280D01*
X90037612Y-29149940D01*
X89928141Y-29338407D01*
X89928138Y-29338413D01*
X89925907Y-29342254D01*
X89819552Y-29604832D01*
X89818481Y-29609145D01*
X89818479Y-29609150D01*
X89774947Y-29784400D01*
X89751255Y-29879777D01*
X89750801Y-29884205D01*
X89750801Y-29884207D01*
X89732640Y-30061459D01*
X89722380Y-30161602D01*
X70145007Y-30161602D01*
X70137601Y-30057007D01*
X70124204Y-29994777D01*
X70078911Y-29784400D01*
X70078911Y-29784398D01*
X70077975Y-29780053D01*
X69979920Y-29514263D01*
X69845393Y-29264940D01*
X69677078Y-29037060D01*
X69630554Y-28989799D01*
X69481465Y-28838351D01*
X69478334Y-28835170D01*
X69474794Y-28832469D01*
X69474788Y-28832463D01*
X69256667Y-28665998D01*
X69256663Y-28665995D01*
X69253126Y-28663296D01*
X69189179Y-28627484D01*
X69009837Y-28527048D01*
X69009832Y-28527045D01*
X69005947Y-28524870D01*
X69001789Y-28523262D01*
X69001784Y-28523259D01*
X68745885Y-28424259D01*
X68745879Y-28424257D01*
X68741730Y-28422652D01*
X68737398Y-28421648D01*
X68737395Y-28421647D01*
X68662141Y-28404204D01*
X68465747Y-28358682D01*
X68183503Y-28334237D01*
X68179068Y-28334481D01*
X68179064Y-28334481D01*
X67905073Y-28349560D01*
X67905066Y-28349561D01*
X67900630Y-28349805D01*
X67762743Y-28377232D01*
X67627146Y-28404204D01*
X67627141Y-28404205D01*
X67622774Y-28405074D01*
X67618571Y-28406550D01*
X67359684Y-28497464D01*
X67359681Y-28497465D01*
X67355476Y-28498942D01*
X67351523Y-28500995D01*
X67351517Y-28500998D01*
X67255264Y-28550998D01*
X67104072Y-28629536D01*
X67100457Y-28632119D01*
X67100451Y-28632123D01*
X66989037Y-28711742D01*
X66873576Y-28794251D01*
X66870349Y-28797329D01*
X66870347Y-28797331D01*
X66735832Y-28925652D01*
X66668588Y-28989799D01*
X66493199Y-29212280D01*
X66462612Y-29264940D01*
X66353141Y-29453407D01*
X66353138Y-29453413D01*
X66350907Y-29457254D01*
X66244552Y-29719832D01*
X66243481Y-29724145D01*
X66243479Y-29724150D01*
X66189363Y-29942007D01*
X66176255Y-29994777D01*
X66175801Y-29999205D01*
X66175801Y-29999207D01*
X66153208Y-30219715D01*
X66147380Y-30276602D01*
X53479789Y-30276602D01*
X53478012Y-30275866D01*
X53468627Y-30272817D01*
X53247446Y-30219715D01*
X53237699Y-30218172D01*
X53010930Y-30200325D01*
X53001070Y-30200325D01*
X52774301Y-30218172D01*
X52764554Y-30219715D01*
X52543373Y-30272817D01*
X52533988Y-30275866D01*
X52368564Y-30344387D01*
X52357583Y-30353236D01*
X50000000Y-30353236D01*
X50000000Y-27126000D01*
X50020002Y-27057879D01*
X50073658Y-27011386D01*
X50126000Y-27000000D01*
X55500000Y-27000000D01*
X55500000Y-25090666D01*
X55520002Y-25022545D01*
X55546365Y-24993023D01*
X55584965Y-24961542D01*
X55584969Y-24961538D01*
X55589909Y-24957509D01*
X55640072Y-24896003D01*
X55714341Y-24804940D01*
X55714342Y-24804939D01*
X55718373Y-24799996D01*
X55812541Y-24619870D01*
X55868566Y-24424487D01*
X55873501Y-24369197D01*
X55879051Y-24307009D01*
X55879051Y-24307003D01*
X55879300Y-24304216D01*
X55879300Y-23469019D01*
X55899302Y-23400898D01*
X55952958Y-23354405D01*
X56023232Y-23344301D01*
X56087812Y-23373795D01*
X56126196Y-23433521D01*
X56128266Y-23441533D01*
X56129552Y-23447286D01*
X56225245Y-23786585D01*
X56227487Y-23793136D01*
X56359839Y-24119894D01*
X56362788Y-24126162D01*
X56530197Y-24436426D01*
X56533811Y-24442325D01*
X56734265Y-24732358D01*
X56738495Y-24737810D01*
X56969562Y-25004091D01*
X56974375Y-25009058D01*
X57233267Y-25248375D01*
X57238595Y-25252782D01*
X57522176Y-25462239D01*
X57527959Y-25466038D01*
X57832809Y-25643109D01*
X57838992Y-25646259D01*
X58161409Y-25788798D01*
X58167913Y-25791256D01*
X58504042Y-25897560D01*
X58510740Y-25899279D01*
X58803030Y-25957419D01*
X58815906Y-25956267D01*
X58820800Y-25941114D01*
X58820800Y-25940481D01*
X59820800Y-25940481D01*
X59824828Y-25954200D01*
X59838458Y-25956224D01*
X59930286Y-25943890D01*
X59937080Y-25942594D01*
X60279238Y-25857601D01*
X60285845Y-25855568D01*
X60616605Y-25733545D01*
X60622958Y-25730796D01*
X60938342Y-25573208D01*
X60944327Y-25569794D01*
X61240516Y-25378547D01*
X61246114Y-25374480D01*
X61519519Y-25151894D01*
X61524632Y-25147241D01*
X61771953Y-24896003D01*
X61776536Y-24890806D01*
X61994794Y-24613946D01*
X61998779Y-24608276D01*
X62185328Y-24309153D01*
X62188676Y-24303065D01*
X62341276Y-23985275D01*
X62343930Y-23978869D01*
X62460737Y-23646252D01*
X62462673Y-23639588D01*
X62542280Y-23296137D01*
X62543466Y-23289348D01*
X62584992Y-22938490D01*
X62585398Y-22933062D01*
X62586768Y-22889450D01*
X62586800Y-22887426D01*
X62586800Y-22006515D01*
X62582325Y-21991276D01*
X62580935Y-21990071D01*
X62573252Y-21988400D01*
X59838915Y-21988400D01*
X59823676Y-21992875D01*
X59822471Y-21994265D01*
X59820800Y-22001948D01*
X59820800Y-25940481D01*
X58820800Y-25940481D01*
X58820800Y-20970285D01*
X59820800Y-20970285D01*
X59825275Y-20985524D01*
X59826665Y-20986729D01*
X59834348Y-20988400D01*
X62568685Y-20988400D01*
X62583924Y-20983925D01*
X62585129Y-20982535D01*
X62586800Y-20974852D01*
X62586800Y-20157891D01*
X62586705Y-20154414D01*
X62572204Y-19890925D01*
X62571443Y-19884038D01*
X62513560Y-19536273D01*
X62512053Y-19529532D01*
X62416355Y-19190215D01*
X62414113Y-19183664D01*
X62281761Y-18856906D01*
X62278812Y-18850638D01*
X62111403Y-18540374D01*
X62107789Y-18534475D01*
X61907335Y-18244442D01*
X61903105Y-18238990D01*
X61672038Y-17972709D01*
X61667225Y-17967742D01*
X61408333Y-17728425D01*
X61403005Y-17724018D01*
X61119424Y-17514561D01*
X61113641Y-17510762D01*
X60808791Y-17333691D01*
X60802608Y-17330541D01*
X60480191Y-17188002D01*
X60473687Y-17185544D01*
X60137558Y-17079240D01*
X60130860Y-17077521D01*
X59838570Y-17019381D01*
X59825694Y-17020533D01*
X59820800Y-17035686D01*
X59820800Y-20970285D01*
X58820800Y-20970285D01*
X58820800Y-17036319D01*
X58816772Y-17022600D01*
X58803142Y-17020576D01*
X58711314Y-17032910D01*
X58704520Y-17034206D01*
X58362362Y-17119199D01*
X58355755Y-17121232D01*
X58024995Y-17243255D01*
X58018642Y-17246004D01*
X57703258Y-17403592D01*
X57697273Y-17407006D01*
X57401084Y-17598253D01*
X57395486Y-17602320D01*
X57122081Y-17824906D01*
X57116968Y-17829559D01*
X56869647Y-18080797D01*
X56865064Y-18085994D01*
X56646806Y-18362854D01*
X56642821Y-18368524D01*
X56456272Y-18667647D01*
X56452924Y-18673735D01*
X56300324Y-18991525D01*
X56297670Y-18997931D01*
X56180863Y-19330548D01*
X56178927Y-19337212D01*
X56128046Y-19556728D01*
X56093179Y-19618573D01*
X56030411Y-19651749D01*
X55959670Y-19645725D01*
X55903417Y-19602411D01*
X55879511Y-19535560D01*
X55879300Y-19528277D01*
X55879300Y-18672584D01*
X55878860Y-18667647D01*
X55869099Y-18558286D01*
X55868566Y-18552313D01*
X55812541Y-18356930D01*
X55718373Y-18176804D01*
X55644311Y-18085994D01*
X55593938Y-18024231D01*
X55589909Y-18019291D01*
X55584969Y-18015262D01*
X55584965Y-18015258D01*
X55546365Y-17983777D01*
X55506217Y-17925223D01*
X55500000Y-17886134D01*
X55500000Y-16126000D01*
X55520002Y-16057879D01*
X55573658Y-16011386D01*
X55626000Y-16000000D01*
X64874000Y-16000000D01*
X64942121Y-16020002D01*
G37*
%TD.AperFunction*%
%TD*%
%TA.AperFunction,Conductor*%
%TO.N,Net-(F2-Pad2)*%
G36*
X83942121Y-51520002D02*
G01*
X83988614Y-51573658D01*
X84000000Y-51626000D01*
X84000000Y-66060002D01*
X83996123Y-66091017D01*
X83971881Y-66186470D01*
X83945070Y-66452736D01*
X83957909Y-66720041D01*
X83958822Y-66724629D01*
X83997579Y-66919475D01*
X84000000Y-66944056D01*
X84000000Y-68000000D01*
X84709421Y-68000000D01*
X84777542Y-68020002D01*
X84783920Y-68024384D01*
X84793205Y-68031192D01*
X84797340Y-68033368D01*
X84797344Y-68033370D01*
X84926918Y-68101542D01*
X85030039Y-68155797D01*
X85034458Y-68157340D01*
X85278273Y-68242484D01*
X85278279Y-68242486D01*
X85282690Y-68244026D01*
X85545606Y-68293943D01*
X85672616Y-68298933D01*
X85808345Y-68304266D01*
X85808350Y-68304266D01*
X85813013Y-68304449D01*
X85908943Y-68293943D01*
X86074382Y-68275825D01*
X86074387Y-68275824D01*
X86079035Y-68275315D01*
X86194567Y-68244898D01*
X86333309Y-68208370D01*
X86337829Y-68207180D01*
X86526782Y-68126000D01*
X86579407Y-68103391D01*
X86579410Y-68103389D01*
X86583710Y-68101542D01*
X86717329Y-68018856D01*
X86783631Y-68000000D01*
X95374000Y-68000000D01*
X95442121Y-68020002D01*
X95488614Y-68073658D01*
X95500000Y-68126000D01*
X95500000Y-84374000D01*
X95479998Y-84442121D01*
X95426342Y-84488614D01*
X95374000Y-84500000D01*
X94688689Y-84500000D01*
X94642307Y-84491152D01*
X94627225Y-84485181D01*
X94623395Y-84484198D01*
X94623387Y-84484195D01*
X94431599Y-84434953D01*
X94322473Y-84406934D01*
X94318545Y-84406438D01*
X94318541Y-84406437D01*
X94194625Y-84390783D01*
X94010318Y-84367500D01*
X93695682Y-84367500D01*
X93511375Y-84390783D01*
X93387459Y-84406437D01*
X93387455Y-84406438D01*
X93383527Y-84406934D01*
X93274401Y-84434953D01*
X93082613Y-84484195D01*
X93082605Y-84484198D01*
X93078775Y-84485181D01*
X93063693Y-84491152D01*
X93017311Y-84500000D01*
X92000000Y-84500000D01*
X92000000Y-85139708D01*
X91979998Y-85207829D01*
X91971085Y-85220024D01*
X91826053Y-85395337D01*
X91657463Y-85660993D01*
X91655779Y-85664572D01*
X91655775Y-85664579D01*
X91581483Y-85822458D01*
X91523497Y-85945685D01*
X91426269Y-86244921D01*
X91367312Y-86553985D01*
X91347556Y-86868000D01*
X91367312Y-87182015D01*
X91426269Y-87491079D01*
X91523497Y-87790315D01*
X91525184Y-87793901D01*
X91525186Y-87793905D01*
X91655775Y-88071421D01*
X91655779Y-88071428D01*
X91657463Y-88075007D01*
X91826053Y-88340663D01*
X91828578Y-88343715D01*
X91971085Y-88515976D01*
X91999095Y-88581214D01*
X92000000Y-88596292D01*
X92000000Y-91374000D01*
X91979998Y-91442121D01*
X91926342Y-91488614D01*
X91874000Y-91500000D01*
X85626000Y-91500000D01*
X85557879Y-91479998D01*
X85511386Y-91426342D01*
X85500000Y-91374000D01*
X85500000Y-88412669D01*
X86765001Y-88412669D01*
X86765371Y-88419490D01*
X86770895Y-88470352D01*
X86774521Y-88485604D01*
X86819676Y-88606054D01*
X86828214Y-88621649D01*
X86904715Y-88723724D01*
X86917276Y-88736285D01*
X87019351Y-88812786D01*
X87034946Y-88821324D01*
X87155394Y-88866478D01*
X87170649Y-88870105D01*
X87221514Y-88875631D01*
X87228328Y-88876000D01*
X88254885Y-88876000D01*
X88270124Y-88871525D01*
X88271329Y-88870135D01*
X88273000Y-88862452D01*
X88273000Y-88857884D01*
X89273000Y-88857884D01*
X89277475Y-88873123D01*
X89278865Y-88874328D01*
X89286548Y-88875999D01*
X90317669Y-88875999D01*
X90324490Y-88875629D01*
X90375352Y-88870105D01*
X90390604Y-88866479D01*
X90511054Y-88821324D01*
X90526649Y-88812786D01*
X90628724Y-88736285D01*
X90641285Y-88723724D01*
X90717786Y-88621649D01*
X90726324Y-88606054D01*
X90771478Y-88485606D01*
X90775105Y-88470351D01*
X90780631Y-88419486D01*
X90781000Y-88412672D01*
X90781000Y-87386115D01*
X90776525Y-87370876D01*
X90775135Y-87369671D01*
X90767452Y-87368000D01*
X89291115Y-87368000D01*
X89275876Y-87372475D01*
X89274671Y-87373865D01*
X89273000Y-87381548D01*
X89273000Y-88857884D01*
X88273000Y-88857884D01*
X88273000Y-87386115D01*
X88268525Y-87370876D01*
X88267135Y-87369671D01*
X88259452Y-87368000D01*
X86783116Y-87368000D01*
X86767877Y-87372475D01*
X86766672Y-87373865D01*
X86765001Y-87381548D01*
X86765001Y-88412669D01*
X85500000Y-88412669D01*
X85500000Y-86349885D01*
X86765000Y-86349885D01*
X86769475Y-86365124D01*
X86770865Y-86366329D01*
X86778548Y-86368000D01*
X88254885Y-86368000D01*
X88270124Y-86363525D01*
X88271329Y-86362135D01*
X88273000Y-86354452D01*
X88273000Y-86349885D01*
X89273000Y-86349885D01*
X89277475Y-86365124D01*
X89278865Y-86366329D01*
X89286548Y-86368000D01*
X90762884Y-86368000D01*
X90778123Y-86363525D01*
X90779328Y-86362135D01*
X90780999Y-86354452D01*
X90780999Y-85323331D01*
X90780629Y-85316510D01*
X90775105Y-85265648D01*
X90771479Y-85250396D01*
X90726324Y-85129946D01*
X90717786Y-85114351D01*
X90641285Y-85012276D01*
X90628724Y-84999715D01*
X90526649Y-84923214D01*
X90511054Y-84914676D01*
X90390606Y-84869522D01*
X90375351Y-84865895D01*
X90324486Y-84860369D01*
X90317672Y-84860000D01*
X89291115Y-84860000D01*
X89275876Y-84864475D01*
X89274671Y-84865865D01*
X89273000Y-84873548D01*
X89273000Y-86349885D01*
X88273000Y-86349885D01*
X88273000Y-84878116D01*
X88268525Y-84862877D01*
X88267135Y-84861672D01*
X88259452Y-84860001D01*
X87228331Y-84860001D01*
X87221510Y-84860371D01*
X87170648Y-84865895D01*
X87155396Y-84869521D01*
X87034946Y-84914676D01*
X87019351Y-84923214D01*
X86917276Y-84999715D01*
X86904715Y-85012276D01*
X86828214Y-85114351D01*
X86819676Y-85129946D01*
X86774522Y-85250394D01*
X86770895Y-85265649D01*
X86765369Y-85316514D01*
X86765000Y-85323328D01*
X86765000Y-86349885D01*
X85500000Y-86349885D01*
X85500000Y-84500000D01*
X82299401Y-84500000D01*
X82238700Y-84484415D01*
X82223228Y-84475909D01*
X82223225Y-84475907D01*
X82219766Y-84474006D01*
X82049106Y-84406437D01*
X81930908Y-84359639D01*
X81930905Y-84359638D01*
X81927225Y-84358181D01*
X81923391Y-84357197D01*
X81923383Y-84357194D01*
X81734926Y-84308807D01*
X81622473Y-84279934D01*
X81618545Y-84279438D01*
X81618541Y-84279437D01*
X81494625Y-84263783D01*
X81310318Y-84240500D01*
X80995682Y-84240500D01*
X80811375Y-84263783D01*
X80687459Y-84279437D01*
X80687455Y-84279438D01*
X80683527Y-84279934D01*
X80571074Y-84308807D01*
X80382617Y-84357194D01*
X80382609Y-84357197D01*
X80378775Y-84358181D01*
X80375095Y-84359638D01*
X80375092Y-84359639D01*
X80256894Y-84406437D01*
X80086234Y-84474006D01*
X80082775Y-84475907D01*
X80082772Y-84475909D01*
X80067300Y-84484415D01*
X80006599Y-84500000D01*
X79000000Y-84500000D01*
X79000000Y-85430358D01*
X78980385Y-85497872D01*
X78959589Y-85530641D01*
X78959581Y-85530656D01*
X78957463Y-85533993D01*
X78823497Y-85818685D01*
X78726269Y-86117921D01*
X78667312Y-86426985D01*
X78647556Y-86741000D01*
X78667312Y-87055015D01*
X78726269Y-87364079D01*
X78823497Y-87663315D01*
X78825184Y-87666901D01*
X78825186Y-87666905D01*
X78881483Y-87786542D01*
X78957463Y-87948007D01*
X78959581Y-87951344D01*
X78959589Y-87951359D01*
X78980385Y-87984128D01*
X79000000Y-88051642D01*
X79000000Y-91374000D01*
X78979998Y-91442121D01*
X78926342Y-91488614D01*
X78874000Y-91500000D01*
X73626000Y-91500000D01*
X73557879Y-91479998D01*
X73511386Y-91426342D01*
X73500000Y-91374000D01*
X73500000Y-88285669D01*
X74065001Y-88285669D01*
X74065371Y-88292490D01*
X74070895Y-88343352D01*
X74074521Y-88358604D01*
X74119676Y-88479054D01*
X74128214Y-88494649D01*
X74204715Y-88596724D01*
X74217276Y-88609285D01*
X74319351Y-88685786D01*
X74334946Y-88694324D01*
X74455394Y-88739478D01*
X74470649Y-88743105D01*
X74521514Y-88748631D01*
X74528328Y-88749000D01*
X75554885Y-88749000D01*
X75570124Y-88744525D01*
X75571329Y-88743135D01*
X75573000Y-88735452D01*
X75573000Y-88730884D01*
X76573000Y-88730884D01*
X76577475Y-88746123D01*
X76578865Y-88747328D01*
X76586548Y-88748999D01*
X77617669Y-88748999D01*
X77624490Y-88748629D01*
X77675352Y-88743105D01*
X77690604Y-88739479D01*
X77811054Y-88694324D01*
X77826649Y-88685786D01*
X77928724Y-88609285D01*
X77941285Y-88596724D01*
X78017786Y-88494649D01*
X78026324Y-88479054D01*
X78071478Y-88358606D01*
X78075105Y-88343351D01*
X78080631Y-88292486D01*
X78081000Y-88285672D01*
X78081000Y-87259115D01*
X78076525Y-87243876D01*
X78075135Y-87242671D01*
X78067452Y-87241000D01*
X76591115Y-87241000D01*
X76575876Y-87245475D01*
X76574671Y-87246865D01*
X76573000Y-87254548D01*
X76573000Y-88730884D01*
X75573000Y-88730884D01*
X75573000Y-87259115D01*
X75568525Y-87243876D01*
X75567135Y-87242671D01*
X75559452Y-87241000D01*
X74083116Y-87241000D01*
X74067877Y-87245475D01*
X74066672Y-87246865D01*
X74065001Y-87254548D01*
X74065001Y-88285669D01*
X73500000Y-88285669D01*
X73500000Y-86222885D01*
X74065000Y-86222885D01*
X74069475Y-86238124D01*
X74070865Y-86239329D01*
X74078548Y-86241000D01*
X75554885Y-86241000D01*
X75570124Y-86236525D01*
X75571329Y-86235135D01*
X75573000Y-86227452D01*
X75573000Y-86222885D01*
X76573000Y-86222885D01*
X76577475Y-86238124D01*
X76578865Y-86239329D01*
X76586548Y-86241000D01*
X78062884Y-86241000D01*
X78078123Y-86236525D01*
X78079328Y-86235135D01*
X78080999Y-86227452D01*
X78080999Y-85196331D01*
X78080629Y-85189510D01*
X78075105Y-85138648D01*
X78071479Y-85123396D01*
X78026324Y-85002946D01*
X78017786Y-84987351D01*
X77941285Y-84885276D01*
X77928724Y-84872715D01*
X77826649Y-84796214D01*
X77811054Y-84787676D01*
X77690606Y-84742522D01*
X77675351Y-84738895D01*
X77624486Y-84733369D01*
X77617672Y-84733000D01*
X76591115Y-84733000D01*
X76575876Y-84737475D01*
X76574671Y-84738865D01*
X76573000Y-84746548D01*
X76573000Y-86222885D01*
X75573000Y-86222885D01*
X75573000Y-84751116D01*
X75568525Y-84735877D01*
X75567135Y-84734672D01*
X75559452Y-84733001D01*
X74528331Y-84733001D01*
X74521510Y-84733371D01*
X74470648Y-84738895D01*
X74455396Y-84742521D01*
X74334946Y-84787676D01*
X74319351Y-84796214D01*
X74217276Y-84872715D01*
X74204715Y-84885276D01*
X74128214Y-84987351D01*
X74119676Y-85002946D01*
X74074522Y-85123394D01*
X74070895Y-85138649D01*
X74065369Y-85189514D01*
X74065000Y-85196328D01*
X74065000Y-86222885D01*
X73500000Y-86222885D01*
X73500000Y-79931500D01*
X73520002Y-79863379D01*
X73573658Y-79816886D01*
X73626000Y-79805500D01*
X88874000Y-79805500D01*
X89087729Y-79782522D01*
X89091013Y-79781808D01*
X89091017Y-79781807D01*
X89138641Y-79771447D01*
X89140071Y-79771136D01*
X89231766Y-79746605D01*
X89236048Y-79744744D01*
X89236051Y-79744743D01*
X89333954Y-79702194D01*
X89418356Y-79665513D01*
X89584803Y-79548522D01*
X89638459Y-79502029D01*
X89640277Y-79500168D01*
X89640284Y-79500162D01*
X89750807Y-79387063D01*
X89750809Y-79387061D01*
X89754868Y-79382907D01*
X89758098Y-79378079D01*
X89761758Y-79373569D01*
X89762743Y-79374368D01*
X89812352Y-79332961D01*
X89882800Y-79324156D01*
X89946825Y-79354836D01*
X89970001Y-79382685D01*
X90048877Y-79511399D01*
X90215044Y-79705956D01*
X90409601Y-79872123D01*
X90627757Y-80005809D01*
X90632327Y-80007702D01*
X90632331Y-80007704D01*
X90859567Y-80101828D01*
X90864140Y-80103722D01*
X90952157Y-80124853D01*
X91108117Y-80162297D01*
X91108123Y-80162298D01*
X91112930Y-80163452D01*
X91201569Y-80170428D01*
X91301680Y-80178307D01*
X91301689Y-80178307D01*
X91304137Y-80178500D01*
X91992721Y-80178500D01*
X92681862Y-80178499D01*
X92684308Y-80178307D01*
X92684321Y-80178306D01*
X92816417Y-80167910D01*
X92873070Y-80163452D01*
X93121860Y-80103722D01*
X93126433Y-80101828D01*
X93353669Y-80007704D01*
X93353673Y-80007702D01*
X93358243Y-80005809D01*
X93576399Y-79872123D01*
X93770956Y-79705956D01*
X93937123Y-79511399D01*
X94070809Y-79293243D01*
X94103712Y-79213810D01*
X94166828Y-79061433D01*
X94166829Y-79061431D01*
X94168722Y-79056860D01*
X94189853Y-78968843D01*
X94227297Y-78812883D01*
X94227298Y-78812877D01*
X94228452Y-78808070D01*
X94243500Y-78616863D01*
X94243499Y-76239138D01*
X94243307Y-76236692D01*
X94243306Y-76236679D01*
X94228840Y-76052863D01*
X94228452Y-76047930D01*
X94168722Y-75799140D01*
X94070809Y-75562757D01*
X93937123Y-75344601D01*
X93770956Y-75150044D01*
X93576399Y-74983877D01*
X93358243Y-74850191D01*
X93353673Y-74848298D01*
X93353669Y-74848296D01*
X93126433Y-74754172D01*
X93126431Y-74754171D01*
X93121860Y-74752278D01*
X93033843Y-74731147D01*
X92877883Y-74693703D01*
X92877877Y-74693702D01*
X92873070Y-74692548D01*
X92784431Y-74685572D01*
X92684320Y-74677693D01*
X92684311Y-74677693D01*
X92681863Y-74677500D01*
X91993279Y-74677500D01*
X91304138Y-74677501D01*
X91301692Y-74677693D01*
X91301679Y-74677694D01*
X91169583Y-74688090D01*
X91112930Y-74692548D01*
X90864140Y-74752278D01*
X90859569Y-74754171D01*
X90859567Y-74754172D01*
X90632331Y-74848296D01*
X90632327Y-74848298D01*
X90627757Y-74850191D01*
X90409601Y-74983877D01*
X90215044Y-75150044D01*
X90213896Y-75148700D01*
X90158283Y-75179068D01*
X90087468Y-75174003D01*
X90030632Y-75131456D01*
X90005821Y-75064936D01*
X90005500Y-75055947D01*
X90005500Y-71926000D01*
X90000722Y-71881557D01*
X90000000Y-71868089D01*
X90000000Y-71000000D01*
X89553708Y-71000000D01*
X89483646Y-70978725D01*
X89419120Y-70935556D01*
X89419117Y-70935554D01*
X89413810Y-70932004D01*
X89225401Y-70855231D01*
X89157280Y-70835229D01*
X89155999Y-70834910D01*
X89155992Y-70834908D01*
X89119582Y-70825838D01*
X89076406Y-70815083D01*
X88997498Y-70807059D01*
X88877179Y-70794823D01*
X88877174Y-70794823D01*
X88874000Y-70794500D01*
X80626000Y-70794500D01*
X80557879Y-70774498D01*
X80511386Y-70720842D01*
X80500000Y-70668500D01*
X80500000Y-58500000D01*
X58626000Y-58500000D01*
X58557879Y-58479998D01*
X58511386Y-58426342D01*
X58500000Y-58374000D01*
X58500000Y-57116494D01*
X58520002Y-57048373D01*
X58573658Y-57001880D01*
X58643932Y-56991776D01*
X58708512Y-57021270D01*
X58719193Y-57031694D01*
X58823652Y-57146493D01*
X58831185Y-57153518D01*
X59014452Y-57298254D01*
X59023030Y-57303953D01*
X59227474Y-57416811D01*
X59236874Y-57421036D01*
X59324925Y-57452216D01*
X59339005Y-57452988D01*
X59342000Y-57447278D01*
X59342000Y-57440749D01*
X60342000Y-57440749D01*
X60345973Y-57454280D01*
X60352954Y-57455284D01*
X60413742Y-57435415D01*
X60423244Y-57431420D01*
X60630375Y-57323595D01*
X60639100Y-57318101D01*
X60825842Y-57177891D01*
X60833549Y-57171048D01*
X60994887Y-57002218D01*
X61001373Y-56994208D01*
X61132964Y-56801302D01*
X61138057Y-56792338D01*
X61236381Y-56580517D01*
X61239938Y-56570849D01*
X61302343Y-56345822D01*
X61304274Y-56335702D01*
X61324644Y-56145100D01*
X61325000Y-56138408D01*
X61325000Y-55605115D01*
X61320525Y-55589876D01*
X61319135Y-55588671D01*
X61311452Y-55587000D01*
X60360115Y-55587000D01*
X60344876Y-55591475D01*
X60343671Y-55592865D01*
X60342000Y-55600548D01*
X60342000Y-57440749D01*
X59342000Y-57440749D01*
X59342000Y-54568885D01*
X60342000Y-54568885D01*
X60346475Y-54584124D01*
X60347865Y-54585329D01*
X60355548Y-54587000D01*
X61306885Y-54587000D01*
X61322124Y-54582525D01*
X61323329Y-54581135D01*
X61325000Y-54573452D01*
X61325000Y-54052764D01*
X61324788Y-54047591D01*
X61310525Y-53874108D01*
X61308842Y-53863946D01*
X61251952Y-53637453D01*
X61248634Y-53627706D01*
X61155513Y-53413542D01*
X61150646Y-53404467D01*
X61023803Y-53208396D01*
X61017512Y-53200227D01*
X60860348Y-53027507D01*
X60852815Y-53020482D01*
X60669548Y-52875746D01*
X60660970Y-52870047D01*
X60456526Y-52757189D01*
X60447126Y-52752964D01*
X60359075Y-52721784D01*
X60344995Y-52721012D01*
X60342000Y-52726722D01*
X60342000Y-54568885D01*
X59342000Y-54568885D01*
X59342000Y-52733251D01*
X59338027Y-52719720D01*
X59331046Y-52718716D01*
X59270258Y-52738585D01*
X59260756Y-52742580D01*
X59053625Y-52850405D01*
X59044900Y-52855899D01*
X58858158Y-52996109D01*
X58850451Y-53002952D01*
X58717094Y-53142502D01*
X58655570Y-53177932D01*
X58584657Y-53174475D01*
X58526871Y-53133229D01*
X58500557Y-53067289D01*
X58500000Y-53055451D01*
X58500000Y-51626000D01*
X58520002Y-51557879D01*
X58573658Y-51511386D01*
X58626000Y-51500000D01*
X83874000Y-51500000D01*
X83942121Y-51520002D01*
G37*
%TD.AperFunction*%
%TD*%
%TA.AperFunction,Conductor*%
%TO.N,Net-(F3-Pad2)*%
G36*
X74342121Y-69820002D02*
G01*
X74388614Y-69873658D01*
X74400000Y-69926000D01*
X74400000Y-71800000D01*
X88874000Y-71800000D01*
X88942121Y-71820002D01*
X88988614Y-71873658D01*
X89000000Y-71926000D01*
X89000000Y-78674000D01*
X88979998Y-78742121D01*
X88926342Y-78788614D01*
X88874000Y-78800000D01*
X72200000Y-78800000D01*
X72200000Y-82274000D01*
X72179998Y-82342121D01*
X72126342Y-82388614D01*
X72074000Y-82400000D01*
X62526000Y-82400000D01*
X62457879Y-82379998D01*
X62411386Y-82326342D01*
X62400000Y-82274000D01*
X62400000Y-76512236D01*
X85331000Y-76512236D01*
X85331212Y-76517409D01*
X85345475Y-76690892D01*
X85347158Y-76701054D01*
X85404048Y-76927547D01*
X85407366Y-76937294D01*
X85500487Y-77151458D01*
X85505354Y-77160533D01*
X85632197Y-77356604D01*
X85638488Y-77364773D01*
X85795652Y-77537493D01*
X85803185Y-77544518D01*
X85986452Y-77689254D01*
X85995030Y-77694953D01*
X86199474Y-77807811D01*
X86208874Y-77812036D01*
X86296925Y-77843216D01*
X86311005Y-77843988D01*
X86314000Y-77838278D01*
X86314000Y-77831749D01*
X87314000Y-77831749D01*
X87317973Y-77845280D01*
X87324954Y-77846284D01*
X87385742Y-77826415D01*
X87395244Y-77822420D01*
X87602375Y-77714595D01*
X87611100Y-77709101D01*
X87797842Y-77568891D01*
X87805549Y-77562048D01*
X87966887Y-77393218D01*
X87973373Y-77385208D01*
X88104964Y-77192302D01*
X88110057Y-77183338D01*
X88208381Y-76971517D01*
X88211938Y-76961849D01*
X88274343Y-76736822D01*
X88276274Y-76726702D01*
X88296644Y-76536100D01*
X88297000Y-76529408D01*
X88297000Y-75996115D01*
X88292525Y-75980876D01*
X88291135Y-75979671D01*
X88283452Y-75978000D01*
X87332115Y-75978000D01*
X87316876Y-75982475D01*
X87315671Y-75983865D01*
X87314000Y-75991548D01*
X87314000Y-77831749D01*
X86314000Y-77831749D01*
X86314000Y-75996115D01*
X86309525Y-75980876D01*
X86308135Y-75979671D01*
X86300452Y-75978000D01*
X85349115Y-75978000D01*
X85333876Y-75982475D01*
X85332671Y-75983865D01*
X85331000Y-75991548D01*
X85331000Y-76512236D01*
X62400000Y-76512236D01*
X62400000Y-74959885D01*
X85331000Y-74959885D01*
X85335475Y-74975124D01*
X85336865Y-74976329D01*
X85344548Y-74978000D01*
X86295885Y-74978000D01*
X86311124Y-74973525D01*
X86312329Y-74972135D01*
X86314000Y-74964452D01*
X86314000Y-74959885D01*
X87314000Y-74959885D01*
X87318475Y-74975124D01*
X87319865Y-74976329D01*
X87327548Y-74978000D01*
X88278885Y-74978000D01*
X88294124Y-74973525D01*
X88295329Y-74972135D01*
X88297000Y-74964452D01*
X88297000Y-74443764D01*
X88296788Y-74438591D01*
X88282525Y-74265108D01*
X88280842Y-74254946D01*
X88223952Y-74028453D01*
X88220634Y-74018706D01*
X88127513Y-73804542D01*
X88122646Y-73795467D01*
X87995803Y-73599396D01*
X87989512Y-73591227D01*
X87832348Y-73418507D01*
X87824815Y-73411482D01*
X87641548Y-73266746D01*
X87632970Y-73261047D01*
X87428526Y-73148189D01*
X87419126Y-73143964D01*
X87331075Y-73112784D01*
X87316995Y-73112012D01*
X87314000Y-73117722D01*
X87314000Y-74959885D01*
X86314000Y-74959885D01*
X86314000Y-73124251D01*
X86310027Y-73110720D01*
X86303046Y-73109716D01*
X86242258Y-73129585D01*
X86232756Y-73133580D01*
X86025625Y-73241405D01*
X86016900Y-73246899D01*
X85830158Y-73387109D01*
X85822451Y-73393952D01*
X85661113Y-73562782D01*
X85654627Y-73570792D01*
X85523036Y-73763698D01*
X85517943Y-73772662D01*
X85419619Y-73984483D01*
X85416062Y-73994151D01*
X85353657Y-74219178D01*
X85351726Y-74229298D01*
X85331356Y-74419900D01*
X85331000Y-74426592D01*
X85331000Y-74959885D01*
X62400000Y-74959885D01*
X62400000Y-70926000D01*
X62420002Y-70857879D01*
X62473658Y-70811386D01*
X62526000Y-70800000D01*
X72400000Y-70800000D01*
X72400000Y-69926000D01*
X72420002Y-69857879D01*
X72473658Y-69811386D01*
X72526000Y-69800000D01*
X74274000Y-69800000D01*
X74342121Y-69820002D01*
G37*
%TD.AperFunction*%
%TD*%
%TA.AperFunction,Conductor*%
%TO.N,GND*%
G36*
X54544380Y-15528502D02*
G01*
X54590873Y-15582158D01*
X54600977Y-15652432D01*
X54592944Y-15682047D01*
X54557825Y-15768234D01*
X54555231Y-15774599D01*
X54535229Y-15842720D01*
X54515083Y-15923594D01*
X54514628Y-15928070D01*
X54494841Y-16122651D01*
X54494500Y-16126000D01*
X54494500Y-17886134D01*
X54506981Y-18044071D01*
X54507370Y-18046515D01*
X54507371Y-18046526D01*
X54512156Y-18076609D01*
X54503102Y-18147026D01*
X54457415Y-18201370D01*
X54387720Y-18222400D01*
X52638915Y-18222400D01*
X52623676Y-18226875D01*
X52622471Y-18228265D01*
X52620800Y-18235948D01*
X52620800Y-24736284D01*
X52625275Y-24751523D01*
X52626665Y-24752728D01*
X52634348Y-24754399D01*
X54389232Y-24754399D01*
X54457353Y-24774401D01*
X54503846Y-24828057D01*
X54514586Y-24893146D01*
X54500073Y-25035867D01*
X54494500Y-25090666D01*
X54494500Y-25868500D01*
X54474498Y-25936621D01*
X54420842Y-25983114D01*
X54368500Y-25994500D01*
X50126000Y-25994500D01*
X49912271Y-26017478D01*
X49908987Y-26018192D01*
X49908983Y-26018193D01*
X49871958Y-26026247D01*
X49859929Y-26028864D01*
X49768234Y-26053395D01*
X49763952Y-26055256D01*
X49763949Y-26055257D01*
X49709401Y-26078964D01*
X49581644Y-26134487D01*
X49576420Y-26138159D01*
X49428823Y-26241901D01*
X49415197Y-26251478D01*
X49361541Y-26297971D01*
X49359723Y-26299832D01*
X49359716Y-26299838D01*
X49249343Y-26412784D01*
X49245132Y-26417093D01*
X49132004Y-26586190D01*
X49055231Y-26774599D01*
X49035229Y-26842720D01*
X49015083Y-26923594D01*
X49014628Y-26928070D01*
X48994841Y-27122651D01*
X48994500Y-27126000D01*
X48994500Y-42874000D01*
X49017478Y-43087729D01*
X49028864Y-43140071D01*
X49053395Y-43231766D01*
X49134487Y-43418356D01*
X49251478Y-43584803D01*
X49297971Y-43638459D01*
X49299832Y-43640277D01*
X49299838Y-43640284D01*
X49410160Y-43748093D01*
X49417093Y-43754868D01*
X49421920Y-43758097D01*
X49421922Y-43758099D01*
X49580880Y-43864444D01*
X49580883Y-43864446D01*
X49586190Y-43867996D01*
X49725649Y-43924823D01*
X49770879Y-43943253D01*
X49774599Y-43944769D01*
X49842720Y-43964771D01*
X49844001Y-43965090D01*
X49844008Y-43965092D01*
X49869520Y-43971447D01*
X49923594Y-43984917D01*
X50002502Y-43992941D01*
X50122821Y-44005177D01*
X50122826Y-44005177D01*
X50126000Y-44005500D01*
X63874000Y-44005500D01*
X64087729Y-43982522D01*
X64091013Y-43981808D01*
X64091017Y-43981807D01*
X64138641Y-43971447D01*
X64140071Y-43971136D01*
X64231766Y-43946605D01*
X64236048Y-43944744D01*
X64236051Y-43944743D01*
X64347134Y-43896466D01*
X64418356Y-43865513D01*
X64557627Y-43767623D01*
X64582191Y-43750358D01*
X64582192Y-43750357D01*
X64584803Y-43748522D01*
X64638459Y-43702029D01*
X64640277Y-43700168D01*
X64640284Y-43700162D01*
X64750807Y-43587063D01*
X64750809Y-43587061D01*
X64754868Y-43582907D01*
X64801707Y-43512895D01*
X64864444Y-43419120D01*
X64864446Y-43419117D01*
X64867996Y-43413810D01*
X64944769Y-43225401D01*
X64964771Y-43157280D01*
X64984917Y-43076406D01*
X65000972Y-42918529D01*
X65005177Y-42877179D01*
X65005177Y-42877174D01*
X65005500Y-42874000D01*
X65005500Y-41816020D01*
X67269707Y-41816020D01*
X67274173Y-41821986D01*
X67377892Y-41876555D01*
X67386441Y-41880272D01*
X67617282Y-41960885D01*
X67626291Y-41963299D01*
X67866518Y-42008908D01*
X67875775Y-42009962D01*
X68120107Y-42019563D01*
X68129420Y-42019237D01*
X68372478Y-41992618D01*
X68381655Y-41990917D01*
X68618107Y-41928665D01*
X68626926Y-41925628D01*
X68851582Y-41829108D01*
X68854648Y-41827512D01*
X68863033Y-41818163D01*
X68859146Y-41809253D01*
X68077812Y-41027919D01*
X68063868Y-41020305D01*
X68062035Y-41020436D01*
X68055420Y-41024687D01*
X67276467Y-41803640D01*
X67269707Y-41816020D01*
X65005500Y-41816020D01*
X65005500Y-40267835D01*
X66353022Y-40267835D01*
X66364754Y-40512064D01*
X66365891Y-40521324D01*
X66413593Y-40761143D01*
X66416082Y-40770118D01*
X66498708Y-41000250D01*
X66502503Y-41008775D01*
X66547969Y-41093391D01*
X66557873Y-41103429D01*
X66565106Y-41100787D01*
X67345081Y-40320812D01*
X67351459Y-40309132D01*
X68777305Y-40309132D01*
X68777436Y-40310965D01*
X68781687Y-40317580D01*
X69563364Y-41099257D01*
X69575744Y-41106017D01*
X69580509Y-41102450D01*
X69672572Y-40898076D01*
X69675766Y-40889301D01*
X69742135Y-40653973D01*
X69743993Y-40644844D01*
X69775044Y-40400770D01*
X69775525Y-40394483D01*
X69777706Y-40311160D01*
X69777555Y-40304851D01*
X69759321Y-40059486D01*
X69757944Y-40050280D01*
X69703979Y-39811786D01*
X69701255Y-39802875D01*
X69612631Y-39574978D01*
X69608620Y-39566569D01*
X69583029Y-39521795D01*
X69572865Y-39512019D01*
X69564966Y-39515141D01*
X68784919Y-40295188D01*
X68777305Y-40309132D01*
X67351459Y-40309132D01*
X67352695Y-40306868D01*
X67352564Y-40305035D01*
X67348313Y-40298420D01*
X66567344Y-39517451D01*
X66554964Y-39510691D01*
X66547443Y-39516321D01*
X66541322Y-39526409D01*
X66537084Y-39534726D01*
X66442529Y-39760214D01*
X66439572Y-39769052D01*
X66379384Y-40006042D01*
X66377763Y-40015232D01*
X66353267Y-40258510D01*
X66353022Y-40267835D01*
X65005500Y-40267835D01*
X65005500Y-38799203D01*
X67267449Y-38799203D01*
X67269202Y-38805095D01*
X68052188Y-39588081D01*
X68066132Y-39595695D01*
X68067965Y-39595564D01*
X68074580Y-39591313D01*
X68854103Y-38811790D01*
X68860863Y-38799410D01*
X68856809Y-38793994D01*
X68706622Y-38719930D01*
X68707275Y-38718605D01*
X68656672Y-38678547D01*
X68633666Y-38611381D01*
X68650625Y-38542440D01*
X68702164Y-38493611D01*
X68709804Y-38490021D01*
X68851582Y-38429108D01*
X68854648Y-38427512D01*
X68863033Y-38418163D01*
X68859146Y-38409253D01*
X68077812Y-37627919D01*
X68063868Y-37620305D01*
X68062035Y-37620436D01*
X68055420Y-37624687D01*
X67276467Y-38403640D01*
X67269707Y-38416020D01*
X67274173Y-38421986D01*
X67377892Y-38476555D01*
X67386441Y-38480271D01*
X67412547Y-38489388D01*
X67470264Y-38530730D01*
X67496468Y-38596714D01*
X67482839Y-38666390D01*
X67433703Y-38717637D01*
X67423758Y-38722769D01*
X67278073Y-38789931D01*
X67267449Y-38799203D01*
X65005500Y-38799203D01*
X65005500Y-36867835D01*
X66353022Y-36867835D01*
X66364754Y-37112064D01*
X66365891Y-37121324D01*
X66413593Y-37361143D01*
X66416082Y-37370118D01*
X66498708Y-37600250D01*
X66502503Y-37608775D01*
X66547969Y-37693391D01*
X66557873Y-37703429D01*
X66565106Y-37700787D01*
X67345081Y-36920812D01*
X67351459Y-36909132D01*
X68777305Y-36909132D01*
X68777436Y-36910965D01*
X68781687Y-36917580D01*
X69563364Y-37699257D01*
X69575744Y-37706017D01*
X69580509Y-37702450D01*
X69672572Y-37498076D01*
X69675766Y-37489301D01*
X69742135Y-37253973D01*
X69743993Y-37244844D01*
X69775044Y-37000770D01*
X69775525Y-36994483D01*
X69777706Y-36911160D01*
X69777555Y-36904851D01*
X69759321Y-36659486D01*
X69757944Y-36650280D01*
X69703979Y-36411786D01*
X69701255Y-36402875D01*
X69612631Y-36174978D01*
X69608620Y-36166569D01*
X69583029Y-36121795D01*
X69572865Y-36112019D01*
X69564966Y-36115141D01*
X68784919Y-36895188D01*
X68777305Y-36909132D01*
X67351459Y-36909132D01*
X67352695Y-36906868D01*
X67352564Y-36905035D01*
X67348313Y-36898420D01*
X66567344Y-36117451D01*
X66554964Y-36110691D01*
X66547443Y-36116321D01*
X66541322Y-36126409D01*
X66537084Y-36134726D01*
X66442529Y-36360214D01*
X66439572Y-36369052D01*
X66379384Y-36606042D01*
X66377763Y-36615232D01*
X66353267Y-36858510D01*
X66353022Y-36867835D01*
X65005500Y-36867835D01*
X65005500Y-35131500D01*
X65025502Y-35063379D01*
X65079158Y-35016886D01*
X65131500Y-35005500D01*
X67605613Y-35005500D01*
X67673734Y-35025502D01*
X67720227Y-35079158D01*
X67730331Y-35149432D01*
X67700837Y-35214012D01*
X67640871Y-35252466D01*
X67469668Y-35302367D01*
X67460915Y-35305639D01*
X67278074Y-35389931D01*
X67267449Y-35399203D01*
X67269202Y-35405095D01*
X68052188Y-36188081D01*
X68066132Y-36195695D01*
X68067965Y-36195564D01*
X68074580Y-36191313D01*
X68854103Y-35411790D01*
X68860863Y-35399410D01*
X68856809Y-35393994D01*
X68710808Y-35321994D01*
X68702175Y-35318507D01*
X68492856Y-35251502D01*
X68434076Y-35211684D01*
X68406154Y-35146408D01*
X68417956Y-35076400D01*
X68465733Y-35023885D01*
X68531269Y-35005500D01*
X71861449Y-35005500D01*
X71929570Y-35025502D01*
X71976063Y-35079158D01*
X71987447Y-35132283D01*
X71986269Y-35321994D01*
X71985828Y-35392958D01*
X71976706Y-36861590D01*
X71964710Y-38792958D01*
X71955588Y-40261590D01*
X71945972Y-41809775D01*
X71919198Y-46120391D01*
X71910724Y-47484685D01*
X71902302Y-48840603D01*
X71895313Y-49965920D01*
X71918494Y-50186915D01*
X71930315Y-50240986D01*
X71930733Y-50242519D01*
X71930735Y-50242528D01*
X71956037Y-50335370D01*
X71954651Y-50406353D01*
X71915108Y-50465318D01*
X71849963Y-50493544D01*
X71834471Y-50494500D01*
X58626000Y-50494500D01*
X58412271Y-50517478D01*
X58408987Y-50518192D01*
X58408983Y-50518193D01*
X58371958Y-50526247D01*
X58359929Y-50528864D01*
X58268234Y-50553395D01*
X58263952Y-50555256D01*
X58263949Y-50555257D01*
X58209401Y-50578964D01*
X58081644Y-50634487D01*
X57915197Y-50751478D01*
X57861541Y-50797971D01*
X57859723Y-50799832D01*
X57859716Y-50799838D01*
X57749193Y-50912937D01*
X57745132Y-50917093D01*
X57741903Y-50921920D01*
X57741901Y-50921922D01*
X57651912Y-51056433D01*
X57632004Y-51086190D01*
X57555231Y-51274599D01*
X57535229Y-51342720D01*
X57515083Y-51423594D01*
X57514628Y-51428070D01*
X57499011Y-51581644D01*
X57494500Y-51626000D01*
X57494500Y-53055451D01*
X57495611Y-53102709D01*
X57496168Y-53114547D01*
X57510769Y-53244347D01*
X57566671Y-53439965D01*
X57592985Y-53505905D01*
X57667312Y-53654946D01*
X57789928Y-53817294D01*
X57794726Y-53821513D01*
X57794728Y-53821515D01*
X57829531Y-53852116D01*
X57867480Y-53912119D01*
X57871674Y-53959582D01*
X57866500Y-54010077D01*
X57866500Y-56133266D01*
X57872413Y-56216776D01*
X57857273Y-56286139D01*
X57836848Y-56313733D01*
X57745132Y-56407587D01*
X57632004Y-56576684D01*
X57555231Y-56765093D01*
X57535229Y-56833214D01*
X57515083Y-56914088D01*
X57494500Y-57116494D01*
X57494500Y-58374000D01*
X57517478Y-58587729D01*
X57528864Y-58640071D01*
X57553395Y-58731766D01*
X57634487Y-58918356D01*
X57751478Y-59084803D01*
X57797971Y-59138459D01*
X57799832Y-59140277D01*
X57799838Y-59140284D01*
X57912937Y-59250807D01*
X57917093Y-59254868D01*
X57921920Y-59258097D01*
X57921922Y-59258099D01*
X58080880Y-59364444D01*
X58080883Y-59364446D01*
X58086190Y-59367996D01*
X58274599Y-59444769D01*
X58342720Y-59464771D01*
X58344001Y-59465090D01*
X58344008Y-59465092D01*
X58380418Y-59474162D01*
X58423594Y-59484917D01*
X58502502Y-59492941D01*
X58622821Y-59505177D01*
X58622826Y-59505177D01*
X58626000Y-59505500D01*
X76927227Y-59505500D01*
X76975444Y-59515091D01*
X77003889Y-59526873D01*
X77088289Y-59547135D01*
X77244039Y-59584528D01*
X77244045Y-59584529D01*
X77248852Y-59585683D01*
X77500000Y-59605449D01*
X77751148Y-59585683D01*
X77755955Y-59584529D01*
X77755961Y-59584528D01*
X77911711Y-59547135D01*
X77996111Y-59526873D01*
X78024556Y-59515091D01*
X78072773Y-59505500D01*
X79368500Y-59505500D01*
X79436621Y-59525502D01*
X79483114Y-59579158D01*
X79494500Y-59631500D01*
X79494500Y-70668500D01*
X79474498Y-70736621D01*
X79420842Y-70783114D01*
X79368500Y-70794500D01*
X75531500Y-70794500D01*
X75463379Y-70774498D01*
X75416886Y-70720842D01*
X75405500Y-70668500D01*
X75405500Y-69926000D01*
X75382522Y-69712271D01*
X75371136Y-69659929D01*
X75346605Y-69568234D01*
X75265513Y-69381644D01*
X75148522Y-69215197D01*
X75102029Y-69161541D01*
X75100168Y-69159723D01*
X75100162Y-69159716D01*
X74987063Y-69049193D01*
X74987061Y-69049191D01*
X74982907Y-69045132D01*
X74978080Y-69041903D01*
X74978078Y-69041901D01*
X74819120Y-68935556D01*
X74819117Y-68935554D01*
X74813810Y-68932004D01*
X74625401Y-68855231D01*
X74557280Y-68835229D01*
X74555999Y-68834910D01*
X74555992Y-68834908D01*
X74519582Y-68825838D01*
X74476406Y-68815083D01*
X74397498Y-68807059D01*
X74277179Y-68794823D01*
X74277174Y-68794823D01*
X74274000Y-68794500D01*
X72526000Y-68794500D01*
X72312271Y-68817478D01*
X72308987Y-68818192D01*
X72308983Y-68818193D01*
X72271958Y-68826247D01*
X72259929Y-68828864D01*
X72168234Y-68853395D01*
X72163952Y-68855256D01*
X72163949Y-68855257D01*
X72109401Y-68878964D01*
X71981644Y-68934487D01*
X71976420Y-68938159D01*
X71828823Y-69041901D01*
X71815197Y-69051478D01*
X71761541Y-69097971D01*
X71759723Y-69099832D01*
X71759716Y-69099838D01*
X71649343Y-69212784D01*
X71645132Y-69217093D01*
X71532004Y-69386190D01*
X71455231Y-69574599D01*
X71435229Y-69642720D01*
X71434907Y-69644011D01*
X71434899Y-69644042D01*
X71421219Y-69698957D01*
X71385344Y-69760223D01*
X71322041Y-69792367D01*
X71298956Y-69794500D01*
X63131500Y-69794500D01*
X63063379Y-69774498D01*
X63016886Y-69720842D01*
X63005500Y-69668500D01*
X63005500Y-68162714D01*
X63000984Y-68067522D01*
X62970135Y-67912271D01*
X62961953Y-67871098D01*
X62961952Y-67871094D01*
X62961332Y-67867974D01*
X62939679Y-67797350D01*
X62938627Y-67794764D01*
X62937684Y-67792114D01*
X62938899Y-67791682D01*
X62932309Y-67726015D01*
X62939459Y-67701721D01*
X62943562Y-67691650D01*
X62943564Y-67691644D01*
X62944769Y-67688687D01*
X62964771Y-67620566D01*
X62984917Y-67539692D01*
X62992941Y-67460784D01*
X63005177Y-67340465D01*
X63005177Y-67340460D01*
X63005500Y-67337286D01*
X63005500Y-66126000D01*
X62982522Y-65912271D01*
X62971136Y-65859929D01*
X62946605Y-65768234D01*
X62865513Y-65581644D01*
X62748522Y-65415197D01*
X62702029Y-65361541D01*
X62700168Y-65359723D01*
X62700162Y-65359716D01*
X62587063Y-65249193D01*
X62587061Y-65249191D01*
X62582907Y-65245132D01*
X62578080Y-65241903D01*
X62578078Y-65241901D01*
X62419120Y-65135556D01*
X62419117Y-65135554D01*
X62413810Y-65132004D01*
X62225401Y-65055231D01*
X62157280Y-65035229D01*
X62155999Y-65034910D01*
X62155992Y-65034908D01*
X62119582Y-65025838D01*
X62076406Y-65015083D01*
X61997498Y-65007059D01*
X61877179Y-64994823D01*
X61877174Y-64994823D01*
X61874000Y-64994500D01*
X52126000Y-64994500D01*
X51912271Y-65017478D01*
X51908987Y-65018192D01*
X51908983Y-65018193D01*
X51871958Y-65026247D01*
X51859929Y-65028864D01*
X51768234Y-65053395D01*
X51763952Y-65055256D01*
X51763949Y-65055257D01*
X51709401Y-65078964D01*
X51581644Y-65134487D01*
X51576420Y-65138159D01*
X51428823Y-65241901D01*
X51415197Y-65251478D01*
X51361541Y-65297971D01*
X51359723Y-65299832D01*
X51359716Y-65299838D01*
X51249343Y-65412784D01*
X51245132Y-65417093D01*
X51132004Y-65586190D01*
X51055231Y-65774599D01*
X51035229Y-65842720D01*
X51015083Y-65923594D01*
X51014628Y-65928070D01*
X50994841Y-66122651D01*
X50994500Y-66126000D01*
X50994500Y-78993808D01*
X50994681Y-78996189D01*
X50994681Y-78996201D01*
X51004840Y-79130170D01*
X50990046Y-79199608D01*
X50940059Y-79250025D01*
X50925585Y-79256849D01*
X50733234Y-79333006D01*
X50729775Y-79334907D01*
X50729772Y-79334909D01*
X50606593Y-79402628D01*
X50457516Y-79484584D01*
X50454312Y-79486912D01*
X50454307Y-79486915D01*
X50206174Y-79667194D01*
X50202970Y-79669522D01*
X49973610Y-79884906D01*
X49773053Y-80127337D01*
X49604463Y-80392993D01*
X49602779Y-80396572D01*
X49602775Y-80396579D01*
X49472186Y-80674095D01*
X49470497Y-80677685D01*
X49373269Y-80976921D01*
X49314312Y-81285985D01*
X49314063Y-81289948D01*
X49299625Y-81519422D01*
X49299624Y-81519438D01*
X49299500Y-81521417D01*
X49299500Y-83558744D01*
X49299438Y-83562701D01*
X49295793Y-83678698D01*
X49305774Y-83784277D01*
X49306716Y-83794246D01*
X49307024Y-83798165D01*
X49314312Y-83914015D01*
X49315055Y-83917909D01*
X49320580Y-83946874D01*
X49322252Y-83958621D01*
X49325402Y-83991938D01*
X49326265Y-83995798D01*
X49350723Y-84105218D01*
X49351523Y-84109085D01*
X49373269Y-84223079D01*
X49374492Y-84226844D01*
X49374496Y-84226858D01*
X49383608Y-84254899D01*
X49386742Y-84266354D01*
X49394038Y-84298996D01*
X49395380Y-84302723D01*
X49433349Y-84408188D01*
X49434616Y-84411887D01*
X49436334Y-84417172D01*
X49442500Y-84456106D01*
X49442500Y-88044816D01*
X49453234Y-88165087D01*
X49509259Y-88360470D01*
X49578611Y-88493127D01*
X49594047Y-88522653D01*
X49603427Y-88540596D01*
X49607458Y-88545539D01*
X49607459Y-88545540D01*
X49711059Y-88672566D01*
X49731891Y-88698109D01*
X49736831Y-88702138D01*
X49814341Y-88765353D01*
X49889404Y-88826573D01*
X50069530Y-88920741D01*
X50264913Y-88976766D01*
X50296545Y-88979589D01*
X50382391Y-88987251D01*
X50382397Y-88987251D01*
X50385184Y-88987500D01*
X53500816Y-88987500D01*
X53503603Y-88987251D01*
X53503609Y-88987251D01*
X53589455Y-88979589D01*
X53621087Y-88976766D01*
X53816470Y-88920741D01*
X53996596Y-88826573D01*
X54071660Y-88765353D01*
X54149169Y-88702138D01*
X54154109Y-88698109D01*
X54174941Y-88672566D01*
X54278541Y-88545540D01*
X54278542Y-88545539D01*
X54282573Y-88540596D01*
X54291954Y-88522653D01*
X54307389Y-88493127D01*
X54376741Y-88360470D01*
X54418223Y-88215803D01*
X56006924Y-88215803D01*
X56012892Y-88223775D01*
X56068262Y-88258509D01*
X56075816Y-88262560D01*
X56317520Y-88371694D01*
X56325551Y-88374680D01*
X56579832Y-88450002D01*
X56588184Y-88451869D01*
X56850340Y-88491984D01*
X56858874Y-88492700D01*
X57124045Y-88496867D01*
X57132596Y-88496418D01*
X57395883Y-88464557D01*
X57404284Y-88462955D01*
X57660824Y-88395653D01*
X57668926Y-88392926D01*
X57913949Y-88291434D01*
X57921617Y-88287628D01*
X58028996Y-88224881D01*
X58038672Y-88214626D01*
X58035354Y-88206461D01*
X57035812Y-87206919D01*
X57021868Y-87199305D01*
X57020035Y-87199436D01*
X57013420Y-87203687D01*
X56013684Y-88203423D01*
X56006924Y-88215803D01*
X54418223Y-88215803D01*
X54432766Y-88165087D01*
X54443500Y-88044816D01*
X54443500Y-86470204D01*
X55010665Y-86470204D01*
X55025932Y-86734969D01*
X55027005Y-86743470D01*
X55078065Y-87003722D01*
X55080276Y-87011974D01*
X55166184Y-87262894D01*
X55169499Y-87270779D01*
X55285165Y-87500755D01*
X55290899Y-87505415D01*
X55304619Y-87498274D01*
X56303081Y-86499812D01*
X56309459Y-86488132D01*
X57735305Y-86488132D01*
X57735436Y-86489965D01*
X57739687Y-86496580D01*
X58739889Y-87496782D01*
X58752269Y-87503542D01*
X58758533Y-87498853D01*
X58850962Y-87328620D01*
X58854530Y-87320827D01*
X58948271Y-87072750D01*
X58950748Y-87064544D01*
X59009954Y-86806038D01*
X59011294Y-86797577D01*
X59035031Y-86531616D01*
X59035277Y-86526677D01*
X59035666Y-86489485D01*
X59035523Y-86484519D01*
X59017362Y-86218123D01*
X59016201Y-86209649D01*
X58962419Y-85949944D01*
X58960120Y-85941709D01*
X58871588Y-85691705D01*
X58868191Y-85683855D01*
X58762477Y-85479038D01*
X58752740Y-85468836D01*
X58745900Y-85471207D01*
X57742919Y-86474188D01*
X57735305Y-86488132D01*
X56309459Y-86488132D01*
X56310695Y-86485868D01*
X56310564Y-86484035D01*
X56306313Y-86477420D01*
X55305461Y-85476568D01*
X55293081Y-85469808D01*
X55287057Y-85474318D01*
X55186325Y-85664567D01*
X55182839Y-85672395D01*
X55091700Y-85921446D01*
X55089311Y-85929670D01*
X55032812Y-86188795D01*
X55031563Y-86197250D01*
X55010754Y-86461653D01*
X55010665Y-86470204D01*
X54443500Y-86470204D01*
X54443500Y-84759308D01*
X56007335Y-84759308D01*
X56010878Y-84767771D01*
X57010188Y-85767081D01*
X57024132Y-85774695D01*
X57025965Y-85774564D01*
X57032580Y-85770313D01*
X58031993Y-84770900D01*
X58038753Y-84758520D01*
X58033026Y-84750870D01*
X57959122Y-84705582D01*
X57951552Y-84701624D01*
X57708704Y-84595022D01*
X57700644Y-84592120D01*
X57445592Y-84519467D01*
X57437214Y-84517685D01*
X57174656Y-84480318D01*
X57166111Y-84479691D01*
X56900908Y-84478302D01*
X56892374Y-84478839D01*
X56629433Y-84513456D01*
X56621035Y-84515149D01*
X56365238Y-84585127D01*
X56357143Y-84587946D01*
X56113199Y-84691997D01*
X56105576Y-84695881D01*
X56016906Y-84748949D01*
X56007335Y-84759308D01*
X54443500Y-84759308D01*
X54443500Y-83784277D01*
X54443562Y-83780319D01*
X54447084Y-83668259D01*
X54447084Y-83668253D01*
X54447208Y-83664302D01*
X54436281Y-83548707D01*
X54435973Y-83544787D01*
X54428688Y-83428985D01*
X54422418Y-83396114D01*
X54420747Y-83384376D01*
X54419842Y-83374795D01*
X54417598Y-83351062D01*
X54392275Y-83237773D01*
X54391475Y-83233906D01*
X54370475Y-83123819D01*
X54370473Y-83123813D01*
X54369731Y-83119921D01*
X54368508Y-83116156D01*
X54368504Y-83116142D01*
X54359392Y-83088101D01*
X54356258Y-83076646D01*
X54349826Y-83047868D01*
X54349825Y-83047863D01*
X54348962Y-83044004D01*
X54309650Y-82934808D01*
X54308384Y-82931113D01*
X54306666Y-82925828D01*
X54300500Y-82886894D01*
X54300500Y-82131500D01*
X54320502Y-82063379D01*
X54374158Y-82016886D01*
X54426500Y-82005500D01*
X61254500Y-82005500D01*
X61322621Y-82025502D01*
X61369114Y-82079158D01*
X61380500Y-82131500D01*
X61380500Y-88171816D01*
X61391234Y-88292087D01*
X61447259Y-88487470D01*
X61518331Y-88623418D01*
X61532047Y-88649653D01*
X61541427Y-88667596D01*
X61545458Y-88672539D01*
X61545459Y-88672540D01*
X61605358Y-88745984D01*
X61669891Y-88825109D01*
X61674831Y-88829138D01*
X61792206Y-88924866D01*
X61827404Y-88953573D01*
X62007530Y-89047741D01*
X62202913Y-89103766D01*
X62234545Y-89106589D01*
X62320391Y-89114251D01*
X62320397Y-89114251D01*
X62323184Y-89114500D01*
X65438816Y-89114500D01*
X65441603Y-89114251D01*
X65441609Y-89114251D01*
X65527455Y-89106589D01*
X65559087Y-89103766D01*
X65754470Y-89047741D01*
X65934596Y-88953573D01*
X65969795Y-88924866D01*
X66087169Y-88829138D01*
X66092109Y-88825109D01*
X66156642Y-88745984D01*
X66216541Y-88672540D01*
X66216542Y-88672539D01*
X66220573Y-88667596D01*
X66229954Y-88649653D01*
X66243669Y-88623418D01*
X66314741Y-88487470D01*
X66356223Y-88342803D01*
X67944924Y-88342803D01*
X67950892Y-88350775D01*
X68006262Y-88385509D01*
X68013816Y-88389560D01*
X68255520Y-88498694D01*
X68263551Y-88501680D01*
X68517832Y-88577002D01*
X68526184Y-88578869D01*
X68788340Y-88618984D01*
X68796874Y-88619700D01*
X69062045Y-88623867D01*
X69070596Y-88623418D01*
X69333883Y-88591557D01*
X69342284Y-88589955D01*
X69598824Y-88522653D01*
X69606926Y-88519926D01*
X69851949Y-88418434D01*
X69859617Y-88414628D01*
X69966996Y-88351881D01*
X69976672Y-88341626D01*
X69973354Y-88333461D01*
X68973812Y-87333919D01*
X68959868Y-87326305D01*
X68958035Y-87326436D01*
X68951420Y-87330687D01*
X67951684Y-88330423D01*
X67944924Y-88342803D01*
X66356223Y-88342803D01*
X66370766Y-88292087D01*
X66381500Y-88171816D01*
X66381500Y-86597204D01*
X66948665Y-86597204D01*
X66963932Y-86861969D01*
X66965005Y-86870470D01*
X67016065Y-87130722D01*
X67018276Y-87138974D01*
X67104184Y-87389894D01*
X67107499Y-87397779D01*
X67223165Y-87627755D01*
X67228899Y-87632415D01*
X67242619Y-87625274D01*
X68241081Y-86626812D01*
X68247459Y-86615132D01*
X69673305Y-86615132D01*
X69673436Y-86616965D01*
X69677687Y-86623580D01*
X70677889Y-87623782D01*
X70690269Y-87630542D01*
X70696533Y-87625853D01*
X70788962Y-87455620D01*
X70792530Y-87447827D01*
X70886271Y-87199750D01*
X70888748Y-87191544D01*
X70947954Y-86933038D01*
X70949294Y-86924577D01*
X70973031Y-86658616D01*
X70973277Y-86653677D01*
X70973666Y-86616485D01*
X70973523Y-86611519D01*
X70955362Y-86345123D01*
X70954201Y-86336649D01*
X70900419Y-86076944D01*
X70898120Y-86068709D01*
X70809588Y-85818705D01*
X70806191Y-85810855D01*
X70700477Y-85606038D01*
X70690740Y-85595836D01*
X70683900Y-85598207D01*
X69680919Y-86601188D01*
X69673305Y-86615132D01*
X68247459Y-86615132D01*
X68248695Y-86612868D01*
X68248564Y-86611035D01*
X68244313Y-86604420D01*
X67243461Y-85603568D01*
X67231081Y-85596808D01*
X67225057Y-85601318D01*
X67124325Y-85791567D01*
X67120839Y-85799395D01*
X67029700Y-86048446D01*
X67027311Y-86056670D01*
X66970812Y-86315795D01*
X66969563Y-86324250D01*
X66948754Y-86588653D01*
X66948665Y-86597204D01*
X66381500Y-86597204D01*
X66381500Y-84886308D01*
X67945335Y-84886308D01*
X67948878Y-84894771D01*
X68948188Y-85894081D01*
X68962132Y-85901695D01*
X68963965Y-85901564D01*
X68970580Y-85897313D01*
X69969993Y-84897900D01*
X69976753Y-84885520D01*
X69971026Y-84877870D01*
X69897122Y-84832582D01*
X69889552Y-84828624D01*
X69646704Y-84722022D01*
X69638644Y-84719120D01*
X69383592Y-84646467D01*
X69375214Y-84644685D01*
X69112656Y-84607318D01*
X69104111Y-84606691D01*
X68838908Y-84605302D01*
X68830374Y-84605839D01*
X68567433Y-84640456D01*
X68559035Y-84642149D01*
X68303238Y-84712127D01*
X68295143Y-84714946D01*
X68051199Y-84818997D01*
X68043576Y-84822881D01*
X67954906Y-84875949D01*
X67945335Y-84886308D01*
X66381500Y-84886308D01*
X66381500Y-83531500D01*
X66401502Y-83463379D01*
X66455158Y-83416886D01*
X66507500Y-83405500D01*
X72074000Y-83405500D01*
X72287729Y-83382522D01*
X72291013Y-83381808D01*
X72291017Y-83381807D01*
X72338625Y-83371451D01*
X72338642Y-83371447D01*
X72338835Y-83371405D01*
X72340071Y-83371136D01*
X72340143Y-83371467D01*
X72409732Y-83374795D01*
X72467557Y-83415988D01*
X72493932Y-83481904D01*
X72494500Y-83493858D01*
X72494500Y-91374000D01*
X72517478Y-91587729D01*
X72528864Y-91640071D01*
X72553395Y-91731766D01*
X72634487Y-91918356D01*
X72751478Y-92084803D01*
X72797971Y-92138459D01*
X72799832Y-92140277D01*
X72799838Y-92140284D01*
X72883347Y-92221891D01*
X72917093Y-92254868D01*
X72921920Y-92258097D01*
X72921922Y-92258099D01*
X73080880Y-92364444D01*
X73080883Y-92364446D01*
X73086190Y-92367996D01*
X73274599Y-92444769D01*
X73342720Y-92464771D01*
X73344001Y-92465090D01*
X73344008Y-92465092D01*
X73369520Y-92471447D01*
X73423594Y-92484917D01*
X73502502Y-92492941D01*
X73622821Y-92505177D01*
X73622826Y-92505177D01*
X73626000Y-92505500D01*
X78874000Y-92505500D01*
X79087729Y-92482522D01*
X79091013Y-92481808D01*
X79091017Y-92481807D01*
X79138641Y-92471447D01*
X79140071Y-92471136D01*
X79231766Y-92446605D01*
X79236048Y-92444744D01*
X79236051Y-92444743D01*
X79330086Y-92403875D01*
X79418356Y-92365513D01*
X79529321Y-92287519D01*
X79582191Y-92250358D01*
X79582192Y-92250357D01*
X79584803Y-92248522D01*
X79638459Y-92202029D01*
X79640277Y-92200168D01*
X79640284Y-92200162D01*
X79750807Y-92087063D01*
X79750809Y-92087061D01*
X79754868Y-92082907D01*
X79758099Y-92078078D01*
X79864444Y-91919120D01*
X79864446Y-91919117D01*
X79867996Y-91913810D01*
X79944769Y-91725401D01*
X79964771Y-91657280D01*
X79984917Y-91576406D01*
X80003848Y-91390250D01*
X80005177Y-91377179D01*
X80005177Y-91377174D01*
X80005500Y-91374000D01*
X80005500Y-88619368D01*
X80025502Y-88551247D01*
X80079158Y-88504754D01*
X80149432Y-88494650D01*
X80194182Y-88511063D01*
X80194491Y-88510487D01*
X80205813Y-88516558D01*
X80447520Y-88625694D01*
X80455551Y-88628680D01*
X80709832Y-88704002D01*
X80718184Y-88705869D01*
X80980340Y-88745984D01*
X80988874Y-88746700D01*
X81254045Y-88750867D01*
X81262596Y-88750418D01*
X81525883Y-88718557D01*
X81534284Y-88716955D01*
X81790824Y-88649653D01*
X81798926Y-88646926D01*
X82043949Y-88545434D01*
X82051617Y-88541628D01*
X82158996Y-88478881D01*
X82168672Y-88468626D01*
X82165354Y-88460461D01*
X80534988Y-86830095D01*
X80500962Y-86767783D01*
X80506027Y-86696968D01*
X80534988Y-86651905D01*
X81063905Y-86122988D01*
X81126217Y-86088962D01*
X81197032Y-86094027D01*
X81242095Y-86122988D01*
X82869889Y-87750782D01*
X82882269Y-87757542D01*
X82888533Y-87752853D01*
X82980962Y-87582620D01*
X82984530Y-87574827D01*
X83078271Y-87326750D01*
X83080748Y-87318544D01*
X83139954Y-87060038D01*
X83141294Y-87051577D01*
X83165031Y-86785616D01*
X83165277Y-86780677D01*
X83165666Y-86743485D01*
X83165523Y-86738519D01*
X83147362Y-86472123D01*
X83146201Y-86463649D01*
X83092419Y-86203944D01*
X83090120Y-86195709D01*
X83001588Y-85945705D01*
X82998191Y-85937854D01*
X82876550Y-85702177D01*
X82873277Y-85696774D01*
X82855096Y-85628145D01*
X82876904Y-85560581D01*
X82931779Y-85515533D01*
X82981051Y-85505500D01*
X84368500Y-85505500D01*
X84436621Y-85525502D01*
X84483114Y-85579158D01*
X84494500Y-85631500D01*
X84494500Y-91374000D01*
X84517478Y-91587729D01*
X84528864Y-91640071D01*
X84553395Y-91731766D01*
X84634487Y-91918356D01*
X84751478Y-92084803D01*
X84797971Y-92138459D01*
X84799832Y-92140277D01*
X84799838Y-92140284D01*
X84883347Y-92221891D01*
X84917093Y-92254868D01*
X84921920Y-92258097D01*
X84921922Y-92258099D01*
X85080880Y-92364444D01*
X85080883Y-92364446D01*
X85086190Y-92367996D01*
X85274599Y-92444769D01*
X85342720Y-92464771D01*
X85344001Y-92465090D01*
X85344008Y-92465092D01*
X85369520Y-92471447D01*
X85423594Y-92484917D01*
X85502502Y-92492941D01*
X85622821Y-92505177D01*
X85622826Y-92505177D01*
X85626000Y-92505500D01*
X91874000Y-92505500D01*
X92087729Y-92482522D01*
X92091013Y-92481808D01*
X92091017Y-92481807D01*
X92138641Y-92471447D01*
X92140071Y-92471136D01*
X92231766Y-92446605D01*
X92236048Y-92444744D01*
X92236051Y-92444743D01*
X92330086Y-92403875D01*
X92418356Y-92365513D01*
X92529321Y-92287519D01*
X92582191Y-92250358D01*
X92582192Y-92250357D01*
X92584803Y-92248522D01*
X92638459Y-92202029D01*
X92640277Y-92200168D01*
X92640284Y-92200162D01*
X92750807Y-92087063D01*
X92750809Y-92087061D01*
X92754868Y-92082907D01*
X92758099Y-92078078D01*
X92864444Y-91919120D01*
X92864446Y-91919117D01*
X92867996Y-91913810D01*
X92944769Y-91725401D01*
X92964771Y-91657280D01*
X92984917Y-91576406D01*
X93003848Y-91390250D01*
X93005177Y-91377179D01*
X93005177Y-91377174D01*
X93005500Y-91374000D01*
X93005500Y-88886717D01*
X106684639Y-88886717D01*
X106684789Y-88889898D01*
X106695370Y-89114251D01*
X106702778Y-89271340D01*
X106703249Y-89274493D01*
X106703250Y-89274501D01*
X106729424Y-89449633D01*
X106759692Y-89652162D01*
X106760478Y-89655244D01*
X106760478Y-89655246D01*
X106789269Y-89768196D01*
X106854799Y-90025283D01*
X106987126Y-90386882D01*
X107155317Y-90733258D01*
X107357650Y-91060864D01*
X107592054Y-91366345D01*
X107856129Y-91646575D01*
X107858534Y-91648659D01*
X107858540Y-91648664D01*
X107943592Y-91722338D01*
X108147172Y-91898684D01*
X108462201Y-92120090D01*
X108797992Y-92308527D01*
X108800906Y-92309794D01*
X108800910Y-92309796D01*
X108920606Y-92361841D01*
X109151107Y-92462066D01*
X109517931Y-92579134D01*
X109661353Y-92609358D01*
X109891582Y-92657875D01*
X109891592Y-92657877D01*
X109894707Y-92658533D01*
X109897870Y-92658871D01*
X109897876Y-92658872D01*
X110274411Y-92699113D01*
X110274420Y-92699114D01*
X110277578Y-92699451D01*
X110280764Y-92699468D01*
X110280770Y-92699468D01*
X110457250Y-92700392D01*
X110662624Y-92701467D01*
X110807167Y-92687549D01*
X111042737Y-92664866D01*
X111042742Y-92664865D01*
X111045902Y-92664561D01*
X111049022Y-92663938D01*
X111049026Y-92663937D01*
X111420361Y-92589737D01*
X111420360Y-92589737D01*
X111423489Y-92589112D01*
X111426525Y-92588178D01*
X111426533Y-92588176D01*
X111788476Y-92476827D01*
X111788479Y-92476826D01*
X111791518Y-92475891D01*
X111794446Y-92474654D01*
X111794452Y-92474652D01*
X111959644Y-92404872D01*
X112146221Y-92326059D01*
X112149024Y-92324525D01*
X112149029Y-92324522D01*
X112359964Y-92209038D01*
X112483968Y-92141148D01*
X112801298Y-91923053D01*
X112803737Y-91920985D01*
X112803743Y-91920980D01*
X113092525Y-91676076D01*
X113092533Y-91676068D01*
X113094965Y-91674006D01*
X113097173Y-91671711D01*
X113097181Y-91671704D01*
X113359745Y-91398859D01*
X113359747Y-91398856D01*
X113361960Y-91396557D01*
X113563093Y-91140042D01*
X113597576Y-91096064D01*
X113597579Y-91096059D01*
X113599550Y-91093546D01*
X113805303Y-90768077D01*
X113806723Y-90765228D01*
X113806728Y-90765220D01*
X113975692Y-90426330D01*
X113977112Y-90423482D01*
X114113218Y-90063288D01*
X114122535Y-90028274D01*
X114181621Y-89806211D01*
X114212227Y-89691184D01*
X114217984Y-89655246D01*
X114253416Y-89434034D01*
X114273126Y-89310979D01*
X114275230Y-89274501D01*
X114290241Y-89014147D01*
X114295291Y-88926566D01*
X114295384Y-88900000D01*
X114294873Y-88889898D01*
X114276064Y-88518615D01*
X114276063Y-88518610D01*
X114275903Y-88515442D01*
X114229872Y-88214626D01*
X114218144Y-88137981D01*
X114218142Y-88137972D01*
X114217660Y-88134821D01*
X114175351Y-87971223D01*
X114122048Y-87765115D01*
X114122045Y-87765107D01*
X114121251Y-87762035D01*
X114117855Y-87752853D01*
X114070110Y-87623782D01*
X113987663Y-87400900D01*
X113980286Y-87385842D01*
X113819665Y-87057972D01*
X113819662Y-87057966D01*
X113818264Y-87055113D01*
X113698042Y-86861969D01*
X113616475Y-86730925D01*
X113616467Y-86730914D01*
X113614788Y-86728216D01*
X113462839Y-86531616D01*
X113381271Y-86426079D01*
X113381266Y-86426074D01*
X113379319Y-86423554D01*
X113285083Y-86324250D01*
X113116466Y-86146565D01*
X113116463Y-86146563D01*
X113114267Y-86144248D01*
X112855236Y-85921446D01*
X112824762Y-85895234D01*
X112824759Y-85895232D01*
X112822347Y-85893157D01*
X112506546Y-85672851D01*
X112205876Y-85505500D01*
X112172884Y-85487137D01*
X112172882Y-85487136D01*
X112170099Y-85485587D01*
X112167179Y-85484329D01*
X112167174Y-85484327D01*
X111819384Y-85334545D01*
X111819374Y-85334541D01*
X111816450Y-85333282D01*
X111449221Y-85217495D01*
X111178472Y-85161426D01*
X111075295Y-85140059D01*
X111075292Y-85140059D01*
X111072170Y-85139412D01*
X110778699Y-85109084D01*
X110692314Y-85100157D01*
X110692311Y-85100157D01*
X110689158Y-85099831D01*
X110685992Y-85099825D01*
X110685983Y-85099825D01*
X110495911Y-85099494D01*
X110304108Y-85099159D01*
X110151969Y-85114344D01*
X109924134Y-85137085D01*
X109924128Y-85137086D01*
X109920961Y-85137402D01*
X109725038Y-85177263D01*
X109546764Y-85213533D01*
X109546760Y-85213534D01*
X109543639Y-85214169D01*
X109540597Y-85215116D01*
X109540591Y-85215118D01*
X109441442Y-85246000D01*
X109176008Y-85328674D01*
X109173080Y-85329923D01*
X108824759Y-85478494D01*
X108824755Y-85478496D01*
X108821829Y-85479744D01*
X108819050Y-85481278D01*
X108819044Y-85481281D01*
X108601598Y-85601318D01*
X108484731Y-85665832D01*
X108482110Y-85667647D01*
X108482105Y-85667650D01*
X108189030Y-85870585D01*
X108168163Y-85885034D01*
X107875368Y-86135104D01*
X107873168Y-86137406D01*
X107873165Y-86137409D01*
X107793258Y-86221027D01*
X107609343Y-86413484D01*
X107607386Y-86415998D01*
X107607385Y-86415999D01*
X107401666Y-86680257D01*
X107372812Y-86717321D01*
X107371116Y-86720025D01*
X107371113Y-86720029D01*
X107279848Y-86865519D01*
X107168196Y-87043507D01*
X106997591Y-87388700D01*
X106996477Y-87391681D01*
X106996476Y-87391682D01*
X106928001Y-87574827D01*
X106862743Y-87749366D01*
X106765034Y-88121814D01*
X106743628Y-88258509D01*
X106706016Y-88498694D01*
X106705462Y-88502229D01*
X106705291Y-88505391D01*
X106705290Y-88505398D01*
X106690600Y-88776653D01*
X106684639Y-88886717D01*
X93005500Y-88886717D01*
X93005500Y-88879967D01*
X93025502Y-88811846D01*
X93079158Y-88765353D01*
X93149432Y-88755249D01*
X93167286Y-88759156D01*
X93409832Y-88831002D01*
X93418184Y-88832869D01*
X93680340Y-88872984D01*
X93688874Y-88873700D01*
X93954045Y-88877867D01*
X93962596Y-88877418D01*
X94225883Y-88845557D01*
X94234284Y-88843955D01*
X94490824Y-88776653D01*
X94498926Y-88773926D01*
X94743949Y-88672434D01*
X94751617Y-88668628D01*
X94858996Y-88605881D01*
X94868672Y-88595626D01*
X94865354Y-88587461D01*
X93234988Y-86957095D01*
X93200962Y-86894783D01*
X93206027Y-86823968D01*
X93234988Y-86778905D01*
X93763905Y-86249988D01*
X93826217Y-86215962D01*
X93897032Y-86221027D01*
X93942095Y-86249988D01*
X95569889Y-87877782D01*
X95582269Y-87884542D01*
X95588533Y-87879853D01*
X95680962Y-87709620D01*
X95684530Y-87701827D01*
X95778271Y-87453750D01*
X95780748Y-87445544D01*
X95839954Y-87187038D01*
X95841294Y-87178577D01*
X95865031Y-86912616D01*
X95865277Y-86907677D01*
X95865666Y-86870485D01*
X95865523Y-86865519D01*
X95847362Y-86599123D01*
X95846201Y-86590649D01*
X95792419Y-86330944D01*
X95790120Y-86322709D01*
X95701588Y-86072705D01*
X95698191Y-86064854D01*
X95576550Y-85829178D01*
X95572122Y-85821866D01*
X95474385Y-85682802D01*
X95451580Y-85615568D01*
X95468744Y-85546677D01*
X95520429Y-85498003D01*
X95564002Y-85485073D01*
X95584381Y-85482882D01*
X95584382Y-85482882D01*
X95587729Y-85482522D01*
X95591013Y-85481808D01*
X95591017Y-85481807D01*
X95638641Y-85471447D01*
X95640071Y-85471136D01*
X95731766Y-85446605D01*
X95736048Y-85444744D01*
X95736051Y-85444743D01*
X95795627Y-85418851D01*
X95918356Y-85365513D01*
X96084803Y-85248522D01*
X96138459Y-85202029D01*
X96140277Y-85200168D01*
X96140284Y-85200162D01*
X96250807Y-85087063D01*
X96250809Y-85087061D01*
X96254868Y-85082907D01*
X96258099Y-85078078D01*
X96364444Y-84919120D01*
X96364446Y-84919117D01*
X96367996Y-84913810D01*
X96444769Y-84725401D01*
X96464771Y-84657280D01*
X96467909Y-84644685D01*
X96480280Y-84595022D01*
X96484917Y-84576406D01*
X96501834Y-84410052D01*
X96505177Y-84377179D01*
X96505177Y-84377174D01*
X96505500Y-84374000D01*
X96505500Y-68126000D01*
X96482522Y-67912271D01*
X96471136Y-67859929D01*
X96446605Y-67768234D01*
X96365513Y-67581644D01*
X96248522Y-67415197D01*
X96202029Y-67361541D01*
X96200168Y-67359723D01*
X96200162Y-67359716D01*
X96087063Y-67249193D01*
X96087061Y-67249191D01*
X96082907Y-67245132D01*
X96078080Y-67241903D01*
X96078078Y-67241901D01*
X95919120Y-67135556D01*
X95919117Y-67135554D01*
X95913810Y-67132004D01*
X95725401Y-67055231D01*
X95657280Y-67035229D01*
X95655999Y-67034910D01*
X95655992Y-67034908D01*
X95619582Y-67025838D01*
X95576406Y-67015083D01*
X95497498Y-67007059D01*
X95377179Y-66994823D01*
X95377174Y-66994823D01*
X95374000Y-66994500D01*
X87135847Y-66994500D01*
X87067726Y-66974498D01*
X87021233Y-66920842D01*
X87011129Y-66850568D01*
X87014140Y-66835889D01*
X87041625Y-66733312D01*
X87043528Y-66722519D01*
X87062517Y-66505475D01*
X87062517Y-66494525D01*
X87043528Y-66277481D01*
X87041625Y-66266688D01*
X86985237Y-66056244D01*
X86981487Y-66045940D01*
X86966780Y-66014401D01*
X86957461Y-66003816D01*
X86951483Y-66005623D01*
X85839095Y-67118012D01*
X85776783Y-67152037D01*
X85705968Y-67146973D01*
X85660905Y-67118012D01*
X85131988Y-66589095D01*
X85097962Y-66526783D01*
X85103027Y-66455968D01*
X85131988Y-66410905D01*
X86239208Y-65303686D01*
X86245967Y-65291309D01*
X86242224Y-65286309D01*
X86204060Y-65268513D01*
X86193756Y-65264763D01*
X85983312Y-65208375D01*
X85972519Y-65206472D01*
X85755475Y-65187483D01*
X85744525Y-65187483D01*
X85527481Y-65206472D01*
X85516688Y-65208375D01*
X85306239Y-65264764D01*
X85295947Y-65268510D01*
X85184750Y-65320362D01*
X85114558Y-65331023D01*
X85049745Y-65302043D01*
X85010889Y-65242623D01*
X85005500Y-65206167D01*
X85005500Y-64131500D01*
X85025502Y-64063379D01*
X85079158Y-64016886D01*
X85131500Y-64005500D01*
X87837286Y-64005500D01*
X87932478Y-64000984D01*
X87937064Y-64000073D01*
X87937070Y-64000072D01*
X88128902Y-63961953D01*
X88128906Y-63961952D01*
X88132026Y-63961332D01*
X88202650Y-63939679D01*
X88205236Y-63938627D01*
X88207886Y-63937684D01*
X88208318Y-63938899D01*
X88273985Y-63932309D01*
X88298279Y-63939459D01*
X88308350Y-63943562D01*
X88308356Y-63943564D01*
X88311313Y-63944769D01*
X88379434Y-63964771D01*
X88380715Y-63965090D01*
X88380722Y-63965092D01*
X88417132Y-63974162D01*
X88460308Y-63984917D01*
X88539216Y-63992941D01*
X88659535Y-64005177D01*
X88659540Y-64005177D01*
X88662714Y-64005500D01*
X103368500Y-64005500D01*
X103436621Y-64025502D01*
X103483114Y-64079158D01*
X103494500Y-64131500D01*
X103494500Y-79874000D01*
X103494860Y-79877348D01*
X103494860Y-79877349D01*
X103496001Y-79887958D01*
X103517478Y-80087729D01*
X103528864Y-80140071D01*
X103553395Y-80231766D01*
X103634487Y-80418356D01*
X103751478Y-80584803D01*
X103797971Y-80638459D01*
X103799832Y-80640277D01*
X103799838Y-80640284D01*
X103864770Y-80703737D01*
X103917093Y-80754868D01*
X103921920Y-80758097D01*
X103921922Y-80758099D01*
X104080880Y-80864444D01*
X104080883Y-80864446D01*
X104086190Y-80867996D01*
X104274599Y-80944769D01*
X104342720Y-80964771D01*
X104344001Y-80965090D01*
X104344008Y-80965092D01*
X104380418Y-80974162D01*
X104423594Y-80984917D01*
X104502502Y-80992941D01*
X104622821Y-81005177D01*
X104622826Y-81005177D01*
X104626000Y-81005500D01*
X111874000Y-81005500D01*
X112087729Y-80982522D01*
X112091013Y-80981808D01*
X112091017Y-80981807D01*
X112128042Y-80973753D01*
X112140071Y-80971136D01*
X112231766Y-80946605D01*
X112236048Y-80944744D01*
X112236051Y-80944743D01*
X112290599Y-80921036D01*
X112418356Y-80865513D01*
X112529321Y-80787519D01*
X112582191Y-80750358D01*
X112582192Y-80750357D01*
X112584803Y-80748522D01*
X112638459Y-80702029D01*
X112640277Y-80700168D01*
X112640284Y-80700162D01*
X112750807Y-80587063D01*
X112750809Y-80587061D01*
X112754868Y-80582907D01*
X112758099Y-80578078D01*
X112864444Y-80419120D01*
X112864446Y-80419117D01*
X112867996Y-80413810D01*
X112944769Y-80225401D01*
X112964771Y-80157280D01*
X112984917Y-80076406D01*
X113004667Y-79882191D01*
X113005177Y-79877179D01*
X113005177Y-79877174D01*
X113005500Y-79874000D01*
X113005500Y-72149181D01*
X112994750Y-72002540D01*
X112989390Y-71966180D01*
X112985136Y-71939769D01*
X112930026Y-71743925D01*
X112836620Y-71563185D01*
X112797811Y-71503734D01*
X112797066Y-71502690D01*
X112797051Y-71502668D01*
X112752011Y-71439552D01*
X112749395Y-71435886D01*
X112609021Y-71288959D01*
X112604315Y-71283750D01*
X112553584Y-71224352D01*
X112541962Y-71208355D01*
X112503393Y-71145415D01*
X112494418Y-71127800D01*
X112466168Y-71059600D01*
X112460057Y-71040795D01*
X112442823Y-70969010D01*
X112439730Y-70949482D01*
X112433938Y-70875886D01*
X112433938Y-70856114D01*
X112439730Y-70782518D01*
X112442823Y-70762990D01*
X112460057Y-70691205D01*
X112466168Y-70672400D01*
X112494418Y-70604200D01*
X112503393Y-70586585D01*
X112541962Y-70523645D01*
X112553584Y-70507649D01*
X112603873Y-70448768D01*
X112611060Y-70441034D01*
X112713383Y-70339799D01*
X112737550Y-70312109D01*
X112742245Y-70306583D01*
X112752528Y-70294481D01*
X112752534Y-70294473D01*
X112754868Y-70291726D01*
X112867996Y-70122629D01*
X112944769Y-69934220D01*
X112964771Y-69866099D01*
X112984917Y-69785225D01*
X113005500Y-69582819D01*
X113005500Y-52126000D01*
X112982522Y-51912271D01*
X112971136Y-51859929D01*
X112946605Y-51768234D01*
X112865513Y-51581644D01*
X112748522Y-51415197D01*
X112702029Y-51361541D01*
X112700168Y-51359723D01*
X112700162Y-51359716D01*
X112587063Y-51249193D01*
X112587061Y-51249191D01*
X112582907Y-51245132D01*
X112578080Y-51241903D01*
X112578078Y-51241901D01*
X112419120Y-51135556D01*
X112419117Y-51135554D01*
X112413810Y-51132004D01*
X112225401Y-51055231D01*
X112157280Y-51035229D01*
X112155999Y-51034910D01*
X112155992Y-51034908D01*
X112119582Y-51025838D01*
X112076406Y-51015083D01*
X111997498Y-51007059D01*
X111877179Y-50994823D01*
X111877174Y-50994823D01*
X111874000Y-50994500D01*
X85638243Y-50994500D01*
X85570122Y-50974498D01*
X85523629Y-50920842D01*
X85513525Y-50850568D01*
X85543019Y-50785988D01*
X85567381Y-50764315D01*
X85570510Y-50762186D01*
X85573164Y-50760381D01*
X85575608Y-50758328D01*
X85575615Y-50758323D01*
X85603246Y-50735115D01*
X85627529Y-50714720D01*
X85745763Y-50597400D01*
X85777029Y-50552186D01*
X85857842Y-50435324D01*
X85857844Y-50435321D01*
X85861479Y-50430064D01*
X85941143Y-50242860D01*
X85942203Y-50239445D01*
X85961818Y-50176258D01*
X85961823Y-50176239D01*
X85962191Y-50175055D01*
X85983580Y-50094497D01*
X85998658Y-49965920D01*
X86006903Y-49895605D01*
X86006903Y-49895603D01*
X86007275Y-49892432D01*
X86100902Y-43808609D01*
X86121950Y-43740805D01*
X86176315Y-43695144D01*
X86230244Y-43684594D01*
X86417875Y-43689598D01*
X86655748Y-43695943D01*
X86711056Y-43710390D01*
X86895885Y-43807633D01*
X86895889Y-43807635D01*
X86900033Y-43809815D01*
X87145667Y-43895594D01*
X87150260Y-43896466D01*
X87396693Y-43943253D01*
X87396696Y-43943253D01*
X87401282Y-43944124D01*
X87531272Y-43949231D01*
X87656595Y-43954156D01*
X87656601Y-43954156D01*
X87661263Y-43954339D01*
X87741994Y-43945498D01*
X87915245Y-43926524D01*
X87915250Y-43926523D01*
X87919898Y-43926014D01*
X87924422Y-43924823D01*
X88166982Y-43860962D01*
X88166984Y-43860961D01*
X88171505Y-43859771D01*
X88410557Y-43757066D01*
X88410798Y-43757627D01*
X88468622Y-43744293D01*
X89343367Y-43767623D01*
X89343434Y-43767624D01*
X89343833Y-43767635D01*
X89344254Y-43767641D01*
X89344304Y-43767642D01*
X89365216Y-43767939D01*
X89365217Y-43767939D01*
X89368807Y-43767990D01*
X89372371Y-43767634D01*
X89372375Y-43767634D01*
X89500230Y-43754868D01*
X89571250Y-43747777D01*
X89574362Y-43747143D01*
X89574371Y-43747142D01*
X89611367Y-43739609D01*
X89626951Y-43736436D01*
X89720346Y-43712116D01*
X89727035Y-43710374D01*
X89731766Y-43709142D01*
X89736246Y-43707195D01*
X89736249Y-43707194D01*
X89797652Y-43680508D01*
X89918356Y-43628050D01*
X90084803Y-43511059D01*
X90138459Y-43464566D01*
X90140277Y-43462705D01*
X90140284Y-43462699D01*
X90250807Y-43349600D01*
X90250809Y-43349598D01*
X90254868Y-43345444D01*
X90258099Y-43340615D01*
X90364444Y-43181657D01*
X90364446Y-43181654D01*
X90367996Y-43176347D01*
X90444769Y-42987938D01*
X90464771Y-42919817D01*
X90484917Y-42838943D01*
X90505500Y-42636537D01*
X90505500Y-40204823D01*
X90525502Y-40136702D01*
X90579158Y-40090209D01*
X90649432Y-40080105D01*
X90702049Y-40100426D01*
X90818206Y-40178922D01*
X90828690Y-40184638D01*
X91016450Y-40264918D01*
X91027821Y-40268547D01*
X91228480Y-40312115D01*
X91238100Y-40313437D01*
X91279387Y-40315890D01*
X91283102Y-40316000D01*
X91474885Y-40316000D01*
X91490124Y-40311525D01*
X91491329Y-40310135D01*
X91493000Y-40302452D01*
X91493000Y-40297884D01*
X92493000Y-40297884D01*
X92497475Y-40313123D01*
X92498865Y-40314328D01*
X92506548Y-40315999D01*
X92702807Y-40315999D01*
X92706701Y-40315879D01*
X92749893Y-40313210D01*
X92759472Y-40311874D01*
X92960073Y-40267952D01*
X92971432Y-40264305D01*
X93159059Y-40183694D01*
X93169533Y-40177959D01*
X93338522Y-40063331D01*
X93347724Y-40055718D01*
X93491992Y-39911198D01*
X93499587Y-39901985D01*
X93613922Y-39732794D01*
X93619638Y-39722310D01*
X93699918Y-39534550D01*
X93703547Y-39523179D01*
X93747115Y-39322520D01*
X93748437Y-39312900D01*
X93750890Y-39271613D01*
X93751000Y-39267898D01*
X93751000Y-38576115D01*
X93746525Y-38560876D01*
X93745135Y-38559671D01*
X93737452Y-38558000D01*
X92511115Y-38558000D01*
X92495876Y-38562475D01*
X92494671Y-38563865D01*
X92493000Y-38571548D01*
X92493000Y-40297884D01*
X91493000Y-40297884D01*
X91493000Y-37684000D01*
X91513002Y-37615879D01*
X91566658Y-37569386D01*
X91619000Y-37558000D01*
X93732884Y-37558000D01*
X93748123Y-37553525D01*
X93749328Y-37552135D01*
X93750999Y-37544452D01*
X93750999Y-36848194D01*
X93750879Y-36844299D01*
X93748210Y-36801107D01*
X93746874Y-36791528D01*
X93702952Y-36590927D01*
X93699305Y-36579568D01*
X93618694Y-36391941D01*
X93612959Y-36381467D01*
X93498329Y-36212476D01*
X93497777Y-36211808D01*
X93497606Y-36211409D01*
X93494963Y-36207513D01*
X93495714Y-36207003D01*
X93469772Y-36146569D01*
X93481484Y-36076545D01*
X93529195Y-36023969D01*
X93594868Y-36005500D01*
X102868500Y-36005500D01*
X102936621Y-36025502D01*
X102983114Y-36079158D01*
X102994500Y-36131500D01*
X102994500Y-40874000D01*
X103017478Y-41087729D01*
X103018192Y-41091013D01*
X103018193Y-41091017D01*
X103020680Y-41102450D01*
X103028864Y-41140071D01*
X103053395Y-41231766D01*
X103134487Y-41418356D01*
X103251478Y-41584803D01*
X103297971Y-41638459D01*
X103299832Y-41640277D01*
X103299838Y-41640284D01*
X103364770Y-41703737D01*
X103417093Y-41754868D01*
X103421920Y-41758097D01*
X103421922Y-41758099D01*
X103580880Y-41864444D01*
X103580883Y-41864446D01*
X103586190Y-41867996D01*
X103774599Y-41944769D01*
X103842720Y-41964771D01*
X103844001Y-41965090D01*
X103844008Y-41965092D01*
X103869520Y-41971447D01*
X103923594Y-41984917D01*
X103982596Y-41990917D01*
X104122821Y-42005177D01*
X104122826Y-42005177D01*
X104126000Y-42005500D01*
X112874000Y-42005500D01*
X113087729Y-41982522D01*
X113091013Y-41981808D01*
X113091017Y-41981807D01*
X113138641Y-41971447D01*
X113140071Y-41971136D01*
X113231766Y-41946605D01*
X113236048Y-41944744D01*
X113236051Y-41944743D01*
X113290599Y-41921036D01*
X113418356Y-41865513D01*
X113529321Y-41787519D01*
X113582191Y-41750358D01*
X113582192Y-41750357D01*
X113584803Y-41748522D01*
X113638459Y-41702029D01*
X113640277Y-41700168D01*
X113640284Y-41700162D01*
X113750807Y-41587063D01*
X113750809Y-41587061D01*
X113754868Y-41582907D01*
X113867996Y-41413810D01*
X113944769Y-41225401D01*
X113964771Y-41157280D01*
X113984917Y-41076406D01*
X114003944Y-40889301D01*
X114005177Y-40877179D01*
X114005177Y-40877174D01*
X114005500Y-40874000D01*
X114005500Y-27126000D01*
X113982522Y-26912271D01*
X113971136Y-26859929D01*
X113946605Y-26768234D01*
X113865513Y-26581644D01*
X113748522Y-26415197D01*
X113702029Y-26361541D01*
X113700168Y-26359723D01*
X113700162Y-26359716D01*
X113587063Y-26249193D01*
X113587061Y-26249191D01*
X113582907Y-26245132D01*
X113578080Y-26241903D01*
X113578078Y-26241901D01*
X113419120Y-26135556D01*
X113419117Y-26135554D01*
X113413810Y-26132004D01*
X113225401Y-26055231D01*
X113157280Y-26035229D01*
X113155999Y-26034910D01*
X113155992Y-26034908D01*
X113119582Y-26025838D01*
X113076406Y-26015083D01*
X112997498Y-26007059D01*
X112877179Y-25994823D01*
X112877174Y-25994823D01*
X112874000Y-25994500D01*
X101131500Y-25994500D01*
X101063379Y-25974498D01*
X101016886Y-25920842D01*
X101005500Y-25868500D01*
X101005500Y-21221117D01*
X104957439Y-21221117D01*
X104957589Y-21224298D01*
X104970095Y-21489469D01*
X104975578Y-21605740D01*
X104976049Y-21608893D01*
X104976050Y-21608901D01*
X105002224Y-21784033D01*
X105032492Y-21986562D01*
X105033278Y-21989644D01*
X105033278Y-21989646D01*
X105042439Y-22025584D01*
X105127599Y-22359683D01*
X105259926Y-22721282D01*
X105428117Y-23067658D01*
X105630450Y-23395264D01*
X105632391Y-23397794D01*
X105632392Y-23397795D01*
X105778408Y-23588086D01*
X105864854Y-23700745D01*
X106128929Y-23980975D01*
X106131334Y-23983059D01*
X106131340Y-23983064D01*
X106320440Y-24146867D01*
X106419972Y-24233084D01*
X106735001Y-24454490D01*
X107070792Y-24642927D01*
X107073706Y-24644194D01*
X107073710Y-24644196D01*
X107131342Y-24669255D01*
X107423907Y-24796466D01*
X107790731Y-24913534D01*
X107934153Y-24943758D01*
X108164382Y-24992275D01*
X108164392Y-24992277D01*
X108167507Y-24992933D01*
X108170670Y-24993271D01*
X108170676Y-24993272D01*
X108547211Y-25033513D01*
X108547220Y-25033514D01*
X108550378Y-25033851D01*
X108553564Y-25033868D01*
X108553570Y-25033868D01*
X108730050Y-25034792D01*
X108935424Y-25035867D01*
X109126596Y-25017459D01*
X109315537Y-24999266D01*
X109315542Y-24999265D01*
X109318702Y-24998961D01*
X109321822Y-24998338D01*
X109321826Y-24998337D01*
X109693161Y-24924137D01*
X109693160Y-24924137D01*
X109696289Y-24923512D01*
X109699325Y-24922578D01*
X109699333Y-24922576D01*
X110061276Y-24811227D01*
X110061279Y-24811226D01*
X110064318Y-24810291D01*
X110067246Y-24809054D01*
X110067252Y-24809052D01*
X110326067Y-24699724D01*
X110419021Y-24660459D01*
X110421824Y-24658925D01*
X110421829Y-24658922D01*
X110658009Y-24529617D01*
X110756768Y-24475548D01*
X111074098Y-24257453D01*
X111076537Y-24255385D01*
X111076543Y-24255380D01*
X111365325Y-24010476D01*
X111365333Y-24010468D01*
X111367765Y-24008406D01*
X111369973Y-24006111D01*
X111369981Y-24006104D01*
X111632545Y-23733259D01*
X111632547Y-23733256D01*
X111634760Y-23730957D01*
X111747991Y-23586548D01*
X111870376Y-23430464D01*
X111870379Y-23430459D01*
X111872350Y-23427946D01*
X112078103Y-23102477D01*
X112079523Y-23099628D01*
X112079528Y-23099620D01*
X112248492Y-22760730D01*
X112249912Y-22757882D01*
X112386018Y-22397688D01*
X112395335Y-22362674D01*
X112484206Y-22028669D01*
X112485027Y-22025584D01*
X112485718Y-22021274D01*
X112545421Y-21648530D01*
X112545926Y-21645379D01*
X112548030Y-21608901D01*
X112567993Y-21262661D01*
X112568091Y-21260966D01*
X112568184Y-21234400D01*
X112567673Y-21224298D01*
X112548864Y-20853015D01*
X112548863Y-20853010D01*
X112548703Y-20849842D01*
X112490460Y-20469221D01*
X112454181Y-20328942D01*
X112394848Y-20099515D01*
X112394845Y-20099507D01*
X112394051Y-20096435D01*
X112392642Y-20092624D01*
X112311818Y-19874131D01*
X112260463Y-19735300D01*
X112184491Y-19580221D01*
X112092465Y-19392372D01*
X112092462Y-19392366D01*
X112091064Y-19389513D01*
X111971757Y-19197839D01*
X111889275Y-19065325D01*
X111889267Y-19065314D01*
X111887588Y-19062616D01*
X111722708Y-18849286D01*
X111654071Y-18760479D01*
X111654066Y-18760474D01*
X111652119Y-18757954D01*
X111627113Y-18731603D01*
X111389266Y-18480965D01*
X111389263Y-18480963D01*
X111387067Y-18478648D01*
X111325877Y-18426016D01*
X111097562Y-18229634D01*
X111097559Y-18229632D01*
X111095147Y-18227557D01*
X110779346Y-18007251D01*
X110530875Y-17868954D01*
X110445684Y-17821537D01*
X110445682Y-17821536D01*
X110442899Y-17819987D01*
X110439979Y-17818729D01*
X110439974Y-17818727D01*
X110092184Y-17668945D01*
X110092174Y-17668941D01*
X110089250Y-17667682D01*
X109722021Y-17551895D01*
X109451272Y-17495826D01*
X109348095Y-17474459D01*
X109348092Y-17474459D01*
X109344970Y-17473812D01*
X109051499Y-17443484D01*
X108965114Y-17434557D01*
X108965111Y-17434557D01*
X108961958Y-17434231D01*
X108958792Y-17434225D01*
X108958783Y-17434225D01*
X108768711Y-17433894D01*
X108576908Y-17433559D01*
X108424769Y-17448744D01*
X108196934Y-17471485D01*
X108196928Y-17471486D01*
X108193761Y-17471802D01*
X107997838Y-17511663D01*
X107819564Y-17547933D01*
X107819560Y-17547934D01*
X107816439Y-17548569D01*
X107813397Y-17549516D01*
X107813391Y-17549518D01*
X107691244Y-17587563D01*
X107448808Y-17663074D01*
X107445880Y-17664323D01*
X107097559Y-17812894D01*
X107097555Y-17812896D01*
X107094629Y-17814144D01*
X107091850Y-17815678D01*
X107091844Y-17815681D01*
X106964219Y-17886134D01*
X106757531Y-18000232D01*
X106754910Y-18002047D01*
X106754905Y-18002050D01*
X106583531Y-18120715D01*
X106440963Y-18219434D01*
X106328770Y-18315256D01*
X106174303Y-18447183D01*
X106148168Y-18469504D01*
X106145968Y-18471806D01*
X106145965Y-18471809D01*
X106115803Y-18503372D01*
X105882143Y-18747884D01*
X105880186Y-18750398D01*
X105880185Y-18750399D01*
X105803204Y-18849286D01*
X105645612Y-19051721D01*
X105643916Y-19054425D01*
X105643913Y-19054429D01*
X105637078Y-19065325D01*
X105440996Y-19377907D01*
X105270391Y-19723100D01*
X105135543Y-20083766D01*
X105037834Y-20456214D01*
X105025847Y-20532760D01*
X104986569Y-20783585D01*
X104978262Y-20836629D01*
X104978091Y-20839791D01*
X104978090Y-20839798D01*
X104971023Y-20970285D01*
X104957439Y-21221117D01*
X101005500Y-21221117D01*
X101005500Y-16126000D01*
X100982522Y-15912271D01*
X100971136Y-15859929D01*
X100946605Y-15768234D01*
X100944741Y-15763944D01*
X100910311Y-15684721D01*
X100901504Y-15614273D01*
X100932182Y-15550247D01*
X100992606Y-15512970D01*
X101025870Y-15508500D01*
X115365500Y-15508500D01*
X115433621Y-15528502D01*
X115480114Y-15582158D01*
X115491500Y-15634500D01*
X115491500Y-94365500D01*
X115471498Y-94433621D01*
X115417842Y-94480114D01*
X115365500Y-94491500D01*
X31634500Y-94491500D01*
X31566379Y-94471498D01*
X31519886Y-94417842D01*
X31508500Y-94365500D01*
X31508500Y-88632717D01*
X34929639Y-88632717D01*
X34929789Y-88635898D01*
X34946371Y-88987500D01*
X34947778Y-89017340D01*
X34948249Y-89020493D01*
X34948250Y-89020501D01*
X34974424Y-89195633D01*
X35004692Y-89398162D01*
X35005478Y-89401244D01*
X35005478Y-89401246D01*
X35069436Y-89652162D01*
X35099799Y-89771283D01*
X35232126Y-90132882D01*
X35400317Y-90479258D01*
X35602650Y-90806864D01*
X35837054Y-91112345D01*
X36101129Y-91392575D01*
X36103534Y-91394659D01*
X36103540Y-91394664D01*
X36318391Y-91580773D01*
X36392172Y-91644684D01*
X36707201Y-91866090D01*
X37042992Y-92054527D01*
X37045906Y-92055794D01*
X37045910Y-92055796D01*
X37118171Y-92087216D01*
X37396107Y-92208066D01*
X37762931Y-92325134D01*
X37906353Y-92355358D01*
X38136582Y-92403875D01*
X38136592Y-92403877D01*
X38139707Y-92404533D01*
X38142870Y-92404871D01*
X38142876Y-92404872D01*
X38519411Y-92445113D01*
X38519420Y-92445114D01*
X38522578Y-92445451D01*
X38525764Y-92445468D01*
X38525770Y-92445468D01*
X38702250Y-92446392D01*
X38907624Y-92447467D01*
X39052167Y-92433549D01*
X39287737Y-92410866D01*
X39287742Y-92410865D01*
X39290902Y-92410561D01*
X39294022Y-92409938D01*
X39294026Y-92409937D01*
X39665361Y-92335737D01*
X39665360Y-92335737D01*
X39668489Y-92335112D01*
X39671525Y-92334178D01*
X39671533Y-92334176D01*
X40033476Y-92222827D01*
X40033479Y-92222826D01*
X40036518Y-92221891D01*
X40039446Y-92220654D01*
X40039452Y-92220652D01*
X40229709Y-92140284D01*
X40391221Y-92072059D01*
X40394024Y-92070525D01*
X40394029Y-92070522D01*
X40539446Y-91990908D01*
X40728968Y-91887148D01*
X41046298Y-91669053D01*
X41048737Y-91666985D01*
X41048743Y-91666980D01*
X41337525Y-91422076D01*
X41337533Y-91422068D01*
X41339965Y-91420006D01*
X41342173Y-91417711D01*
X41342181Y-91417704D01*
X41604745Y-91144859D01*
X41604747Y-91144856D01*
X41606960Y-91142557D01*
X41844550Y-90839546D01*
X42050303Y-90514077D01*
X42051723Y-90511228D01*
X42051728Y-90511220D01*
X42220692Y-90172330D01*
X42222112Y-90169482D01*
X42358218Y-89809288D01*
X42367535Y-89774274D01*
X42456406Y-89440269D01*
X42457227Y-89437184D01*
X42462984Y-89401246D01*
X42494133Y-89206773D01*
X42518126Y-89056979D01*
X42520230Y-89020501D01*
X42531495Y-88825109D01*
X42540291Y-88672566D01*
X42540384Y-88646000D01*
X42539873Y-88635898D01*
X42521064Y-88264615D01*
X42521063Y-88264610D01*
X42520903Y-88261442D01*
X42487326Y-88042014D01*
X42463144Y-87883981D01*
X42463142Y-87883972D01*
X42462660Y-87880821D01*
X42429030Y-87750782D01*
X42367048Y-87511115D01*
X42367045Y-87511107D01*
X42366251Y-87508035D01*
X42362855Y-87498853D01*
X42299883Y-87328620D01*
X42232663Y-87146900D01*
X42225286Y-87131842D01*
X42064665Y-86803972D01*
X42064662Y-86803966D01*
X42063264Y-86801113D01*
X41947501Y-86615132D01*
X41861475Y-86476925D01*
X41861467Y-86476914D01*
X41859788Y-86474216D01*
X41737347Y-86315795D01*
X41626271Y-86172079D01*
X41626266Y-86172074D01*
X41624319Y-86169554D01*
X41598326Y-86142163D01*
X41361466Y-85892565D01*
X41361463Y-85892563D01*
X41359267Y-85890248D01*
X41276091Y-85818705D01*
X41069762Y-85641234D01*
X41069759Y-85641232D01*
X41067347Y-85639157D01*
X40751546Y-85418851D01*
X40445525Y-85248522D01*
X40417884Y-85233137D01*
X40417882Y-85233136D01*
X40415099Y-85231587D01*
X40412179Y-85230329D01*
X40412174Y-85230327D01*
X40064384Y-85080545D01*
X40064374Y-85080541D01*
X40061450Y-85079282D01*
X39694221Y-84963495D01*
X39377473Y-84897900D01*
X39320295Y-84886059D01*
X39320292Y-84886059D01*
X39317170Y-84885412D01*
X39023699Y-84855084D01*
X38937314Y-84846157D01*
X38937311Y-84846157D01*
X38934158Y-84845831D01*
X38930992Y-84845825D01*
X38930983Y-84845825D01*
X38740911Y-84845494D01*
X38549108Y-84845159D01*
X38396969Y-84860344D01*
X38169134Y-84883085D01*
X38169128Y-84883086D01*
X38165961Y-84883402D01*
X38045574Y-84907895D01*
X37791764Y-84959533D01*
X37791760Y-84959534D01*
X37788639Y-84960169D01*
X37785597Y-84961116D01*
X37785591Y-84961118D01*
X37633214Y-85008579D01*
X37421008Y-85074674D01*
X37363604Y-85099159D01*
X37069759Y-85224494D01*
X37069755Y-85224496D01*
X37066829Y-85225744D01*
X37064050Y-85227278D01*
X37064044Y-85227281D01*
X36813638Y-85365513D01*
X36729731Y-85411832D01*
X36727110Y-85413647D01*
X36727105Y-85413650D01*
X36534990Y-85546677D01*
X36413163Y-85631034D01*
X36193428Y-85818705D01*
X36143960Y-85860955D01*
X36120368Y-85881104D01*
X36118168Y-85883406D01*
X36118165Y-85883409D01*
X36018670Y-85987525D01*
X35854343Y-86159484D01*
X35852386Y-86161998D01*
X35852385Y-86161999D01*
X35648770Y-86423554D01*
X35617812Y-86463321D01*
X35413196Y-86789507D01*
X35242591Y-87134700D01*
X35241477Y-87137681D01*
X35241476Y-87137682D01*
X35221338Y-87191544D01*
X35107743Y-87495366D01*
X35010034Y-87867814D01*
X34982755Y-88042014D01*
X34955540Y-88215803D01*
X34950462Y-88248229D01*
X34950291Y-88251391D01*
X34950290Y-88251398D01*
X34935691Y-88520971D01*
X34929639Y-88632717D01*
X31508500Y-88632717D01*
X31508500Y-79399807D01*
X35625001Y-79399807D01*
X35625121Y-79403701D01*
X35627790Y-79446893D01*
X35629126Y-79456472D01*
X35673048Y-79657073D01*
X35676695Y-79668432D01*
X35757306Y-79856059D01*
X35763041Y-79866533D01*
X35877669Y-80035522D01*
X35885282Y-80044724D01*
X36029802Y-80188992D01*
X36039015Y-80196587D01*
X36208206Y-80310922D01*
X36218690Y-80316638D01*
X36406450Y-80396918D01*
X36417821Y-80400547D01*
X36618480Y-80444115D01*
X36628100Y-80445437D01*
X36669387Y-80447890D01*
X36673102Y-80448000D01*
X36864885Y-80448000D01*
X36880124Y-80443525D01*
X36881329Y-80442135D01*
X36883000Y-80434452D01*
X36883000Y-80429884D01*
X37883000Y-80429884D01*
X37887475Y-80445123D01*
X37888865Y-80446328D01*
X37896548Y-80447999D01*
X38092807Y-80447999D01*
X38096701Y-80447879D01*
X38139893Y-80445210D01*
X38149472Y-80443874D01*
X38350073Y-80399952D01*
X38361432Y-80396305D01*
X38549059Y-80315694D01*
X38559533Y-80309959D01*
X38728522Y-80195331D01*
X38737724Y-80187718D01*
X38881992Y-80043198D01*
X38889587Y-80033985D01*
X39003922Y-79864794D01*
X39009638Y-79854310D01*
X39089918Y-79666550D01*
X39093547Y-79655179D01*
X39137115Y-79454520D01*
X39138437Y-79444900D01*
X39140890Y-79403613D01*
X39141000Y-79399898D01*
X39141000Y-78708115D01*
X39136525Y-78692876D01*
X39135135Y-78691671D01*
X39127452Y-78690000D01*
X37901115Y-78690000D01*
X37885876Y-78694475D01*
X37884671Y-78695865D01*
X37883000Y-78703548D01*
X37883000Y-80429884D01*
X36883000Y-80429884D01*
X36883000Y-78708115D01*
X36878525Y-78692876D01*
X36877135Y-78691671D01*
X36869452Y-78690000D01*
X35643116Y-78690000D01*
X35627877Y-78694475D01*
X35626672Y-78695865D01*
X35625001Y-78703548D01*
X35625001Y-79399807D01*
X31508500Y-79399807D01*
X31508500Y-77671885D01*
X35625000Y-77671885D01*
X35629475Y-77687124D01*
X35630865Y-77688329D01*
X35638548Y-77690000D01*
X36864885Y-77690000D01*
X36880124Y-77685525D01*
X36881329Y-77684135D01*
X36883000Y-77676452D01*
X36883000Y-77671885D01*
X37883000Y-77671885D01*
X37887475Y-77687124D01*
X37888865Y-77688329D01*
X37896548Y-77690000D01*
X39122884Y-77690000D01*
X39138123Y-77685525D01*
X39139328Y-77684135D01*
X39140999Y-77676452D01*
X39140999Y-76980194D01*
X39140879Y-76976299D01*
X39138210Y-76933107D01*
X39136874Y-76923528D01*
X39092952Y-76722927D01*
X39089305Y-76711568D01*
X39008694Y-76523941D01*
X39002959Y-76513467D01*
X38888331Y-76344478D01*
X38880718Y-76335276D01*
X38736198Y-76191008D01*
X38726985Y-76183413D01*
X38557794Y-76069078D01*
X38547310Y-76063362D01*
X38359550Y-75983082D01*
X38348179Y-75979453D01*
X38147520Y-75935885D01*
X38137900Y-75934563D01*
X38096613Y-75932110D01*
X38092898Y-75932000D01*
X37901115Y-75932000D01*
X37885876Y-75936475D01*
X37884671Y-75937865D01*
X37883000Y-75945548D01*
X37883000Y-77671885D01*
X36883000Y-77671885D01*
X36883000Y-75950116D01*
X36878525Y-75934877D01*
X36877135Y-75933672D01*
X36869452Y-75932001D01*
X36673194Y-75932001D01*
X36669299Y-75932121D01*
X36626107Y-75934790D01*
X36616528Y-75936126D01*
X36415927Y-75980048D01*
X36404568Y-75983695D01*
X36216941Y-76064306D01*
X36206467Y-76070041D01*
X36037478Y-76184669D01*
X36028276Y-76192282D01*
X35884008Y-76336802D01*
X35876413Y-76346015D01*
X35762078Y-76515206D01*
X35756362Y-76525690D01*
X35676082Y-76713450D01*
X35672453Y-76724821D01*
X35628885Y-76925480D01*
X35627563Y-76935100D01*
X35625110Y-76976387D01*
X35625000Y-76980102D01*
X35625000Y-77671885D01*
X31508500Y-77671885D01*
X31508500Y-63958692D01*
X62504034Y-63958692D01*
X62507776Y-63963691D01*
X62545940Y-63981487D01*
X62556244Y-63985237D01*
X62766688Y-64041625D01*
X62777481Y-64043528D01*
X62994525Y-64062517D01*
X63005475Y-64062517D01*
X63222519Y-64043528D01*
X63233312Y-64041625D01*
X63443756Y-63985237D01*
X63454060Y-63981487D01*
X63485599Y-63966780D01*
X63496184Y-63957461D01*
X63494377Y-63951483D01*
X63012808Y-63469915D01*
X62998870Y-63462304D01*
X62997034Y-63462436D01*
X62990422Y-63466685D01*
X62510793Y-63946313D01*
X62504034Y-63958692D01*
X31508500Y-63958692D01*
X31508500Y-62755475D01*
X61687483Y-62755475D01*
X61706472Y-62972519D01*
X61708375Y-62983312D01*
X61764763Y-63193756D01*
X61768513Y-63204060D01*
X61783220Y-63235599D01*
X61792539Y-63246184D01*
X61798517Y-63244377D01*
X62280085Y-62762808D01*
X62286462Y-62751130D01*
X63712304Y-62751130D01*
X63712436Y-62752966D01*
X63716685Y-62759578D01*
X64196313Y-63239207D01*
X64208692Y-63245966D01*
X64213691Y-63242224D01*
X64231487Y-63204060D01*
X64235237Y-63193756D01*
X64291625Y-62983312D01*
X64293528Y-62972519D01*
X64312517Y-62755475D01*
X64312517Y-62744525D01*
X64293528Y-62527481D01*
X64291625Y-62516688D01*
X64235237Y-62306244D01*
X64231487Y-62295940D01*
X64216780Y-62264401D01*
X64207461Y-62253816D01*
X64201483Y-62255623D01*
X63719915Y-62737192D01*
X63712304Y-62751130D01*
X62286462Y-62751130D01*
X62287696Y-62748870D01*
X62287564Y-62747034D01*
X62283315Y-62740422D01*
X61803687Y-62260793D01*
X61791308Y-62254034D01*
X61786309Y-62257776D01*
X61768513Y-62295940D01*
X61764763Y-62306244D01*
X61708375Y-62516688D01*
X61706472Y-62527481D01*
X61687483Y-62744525D01*
X61687483Y-62755475D01*
X31508500Y-62755475D01*
X31508500Y-61542539D01*
X62503816Y-61542539D01*
X62505623Y-61548517D01*
X62987192Y-62030085D01*
X63001130Y-62037696D01*
X63002966Y-62037564D01*
X63009578Y-62033315D01*
X63489207Y-61553687D01*
X63495966Y-61541308D01*
X63492224Y-61536309D01*
X63454060Y-61518513D01*
X63443756Y-61514763D01*
X63233312Y-61458375D01*
X63222519Y-61456472D01*
X63005475Y-61437483D01*
X62994525Y-61437483D01*
X62777481Y-61456472D01*
X62766688Y-61458375D01*
X62556244Y-61514763D01*
X62545940Y-61518513D01*
X62514401Y-61533220D01*
X62503816Y-61542539D01*
X31508500Y-61542539D01*
X31508500Y-47346848D01*
X67884879Y-47346848D01*
X67888068Y-47351108D01*
X68060988Y-47422734D01*
X68070373Y-47425783D01*
X68291554Y-47478885D01*
X68301301Y-47480428D01*
X68528070Y-47498275D01*
X68537930Y-47498275D01*
X68764699Y-47480428D01*
X68774446Y-47478885D01*
X68995627Y-47425783D01*
X69005012Y-47422734D01*
X69170436Y-47354213D01*
X69181417Y-47345364D01*
X69180101Y-47340208D01*
X68545812Y-46705919D01*
X68531868Y-46698305D01*
X68530035Y-46698436D01*
X68523420Y-46702687D01*
X67891639Y-47334468D01*
X67884879Y-47346848D01*
X31508500Y-47346848D01*
X31508500Y-45990930D01*
X67020725Y-45990930D01*
X67038572Y-46217699D01*
X67040115Y-46227446D01*
X67093217Y-46448627D01*
X67096266Y-46458012D01*
X67164787Y-46623436D01*
X67173636Y-46634417D01*
X67178792Y-46633101D01*
X67813081Y-45998812D01*
X67819459Y-45987132D01*
X69245305Y-45987132D01*
X69245436Y-45988965D01*
X69249687Y-45995580D01*
X69881468Y-46627361D01*
X69893848Y-46634121D01*
X69898108Y-46630932D01*
X69969734Y-46458012D01*
X69972783Y-46448627D01*
X70025885Y-46227446D01*
X70027428Y-46217699D01*
X70045275Y-45990930D01*
X70045275Y-45981070D01*
X70027428Y-45754301D01*
X70025885Y-45744554D01*
X69972783Y-45523373D01*
X69969734Y-45513988D01*
X69901213Y-45348564D01*
X69892364Y-45337583D01*
X69887208Y-45338899D01*
X69252919Y-45973188D01*
X69245305Y-45987132D01*
X67819459Y-45987132D01*
X67820695Y-45984868D01*
X67820564Y-45983035D01*
X67816313Y-45976420D01*
X67184532Y-45344639D01*
X67172152Y-45337879D01*
X67167892Y-45341068D01*
X67096266Y-45513988D01*
X67093217Y-45523373D01*
X67040115Y-45744554D01*
X67038572Y-45754301D01*
X67020725Y-45981070D01*
X67020725Y-45990930D01*
X31508500Y-45990930D01*
X31508500Y-44626636D01*
X67884583Y-44626636D01*
X67885899Y-44631792D01*
X68520188Y-45266081D01*
X68534132Y-45273695D01*
X68535965Y-45273564D01*
X68542580Y-45269313D01*
X69174361Y-44637532D01*
X69181121Y-44625152D01*
X69177932Y-44620892D01*
X69005012Y-44549266D01*
X68995627Y-44546217D01*
X68774446Y-44493115D01*
X68764699Y-44491572D01*
X68537930Y-44473725D01*
X68528070Y-44473725D01*
X68301301Y-44491572D01*
X68291554Y-44493115D01*
X68070373Y-44546217D01*
X68060988Y-44549266D01*
X67895564Y-44617787D01*
X67884583Y-44626636D01*
X31508500Y-44626636D01*
X31508500Y-40029807D01*
X35625001Y-40029807D01*
X35625121Y-40033701D01*
X35627790Y-40076893D01*
X35629126Y-40086472D01*
X35673048Y-40287073D01*
X35676695Y-40298432D01*
X35757306Y-40486059D01*
X35763041Y-40496533D01*
X35877669Y-40665522D01*
X35885282Y-40674724D01*
X36029802Y-40818992D01*
X36039015Y-40826587D01*
X36208206Y-40940922D01*
X36218690Y-40946638D01*
X36406450Y-41026918D01*
X36417821Y-41030547D01*
X36618480Y-41074115D01*
X36628100Y-41075437D01*
X36669387Y-41077890D01*
X36673102Y-41078000D01*
X36864885Y-41078000D01*
X36880124Y-41073525D01*
X36881329Y-41072135D01*
X36883000Y-41064452D01*
X36883000Y-41059884D01*
X37883000Y-41059884D01*
X37887475Y-41075123D01*
X37888865Y-41076328D01*
X37896548Y-41077999D01*
X38092807Y-41077999D01*
X38096701Y-41077879D01*
X38139893Y-41075210D01*
X38149472Y-41073874D01*
X38350073Y-41029952D01*
X38361432Y-41026305D01*
X38549059Y-40945694D01*
X38559533Y-40939959D01*
X38728522Y-40825331D01*
X38737724Y-40817718D01*
X38881992Y-40673198D01*
X38889587Y-40663985D01*
X39003922Y-40494794D01*
X39009638Y-40484310D01*
X39089918Y-40296550D01*
X39093547Y-40285179D01*
X39137115Y-40084520D01*
X39138437Y-40074900D01*
X39140890Y-40033613D01*
X39141000Y-40029898D01*
X39141000Y-39338115D01*
X39136525Y-39322876D01*
X39135135Y-39321671D01*
X39127452Y-39320000D01*
X37901115Y-39320000D01*
X37885876Y-39324475D01*
X37884671Y-39325865D01*
X37883000Y-39333548D01*
X37883000Y-41059884D01*
X36883000Y-41059884D01*
X36883000Y-39338115D01*
X36878525Y-39322876D01*
X36877135Y-39321671D01*
X36869452Y-39320000D01*
X35643116Y-39320000D01*
X35627877Y-39324475D01*
X35626672Y-39325865D01*
X35625001Y-39333548D01*
X35625001Y-40029807D01*
X31508500Y-40029807D01*
X31508500Y-38301885D01*
X35625000Y-38301885D01*
X35629475Y-38317124D01*
X35630865Y-38318329D01*
X35638548Y-38320000D01*
X36864885Y-38320000D01*
X36880124Y-38315525D01*
X36881329Y-38314135D01*
X36883000Y-38306452D01*
X36883000Y-38301885D01*
X37883000Y-38301885D01*
X37887475Y-38317124D01*
X37888865Y-38318329D01*
X37896548Y-38320000D01*
X39122884Y-38320000D01*
X39138123Y-38315525D01*
X39139328Y-38314135D01*
X39140999Y-38306452D01*
X39140999Y-37610194D01*
X39140879Y-37606299D01*
X39138210Y-37563104D01*
X39136874Y-37553528D01*
X39092952Y-37352927D01*
X39089305Y-37341568D01*
X39008694Y-37153941D01*
X39002959Y-37143467D01*
X38888331Y-36974478D01*
X38880718Y-36965276D01*
X38736198Y-36821008D01*
X38726985Y-36813413D01*
X38557794Y-36699078D01*
X38547310Y-36693362D01*
X38359550Y-36613082D01*
X38348179Y-36609453D01*
X38147520Y-36565885D01*
X38137900Y-36564563D01*
X38096613Y-36562110D01*
X38092898Y-36562000D01*
X37901115Y-36562000D01*
X37885876Y-36566475D01*
X37884671Y-36567865D01*
X37883000Y-36575548D01*
X37883000Y-38301885D01*
X36883000Y-38301885D01*
X36883000Y-36580116D01*
X36878525Y-36564877D01*
X36877135Y-36563672D01*
X36869452Y-36562001D01*
X36673194Y-36562001D01*
X36669299Y-36562121D01*
X36626107Y-36564790D01*
X36616528Y-36566126D01*
X36415927Y-36610048D01*
X36404568Y-36613695D01*
X36216941Y-36694306D01*
X36206467Y-36700041D01*
X36037478Y-36814669D01*
X36028276Y-36822282D01*
X35884008Y-36966802D01*
X35876413Y-36976015D01*
X35762078Y-37145206D01*
X35756362Y-37155690D01*
X35676082Y-37343450D01*
X35672453Y-37354821D01*
X35628885Y-37555480D01*
X35627563Y-37565100D01*
X35625110Y-37606387D01*
X35625000Y-37610102D01*
X35625000Y-38301885D01*
X31508500Y-38301885D01*
X31508500Y-31573448D01*
X42357879Y-31573448D01*
X42361068Y-31577708D01*
X42533988Y-31649334D01*
X42543373Y-31652383D01*
X42764554Y-31705485D01*
X42774301Y-31707028D01*
X43001070Y-31724875D01*
X43010930Y-31724875D01*
X43237699Y-31707028D01*
X43247446Y-31705485D01*
X43468627Y-31652383D01*
X43478012Y-31649334D01*
X43643436Y-31580813D01*
X43654417Y-31571964D01*
X43653101Y-31566808D01*
X43018812Y-30932519D01*
X43004868Y-30924905D01*
X43003035Y-30925036D01*
X42996420Y-30929287D01*
X42364639Y-31561068D01*
X42357879Y-31573448D01*
X31508500Y-31573448D01*
X31508500Y-30217530D01*
X41493725Y-30217530D01*
X41511572Y-30444299D01*
X41513115Y-30454046D01*
X41566217Y-30675227D01*
X41569266Y-30684612D01*
X41637787Y-30850036D01*
X41646636Y-30861017D01*
X41651792Y-30859701D01*
X42286081Y-30225412D01*
X42292459Y-30213732D01*
X43718305Y-30213732D01*
X43718436Y-30215565D01*
X43722687Y-30222180D01*
X44354468Y-30853961D01*
X44366848Y-30860721D01*
X44371108Y-30857532D01*
X44442734Y-30684612D01*
X44445783Y-30675227D01*
X44498885Y-30454046D01*
X44500428Y-30444299D01*
X44518275Y-30217530D01*
X44518275Y-30207670D01*
X44500428Y-29980901D01*
X44498885Y-29971154D01*
X44445783Y-29749973D01*
X44442734Y-29740588D01*
X44374213Y-29575164D01*
X44365364Y-29564183D01*
X44360208Y-29565499D01*
X43725919Y-30199788D01*
X43718305Y-30213732D01*
X42292459Y-30213732D01*
X42293695Y-30211468D01*
X42293564Y-30209635D01*
X42289313Y-30203020D01*
X41657532Y-29571239D01*
X41645152Y-29564479D01*
X41640892Y-29567668D01*
X41569266Y-29740588D01*
X41566217Y-29749973D01*
X41513115Y-29971154D01*
X41511572Y-29980901D01*
X41493725Y-30207670D01*
X41493725Y-30217530D01*
X31508500Y-30217530D01*
X31508500Y-28853236D01*
X42357583Y-28853236D01*
X42358899Y-28858392D01*
X42993188Y-29492681D01*
X43007132Y-29500295D01*
X43008965Y-29500164D01*
X43015580Y-29495913D01*
X43647361Y-28864132D01*
X43654121Y-28851752D01*
X43650932Y-28847492D01*
X43478012Y-28775866D01*
X43468627Y-28772817D01*
X43247446Y-28719715D01*
X43237699Y-28718172D01*
X43010930Y-28700325D01*
X43001070Y-28700325D01*
X42774301Y-28718172D01*
X42764554Y-28719715D01*
X42543373Y-28772817D01*
X42533988Y-28775866D01*
X42368564Y-28844387D01*
X42357583Y-28853236D01*
X31508500Y-28853236D01*
X31508500Y-24291069D01*
X48854801Y-24291069D01*
X48855171Y-24297890D01*
X48860695Y-24348752D01*
X48864321Y-24364004D01*
X48909476Y-24484454D01*
X48918014Y-24500049D01*
X48994515Y-24602124D01*
X49007076Y-24614685D01*
X49109151Y-24691186D01*
X49124746Y-24699724D01*
X49245194Y-24744878D01*
X49260449Y-24748505D01*
X49311314Y-24754031D01*
X49318128Y-24754400D01*
X51602685Y-24754400D01*
X51617924Y-24749925D01*
X51619129Y-24748535D01*
X51620800Y-24740852D01*
X51620800Y-22006515D01*
X51616325Y-21991276D01*
X51614935Y-21990071D01*
X51607252Y-21988400D01*
X48872916Y-21988400D01*
X48857677Y-21992875D01*
X48856472Y-21994265D01*
X48854801Y-22001948D01*
X48854801Y-24291069D01*
X31508500Y-24291069D01*
X31508500Y-20332117D01*
X34218439Y-20332117D01*
X34236578Y-20716740D01*
X34293492Y-21097562D01*
X34294278Y-21100644D01*
X34294278Y-21100646D01*
X34312328Y-21171457D01*
X34388599Y-21470683D01*
X34520926Y-21832282D01*
X34689117Y-22178658D01*
X34891450Y-22506264D01*
X34893391Y-22508794D01*
X34893392Y-22508795D01*
X35086235Y-22760112D01*
X35125854Y-22811745D01*
X35389929Y-23091975D01*
X35392334Y-23094059D01*
X35392340Y-23094064D01*
X35498173Y-23185739D01*
X35680972Y-23344084D01*
X35996001Y-23565490D01*
X36331792Y-23753927D01*
X36334706Y-23755194D01*
X36334710Y-23755196D01*
X36479283Y-23818058D01*
X36684907Y-23907466D01*
X37051731Y-24024534D01*
X37195153Y-24054758D01*
X37425382Y-24103275D01*
X37425392Y-24103277D01*
X37428507Y-24103933D01*
X37431670Y-24104271D01*
X37431676Y-24104272D01*
X37808211Y-24144513D01*
X37808220Y-24144514D01*
X37811378Y-24144851D01*
X37814564Y-24144868D01*
X37814570Y-24144868D01*
X37991050Y-24145792D01*
X38196424Y-24146867D01*
X38340967Y-24132949D01*
X38576537Y-24110266D01*
X38576542Y-24110265D01*
X38579702Y-24109961D01*
X38582822Y-24109338D01*
X38582826Y-24109337D01*
X38954161Y-24035137D01*
X38954160Y-24035137D01*
X38957289Y-24034512D01*
X38960325Y-24033578D01*
X38960333Y-24033576D01*
X39322276Y-23922227D01*
X39322279Y-23922226D01*
X39325318Y-23921291D01*
X39328246Y-23920054D01*
X39328252Y-23920052D01*
X39487669Y-23852712D01*
X39680021Y-23771459D01*
X39682824Y-23769925D01*
X39682829Y-23769922D01*
X39828246Y-23690308D01*
X40017768Y-23586548D01*
X40335098Y-23368453D01*
X40337537Y-23366385D01*
X40337543Y-23366380D01*
X40626325Y-23121476D01*
X40626333Y-23121468D01*
X40628765Y-23119406D01*
X40630973Y-23117111D01*
X40630981Y-23117104D01*
X40893545Y-22844259D01*
X40893547Y-22844256D01*
X40895760Y-22841957D01*
X40959450Y-22760730D01*
X41131376Y-22541464D01*
X41131379Y-22541459D01*
X41133350Y-22538946D01*
X41339103Y-22213477D01*
X41340523Y-22210628D01*
X41340528Y-22210620D01*
X41509492Y-21871730D01*
X41510912Y-21868882D01*
X41647018Y-21508688D01*
X41652439Y-21488317D01*
X41745206Y-21139669D01*
X41746027Y-21136584D01*
X41751784Y-21100646D01*
X41772664Y-20970285D01*
X48854800Y-20970285D01*
X48859275Y-20985524D01*
X48860665Y-20986729D01*
X48868348Y-20988400D01*
X51602685Y-20988400D01*
X51617924Y-20983925D01*
X51619129Y-20982535D01*
X51620800Y-20974852D01*
X51620800Y-18240516D01*
X51616325Y-18225277D01*
X51614935Y-18224072D01*
X51607252Y-18222401D01*
X49318131Y-18222401D01*
X49311310Y-18222771D01*
X49260448Y-18228295D01*
X49245196Y-18231921D01*
X49124746Y-18277076D01*
X49109151Y-18285614D01*
X49007076Y-18362115D01*
X48994515Y-18374676D01*
X48918014Y-18476751D01*
X48909476Y-18492346D01*
X48864322Y-18612794D01*
X48860695Y-18628049D01*
X48855169Y-18678914D01*
X48854800Y-18685728D01*
X48854800Y-20970285D01*
X41772664Y-20970285D01*
X41794575Y-20833491D01*
X41806926Y-20756379D01*
X41809030Y-20719901D01*
X41828993Y-20373661D01*
X41829091Y-20371966D01*
X41829184Y-20345400D01*
X41828673Y-20335298D01*
X41809864Y-19964015D01*
X41809863Y-19964010D01*
X41809703Y-19960842D01*
X41773780Y-19726082D01*
X41751944Y-19583381D01*
X41751942Y-19583372D01*
X41751460Y-19580221D01*
X41699138Y-19377907D01*
X41655848Y-19210515D01*
X41655845Y-19210507D01*
X41655051Y-19207435D01*
X41651502Y-19197839D01*
X41597451Y-19051721D01*
X41521463Y-18846300D01*
X41473250Y-18747884D01*
X41353465Y-18503372D01*
X41353462Y-18503366D01*
X41352064Y-18500513D01*
X41218301Y-18285614D01*
X41150275Y-18176325D01*
X41150267Y-18176314D01*
X41148588Y-18173616D01*
X41050362Y-18046526D01*
X40915071Y-17871479D01*
X40915066Y-17871474D01*
X40913119Y-17868954D01*
X40648067Y-17589648D01*
X40511797Y-17472437D01*
X40358562Y-17340634D01*
X40358559Y-17340632D01*
X40356147Y-17338557D01*
X40040346Y-17118251D01*
X39703899Y-16930987D01*
X39700979Y-16929729D01*
X39700974Y-16929727D01*
X39353184Y-16779945D01*
X39353174Y-16779941D01*
X39350250Y-16778682D01*
X38983021Y-16662895D01*
X38712272Y-16606826D01*
X38609095Y-16585459D01*
X38609092Y-16585459D01*
X38605970Y-16584812D01*
X38312499Y-16554484D01*
X38226114Y-16545557D01*
X38226111Y-16545557D01*
X38222958Y-16545231D01*
X38219792Y-16545225D01*
X38219783Y-16545225D01*
X38029711Y-16544894D01*
X37837908Y-16544559D01*
X37685769Y-16559744D01*
X37457934Y-16582485D01*
X37457928Y-16582486D01*
X37454761Y-16582802D01*
X37258838Y-16622663D01*
X37080564Y-16658933D01*
X37080560Y-16658934D01*
X37077439Y-16659569D01*
X37074397Y-16660516D01*
X37074391Y-16660518D01*
X36922014Y-16707979D01*
X36709808Y-16774074D01*
X36706880Y-16775323D01*
X36358559Y-16923894D01*
X36358555Y-16923896D01*
X36355629Y-16925144D01*
X36352850Y-16926678D01*
X36352844Y-16926681D01*
X36063081Y-17086639D01*
X36018531Y-17111232D01*
X36015910Y-17113047D01*
X36015905Y-17113050D01*
X35722830Y-17315985D01*
X35701963Y-17330434D01*
X35534089Y-17473812D01*
X35441539Y-17552857D01*
X35409168Y-17580504D01*
X35406968Y-17582806D01*
X35406965Y-17582809D01*
X35330263Y-17663074D01*
X35143143Y-17858884D01*
X35141186Y-17861398D01*
X35141185Y-17861399D01*
X34916017Y-18150640D01*
X34906612Y-18162721D01*
X34904916Y-18165425D01*
X34904913Y-18165429D01*
X34863203Y-18231921D01*
X34701996Y-18488907D01*
X34531391Y-18834100D01*
X34396543Y-19194766D01*
X34298834Y-19567214D01*
X34281702Y-19676614D01*
X34250772Y-19874131D01*
X34239262Y-19947629D01*
X34239091Y-19950791D01*
X34239090Y-19950798D01*
X34231409Y-20092624D01*
X34218439Y-20332117D01*
X31508500Y-20332117D01*
X31508500Y-15634500D01*
X31528502Y-15566379D01*
X31582158Y-15519886D01*
X31634500Y-15508500D01*
X54476259Y-15508500D01*
X54544380Y-15528502D01*
G37*
%TD.AperFunction*%
%TA.AperFunction,Conductor*%
G36*
X89544380Y-15528502D02*
G01*
X89590873Y-15582158D01*
X89600977Y-15652432D01*
X89592944Y-15682047D01*
X89557825Y-15768234D01*
X89555231Y-15774599D01*
X89535229Y-15842720D01*
X89515083Y-15923594D01*
X89514628Y-15928070D01*
X89494841Y-16122651D01*
X89494500Y-16126000D01*
X89494500Y-17956144D01*
X89494526Y-17957053D01*
X89495944Y-18007251D01*
X89496103Y-18012898D01*
X89496906Y-18027102D01*
X89497183Y-18029282D01*
X89497184Y-18029298D01*
X89503685Y-18080544D01*
X89492415Y-18150640D01*
X89445036Y-18203516D01*
X89378687Y-18222400D01*
X87563915Y-18222400D01*
X87548676Y-18226875D01*
X87547471Y-18228265D01*
X87545800Y-18235948D01*
X87545800Y-24736284D01*
X87550275Y-24751523D01*
X87551665Y-24752728D01*
X87559348Y-24754399D01*
X89382113Y-24754399D01*
X89450234Y-24774401D01*
X89496727Y-24828057D01*
X89507466Y-24893147D01*
X89494824Y-25017459D01*
X89494823Y-25017481D01*
X89494500Y-25020656D01*
X89494500Y-25868500D01*
X89474498Y-25936621D01*
X89420842Y-25983114D01*
X89368500Y-25994500D01*
X83131500Y-25994500D01*
X83063379Y-25974498D01*
X83016886Y-25920842D01*
X83005500Y-25868500D01*
X83005500Y-24291069D01*
X83779801Y-24291069D01*
X83780171Y-24297890D01*
X83785695Y-24348752D01*
X83789321Y-24364004D01*
X83834476Y-24484454D01*
X83843014Y-24500049D01*
X83919515Y-24602124D01*
X83932076Y-24614685D01*
X84034151Y-24691186D01*
X84049746Y-24699724D01*
X84170194Y-24744878D01*
X84185449Y-24748505D01*
X84236314Y-24754031D01*
X84243128Y-24754400D01*
X86527685Y-24754400D01*
X86542924Y-24749925D01*
X86544129Y-24748535D01*
X86545800Y-24740852D01*
X86545800Y-22006515D01*
X86541325Y-21991276D01*
X86539935Y-21990071D01*
X86532252Y-21988400D01*
X83797916Y-21988400D01*
X83782677Y-21992875D01*
X83781472Y-21994265D01*
X83779801Y-22001948D01*
X83779801Y-24291069D01*
X83005500Y-24291069D01*
X83005500Y-20970285D01*
X83779800Y-20970285D01*
X83784275Y-20985524D01*
X83785665Y-20986729D01*
X83793348Y-20988400D01*
X86527685Y-20988400D01*
X86542924Y-20983925D01*
X86544129Y-20982535D01*
X86545800Y-20974852D01*
X86545800Y-18240516D01*
X86541325Y-18225277D01*
X86539935Y-18224072D01*
X86532252Y-18222401D01*
X84243131Y-18222401D01*
X84236310Y-18222771D01*
X84185448Y-18228295D01*
X84170196Y-18231921D01*
X84049746Y-18277076D01*
X84034151Y-18285614D01*
X83932076Y-18362115D01*
X83919515Y-18374676D01*
X83843014Y-18476751D01*
X83834476Y-18492346D01*
X83789322Y-18612794D01*
X83785695Y-18628049D01*
X83780169Y-18678914D01*
X83779800Y-18685728D01*
X83779800Y-20970285D01*
X83005500Y-20970285D01*
X83005500Y-16126000D01*
X82982522Y-15912271D01*
X82971136Y-15859929D01*
X82946605Y-15768234D01*
X82944741Y-15763944D01*
X82910311Y-15684721D01*
X82901504Y-15614273D01*
X82932182Y-15550247D01*
X82992606Y-15512970D01*
X83025870Y-15508500D01*
X89476259Y-15508500D01*
X89544380Y-15528502D01*
G37*
%TD.AperFunction*%
%TA.AperFunction,Conductor*%
G36*
X72544380Y-15528502D02*
G01*
X72590873Y-15582158D01*
X72600977Y-15652432D01*
X72592944Y-15682047D01*
X72557825Y-15768234D01*
X72555231Y-15774599D01*
X72535229Y-15842720D01*
X72515083Y-15923594D01*
X72514628Y-15928070D01*
X72494841Y-16122651D01*
X72494500Y-16126000D01*
X72494500Y-18096400D01*
X72474498Y-18164521D01*
X72420842Y-18211014D01*
X72368500Y-18222400D01*
X70418915Y-18222400D01*
X70403676Y-18226875D01*
X70402471Y-18228265D01*
X70400800Y-18235948D01*
X70400800Y-24736284D01*
X70405275Y-24751523D01*
X70406665Y-24752728D01*
X70414348Y-24754399D01*
X72368500Y-24754399D01*
X72436621Y-24774401D01*
X72483114Y-24828057D01*
X72494500Y-24880399D01*
X72494500Y-25868500D01*
X72474498Y-25936621D01*
X72420842Y-25983114D01*
X72368500Y-25994500D01*
X66131500Y-25994500D01*
X66063379Y-25974498D01*
X66016886Y-25920842D01*
X66005500Y-25868500D01*
X66005500Y-24291069D01*
X66634801Y-24291069D01*
X66635171Y-24297890D01*
X66640695Y-24348752D01*
X66644321Y-24364004D01*
X66689476Y-24484454D01*
X66698014Y-24500049D01*
X66774515Y-24602124D01*
X66787076Y-24614685D01*
X66889151Y-24691186D01*
X66904746Y-24699724D01*
X67025194Y-24744878D01*
X67040449Y-24748505D01*
X67091314Y-24754031D01*
X67098128Y-24754400D01*
X69382685Y-24754400D01*
X69397924Y-24749925D01*
X69399129Y-24748535D01*
X69400800Y-24740852D01*
X69400800Y-22006515D01*
X69396325Y-21991276D01*
X69394935Y-21990071D01*
X69387252Y-21988400D01*
X66652916Y-21988400D01*
X66637677Y-21992875D01*
X66636472Y-21994265D01*
X66634801Y-22001948D01*
X66634801Y-24291069D01*
X66005500Y-24291069D01*
X66005500Y-20970285D01*
X66634800Y-20970285D01*
X66639275Y-20985524D01*
X66640665Y-20986729D01*
X66648348Y-20988400D01*
X69382685Y-20988400D01*
X69397924Y-20983925D01*
X69399129Y-20982535D01*
X69400800Y-20974852D01*
X69400800Y-18240516D01*
X69396325Y-18225277D01*
X69394935Y-18224072D01*
X69387252Y-18222401D01*
X67098131Y-18222401D01*
X67091310Y-18222771D01*
X67040448Y-18228295D01*
X67025196Y-18231921D01*
X66904746Y-18277076D01*
X66889151Y-18285614D01*
X66787076Y-18362115D01*
X66774515Y-18374676D01*
X66698014Y-18476751D01*
X66689476Y-18492346D01*
X66644322Y-18612794D01*
X66640695Y-18628049D01*
X66635169Y-18678914D01*
X66634800Y-18685728D01*
X66634800Y-20970285D01*
X66005500Y-20970285D01*
X66005500Y-16126000D01*
X65982522Y-15912271D01*
X65971136Y-15859929D01*
X65946605Y-15768234D01*
X65944741Y-15763944D01*
X65910311Y-15684721D01*
X65901504Y-15614273D01*
X65932182Y-15550247D01*
X65992606Y-15512970D01*
X66025870Y-15508500D01*
X72476259Y-15508500D01*
X72544380Y-15528502D01*
G37*
%TD.AperFunction*%
%TD*%
M02*
